%TF.GenerationSoftware,KiCad,Pcbnew,(5.1.10-1-10_14)*%
%TF.CreationDate,2021-09-19T21:28:42-07:00*%
%TF.ProjectId,umbelt-flex,756d6265-6c74-42d6-966c-65782e6b6963,rev?*%
%TF.SameCoordinates,Original*%
%TF.FileFunction,Copper,L2,Bot*%
%TF.FilePolarity,Positive*%
%FSLAX46Y46*%
G04 Gerber Fmt 4.6, Leading zero omitted, Abs format (unit mm)*
G04 Created by KiCad (PCBNEW (5.1.10-1-10_14)) date 2021-09-19 21:28:42*
%MOMM*%
%LPD*%
G01*
G04 APERTURE LIST*
%TA.AperFunction,SMDPad,CuDef*%
%ADD10R,4.000000X3.000000*%
%TD*%
%TA.AperFunction,ComponentPad*%
%ADD11R,2.600000X0.240000*%
%TD*%
%TA.AperFunction,ViaPad*%
%ADD12C,0.609600*%
%TD*%
%TA.AperFunction,Conductor*%
%ADD13C,0.406400*%
%TD*%
G04 APERTURE END LIST*
D10*
%TO.P,J1,2*%
%TO.N,/OUT-_1*%
X83566000Y-249880000D03*
%TO.P,J1,1*%
%TO.N,/OUT+_1*%
X83566000Y-242880000D03*
%TD*%
D11*
%TO.P,J13,24*%
%TO.N,/OUT-_12*%
X52578000Y-239480000D03*
%TO.P,J13,23*%
%TO.N,/OUT+_12*%
X52578000Y-240080000D03*
%TO.P,J13,22*%
%TO.N,/OUT-_11*%
X52578000Y-240680000D03*
%TO.P,J13,21*%
%TO.N,/OUT+_11*%
X52578000Y-241280000D03*
%TO.P,J13,20*%
%TO.N,/OUT-_10*%
X52578000Y-241880000D03*
%TO.P,J13,19*%
%TO.N,/OUT+_10*%
X52578000Y-242480000D03*
%TO.P,J13,18*%
%TO.N,/OUT-_9*%
X52578000Y-243080000D03*
%TO.P,J13,17*%
%TO.N,/OUT+_9*%
X52578000Y-243680000D03*
%TO.P,J13,16*%
%TO.N,/OUT-_8*%
X52578000Y-244280000D03*
%TO.P,J13,15*%
%TO.N,/OUT+_8*%
X52578000Y-244880000D03*
%TO.P,J13,14*%
%TO.N,/OUT-_7*%
X52578000Y-245480000D03*
%TO.P,J13,13*%
%TO.N,/OUT+_7*%
X52578000Y-246080000D03*
%TO.P,J13,12*%
%TO.N,/OUT-_6*%
X52578000Y-246680000D03*
%TO.P,J13,11*%
%TO.N,/OUT+_6*%
X52578000Y-247280000D03*
%TO.P,J13,10*%
%TO.N,/OUT-_5*%
X52578000Y-247880000D03*
%TO.P,J13,9*%
%TO.N,/OUT+_5*%
X52578000Y-248480000D03*
%TO.P,J13,8*%
%TO.N,/OUT-_4*%
X52578000Y-249080000D03*
%TO.P,J13,7*%
%TO.N,/OUT+_4*%
X52578000Y-249680000D03*
%TO.P,J13,6*%
%TO.N,/OUT-_3*%
X52578000Y-250280000D03*
%TO.P,J13,5*%
%TO.N,/OUT+_3*%
X52578000Y-250880000D03*
%TO.P,J13,4*%
%TO.N,/OUT-_2*%
X52578000Y-251480000D03*
%TO.P,J13,3*%
%TO.N,/OUT+_2*%
X52578000Y-252080000D03*
%TO.P,J13,2*%
%TO.N,/OUT-_1*%
X52578000Y-252680000D03*
%TO.P,J13,1*%
%TO.N,/OUT+_1*%
X52578000Y-253280000D03*
%TD*%
D10*
%TO.P,J12,2*%
%TO.N,/OUT-_12*%
X726440000Y-242880000D03*
%TO.P,J12,1*%
%TO.N,/OUT+_12*%
X726440000Y-249880000D03*
%TD*%
%TO.P,J11,2*%
%TO.N,/OUT-_11*%
X695706000Y-249880000D03*
%TO.P,J11,1*%
%TO.N,/OUT+_11*%
X695706000Y-242880000D03*
%TD*%
%TO.P,J10,2*%
%TO.N,/OUT-_10*%
X634492000Y-249880000D03*
%TO.P,J10,1*%
%TO.N,/OUT+_10*%
X634492000Y-242880000D03*
%TD*%
%TO.P,J9,2*%
%TO.N,/OUT-_9*%
X573278000Y-249880000D03*
%TO.P,J9,1*%
%TO.N,/OUT+_9*%
X573278000Y-242880000D03*
%TD*%
%TO.P,J8,2*%
%TO.N,/OUT-_8*%
X512064000Y-249880000D03*
%TO.P,J8,1*%
%TO.N,/OUT+_8*%
X512064000Y-242880000D03*
%TD*%
%TO.P,J7,2*%
%TO.N,/OUT-_7*%
X450850000Y-249880000D03*
%TO.P,J7,1*%
%TO.N,/OUT+_7*%
X450850000Y-242880000D03*
%TD*%
%TO.P,J6,2*%
%TO.N,/OUT-_6*%
X389636000Y-249880000D03*
%TO.P,J6,1*%
%TO.N,/OUT+_6*%
X389636000Y-242880000D03*
%TD*%
%TO.P,J5,2*%
%TO.N,/OUT-_5*%
X328422000Y-249880000D03*
%TO.P,J5,1*%
%TO.N,/OUT+_5*%
X328422000Y-242880000D03*
%TD*%
%TO.P,J4,2*%
%TO.N,/OUT-_4*%
X267208000Y-249880000D03*
%TO.P,J4,1*%
%TO.N,/OUT+_4*%
X267208000Y-242880000D03*
%TD*%
%TO.P,J3,2*%
%TO.N,/OUT-_3*%
X205994000Y-249880000D03*
%TO.P,J3,1*%
%TO.N,/OUT+_3*%
X205994000Y-242880000D03*
%TD*%
%TO.P,J2,2*%
%TO.N,/OUT-_2*%
X144780000Y-249880000D03*
%TO.P,J2,1*%
%TO.N,/OUT+_2*%
X144780000Y-242880000D03*
%TD*%
D12*
%TO.N,/OUT-_1*%
X81533988Y-252984000D03*
%TO.N,/OUT+_1*%
X80772000Y-253340410D03*
%TO.N,/OUT-_2*%
X141478000Y-251714000D03*
%TO.N,/OUT+_2*%
X139954000Y-252140410D03*
%TO.N,/OUT-_3*%
X202946000Y-250340410D03*
%TO.N,/OUT+_3*%
X201676000Y-250952064D03*
%TO.N,/OUT-_4*%
X264414000Y-249174032D03*
%TO.N,/OUT+_4*%
X263144000Y-249732843D03*
%TO.N,/OUT-_5*%
X325628000Y-248056410D03*
%TO.N,/OUT+_5*%
X324358000Y-248615221D03*
%TO.N,/OUT-_6*%
X388112000Y-246740410D03*
%TO.N,/OUT+_6*%
X386334000Y-247340410D03*
%TO.N,/OUT-_7*%
X447802000Y-245540410D03*
%TO.N,/OUT+_7*%
X446786000Y-246140410D03*
%TO.N,/OUT-_8*%
X507746000Y-244340410D03*
%TO.N,/OUT+_8*%
X509016000Y-244340410D03*
%TO.N,/OUT-_9*%
X568706000Y-243140410D03*
%TO.N,/OUT+_9*%
X569976000Y-243140410D03*
%TO.N,/OUT-_10*%
X630174000Y-241940410D03*
%TO.N,/OUT+_10*%
X631444000Y-242824000D03*
%TO.N,/OUT-_11*%
X691388000Y-240740410D03*
%TO.N,/OUT+_11*%
X692658000Y-241554000D03*
%TO.N,/OUT-_12*%
X726440000Y-240030000D03*
%TO.N,/OUT+_12*%
X723138000Y-240140410D03*
%TD*%
D13*
%TO.N,/OUT-_1*%
X83566000Y-250951988D02*
X81533988Y-252984000D01*
X83566000Y-249880000D02*
X83566000Y-250951988D01*
%TO.N,/OUT+_1*%
X83566000Y-245364000D02*
X80772000Y-248158000D01*
X80772000Y-248158000D02*
X80772000Y-253340410D01*
X83566000Y-242880000D02*
X83566000Y-245364000D01*
%TO.N,/OUT-_2*%
X142946000Y-251714000D02*
X144780000Y-249880000D01*
X141478000Y-251714000D02*
X142946000Y-251714000D01*
%TO.N,/OUT+_2*%
X144780000Y-245110000D02*
X139954000Y-249936000D01*
X139954000Y-249936000D02*
X139954000Y-252140410D01*
X144780000Y-242880000D02*
X144780000Y-245110000D01*
%TO.N,/OUT-_3*%
X205994000Y-249880000D02*
X203406410Y-249880000D01*
X203406410Y-249880000D02*
X202946000Y-250340410D01*
%TO.N,/OUT+_3*%
X201676000Y-249555000D02*
X201676000Y-250952064D01*
X205994000Y-245237000D02*
X201676000Y-249555000D01*
X205994000Y-242880000D02*
X205994000Y-245237000D01*
%TO.N,/OUT-_4*%
X266502032Y-249174032D02*
X264414000Y-249174032D01*
X267208000Y-249880000D02*
X266502032Y-249174032D01*
%TO.N,/OUT+_4*%
X263144000Y-248920000D02*
X263144000Y-249732843D01*
X267208000Y-244856000D02*
X263144000Y-248920000D01*
X267208000Y-242880000D02*
X267208000Y-244856000D01*
%TO.N,/OUT-_5*%
X326598410Y-248056410D02*
X325628000Y-248056410D01*
X328422000Y-249880000D02*
X326598410Y-248056410D01*
%TO.N,/OUT+_5*%
X328422000Y-242880000D02*
X324358000Y-246944000D01*
X324358000Y-246944000D02*
X324358000Y-248615221D01*
%TO.N,/OUT-_6*%
X389636000Y-249880000D02*
X389636000Y-248264410D01*
X389636000Y-248264410D02*
X388112000Y-246740410D01*
%TO.N,/OUT+_6*%
X389636000Y-242880000D02*
X386334000Y-246182000D01*
X386334000Y-246182000D02*
X386334000Y-247340410D01*
%TO.N,/OUT-_7*%
X449248410Y-245540410D02*
X447802000Y-245540410D01*
X450850000Y-247142000D02*
X449248410Y-245540410D01*
X450850000Y-249880000D02*
X450850000Y-247142000D01*
%TO.N,/OUT+_7*%
X446786000Y-244348000D02*
X446786000Y-246140410D01*
X448254000Y-242880000D02*
X446786000Y-244348000D01*
X450850000Y-242880000D02*
X448254000Y-242880000D01*
%TO.N,/OUT-_8*%
X507746000Y-244729000D02*
X507746000Y-244340410D01*
X512064000Y-249047000D02*
X507746000Y-244729000D01*
X512064000Y-249880000D02*
X512064000Y-249047000D01*
%TO.N,/OUT+_8*%
X512064000Y-242880000D02*
X510476410Y-242880000D01*
X510476410Y-242880000D02*
X509016000Y-244340410D01*
%TO.N,/OUT-_9*%
X573278000Y-249880000D02*
X573278000Y-247712410D01*
X573278000Y-247712410D02*
X568706000Y-243140410D01*
%TO.N,/OUT+_9*%
X570236410Y-242880000D02*
X569976000Y-243140410D01*
X573278000Y-242880000D02*
X570236410Y-242880000D01*
%TO.N,/OUT-_10*%
X634492000Y-247904000D02*
X630174000Y-243586000D01*
X630174000Y-243586000D02*
X630174000Y-241940410D01*
X634492000Y-249880000D02*
X634492000Y-247904000D01*
%TO.N,/OUT+_10*%
X634492000Y-242880000D02*
X631500000Y-242880000D01*
X631500000Y-242880000D02*
X631444000Y-242824000D01*
%TO.N,/OUT-_11*%
X691388000Y-243332000D02*
X691388000Y-240740410D01*
X695706000Y-247650000D02*
X691388000Y-243332000D01*
X695706000Y-249880000D02*
X695706000Y-247650000D01*
%TO.N,/OUT+_11*%
X692658000Y-242316000D02*
X692658000Y-241554000D01*
X693222000Y-242880000D02*
X692658000Y-242316000D01*
X695706000Y-242880000D02*
X693222000Y-242880000D01*
%TO.N,/OUT-_12*%
X726440000Y-240030000D02*
X726440000Y-242880000D01*
%TO.N,/OUT+_12*%
X726440000Y-247523000D02*
X723138000Y-244221000D01*
X723138000Y-244221000D02*
X723138000Y-240140410D01*
X726440000Y-249880000D02*
X726440000Y-247523000D01*
%TD*%
M02*
