%TF.GenerationSoftware,KiCad,Pcbnew,(5.1.10-1-10_14)*%
%TF.CreationDate,2021-09-19T21:28:42-07:00*%
%TF.ProjectId,umbelt-flex,756d6265-6c74-42d6-966c-65782e6b6963,rev?*%
%TF.SameCoordinates,Original*%
%TF.FileFunction,Soldermask,Bot*%
%TF.FilePolarity,Negative*%
%FSLAX46Y46*%
G04 Gerber Fmt 4.6, Leading zero omitted, Abs format (unit mm)*
G04 Created by KiCad (PCBNEW (5.1.10-1-10_14)) date 2021-09-19 21:28:42*
%MOMM*%
%LPD*%
G01*
G04 APERTURE LIST*
%ADD10R,4.000000X3.000000*%
%ADD11R,2.600000X0.240000*%
G04 APERTURE END LIST*
D10*
%TO.C,J1*%
X83566000Y-249880000D03*
X83566000Y-242880000D03*
%TD*%
D11*
%TO.C,J13*%
X52578000Y-239480000D03*
X52578000Y-240080000D03*
X52578000Y-240680000D03*
X52578000Y-241280000D03*
X52578000Y-241880000D03*
X52578000Y-242480000D03*
X52578000Y-243080000D03*
X52578000Y-243680000D03*
X52578000Y-244280000D03*
X52578000Y-244880000D03*
X52578000Y-245480000D03*
X52578000Y-246080000D03*
X52578000Y-246680000D03*
X52578000Y-247280000D03*
X52578000Y-247880000D03*
X52578000Y-248480000D03*
X52578000Y-249080000D03*
X52578000Y-249680000D03*
X52578000Y-250280000D03*
X52578000Y-250880000D03*
X52578000Y-251480000D03*
X52578000Y-252080000D03*
X52578000Y-252680000D03*
X52578000Y-253280000D03*
%TD*%
D10*
%TO.C,J12*%
X726440000Y-242880000D03*
X726440000Y-249880000D03*
%TD*%
%TO.C,J11*%
X695706000Y-249880000D03*
X695706000Y-242880000D03*
%TD*%
%TO.C,J10*%
X634492000Y-249880000D03*
X634492000Y-242880000D03*
%TD*%
%TO.C,J9*%
X573278000Y-249880000D03*
X573278000Y-242880000D03*
%TD*%
%TO.C,J8*%
X512064000Y-249880000D03*
X512064000Y-242880000D03*
%TD*%
%TO.C,J7*%
X450850000Y-249880000D03*
X450850000Y-242880000D03*
%TD*%
%TO.C,J6*%
X389636000Y-249880000D03*
X389636000Y-242880000D03*
%TD*%
%TO.C,J5*%
X328422000Y-249880000D03*
X328422000Y-242880000D03*
%TD*%
%TO.C,J4*%
X267208000Y-249880000D03*
X267208000Y-242880000D03*
%TD*%
%TO.C,J3*%
X205994000Y-249880000D03*
X205994000Y-242880000D03*
%TD*%
%TO.C,J2*%
X144780000Y-249880000D03*
X144780000Y-242880000D03*
%TD*%
M02*
