M48
; DRILL file {KiCad (5.1.10-1-10_14)} date Sunday, September 19, 2021 at 09:30:10 PM
; FORMAT={-:-/ absolute / inch / decimal}
; #@! TF.CreationDate,2021-09-19T21:30:10-07:00
; #@! TF.GenerationSoftware,Kicad,Pcbnew,(5.1.10-1-10_14)
; #@! TF.FileFunction,Plated,1,2,PTH
FMAT,2
INCH
T1C0.0059
T2C0.0120
%
G90
G05
T2
X3.18Y-9.974
X3.21Y-9.96
X5.51Y-9.9268
X5.57Y-9.91
X7.94Y-9.88
X7.99Y-9.8559
X10.36Y-9.832
X10.41Y-9.81
X12.77Y-9.788
X12.82Y-9.766
X15.21Y-9.7378
X15.28Y-9.7142
X17.59Y-9.6906
X17.63Y-9.6669
X19.99Y-9.6197
X20.04Y-9.6197
X22.39Y-9.5725
X22.44Y-9.5725
X24.81Y-9.5252
X24.86Y-9.56
X27.22Y-9.478
X27.27Y-9.51
X28.47Y-9.4543
X28.6Y-9.45
T1
G00X2.073Y-9.4283
M15
G01X2.067Y-9.4283
M16
G05
G00X2.073Y-9.452
M15
G01X2.067Y-9.452
M16
G05
G00X2.073Y-9.4756
M15
G01X2.067Y-9.4756
M16
G05
G00X2.073Y-9.4992
M15
G01X2.067Y-9.4992
M16
G05
G00X2.073Y-9.5228
M15
G01X2.067Y-9.5228
M16
G05
G00X2.073Y-9.5465
M15
G01X2.067Y-9.5465
M16
G05
G00X2.073Y-9.5701
M15
G01X2.067Y-9.5701
M16
G05
G00X2.073Y-9.5937
M15
G01X2.067Y-9.5937
M16
G05
G00X2.073Y-9.6173
M15
G01X2.067Y-9.6173
M16
G05
G00X2.073Y-9.6409
M15
G01X2.067Y-9.6409
M16
G05
G00X2.073Y-9.6646
M15
G01X2.067Y-9.6646
M16
G05
G00X2.073Y-9.6882
M15
G01X2.067Y-9.6882
M16
G05
G00X2.073Y-9.7118
M15
G01X2.067Y-9.7118
M16
G05
G00X2.073Y-9.7354
M15
G01X2.067Y-9.7354
M16
G05
G00X2.073Y-9.7591
M15
G01X2.067Y-9.7591
M16
G05
G00X2.073Y-9.7827
M15
G01X2.067Y-9.7827
M16
G05
G00X2.073Y-9.8063
M15
G01X2.067Y-9.8063
M16
G05
G00X2.073Y-9.8299
M15
G01X2.067Y-9.8299
M16
G05
G00X2.073Y-9.8535
M15
G01X2.067Y-9.8535
M16
G05
G00X2.073Y-9.8772
M15
G01X2.067Y-9.8772
M16
G05
G00X2.073Y-9.9008
M15
G01X2.067Y-9.9008
M16
G05
G00X2.073Y-9.9244
M15
G01X2.067Y-9.9244
M16
G05
G00X2.073Y-9.948
M15
G01X2.067Y-9.948
M16
G05
G00X2.073Y-9.9717
M15
G01X2.067Y-9.9717
M16
G05
T0
M30
