%TF.GenerationSoftware,KiCad,Pcbnew,(5.1.10-1-10_14)*%
%TF.CreationDate,2021-09-19T21:28:42-07:00*%
%TF.ProjectId,umbelt-flex,756d6265-6c74-42d6-966c-65782e6b6963,rev?*%
%TF.SameCoordinates,Original*%
%TF.FileFunction,Copper,L1,Top*%
%TF.FilePolarity,Positive*%
%FSLAX46Y46*%
G04 Gerber Fmt 4.6, Leading zero omitted, Abs format (unit mm)*
G04 Created by KiCad (PCBNEW (5.1.10-1-10_14)) date 2021-09-19 21:28:42*
%MOMM*%
%LPD*%
G01*
G04 APERTURE LIST*
%TA.AperFunction,ComponentPad*%
%ADD10R,2.600000X0.240000*%
%TD*%
%TA.AperFunction,ViaPad*%
%ADD11C,0.609600*%
%TD*%
%TA.AperFunction,Conductor*%
%ADD12C,0.406400*%
%TD*%
G04 APERTURE END LIST*
D10*
%TO.P,J13,24*%
%TO.N,/OUT-_12*%
X52578000Y-239480000D03*
%TO.P,J13,23*%
%TO.N,/OUT+_12*%
X52578000Y-240080000D03*
%TO.P,J13,22*%
%TO.N,/OUT-_11*%
X52578000Y-240680000D03*
%TO.P,J13,21*%
%TO.N,/OUT+_11*%
X52578000Y-241280000D03*
%TO.P,J13,20*%
%TO.N,/OUT-_10*%
X52578000Y-241880000D03*
%TO.P,J13,19*%
%TO.N,/OUT+_10*%
X52578000Y-242480000D03*
%TO.P,J13,18*%
%TO.N,/OUT-_9*%
X52578000Y-243080000D03*
%TO.P,J13,17*%
%TO.N,/OUT+_9*%
X52578000Y-243680000D03*
%TO.P,J13,16*%
%TO.N,/OUT-_8*%
X52578000Y-244280000D03*
%TO.P,J13,15*%
%TO.N,/OUT+_8*%
X52578000Y-244880000D03*
%TO.P,J13,14*%
%TO.N,/OUT-_7*%
X52578000Y-245480000D03*
%TO.P,J13,13*%
%TO.N,/OUT+_7*%
X52578000Y-246080000D03*
%TO.P,J13,12*%
%TO.N,/OUT-_6*%
X52578000Y-246680000D03*
%TO.P,J13,11*%
%TO.N,/OUT+_6*%
X52578000Y-247280000D03*
%TO.P,J13,10*%
%TO.N,/OUT-_5*%
X52578000Y-247880000D03*
%TO.P,J13,9*%
%TO.N,/OUT+_5*%
X52578000Y-248480000D03*
%TO.P,J13,8*%
%TO.N,/OUT-_4*%
X52578000Y-249080000D03*
%TO.P,J13,7*%
%TO.N,/OUT+_4*%
X52578000Y-249680000D03*
%TO.P,J13,6*%
%TO.N,/OUT-_3*%
X52578000Y-250280000D03*
%TO.P,J13,5*%
%TO.N,/OUT+_3*%
X52578000Y-250880000D03*
%TO.P,J13,4*%
%TO.N,/OUT-_2*%
X52578000Y-251480000D03*
%TO.P,J13,3*%
%TO.N,/OUT+_2*%
X52578000Y-252080000D03*
%TO.P,J13,2*%
%TO.N,/OUT-_1*%
X52578000Y-252680000D03*
%TO.P,J13,1*%
%TO.N,/OUT+_1*%
X52578000Y-253280000D03*
%TD*%
D11*
%TO.N,/OUT-_1*%
X81533988Y-252984000D03*
%TO.N,/OUT+_1*%
X80772000Y-253340410D03*
%TO.N,/OUT-_2*%
X141478000Y-251714000D03*
%TO.N,/OUT+_2*%
X139954000Y-252140410D03*
%TO.N,/OUT-_3*%
X202946000Y-250340410D03*
%TO.N,/OUT+_3*%
X201676000Y-250952064D03*
%TO.N,/OUT-_4*%
X264414000Y-249174032D03*
%TO.N,/OUT+_4*%
X263144000Y-249732843D03*
%TO.N,/OUT-_5*%
X325628000Y-248056410D03*
%TO.N,/OUT+_5*%
X324358000Y-248615221D03*
%TO.N,/OUT-_6*%
X388112000Y-246740410D03*
%TO.N,/OUT+_6*%
X386334000Y-247340410D03*
%TO.N,/OUT-_7*%
X447802000Y-245540410D03*
%TO.N,/OUT+_7*%
X446786000Y-246140410D03*
%TO.N,/OUT-_8*%
X507746000Y-244340410D03*
%TO.N,/OUT+_8*%
X509016000Y-244340410D03*
%TO.N,/OUT-_9*%
X568706000Y-243140410D03*
%TO.N,/OUT+_9*%
X569976000Y-243140410D03*
%TO.N,/OUT-_10*%
X630174000Y-241940410D03*
%TO.N,/OUT+_10*%
X631444000Y-242824000D03*
%TO.N,/OUT-_11*%
X691388000Y-240740410D03*
%TO.N,/OUT+_11*%
X692658000Y-241554000D03*
%TO.N,/OUT-_12*%
X726440000Y-240030000D03*
%TO.N,/OUT+_12*%
X723138000Y-240140410D03*
%TD*%
D12*
%TO.N,/OUT-_1*%
X81229988Y-252680000D02*
X81533988Y-252984000D01*
X52578000Y-252680000D02*
X81229988Y-252680000D01*
%TO.N,/OUT+_1*%
X80711590Y-253280000D02*
X80772000Y-253340410D01*
X52578000Y-253280000D02*
X80711590Y-253280000D01*
%TO.N,/OUT-_2*%
X141224000Y-251460000D02*
X141478000Y-251714000D01*
X52598000Y-251460000D02*
X141224000Y-251460000D01*
X52578000Y-251480000D02*
X52598000Y-251460000D01*
%TO.N,/OUT+_2*%
X139522948Y-252140410D02*
X139954000Y-252140410D01*
X139462538Y-252080000D02*
X139522948Y-252140410D01*
X52578000Y-252080000D02*
X139462538Y-252080000D01*
%TO.N,/OUT-_3*%
X202885590Y-250280000D02*
X202946000Y-250340410D01*
X52578000Y-250280000D02*
X202885590Y-250280000D01*
%TO.N,/OUT+_3*%
X201603936Y-250880000D02*
X201676000Y-250952064D01*
X52578000Y-250880000D02*
X201603936Y-250880000D01*
%TO.N,/OUT-_4*%
X200853643Y-249072433D02*
X264312401Y-249072433D01*
X264312401Y-249072433D02*
X264414000Y-249174032D01*
X52578000Y-249080000D02*
X200846076Y-249080000D01*
X200846076Y-249080000D02*
X200853643Y-249072433D01*
%TO.N,/OUT+_4*%
X263091157Y-249680000D02*
X263144000Y-249732843D01*
X52578000Y-249680000D02*
X263091157Y-249680000D01*
%TO.N,/OUT-_5*%
X325451590Y-247880000D02*
X325628000Y-248056410D01*
X52578000Y-247880000D02*
X325451590Y-247880000D01*
%TO.N,/OUT+_5*%
X324222779Y-248480000D02*
X324358000Y-248615221D01*
X52578000Y-248480000D02*
X324222779Y-248480000D01*
%TO.N,/OUT-_6*%
X388051590Y-246680000D02*
X388112000Y-246740410D01*
X52578000Y-246680000D02*
X388051590Y-246680000D01*
%TO.N,/OUT+_6*%
X386278410Y-247396000D02*
X386334000Y-247340410D01*
X385826000Y-247396000D02*
X386278410Y-247396000D01*
X385710000Y-247280000D02*
X385826000Y-247396000D01*
X52578000Y-247280000D02*
X385710000Y-247280000D01*
%TO.N,/OUT-_7*%
X447741590Y-245480000D02*
X447802000Y-245540410D01*
X52578000Y-245480000D02*
X447741590Y-245480000D01*
%TO.N,/OUT+_7*%
X446725590Y-246080000D02*
X446786000Y-246140410D01*
X52578000Y-246080000D02*
X446725590Y-246080000D01*
%TO.N,/OUT-_8*%
X54318021Y-244246379D02*
X448088526Y-244246380D01*
X448088526Y-244246380D02*
X448122146Y-244280000D01*
X448122146Y-244280000D02*
X507685590Y-244280000D01*
X54284400Y-244280000D02*
X54318021Y-244246379D01*
X507685590Y-244280000D02*
X507746000Y-244340410D01*
X52578000Y-244280000D02*
X54284400Y-244280000D01*
%TO.N,/OUT+_8*%
X508355598Y-245000812D02*
X509016000Y-244340410D01*
X507429006Y-245000812D02*
X508355598Y-245000812D01*
X507308194Y-244880000D02*
X507429006Y-245000812D01*
X52578000Y-244880000D02*
X507308194Y-244880000D01*
%TO.N,/OUT-_9*%
X52578000Y-243080000D02*
X568645590Y-243080000D01*
X568645590Y-243080000D02*
X568706000Y-243140410D01*
%TO.N,/OUT+_9*%
X569315598Y-243800812D02*
X569976000Y-243140410D01*
X568389006Y-243800812D02*
X569315598Y-243800812D01*
X52578000Y-243680000D02*
X568268194Y-243680000D01*
X568268194Y-243680000D02*
X568389006Y-243800812D01*
%TO.N,/OUT-_10*%
X52578000Y-241880000D02*
X630113590Y-241880000D01*
X630113590Y-241880000D02*
X630174000Y-241940410D01*
%TO.N,/OUT+_10*%
X52578000Y-242480000D02*
X629736194Y-242480000D01*
X629736194Y-242480000D02*
X630080194Y-242824000D01*
X630080194Y-242824000D02*
X631444000Y-242824000D01*
%TO.N,/OUT-_11*%
X691327590Y-240680000D02*
X691388000Y-240740410D01*
X52578000Y-240680000D02*
X691327590Y-240680000D01*
%TO.N,/OUT+_11*%
X690950194Y-241280000D02*
X691224194Y-241554000D01*
X52578000Y-241280000D02*
X690950194Y-241280000D01*
X691224194Y-241554000D02*
X692658000Y-241554000D01*
%TO.N,/OUT-_12*%
X725890000Y-239480000D02*
X726440000Y-240030000D01*
X52578000Y-239480000D02*
X725890000Y-239480000D01*
%TO.N,/OUT+_12*%
X52578000Y-240080000D02*
X723077590Y-240080000D01*
X723077590Y-240080000D02*
X723138000Y-240140410D01*
%TD*%
M02*
