%TF.GenerationSoftware,KiCad,Pcbnew,(5.1.10-1-10_14)*%
%TF.CreationDate,2021-09-19T22:53:24-07:00*%
%TF.ProjectId,umbelt-board,756d6265-6c74-42d6-926f-6172642e6b69,1.0*%
%TF.SameCoordinates,Original*%
%TF.FileFunction,Copper,L4,Bot*%
%TF.FilePolarity,Positive*%
%FSLAX46Y46*%
G04 Gerber Fmt 4.6, Leading zero omitted, Abs format (unit mm)*
G04 Created by KiCad (PCBNEW (5.1.10-1-10_14)) date 2021-09-19 22:53:24*
%MOMM*%
%LPD*%
G01*
G04 APERTURE LIST*
%TA.AperFunction,SMDPad,CuDef*%
%ADD10R,3.000000X0.300000*%
%TD*%
%TA.AperFunction,SMDPad,CuDef*%
%ADD11R,2.510000X1.500000*%
%TD*%
%TA.AperFunction,ComponentPad*%
%ADD12O,1.050000X2.100000*%
%TD*%
%TA.AperFunction,ComponentPad*%
%ADD13O,1.000000X2.000000*%
%TD*%
%TA.AperFunction,ConnectorPad*%
%ADD14C,0.787400*%
%TD*%
%TA.AperFunction,SMDPad,CuDef*%
%ADD15R,4.000000X3.000000*%
%TD*%
%TA.AperFunction,SMDPad,CuDef*%
%ADD16R,1.000000X1.000000*%
%TD*%
%TA.AperFunction,ViaPad*%
%ADD17C,0.609600*%
%TD*%
%TA.AperFunction,ViaPad*%
%ADD18C,1.016000*%
%TD*%
%TA.AperFunction,Conductor*%
%ADD19C,0.254000*%
%TD*%
%TA.AperFunction,Conductor*%
%ADD20C,0.152400*%
%TD*%
%TA.AperFunction,Conductor*%
%ADD21C,0.100000*%
%TD*%
G04 APERTURE END LIST*
D10*
%TO.P,J6,24*%
%TO.N,/motor_drivers/OUT-_12*%
X177800000Y-112480000D03*
%TO.P,J6,23*%
%TO.N,/motor_drivers/OUT+_12*%
X177800000Y-113080000D03*
%TO.P,J6,22*%
%TO.N,/motor_drivers/OUT-_11*%
X177800000Y-113680000D03*
%TO.P,J6,21*%
%TO.N,/motor_drivers/OUT+_11*%
X177800000Y-114280000D03*
%TO.P,J6,20*%
%TO.N,/motor_drivers/OUT-_10*%
X177800000Y-114880000D03*
%TO.P,J6,19*%
%TO.N,/motor_drivers/OUT+_10*%
X177800000Y-115480000D03*
%TO.P,J6,18*%
%TO.N,/motor_drivers/OUT-_9*%
X177800000Y-116080000D03*
%TO.P,J6,17*%
%TO.N,/motor_drivers/OUT+_9*%
X177800000Y-116680000D03*
%TO.P,J6,16*%
%TO.N,/motor_drivers/OUT-_8*%
X177800000Y-117280000D03*
%TO.P,J6,15*%
%TO.N,/motor_drivers/OUT+_8*%
X177800000Y-117880000D03*
%TO.P,J6,14*%
%TO.N,/motor_drivers/OUT-_7*%
X177800000Y-118480000D03*
%TO.P,J6,13*%
%TO.N,/motor_drivers/OUT+_7*%
X177800000Y-119080000D03*
%TO.P,J6,12*%
%TO.N,/motor_drivers/OUT-_6*%
X177800000Y-119680000D03*
%TO.P,J6,11*%
%TO.N,/motor_drivers/OUT+_6*%
X177800000Y-120280000D03*
%TO.P,J6,10*%
%TO.N,/motor_drivers/OUT-_5*%
X177800000Y-120880000D03*
%TO.P,J6,9*%
%TO.N,/motor_drivers/OUT+_5*%
X177800000Y-121480000D03*
%TO.P,J6,8*%
%TO.N,/motor_drivers/OUT-_4*%
X177800000Y-122080000D03*
%TO.P,J6,7*%
%TO.N,/motor_drivers/OUT+_4*%
X177800000Y-122680000D03*
%TO.P,J6,6*%
%TO.N,/motor_drivers/OUT-_3*%
X177800000Y-123280000D03*
%TO.P,J6,5*%
%TO.N,/motor_drivers/OUT+_3*%
X177800000Y-123880000D03*
%TO.P,J6,4*%
%TO.N,/motor_drivers/OUT-_2*%
X177800000Y-124480000D03*
%TO.P,J6,3*%
%TO.N,/motor_drivers/OUT+_2*%
X177800000Y-125080000D03*
%TO.P,J6,2*%
%TO.N,/motor_drivers/OUT-_1*%
X177800000Y-125680000D03*
%TO.P,J6,1*%
%TO.N,/motor_drivers/OUT+_1*%
X177800000Y-126280000D03*
%TD*%
D11*
%TO.P,J2,1*%
%TO.N,+3V3*%
X162560000Y-108458000D03*
%TO.P,J2,3*%
%TO.N,/D0*%
X162560000Y-113538000D03*
%TO.P,J2,5*%
%TO.N,/A0*%
X162560000Y-118618000D03*
%TO.P,J2,2*%
%TO.N,GND*%
X162560000Y-110998000D03*
%TO.P,J2,4*%
%TO.N,/D1*%
X162560000Y-116078000D03*
%TO.P,J2,6*%
%TO.N,/A1*%
X162560000Y-121158000D03*
%TD*%
D12*
%TO.P,J1,S1*%
%TO.N,GND*%
X144016000Y-113400000D03*
X152656000Y-113400000D03*
D13*
X144016000Y-109220000D03*
X152656000Y-109220000D03*
%TD*%
D14*
%TO.P,J4,10*%
%TO.N,/RESET*%
X136398000Y-108585000D03*
%TO.P,J4,9*%
%TO.N,Net-(J4-Pad9)*%
X135128000Y-108585000D03*
%TO.P,J4,8*%
%TO.N,Net-(J4-Pad8)*%
X133858000Y-108585000D03*
%TO.P,J4,7*%
%TO.N,Net-(J4-Pad7)*%
X132588000Y-108585000D03*
%TO.P,J4,6*%
%TO.N,Net-(J4-Pad6)*%
X131318000Y-108585000D03*
%TO.P,J4,5*%
%TO.N,GND*%
X131318000Y-109855000D03*
%TO.P,J4,4*%
%TO.N,/SWCLK*%
X132588000Y-109855000D03*
%TO.P,J4,3*%
%TO.N,GND*%
X133858000Y-109855000D03*
%TO.P,J4,2*%
%TO.N,/SWDIO*%
X135128000Y-109855000D03*
%TO.P,J4,1*%
%TO.N,+3V3*%
X136398000Y-109855000D03*
%TD*%
D15*
%TO.P,J7,2*%
%TO.N,/motor_drivers/OUT-_0*%
X134620000Y-123134000D03*
%TO.P,J7,1*%
%TO.N,/motor_drivers/OUT+_0*%
X134620000Y-116134000D03*
%TD*%
D16*
%TO.P,TP1,1*%
%TO.N,/PDM_DAT*%
X144018000Y-118110000D03*
%TD*%
%TO.P,TP2,1*%
%TO.N,/PDM_CLK*%
X147066000Y-118110000D03*
%TD*%
D17*
%TO.N,+3V3*%
X183121300Y-114300000D03*
X173921326Y-119049712D03*
X153882590Y-126479290D03*
X145796000Y-126390421D03*
D18*
X159345848Y-115316001D03*
D17*
X166624000Y-110490000D03*
X139065000Y-108204000D03*
X144546155Y-123210159D03*
X180727267Y-113531741D03*
X168529965Y-123839385D03*
X179911771Y-121838922D03*
X183121290Y-121680286D03*
X144867010Y-120268979D03*
X164718977Y-119380000D03*
X137610000Y-115150000D03*
X146230000Y-107970000D03*
X161026485Y-123072684D03*
X161029998Y-126060000D03*
X139954000Y-123571000D03*
X175727610Y-115900210D03*
X146744402Y-122982034D03*
X143015853Y-115132543D03*
X168846500Y-126479254D03*
X133521588Y-114082892D03*
X135636000Y-125984000D03*
%TO.N,GND*%
X183121290Y-113383752D03*
X162306000Y-126479280D03*
X147066000Y-126479282D03*
X136906000Y-126479286D03*
X173736000Y-115697000D03*
X171828072Y-118175928D03*
X134112000Y-107442000D03*
X131445000Y-111633000D03*
X145555000Y-116484399D03*
D18*
X159178414Y-113037889D03*
D17*
X154794120Y-126479282D03*
X180723042Y-112598191D03*
X169457281Y-123839385D03*
X180698367Y-122079455D03*
X183121290Y-120867473D03*
X155956000Y-120319790D03*
X149605000Y-117551210D03*
D18*
X165608000Y-115712801D03*
X175006000Y-111125000D03*
D17*
X161792517Y-123799321D03*
X131589995Y-122210005D03*
X141478000Y-122428000D03*
X182753000Y-107569000D03*
X133858000Y-119380000D03*
X132842000Y-118364000D03*
X145922998Y-122301000D03*
X146216978Y-120218156D03*
X148149502Y-123519741D03*
X157988000Y-110998000D03*
X169926000Y-110998000D03*
X157480000Y-115316000D03*
X148082000Y-116840000D03*
X146812000Y-107188000D03*
X164592000Y-109982000D03*
X169926000Y-126479280D03*
X133440579Y-110663379D03*
X159448500Y-120650000D03*
%TO.N,VBUS*%
X150063198Y-111429799D03*
X146621500Y-112712500D03*
%TO.N,/motor_drivers/OUT+_1*%
X144189997Y-125760003D03*
%TO.N,/motor_drivers/OUT+_2*%
X153422445Y-124720445D03*
%TO.N,/motor_drivers/OUT+_3*%
X159920000Y-125690000D03*
X182118000Y-123952002D03*
%TO.N,/motor_drivers/OUT+_4*%
X159258000Y-122428000D03*
%TO.N,/motor_drivers/OUT+_5*%
X167640000Y-126301000D03*
X170548247Y-120526712D03*
%TO.N,/motor_drivers/OUT+_6*%
X169381671Y-119857170D03*
%TO.N,/motor_drivers/OUT+_7*%
X173210400Y-123100718D03*
X174735647Y-119093041D03*
%TO.N,/motor_drivers/OUT+_8*%
X174791961Y-121876789D03*
%TO.N,/motor_drivers/OUT+_9*%
X180340000Y-122809000D03*
%TO.N,/motor_drivers/OUT+_10*%
X183121262Y-122555000D03*
%TO.N,/motor_drivers/OUT+_11*%
X180186639Y-114681929D03*
%TO.N,/motor_drivers/OUT+_12*%
X182943000Y-115570000D03*
%TO.N,/motor_drivers/OUT+_0*%
X132569998Y-125699996D03*
%TO.N,/LED*%
X132075524Y-110995870D03*
X132651500Y-113919000D03*
%TO.N,/A0*%
X138465538Y-122552011D03*
X159766000Y-119207614D03*
%TO.N,/A1*%
X137362115Y-119845141D03*
X160579550Y-120611873D03*
%TO.N,/D0*%
X161036000Y-113284000D03*
X134620000Y-111506000D03*
%TO.N,/D1*%
X162560000Y-115253201D03*
X133966798Y-112357606D03*
%TO.N,/SDA*%
X141478000Y-108077000D03*
X153682859Y-122114997D03*
X165608000Y-110617000D03*
X140500875Y-114897108D03*
X140494979Y-124686219D03*
%TO.N,/SCL*%
X164864579Y-112607497D03*
X139827000Y-109804157D03*
X139476621Y-115225578D03*
X140592548Y-125514058D03*
X154559000Y-122555000D03*
%TO.N,/SWDIO*%
X133731000Y-111506000D03*
%TO.N,/SWCLK*%
X132842000Y-111432752D03*
%TO.N,/RESET*%
X138048987Y-113919000D03*
X154813000Y-112903000D03*
%TO.N,/motor_drivers/OUT-_1*%
X148455972Y-125399374D03*
%TO.N,/motor_drivers/OUT-_2*%
X158403059Y-120615941D03*
%TO.N,/motor_drivers/OUT-_3*%
X163322000Y-126479300D03*
X172984316Y-123941684D03*
%TO.N,/motor_drivers/OUT-_4*%
X167767000Y-119634000D03*
X163539628Y-122673500D03*
%TO.N,/motor_drivers/OUT-_5*%
X171851086Y-120291387D03*
X170738813Y-126479290D03*
%TO.N,/motor_drivers/OUT-_6*%
X169979391Y-119306358D03*
%TO.N,/motor_drivers/OUT-_7*%
X170735441Y-118123856D03*
%TO.N,/motor_drivers/OUT-_8*%
X168959589Y-115731332D03*
%TO.N,/motor_drivers/OUT-_9*%
X180985036Y-120809444D03*
%TO.N,/motor_drivers/OUT-_10*%
X183121282Y-120054662D03*
%TO.N,/motor_drivers/OUT-_11*%
X181356000Y-111379000D03*
%TO.N,/motor_drivers/OUT-_12*%
X183114422Y-112570974D03*
%TO.N,/motor_drivers/OUT-_0*%
X137970077Y-125913365D03*
%TO.N,/MOTOR_PWM_2*%
X143081146Y-120385236D03*
X149961140Y-125701150D03*
%TO.N,/MOTOR_PWM_3*%
X157550000Y-125640000D03*
X140335000Y-118618000D03*
%TO.N,/MOTOR_PWM_4*%
X156770220Y-122910568D03*
X142811500Y-118745000D03*
%TO.N,/MOTOR_PWM_5*%
X164970000Y-125550000D03*
X139763500Y-117856000D03*
%TO.N,/MOTOR_PWM_6*%
X164592000Y-122968282D03*
X142923561Y-116757106D03*
%TO.N,/MOTOR_PWM_7*%
X147955000Y-110871000D03*
X171550029Y-126530090D03*
X139954000Y-116332000D03*
%TO.N,/MOTOR_PWM_8*%
X177559434Y-111357922D03*
X142691199Y-115877703D03*
%TO.N,/MOTOR_PWM_9*%
X140800000Y-113680000D03*
X180340000Y-125857000D03*
%TO.N,/MOTOR_PWM_10*%
X182372000Y-125730000D03*
X139570967Y-111480590D03*
%TO.N,/MOTOR_PWM_11*%
X179958990Y-118491000D03*
X139011657Y-113976097D03*
%TO.N,/MOTOR_PWM_12*%
X181736990Y-118210912D03*
X138689000Y-111506366D03*
%TO.N,/PDM_DAT*%
X144866970Y-119456168D03*
X142694135Y-117823918D03*
%TO.N,/PDM_CLK*%
X146216991Y-119405345D03*
X140365299Y-117196498D03*
%TO.N,/MOTOR_EN_1*%
X138480141Y-123985019D03*
X146955057Y-124404456D03*
%TO.N,/MOTOR_EN_3*%
X140081000Y-122326410D03*
X163380000Y-124240000D03*
%TO.N,/MOTOR_EN_4*%
X139814957Y-120294311D03*
X158783885Y-119343436D03*
%TO.N,/MOTOR_EN_6*%
X135763000Y-120106870D03*
X169395308Y-121197741D03*
%TO.N,/MOTOR_EN_8*%
X168621335Y-117224399D03*
X137947075Y-117820505D03*
%TO.N,/MOTOR_EN_2*%
X137432811Y-122570235D03*
X155531774Y-124294849D03*
X140732611Y-120975068D03*
%TO.N,/MOTOR_EN_5*%
X170434000Y-123952000D03*
X138233942Y-119947455D03*
%TO.N,/MOTOR_EN_7*%
X166370000Y-118364000D03*
X137795000Y-118808500D03*
%TO.N,/QSPI_DATA3*%
X135890000Y-113665000D03*
X137623433Y-111221541D03*
%TO.N,/ACC_IRQ*%
X154583989Y-124184706D03*
X137361411Y-116489174D03*
%TO.N,/QSPI_DATA1*%
X135001000Y-113665000D03*
X137604500Y-107950006D03*
%TO.N,/MOTOR_EN_12*%
X183172063Y-111760210D03*
X131762498Y-114236498D03*
%TO.N,/MOTOR_EN_11*%
X179228687Y-109347000D03*
X132016500Y-115062000D03*
%TO.N,/MOTOR_EN_10*%
X181613492Y-119628105D03*
X132111986Y-116585980D03*
%TO.N,/MOTOR_EN_9*%
X181106659Y-114507493D03*
X131698998Y-115823998D03*
%TO.N,VBAT*%
X173355000Y-113030000D03*
X137541000Y-123952000D03*
%TD*%
D19*
%TO.N,+3V3*%
X166624000Y-112073362D02*
X166624000Y-110490000D01*
X164079161Y-114618201D02*
X166624000Y-112073362D01*
X160043648Y-114618201D02*
X164079161Y-114618201D01*
X159345848Y-115316001D02*
X160043648Y-114618201D01*
X164592000Y-108458000D02*
X162560000Y-108458000D01*
X166624000Y-110490000D02*
X164592000Y-108458000D01*
X162560000Y-108458000D02*
X161991790Y-107889790D01*
X144546155Y-123210159D02*
X140314841Y-123210159D01*
X140314841Y-123210159D02*
X139954000Y-123571000D01*
D20*
X146744402Y-122146371D02*
X146744402Y-122982034D01*
X144867010Y-120268979D02*
X146744402Y-122146371D01*
D19*
X148336000Y-107950000D02*
X146250000Y-107950000D01*
X148620799Y-107665201D02*
X148336000Y-107950000D01*
X161767201Y-107665201D02*
X148620799Y-107665201D01*
X146250000Y-107950000D02*
X146230000Y-107970000D01*
X162560000Y-108458000D02*
X161767201Y-107665201D01*
X133521588Y-113881128D02*
X133521588Y-114082892D01*
X136398000Y-109855000D02*
X136398000Y-111004716D01*
X136398000Y-111004716D02*
X133521588Y-113881128D01*
D20*
%TO.N,GND*%
X131445000Y-109956590D02*
X131343410Y-109855000D01*
X131445000Y-111633000D02*
X131445000Y-109956590D01*
X133440579Y-110272421D02*
X133440579Y-110663379D01*
X133858000Y-109855000D02*
X133440579Y-110272421D01*
D19*
%TO.N,VBUS*%
X148780497Y-112712500D02*
X146621500Y-112712500D01*
X150063198Y-111429799D02*
X148780497Y-112712500D01*
%TO.N,/motor_drivers/OUT+_1*%
X157280768Y-125004999D02*
X156441486Y-125844281D01*
X147551112Y-125750679D02*
X144199321Y-125750679D01*
X147911434Y-126111001D02*
X147551112Y-125750679D01*
X148653249Y-126111001D02*
X147911434Y-126111001D01*
X151044083Y-125844281D02*
X150234801Y-125034999D01*
X165204801Y-124874999D02*
X164362000Y-124874999D01*
X150234801Y-125034999D02*
X149729251Y-125034999D01*
X160544801Y-125374999D02*
X160174801Y-125004999D01*
X165551802Y-125222000D02*
X165204801Y-124874999D01*
X156441486Y-125844281D02*
X151044083Y-125844281D01*
X164362000Y-124874999D02*
X163862000Y-125374999D01*
X144199321Y-125750679D02*
X144189997Y-125760003D01*
X160174801Y-125004999D02*
X157280768Y-125004999D01*
X171178173Y-125222000D02*
X165551802Y-125222000D01*
X177800000Y-126280000D02*
X172236173Y-126280000D01*
X172236173Y-126280000D02*
X171178173Y-125222000D01*
X149729251Y-125034999D02*
X148653249Y-126111001D01*
X163862000Y-125374999D02*
X160544801Y-125374999D01*
%TO.N,/motor_drivers/OUT+_2*%
X177800000Y-125080000D02*
X176046000Y-125080000D01*
X176046000Y-125080000D02*
X175926698Y-125199302D01*
X175926698Y-125199302D02*
X172697302Y-125199302D01*
X161092789Y-124002789D02*
X156782618Y-124002789D01*
X155855548Y-124929859D02*
X153631859Y-124929859D01*
X162960601Y-123603283D02*
X162103884Y-124460000D01*
X165295709Y-123204375D02*
X164896801Y-123603283D01*
X156782618Y-124002789D02*
X155855548Y-124929859D01*
X161550000Y-124460000D02*
X161092789Y-124002789D01*
X164896801Y-123603283D02*
X162960601Y-123603283D01*
X153631859Y-124929859D02*
X153422445Y-124720445D01*
X172697302Y-125199302D02*
X170702375Y-123204375D01*
X170702375Y-123204375D02*
X165295709Y-123204375D01*
X162103884Y-124460000D02*
X161550000Y-124460000D01*
%TO.N,/motor_drivers/OUT+_3*%
X182045998Y-123880000D02*
X182118000Y-123952002D01*
X177800000Y-123880000D02*
X182045998Y-123880000D01*
%TO.N,/motor_drivers/OUT+_4*%
X177800000Y-122680000D02*
X175575147Y-122680000D01*
X173251234Y-122427988D02*
X171219173Y-122427988D01*
X165354001Y-118742829D02*
X165354001Y-118313199D01*
X164578601Y-117537799D02*
X159652399Y-117537799D01*
X174061258Y-122969002D02*
X173563564Y-122471308D01*
X175575147Y-122680000D02*
X175286144Y-122969002D01*
X175286144Y-122969002D02*
X174061258Y-122969002D01*
X157768058Y-120938058D02*
X159258000Y-122428000D01*
X171081138Y-122289953D02*
X168901125Y-122289953D01*
X173563564Y-122471308D02*
X173294554Y-122471308D01*
X168901125Y-122289953D02*
X165354001Y-118742829D01*
X173294554Y-122471308D02*
X173251234Y-122427988D01*
X159652399Y-117537799D02*
X157768058Y-119422140D01*
X171219173Y-122427988D02*
X171081138Y-122289953D01*
X157768058Y-119422140D02*
X157768058Y-120938058D01*
X165354001Y-118313199D02*
X164578601Y-117537799D01*
%TO.N,/motor_drivers/OUT+_5*%
X171546285Y-120926388D02*
X171146609Y-120526712D01*
X174937284Y-121099675D02*
X173862700Y-121099675D01*
X177800000Y-121480000D02*
X175317609Y-121480000D01*
X173819380Y-121056355D02*
X171787319Y-121056355D01*
X175317609Y-121480000D02*
X174937284Y-121099675D01*
X171787319Y-121056355D02*
X171657352Y-120926388D01*
X171146609Y-120526712D02*
X170548247Y-120526712D01*
X173862700Y-121099675D02*
X173819380Y-121056355D01*
X171657352Y-120926388D02*
X171546285Y-120926388D01*
%TO.N,/motor_drivers/OUT+_6*%
X174198144Y-120141933D02*
X172641434Y-120141933D01*
X172155887Y-119656386D02*
X170612049Y-119656386D01*
X170612049Y-119656386D02*
X170373976Y-119894459D01*
X170049447Y-120091213D02*
X169615714Y-120091213D01*
X170373976Y-119894459D02*
X170246201Y-119894459D01*
X170246201Y-119894459D02*
X170049447Y-120091213D01*
X169615714Y-120091213D02*
X169381671Y-119857170D01*
X177705253Y-120185253D02*
X174241464Y-120185253D01*
X177800000Y-120280000D02*
X177705253Y-120185253D01*
X174241464Y-120185253D02*
X174198144Y-120141933D01*
X172641434Y-120141933D02*
X172155887Y-119656386D01*
%TO.N,/motor_drivers/OUT+_7*%
X177800000Y-119080000D02*
X174748688Y-119080000D01*
X174748688Y-119080000D02*
X174735647Y-119093041D01*
%TO.N,/motor_drivers/OUT+_8*%
X171356903Y-121383599D02*
X171467970Y-121383599D01*
X173018327Y-117779788D02*
X172322255Y-117083716D01*
X168692651Y-120138533D02*
X169102542Y-120548424D01*
X169418001Y-118541802D02*
X169418001Y-118922801D01*
X169728345Y-120548424D02*
X169916001Y-120736080D01*
X172322255Y-117083716D02*
X170876087Y-117083716D01*
X177800000Y-117880000D02*
X177699788Y-117779788D01*
X171467970Y-121383599D02*
X171597937Y-121513566D01*
X177699788Y-117779788D02*
X173018327Y-117779788D01*
X169418001Y-118922801D02*
X168692651Y-119648149D01*
X168692651Y-119648149D02*
X168692651Y-120138533D01*
X171597937Y-121513566D02*
X173629998Y-121513566D01*
X173673318Y-121556886D02*
X174472058Y-121556886D01*
X170876087Y-117083716D02*
X169418001Y-118541802D01*
X169102542Y-120548424D02*
X169728345Y-120548424D01*
X169916001Y-120834261D02*
X170392107Y-121310367D01*
X170392107Y-121310367D02*
X171283671Y-121310367D01*
X173629998Y-121513566D02*
X173673318Y-121556886D01*
X174472058Y-121556886D02*
X174791961Y-121876789D01*
X171283671Y-121310367D02*
X171356903Y-121383599D01*
X169916001Y-120736080D02*
X169916001Y-120834261D01*
%TO.N,/motor_drivers/OUT+_9*%
X180923088Y-122809000D02*
X180340000Y-122809000D01*
X179562564Y-116688564D02*
X180594000Y-117720000D01*
X181333368Y-122398720D02*
X180923088Y-122809000D01*
X181003168Y-121444454D02*
X181333368Y-121774654D01*
X180349946Y-121208801D02*
X180585599Y-121444454D01*
X180594000Y-119063605D02*
X180349946Y-119307659D01*
X180594000Y-117720000D02*
X180594000Y-119063605D01*
X177800000Y-116680000D02*
X177808564Y-116688564D01*
X180349946Y-119307659D02*
X180349946Y-121208801D01*
X180585599Y-121444454D02*
X181003168Y-121444454D01*
X181333368Y-121774654D02*
X181333368Y-122398720D01*
X177808564Y-116688564D02*
X179562564Y-116688564D01*
%TO.N,/motor_drivers/OUT+_10*%
X177800000Y-115480000D02*
X179398313Y-115480000D01*
X182403506Y-122268296D02*
X182690210Y-122555000D01*
X179398313Y-115480000D02*
X179692455Y-115774142D01*
X182690210Y-122555000D02*
X183121262Y-122555000D01*
X180570242Y-115774142D02*
X182403506Y-117607406D01*
X179692455Y-115774142D02*
X180570242Y-115774142D01*
X182403506Y-117607406D02*
X182403506Y-122268296D01*
%TO.N,/motor_drivers/OUT+_11*%
X179784710Y-114280000D02*
X180186639Y-114681929D01*
X177800000Y-114280000D02*
X179784710Y-114280000D01*
%TO.N,/motor_drivers/OUT+_12*%
X177800000Y-113080000D02*
X179374787Y-113080000D01*
X179630204Y-112824583D02*
X179630204Y-112104634D01*
X179630204Y-112104634D02*
X180990840Y-110743998D01*
X182079842Y-114706842D02*
X182943000Y-115570000D01*
X182079842Y-111163038D02*
X182079842Y-114706842D01*
X179374787Y-113080000D02*
X179630204Y-112824583D01*
X180990840Y-110743998D02*
X181660802Y-110743998D01*
X181660802Y-110743998D02*
X182079842Y-111163038D01*
%TO.N,/motor_drivers/OUT+_0*%
X134620000Y-115880000D02*
X134620000Y-117634000D01*
X132265199Y-119988801D02*
X132265199Y-125395197D01*
X134620000Y-117634000D02*
X132265199Y-119988801D01*
X132265199Y-125395197D02*
X132569998Y-125699996D01*
D20*
%TO.N,/LED*%
X132075524Y-113343024D02*
X132651500Y-113919000D01*
X132075524Y-110995870D02*
X132075524Y-113343024D01*
%TO.N,/A0*%
X162560000Y-118618000D02*
X160355614Y-118618000D01*
X160355614Y-118618000D02*
X159766000Y-119207614D01*
%TO.N,/A1*%
X162560000Y-121158000D02*
X161125677Y-121158000D01*
X161125677Y-121158000D02*
X160579550Y-120611873D01*
%TO.N,/D0*%
X161290000Y-113538000D02*
X161036000Y-113284000D01*
X162560000Y-113538000D02*
X161290000Y-113538000D01*
%TO.N,/D1*%
X162560000Y-116078000D02*
X162560000Y-115253201D01*
%TO.N,/SDA*%
X141782799Y-113539528D02*
X140500875Y-114821452D01*
X141782799Y-108381799D02*
X141782799Y-113539528D01*
X140500875Y-114821452D02*
X140500875Y-114897108D01*
X141478000Y-108077000D02*
X141782799Y-108381799D01*
X160274000Y-111887000D02*
X160604190Y-112217190D01*
X153682859Y-116827141D02*
X158623000Y-111887000D01*
X160604190Y-112217190D02*
X164007810Y-112217190D01*
X158623000Y-111887000D02*
X160274000Y-111887000D01*
X164007810Y-112217190D02*
X165608000Y-110617000D01*
X153682859Y-122114997D02*
X153682859Y-116827141D01*
X147038186Y-123566244D02*
X145016269Y-123566244D01*
X148489433Y-122114997D02*
X147038186Y-123566244D01*
X153682859Y-122114997D02*
X148489433Y-122114997D01*
X139634467Y-115735099D02*
X139230099Y-116139467D01*
X139359246Y-122073245D02*
X139359246Y-123981538D01*
X140101737Y-115735099D02*
X139634467Y-115735099D01*
X139230099Y-116139467D02*
X139230099Y-121944098D01*
X140063927Y-124686219D02*
X140494979Y-124686219D01*
X145016269Y-123566244D02*
X144783559Y-123798954D01*
X144783559Y-123798954D02*
X141382244Y-123798954D01*
X141382244Y-123798954D02*
X140494979Y-124686219D01*
X140500875Y-115335961D02*
X140101737Y-115735099D01*
X139230099Y-121944098D02*
X139359246Y-122073245D01*
X140500875Y-114897108D02*
X140500875Y-115335961D01*
X139359246Y-123981538D02*
X140063927Y-124686219D01*
%TO.N,/SCL*%
X140131799Y-110108956D02*
X140131799Y-114484549D01*
X139827000Y-109804157D02*
X140131799Y-110108956D01*
X139476621Y-115139727D02*
X139476621Y-115225578D01*
X140131799Y-114484549D02*
X139476621Y-115139727D01*
X140161496Y-125514058D02*
X140592548Y-125514058D01*
X139054439Y-122199505D02*
X139054439Y-124407001D01*
X139054439Y-124407001D02*
X140161496Y-125514058D01*
X139476621Y-115225578D02*
X138925288Y-115776911D01*
X138925288Y-115776911D02*
X138925288Y-122070354D01*
X138925288Y-122070354D02*
X139054439Y-122199505D01*
X144947270Y-124103765D02*
X145179980Y-123871055D01*
X160129488Y-112250488D02*
X158800461Y-112250488D01*
X148429919Y-124103942D02*
X149750270Y-122783591D01*
X158800461Y-112250488D02*
X154559000Y-116491949D01*
X149750270Y-122783591D02*
X154330409Y-122783591D01*
X145179980Y-123871055D02*
X147377665Y-123871055D01*
X164779082Y-112522000D02*
X160401000Y-112522000D01*
X154330409Y-122783591D02*
X154559000Y-122555000D01*
X164864579Y-112607497D02*
X164779082Y-112522000D01*
X160401000Y-112522000D02*
X160129488Y-112250488D01*
X147610552Y-124103942D02*
X148429919Y-124103942D01*
X154559000Y-116491949D02*
X154559000Y-122555000D01*
X140592548Y-125514058D02*
X142002841Y-124103765D01*
X142002841Y-124103765D02*
X144947270Y-124103765D01*
X147377665Y-123871055D02*
X147610552Y-124103942D01*
%TO.N,/SWDIO*%
X133731000Y-111252000D02*
X133731000Y-111506000D01*
X135128000Y-109855000D02*
X133731000Y-111252000D01*
%TO.N,/SWCLK*%
X132842000Y-111088539D02*
X132842000Y-111432752D01*
X132588000Y-109855000D02*
X132588000Y-110834539D01*
X132588000Y-110834539D02*
X132842000Y-111088539D01*
%TO.N,/RESET*%
X146025380Y-109320000D02*
X150798948Y-109320000D01*
X140029185Y-107543599D02*
X144248979Y-107543599D01*
X139649201Y-107923583D02*
X140029185Y-107543599D01*
X150798948Y-109320000D02*
X154381948Y-112903000D01*
X144248979Y-107543599D02*
X146025380Y-109320000D01*
X154381948Y-112903000D02*
X154813000Y-112903000D01*
X139142213Y-107416595D02*
X137009630Y-107416595D01*
X139649201Y-107923583D02*
X139142213Y-107416595D01*
X136398000Y-108028225D02*
X136398000Y-108585000D01*
X137009630Y-107416595D02*
X136398000Y-108028225D01*
X138048987Y-111577801D02*
X138048987Y-113487948D01*
X138048987Y-113487948D02*
X138048987Y-113919000D01*
X139649201Y-107923583D02*
X139649201Y-109168832D01*
X138156834Y-111469954D02*
X138048987Y-111577801D01*
X138156835Y-110661198D02*
X138156834Y-111469954D01*
X139649201Y-109168832D02*
X138156835Y-110661198D01*
D19*
%TO.N,/motor_drivers/OUT-_1*%
X171514001Y-124714000D02*
X165690395Y-124714000D01*
X150424183Y-124577788D02*
X149539868Y-124577788D01*
X157059744Y-124460000D02*
X156132674Y-125387070D01*
X148718282Y-125399374D02*
X148455972Y-125399374D01*
X149539868Y-124577788D02*
X148718282Y-125399374D01*
X164138616Y-124417788D02*
X163638616Y-124917788D01*
X151233465Y-125387070D02*
X150424183Y-124577788D01*
X165394183Y-124417788D02*
X164138616Y-124417788D01*
X156132674Y-125387070D02*
X151233465Y-125387070D01*
X177800000Y-125680000D02*
X172480001Y-125680000D01*
X161285195Y-124917788D02*
X160827407Y-124460000D01*
X172480001Y-125680000D02*
X171514001Y-124714000D01*
X165690395Y-124714000D02*
X165394183Y-124417788D01*
X163638616Y-124917788D02*
X161285195Y-124917788D01*
X160827407Y-124460000D02*
X157059744Y-124460000D01*
%TO.N,/motor_drivers/OUT-_2*%
X159176376Y-119842624D02*
X158403059Y-120615941D01*
X175497988Y-124637788D02*
X172782380Y-124637788D01*
X160973303Y-120027701D02*
X160788226Y-119842624D01*
X167880650Y-122747164D02*
X165161187Y-120027701D01*
X175655776Y-124480000D02*
X175497988Y-124637788D01*
X165161187Y-120027701D02*
X160973303Y-120027701D01*
X160788226Y-119842624D02*
X159176376Y-119842624D01*
X170891756Y-122747164D02*
X167880650Y-122747164D01*
X177800000Y-124480000D02*
X175655776Y-124480000D01*
X172782380Y-124637788D02*
X170891756Y-122747164D01*
%TO.N,/motor_drivers/OUT-_3*%
X174960056Y-123941684D02*
X172984316Y-123941684D01*
X177800000Y-123280000D02*
X175621740Y-123280000D01*
X175621740Y-123280000D02*
X174960056Y-123941684D01*
%TO.N,/motor_drivers/OUT-_4*%
X173752946Y-122014097D02*
X173483936Y-122014097D01*
X171408555Y-121970777D02*
X171270520Y-121832742D01*
X175528554Y-122080000D02*
X175096762Y-122511791D01*
X173440616Y-121970777D02*
X171408555Y-121970777D01*
X174250640Y-122511791D02*
X173752946Y-122014097D01*
X171270520Y-121832742D02*
X169090507Y-121832742D01*
X169090507Y-121832742D02*
X167767000Y-120509235D01*
X167767000Y-120509235D02*
X167767000Y-119634000D01*
X177800000Y-122080000D02*
X175528554Y-122080000D01*
X173483936Y-122014097D02*
X173440616Y-121970777D01*
X175096762Y-122511791D02*
X174250640Y-122511791D01*
%TO.N,/motor_drivers/OUT-_5*%
X174052082Y-120642464D02*
X174008762Y-120599144D01*
X177800000Y-120880000D02*
X176046000Y-120880000D01*
X176046000Y-120880000D02*
X175808464Y-120642464D01*
X175808464Y-120642464D02*
X174052082Y-120642464D01*
X174008762Y-120599144D02*
X172158843Y-120599144D01*
X172158843Y-120599144D02*
X171851086Y-120291387D01*
%TO.N,/motor_drivers/OUT-_6*%
X177800000Y-119680000D02*
X177751958Y-119728042D01*
X170284190Y-119001559D02*
X169979391Y-119306358D01*
X177751958Y-119728042D02*
X174430846Y-119728042D01*
X173043512Y-119684722D02*
X172360349Y-119001559D01*
X174387526Y-119684722D02*
X173043512Y-119684722D01*
X174430846Y-119728042D02*
X174387526Y-119684722D01*
X172360349Y-119001559D02*
X170284190Y-119001559D01*
%TO.N,/motor_drivers/OUT-_7*%
X175172803Y-118480000D02*
X174929801Y-118236998D01*
X174929801Y-118236998D02*
X172828944Y-118236998D01*
X172828944Y-118236998D02*
X172132873Y-117540927D01*
X171318370Y-117540927D02*
X170735441Y-118123856D01*
X177800000Y-118480000D02*
X175172803Y-118480000D01*
X172132873Y-117540927D02*
X171318370Y-117540927D01*
%TO.N,/motor_drivers/OUT-_8*%
X173165132Y-117280000D02*
X171616464Y-115731332D01*
X171616464Y-115731332D02*
X168959589Y-115731332D01*
X177800000Y-117280000D02*
X173165132Y-117280000D01*
%TO.N,/motor_drivers/OUT-_9*%
X177800000Y-116080000D02*
X179351720Y-116080000D01*
X180974999Y-119329199D02*
X180974999Y-120799407D01*
X180974999Y-120799407D02*
X180985036Y-120809444D01*
X179503073Y-116231353D02*
X179751946Y-116231353D01*
X179351720Y-116080000D02*
X179503073Y-116231353D01*
X181101989Y-119202209D02*
X180974999Y-119329199D01*
X181101989Y-117581396D02*
X181101989Y-119202209D01*
X179751946Y-116231353D02*
X181101989Y-117581396D01*
%TO.N,/motor_drivers/OUT-_10*%
X180759624Y-115316931D02*
X183121282Y-117678589D01*
X179444906Y-114880000D02*
X179881837Y-115316931D01*
X177800000Y-114880000D02*
X179444906Y-114880000D01*
X179881837Y-115316931D02*
X180759624Y-115316931D01*
X183121282Y-117678589D02*
X183121282Y-120054662D01*
%TO.N,/motor_drivers/OUT-_11*%
X179554000Y-113680000D02*
X180088041Y-113145959D01*
X177800000Y-113680000D02*
X179554000Y-113680000D01*
X180088041Y-112293390D02*
X181002431Y-111379000D01*
X181002431Y-111379000D02*
X181356000Y-111379000D01*
X180088041Y-113145959D02*
X180088041Y-112293390D01*
%TO.N,/motor_drivers/OUT-_12*%
X181850184Y-110286787D02*
X182537053Y-110973656D01*
X179993213Y-110286787D02*
X181850184Y-110286787D01*
X182683370Y-112570974D02*
X183114422Y-112570974D01*
X177800000Y-112480000D02*
X179993213Y-110286787D01*
X182537053Y-112424657D02*
X182683370Y-112570974D01*
X182537053Y-110973656D02*
X182537053Y-112424657D01*
%TO.N,/motor_drivers/OUT-_0*%
X137970077Y-125913365D02*
X134936712Y-122880000D01*
X134936712Y-122880000D02*
X134620000Y-122880000D01*
D20*
%TO.N,/MOTOR_PWM_7*%
X147955000Y-110871000D02*
X144882393Y-110871000D01*
X141034277Y-114719116D02*
X141034277Y-115251723D01*
X144882393Y-110871000D02*
X141034277Y-114719116D01*
X141034277Y-115251723D02*
X139954000Y-116332000D01*
%TO.N,/PDM_DAT*%
X144497608Y-119456168D02*
X144866970Y-119456168D01*
X144497608Y-118589608D02*
X144018000Y-118110000D01*
X144497608Y-119456168D02*
X144497608Y-118589608D01*
X144018000Y-118110000D02*
X142980217Y-118110000D01*
X142980217Y-118110000D02*
X142694135Y-117823918D01*
%TO.N,/PDM_CLK*%
X147066000Y-118556336D02*
X146216991Y-119405345D01*
X147066000Y-118110000D02*
X147066000Y-118556336D01*
X140796351Y-117196498D02*
X140365299Y-117196498D01*
X147066000Y-117457600D02*
X146852573Y-117244173D01*
X146852573Y-117244173D02*
X143225929Y-117244173D01*
X147066000Y-118110000D02*
X147066000Y-117457600D01*
X140890360Y-117290507D02*
X140796351Y-117196498D01*
X143179595Y-117290507D02*
X140890360Y-117290507D01*
X143225929Y-117244173D02*
X143179595Y-117290507D01*
%TO.N,/MOTOR_EN_1*%
X138480141Y-123985019D02*
X138480141Y-124416071D01*
X138480141Y-124416071D02*
X140111538Y-126047468D01*
X140851832Y-126047468D02*
X142490724Y-124408576D01*
X146950937Y-124408576D02*
X146955057Y-124404456D01*
X142490724Y-124408576D02*
X146950937Y-124408576D01*
X140111538Y-126047468D02*
X140851832Y-126047468D01*
%TO.N,/QSPI_DATA3*%
X135890000Y-113665000D02*
X137623433Y-111931567D01*
X137623433Y-111931567D02*
X137623433Y-111221541D01*
%TO.N,/ACC_IRQ*%
X137056612Y-119265454D02*
X137056612Y-116793973D01*
X149662998Y-123879907D02*
X148727741Y-124815164D01*
X144526418Y-125119798D02*
X142786291Y-125119798D01*
X137056612Y-116793973D02*
X137361411Y-116489174D01*
X142786291Y-125119798D02*
X141147399Y-126758690D01*
X136828714Y-120101174D02*
X136828714Y-119493352D01*
X144750888Y-125344268D02*
X144526418Y-125119798D01*
X137440417Y-124536201D02*
X137260583Y-124536201D01*
X139662906Y-126758690D02*
X137440417Y-124536201D01*
X141147399Y-126758690D02*
X139662906Y-126758690D01*
X136899401Y-124175019D02*
X136899401Y-120171861D01*
X154583989Y-124184706D02*
X154279190Y-123879907D01*
X137260583Y-124536201D02*
X136899401Y-124175019D01*
X154279190Y-123879907D02*
X149662998Y-123879907D01*
X147391369Y-125344268D02*
X144750888Y-125344268D01*
X148727741Y-124815164D02*
X147920473Y-124815164D01*
X136899401Y-120171861D02*
X136828714Y-120101174D01*
X147920473Y-124815164D02*
X147391369Y-125344268D01*
X136828714Y-119493352D02*
X137056612Y-119265454D01*
%TO.N,/QSPI_DATA1*%
X138391901Y-108737407D02*
X137604500Y-107950006D01*
X135001000Y-113665000D02*
X135001000Y-113001584D01*
X135001000Y-113001584D02*
X138391901Y-109610683D01*
X138391901Y-109610683D02*
X138391901Y-108737407D01*
%TO.N,VBAT*%
X154278583Y-123202701D02*
X154215084Y-123139202D01*
X157213299Y-119290083D02*
X157213299Y-120980201D01*
X154990799Y-123202701D02*
X154278583Y-123202701D01*
X142638022Y-124764187D02*
X140999130Y-126403079D01*
X147764578Y-124459553D02*
X147235474Y-124988657D01*
X173355000Y-113030000D02*
X169672000Y-113030000D01*
X139815027Y-126403079D02*
X137541000Y-124129052D01*
X140999130Y-126403079D02*
X139815027Y-126403079D01*
X144673716Y-124764187D02*
X142638022Y-124764187D01*
X165594599Y-117107401D02*
X159395981Y-117107401D01*
X169672000Y-113030000D02*
X165594599Y-117107401D01*
X147235474Y-124988657D02*
X144898186Y-124988657D01*
X149900794Y-123139202D02*
X148580443Y-124459553D01*
X154215084Y-123139202D02*
X149900794Y-123139202D01*
X144898186Y-124988657D02*
X144673716Y-124764187D01*
X159395981Y-117107401D02*
X157213299Y-119290083D01*
X148580443Y-124459553D02*
X147764578Y-124459553D01*
X137541000Y-124129052D02*
X137541000Y-123952000D01*
X157213299Y-120980201D02*
X154990799Y-123202701D01*
%TD*%
%TO.N,GND*%
X164385800Y-125492461D02*
X164385800Y-125607539D01*
X164408250Y-125720405D01*
X164452288Y-125826723D01*
X164516222Y-125922406D01*
X164597594Y-126003778D01*
X164693277Y-126067712D01*
X164799595Y-126111750D01*
X164912461Y-126134200D01*
X165027539Y-126134200D01*
X165140405Y-126111750D01*
X165246723Y-126067712D01*
X165342406Y-126003778D01*
X165423778Y-125922406D01*
X165487712Y-125826723D01*
X165531750Y-125720405D01*
X165549701Y-125630158D01*
X165551802Y-125630365D01*
X165571755Y-125628400D01*
X171009837Y-125628400D01*
X171358519Y-125977082D01*
X171273306Y-126012378D01*
X171177623Y-126076312D01*
X171169821Y-126084114D01*
X171111219Y-126025512D01*
X171015536Y-125961578D01*
X170909218Y-125917540D01*
X170796352Y-125895090D01*
X170681274Y-125895090D01*
X170568408Y-125917540D01*
X170462090Y-125961578D01*
X170366407Y-126025512D01*
X170285035Y-126106884D01*
X170221101Y-126202567D01*
X170177063Y-126308885D01*
X170154613Y-126421751D01*
X170154613Y-126536829D01*
X170177063Y-126649695D01*
X170221101Y-126756013D01*
X170222896Y-126758700D01*
X169362393Y-126758700D01*
X169364212Y-126755977D01*
X169408250Y-126649659D01*
X169430700Y-126536793D01*
X169430700Y-126421715D01*
X169408250Y-126308849D01*
X169364212Y-126202531D01*
X169300278Y-126106848D01*
X169218906Y-126025476D01*
X169123223Y-125961542D01*
X169016905Y-125917504D01*
X168904039Y-125895054D01*
X168788961Y-125895054D01*
X168676095Y-125917504D01*
X168569777Y-125961542D01*
X168474094Y-126025476D01*
X168392722Y-126106848D01*
X168328788Y-126202531D01*
X168284750Y-126308849D01*
X168262300Y-126421715D01*
X168262300Y-126536793D01*
X168284750Y-126649659D01*
X168328788Y-126755977D01*
X168330607Y-126758700D01*
X168006536Y-126758700D01*
X168012406Y-126754778D01*
X168093778Y-126673406D01*
X168157712Y-126577723D01*
X168201750Y-126471405D01*
X168224200Y-126358539D01*
X168224200Y-126243461D01*
X168201750Y-126130595D01*
X168157712Y-126024277D01*
X168093778Y-125928594D01*
X168012406Y-125847222D01*
X167916723Y-125783288D01*
X167810405Y-125739250D01*
X167697539Y-125716800D01*
X167582461Y-125716800D01*
X167469595Y-125739250D01*
X167363277Y-125783288D01*
X167267594Y-125847222D01*
X167186222Y-125928594D01*
X167122288Y-126024277D01*
X167078250Y-126130595D01*
X167055800Y-126243461D01*
X167055800Y-126358539D01*
X167078250Y-126471405D01*
X167122288Y-126577723D01*
X167186222Y-126673406D01*
X167267594Y-126754778D01*
X167273464Y-126758700D01*
X163837923Y-126758700D01*
X163839712Y-126756023D01*
X163883750Y-126649705D01*
X163906200Y-126536839D01*
X163906200Y-126421761D01*
X163883750Y-126308895D01*
X163839712Y-126202577D01*
X163775778Y-126106894D01*
X163694406Y-126025522D01*
X163598723Y-125961588D01*
X163492405Y-125917550D01*
X163379539Y-125895100D01*
X163264461Y-125895100D01*
X163151595Y-125917550D01*
X163045277Y-125961588D01*
X162949594Y-126025522D01*
X162868222Y-126106894D01*
X162804288Y-126202577D01*
X162760250Y-126308895D01*
X162737800Y-126421761D01*
X162737800Y-126536839D01*
X162760250Y-126649705D01*
X162804288Y-126756023D01*
X162806077Y-126758700D01*
X154398507Y-126758700D01*
X154400302Y-126756013D01*
X154444340Y-126649695D01*
X154466790Y-126536829D01*
X154466790Y-126421751D01*
X154444340Y-126308885D01*
X154420231Y-126250681D01*
X156421533Y-126250681D01*
X156441486Y-126252646D01*
X156461439Y-126250681D01*
X156461446Y-126250681D01*
X156521154Y-126244800D01*
X156597761Y-126221562D01*
X156668362Y-126183825D01*
X156730244Y-126133039D01*
X156742968Y-126117535D01*
X157006365Y-125854138D01*
X157032288Y-125916723D01*
X157096222Y-126012406D01*
X157177594Y-126093778D01*
X157273277Y-126157712D01*
X157379595Y-126201750D01*
X157492461Y-126224200D01*
X157607539Y-126224200D01*
X157720405Y-126201750D01*
X157826723Y-126157712D01*
X157922406Y-126093778D01*
X158003778Y-126012406D01*
X158067712Y-125916723D01*
X158111750Y-125810405D01*
X158134200Y-125697539D01*
X158134200Y-125582461D01*
X158111750Y-125469595D01*
X158087645Y-125411399D01*
X159403543Y-125411399D01*
X159402288Y-125413277D01*
X159358250Y-125519595D01*
X159335800Y-125632461D01*
X159335800Y-125747539D01*
X159358250Y-125860405D01*
X159402288Y-125966723D01*
X159466222Y-126062406D01*
X159547594Y-126143778D01*
X159643277Y-126207712D01*
X159749595Y-126251750D01*
X159862461Y-126274200D01*
X159977539Y-126274200D01*
X160090405Y-126251750D01*
X160196723Y-126207712D01*
X160292406Y-126143778D01*
X160373778Y-126062406D01*
X160437712Y-125966723D01*
X160466944Y-125896150D01*
X160445798Y-126002461D01*
X160445798Y-126117539D01*
X160468248Y-126230405D01*
X160512286Y-126336723D01*
X160576220Y-126432406D01*
X160657592Y-126513778D01*
X160753275Y-126577712D01*
X160859593Y-126621750D01*
X160972459Y-126644200D01*
X161087537Y-126644200D01*
X161200403Y-126621750D01*
X161306721Y-126577712D01*
X161402404Y-126513778D01*
X161483776Y-126432406D01*
X161547710Y-126336723D01*
X161591748Y-126230405D01*
X161614198Y-126117539D01*
X161614198Y-126002461D01*
X161591748Y-125889595D01*
X161547710Y-125783277D01*
X161546455Y-125781399D01*
X163842047Y-125781399D01*
X163862000Y-125783364D01*
X163881953Y-125781399D01*
X163881960Y-125781399D01*
X163941668Y-125775518D01*
X164018275Y-125752280D01*
X164088876Y-125714543D01*
X164150758Y-125663757D01*
X164163482Y-125648253D01*
X164402318Y-125409417D01*
X164385800Y-125492461D01*
%TA.AperFunction,Conductor*%
D21*
G36*
X164385800Y-125492461D02*
G01*
X164385800Y-125607539D01*
X164408250Y-125720405D01*
X164452288Y-125826723D01*
X164516222Y-125922406D01*
X164597594Y-126003778D01*
X164693277Y-126067712D01*
X164799595Y-126111750D01*
X164912461Y-126134200D01*
X165027539Y-126134200D01*
X165140405Y-126111750D01*
X165246723Y-126067712D01*
X165342406Y-126003778D01*
X165423778Y-125922406D01*
X165487712Y-125826723D01*
X165531750Y-125720405D01*
X165549701Y-125630158D01*
X165551802Y-125630365D01*
X165571755Y-125628400D01*
X171009837Y-125628400D01*
X171358519Y-125977082D01*
X171273306Y-126012378D01*
X171177623Y-126076312D01*
X171169821Y-126084114D01*
X171111219Y-126025512D01*
X171015536Y-125961578D01*
X170909218Y-125917540D01*
X170796352Y-125895090D01*
X170681274Y-125895090D01*
X170568408Y-125917540D01*
X170462090Y-125961578D01*
X170366407Y-126025512D01*
X170285035Y-126106884D01*
X170221101Y-126202567D01*
X170177063Y-126308885D01*
X170154613Y-126421751D01*
X170154613Y-126536829D01*
X170177063Y-126649695D01*
X170221101Y-126756013D01*
X170222896Y-126758700D01*
X169362393Y-126758700D01*
X169364212Y-126755977D01*
X169408250Y-126649659D01*
X169430700Y-126536793D01*
X169430700Y-126421715D01*
X169408250Y-126308849D01*
X169364212Y-126202531D01*
X169300278Y-126106848D01*
X169218906Y-126025476D01*
X169123223Y-125961542D01*
X169016905Y-125917504D01*
X168904039Y-125895054D01*
X168788961Y-125895054D01*
X168676095Y-125917504D01*
X168569777Y-125961542D01*
X168474094Y-126025476D01*
X168392722Y-126106848D01*
X168328788Y-126202531D01*
X168284750Y-126308849D01*
X168262300Y-126421715D01*
X168262300Y-126536793D01*
X168284750Y-126649659D01*
X168328788Y-126755977D01*
X168330607Y-126758700D01*
X168006536Y-126758700D01*
X168012406Y-126754778D01*
X168093778Y-126673406D01*
X168157712Y-126577723D01*
X168201750Y-126471405D01*
X168224200Y-126358539D01*
X168224200Y-126243461D01*
X168201750Y-126130595D01*
X168157712Y-126024277D01*
X168093778Y-125928594D01*
X168012406Y-125847222D01*
X167916723Y-125783288D01*
X167810405Y-125739250D01*
X167697539Y-125716800D01*
X167582461Y-125716800D01*
X167469595Y-125739250D01*
X167363277Y-125783288D01*
X167267594Y-125847222D01*
X167186222Y-125928594D01*
X167122288Y-126024277D01*
X167078250Y-126130595D01*
X167055800Y-126243461D01*
X167055800Y-126358539D01*
X167078250Y-126471405D01*
X167122288Y-126577723D01*
X167186222Y-126673406D01*
X167267594Y-126754778D01*
X167273464Y-126758700D01*
X163837923Y-126758700D01*
X163839712Y-126756023D01*
X163883750Y-126649705D01*
X163906200Y-126536839D01*
X163906200Y-126421761D01*
X163883750Y-126308895D01*
X163839712Y-126202577D01*
X163775778Y-126106894D01*
X163694406Y-126025522D01*
X163598723Y-125961588D01*
X163492405Y-125917550D01*
X163379539Y-125895100D01*
X163264461Y-125895100D01*
X163151595Y-125917550D01*
X163045277Y-125961588D01*
X162949594Y-126025522D01*
X162868222Y-126106894D01*
X162804288Y-126202577D01*
X162760250Y-126308895D01*
X162737800Y-126421761D01*
X162737800Y-126536839D01*
X162760250Y-126649705D01*
X162804288Y-126756023D01*
X162806077Y-126758700D01*
X154398507Y-126758700D01*
X154400302Y-126756013D01*
X154444340Y-126649695D01*
X154466790Y-126536829D01*
X154466790Y-126421751D01*
X154444340Y-126308885D01*
X154420231Y-126250681D01*
X156421533Y-126250681D01*
X156441486Y-126252646D01*
X156461439Y-126250681D01*
X156461446Y-126250681D01*
X156521154Y-126244800D01*
X156597761Y-126221562D01*
X156668362Y-126183825D01*
X156730244Y-126133039D01*
X156742968Y-126117535D01*
X157006365Y-125854138D01*
X157032288Y-125916723D01*
X157096222Y-126012406D01*
X157177594Y-126093778D01*
X157273277Y-126157712D01*
X157379595Y-126201750D01*
X157492461Y-126224200D01*
X157607539Y-126224200D01*
X157720405Y-126201750D01*
X157826723Y-126157712D01*
X157922406Y-126093778D01*
X158003778Y-126012406D01*
X158067712Y-125916723D01*
X158111750Y-125810405D01*
X158134200Y-125697539D01*
X158134200Y-125582461D01*
X158111750Y-125469595D01*
X158087645Y-125411399D01*
X159403543Y-125411399D01*
X159402288Y-125413277D01*
X159358250Y-125519595D01*
X159335800Y-125632461D01*
X159335800Y-125747539D01*
X159358250Y-125860405D01*
X159402288Y-125966723D01*
X159466222Y-126062406D01*
X159547594Y-126143778D01*
X159643277Y-126207712D01*
X159749595Y-126251750D01*
X159862461Y-126274200D01*
X159977539Y-126274200D01*
X160090405Y-126251750D01*
X160196723Y-126207712D01*
X160292406Y-126143778D01*
X160373778Y-126062406D01*
X160437712Y-125966723D01*
X160466944Y-125896150D01*
X160445798Y-126002461D01*
X160445798Y-126117539D01*
X160468248Y-126230405D01*
X160512286Y-126336723D01*
X160576220Y-126432406D01*
X160657592Y-126513778D01*
X160753275Y-126577712D01*
X160859593Y-126621750D01*
X160972459Y-126644200D01*
X161087537Y-126644200D01*
X161200403Y-126621750D01*
X161306721Y-126577712D01*
X161402404Y-126513778D01*
X161483776Y-126432406D01*
X161547710Y-126336723D01*
X161591748Y-126230405D01*
X161614198Y-126117539D01*
X161614198Y-126002461D01*
X161591748Y-125889595D01*
X161547710Y-125783277D01*
X161546455Y-125781399D01*
X163842047Y-125781399D01*
X163862000Y-125783364D01*
X163881953Y-125781399D01*
X163881960Y-125781399D01*
X163941668Y-125775518D01*
X164018275Y-125752280D01*
X164088876Y-125714543D01*
X164150758Y-125663757D01*
X164163482Y-125648253D01*
X164402318Y-125409417D01*
X164385800Y-125492461D01*
G37*
%TD.AperFunction*%
D20*
X150742604Y-126117539D02*
X150755325Y-126133039D01*
X150770823Y-126145758D01*
X150770828Y-126145763D01*
X150790276Y-126161723D01*
X150817207Y-126183825D01*
X150866484Y-126210164D01*
X150887808Y-126221562D01*
X150964414Y-126244800D01*
X150971687Y-126245516D01*
X151024123Y-126250681D01*
X151024130Y-126250681D01*
X151044083Y-126252646D01*
X151064036Y-126250681D01*
X153344949Y-126250681D01*
X153320840Y-126308885D01*
X153298390Y-126421751D01*
X153298390Y-126536829D01*
X153320840Y-126649695D01*
X153364878Y-126756013D01*
X153366673Y-126758700D01*
X146252536Y-126758700D01*
X146313712Y-126667144D01*
X146357750Y-126560826D01*
X146380200Y-126447960D01*
X146380200Y-126332882D01*
X146357750Y-126220016D01*
X146331681Y-126157079D01*
X147382776Y-126157079D01*
X147609952Y-126384255D01*
X147622676Y-126399759D01*
X147684558Y-126450545D01*
X147755159Y-126488282D01*
X147799433Y-126501712D01*
X147831765Y-126511520D01*
X147839769Y-126512308D01*
X147891474Y-126517401D01*
X147891480Y-126517401D01*
X147911433Y-126519366D01*
X147931386Y-126517401D01*
X148633296Y-126517401D01*
X148653249Y-126519366D01*
X148673202Y-126517401D01*
X148673209Y-126517401D01*
X148732917Y-126511520D01*
X148809524Y-126488282D01*
X148880125Y-126450545D01*
X148942007Y-126399759D01*
X148954731Y-126384255D01*
X149419319Y-125919668D01*
X149443428Y-125977873D01*
X149507362Y-126073556D01*
X149588734Y-126154928D01*
X149684417Y-126218862D01*
X149790735Y-126262900D01*
X149903601Y-126285350D01*
X150018679Y-126285350D01*
X150131545Y-126262900D01*
X150237863Y-126218862D01*
X150333546Y-126154928D01*
X150414918Y-126073556D01*
X150478852Y-125977873D01*
X150515196Y-125890131D01*
X150742604Y-126117539D01*
%TA.AperFunction,Conductor*%
D21*
G36*
X150742604Y-126117539D02*
G01*
X150755325Y-126133039D01*
X150770823Y-126145758D01*
X150770828Y-126145763D01*
X150790276Y-126161723D01*
X150817207Y-126183825D01*
X150866484Y-126210164D01*
X150887808Y-126221562D01*
X150964414Y-126244800D01*
X150971687Y-126245516D01*
X151024123Y-126250681D01*
X151024130Y-126250681D01*
X151044083Y-126252646D01*
X151064036Y-126250681D01*
X153344949Y-126250681D01*
X153320840Y-126308885D01*
X153298390Y-126421751D01*
X153298390Y-126536829D01*
X153320840Y-126649695D01*
X153364878Y-126756013D01*
X153366673Y-126758700D01*
X146252536Y-126758700D01*
X146313712Y-126667144D01*
X146357750Y-126560826D01*
X146380200Y-126447960D01*
X146380200Y-126332882D01*
X146357750Y-126220016D01*
X146331681Y-126157079D01*
X147382776Y-126157079D01*
X147609952Y-126384255D01*
X147622676Y-126399759D01*
X147684558Y-126450545D01*
X147755159Y-126488282D01*
X147799433Y-126501712D01*
X147831765Y-126511520D01*
X147839769Y-126512308D01*
X147891474Y-126517401D01*
X147891480Y-126517401D01*
X147911433Y-126519366D01*
X147931386Y-126517401D01*
X148633296Y-126517401D01*
X148653249Y-126519366D01*
X148673202Y-126517401D01*
X148673209Y-126517401D01*
X148732917Y-126511520D01*
X148809524Y-126488282D01*
X148880125Y-126450545D01*
X148942007Y-126399759D01*
X148954731Y-126384255D01*
X149419319Y-125919668D01*
X149443428Y-125977873D01*
X149507362Y-126073556D01*
X149588734Y-126154928D01*
X149684417Y-126218862D01*
X149790735Y-126262900D01*
X149903601Y-126285350D01*
X150018679Y-126285350D01*
X150131545Y-126262900D01*
X150237863Y-126218862D01*
X150333546Y-126154928D01*
X150414918Y-126073556D01*
X150478852Y-125977873D01*
X150515196Y-125890131D01*
X150742604Y-126117539D01*
G37*
%TD.AperFunction*%
D20*
X131991945Y-119687319D02*
X131976441Y-119700043D01*
X131925655Y-119761926D01*
X131902950Y-119804405D01*
X131887918Y-119832527D01*
X131864680Y-119909133D01*
X131863892Y-119917137D01*
X131858799Y-119968842D01*
X131858799Y-119968848D01*
X131856834Y-119988801D01*
X131858799Y-120008754D01*
X131858800Y-125375234D01*
X131856834Y-125395197D01*
X131864680Y-125474865D01*
X131887918Y-125551471D01*
X131897704Y-125569779D01*
X131925656Y-125622073D01*
X131937613Y-125636642D01*
X131963717Y-125668451D01*
X131963723Y-125668457D01*
X131976442Y-125683955D01*
X131985798Y-125691633D01*
X131985798Y-125757535D01*
X132008248Y-125870401D01*
X132052286Y-125976719D01*
X132116220Y-126072402D01*
X132197592Y-126153774D01*
X132293275Y-126217708D01*
X132399593Y-126261746D01*
X132512459Y-126284196D01*
X132627537Y-126284196D01*
X132740403Y-126261746D01*
X132846721Y-126217708D01*
X132942404Y-126153774D01*
X133023776Y-126072402D01*
X133087710Y-125976719D01*
X133108527Y-125926461D01*
X135051800Y-125926461D01*
X135051800Y-126041539D01*
X135074250Y-126154405D01*
X135118288Y-126260723D01*
X135182222Y-126356406D01*
X135263594Y-126437778D01*
X135359277Y-126501712D01*
X135465595Y-126545750D01*
X135578461Y-126568200D01*
X135693539Y-126568200D01*
X135806405Y-126545750D01*
X135912723Y-126501712D01*
X136008406Y-126437778D01*
X136089778Y-126356406D01*
X136153712Y-126260723D01*
X136197750Y-126154405D01*
X136220200Y-126041539D01*
X136220200Y-125926461D01*
X136197750Y-125813595D01*
X136153712Y-125707277D01*
X136089778Y-125611594D01*
X136008406Y-125530222D01*
X135912723Y-125466288D01*
X135806405Y-125422250D01*
X135693539Y-125399800D01*
X135578461Y-125399800D01*
X135465595Y-125422250D01*
X135359277Y-125466288D01*
X135263594Y-125530222D01*
X135182222Y-125611594D01*
X135118288Y-125707277D01*
X135074250Y-125813595D01*
X135051800Y-125926461D01*
X133108527Y-125926461D01*
X133131748Y-125870401D01*
X133154198Y-125757535D01*
X133154198Y-125642457D01*
X133131748Y-125529591D01*
X133087710Y-125423273D01*
X133023776Y-125327590D01*
X132942404Y-125246218D01*
X132846721Y-125182284D01*
X132740403Y-125138246D01*
X132671599Y-125124560D01*
X132671599Y-124914751D01*
X136396726Y-124914751D01*
X137385877Y-125903902D01*
X137385877Y-125970904D01*
X137408327Y-126083770D01*
X137452365Y-126190088D01*
X137516299Y-126285771D01*
X137597671Y-126367143D01*
X137693354Y-126431077D01*
X137799672Y-126475115D01*
X137912538Y-126497565D01*
X138027616Y-126497565D01*
X138140482Y-126475115D01*
X138246800Y-126431077D01*
X138342483Y-126367143D01*
X138423855Y-126285771D01*
X138487789Y-126190088D01*
X138518139Y-126116817D01*
X139160021Y-126758700D01*
X131076700Y-126758700D01*
X131076700Y-119456200D01*
X132223064Y-119456200D01*
X131991945Y-119687319D01*
%TA.AperFunction,Conductor*%
D21*
G36*
X131991945Y-119687319D02*
G01*
X131976441Y-119700043D01*
X131925655Y-119761926D01*
X131902950Y-119804405D01*
X131887918Y-119832527D01*
X131864680Y-119909133D01*
X131863892Y-119917137D01*
X131858799Y-119968842D01*
X131858799Y-119968848D01*
X131856834Y-119988801D01*
X131858799Y-120008754D01*
X131858800Y-125375234D01*
X131856834Y-125395197D01*
X131864680Y-125474865D01*
X131887918Y-125551471D01*
X131897704Y-125569779D01*
X131925656Y-125622073D01*
X131937613Y-125636642D01*
X131963717Y-125668451D01*
X131963723Y-125668457D01*
X131976442Y-125683955D01*
X131985798Y-125691633D01*
X131985798Y-125757535D01*
X132008248Y-125870401D01*
X132052286Y-125976719D01*
X132116220Y-126072402D01*
X132197592Y-126153774D01*
X132293275Y-126217708D01*
X132399593Y-126261746D01*
X132512459Y-126284196D01*
X132627537Y-126284196D01*
X132740403Y-126261746D01*
X132846721Y-126217708D01*
X132942404Y-126153774D01*
X133023776Y-126072402D01*
X133087710Y-125976719D01*
X133108527Y-125926461D01*
X135051800Y-125926461D01*
X135051800Y-126041539D01*
X135074250Y-126154405D01*
X135118288Y-126260723D01*
X135182222Y-126356406D01*
X135263594Y-126437778D01*
X135359277Y-126501712D01*
X135465595Y-126545750D01*
X135578461Y-126568200D01*
X135693539Y-126568200D01*
X135806405Y-126545750D01*
X135912723Y-126501712D01*
X136008406Y-126437778D01*
X136089778Y-126356406D01*
X136153712Y-126260723D01*
X136197750Y-126154405D01*
X136220200Y-126041539D01*
X136220200Y-125926461D01*
X136197750Y-125813595D01*
X136153712Y-125707277D01*
X136089778Y-125611594D01*
X136008406Y-125530222D01*
X135912723Y-125466288D01*
X135806405Y-125422250D01*
X135693539Y-125399800D01*
X135578461Y-125399800D01*
X135465595Y-125422250D01*
X135359277Y-125466288D01*
X135263594Y-125530222D01*
X135182222Y-125611594D01*
X135118288Y-125707277D01*
X135074250Y-125813595D01*
X135051800Y-125926461D01*
X133108527Y-125926461D01*
X133131748Y-125870401D01*
X133154198Y-125757535D01*
X133154198Y-125642457D01*
X133131748Y-125529591D01*
X133087710Y-125423273D01*
X133023776Y-125327590D01*
X132942404Y-125246218D01*
X132846721Y-125182284D01*
X132740403Y-125138246D01*
X132671599Y-125124560D01*
X132671599Y-124914751D01*
X136396726Y-124914751D01*
X137385877Y-125903902D01*
X137385877Y-125970904D01*
X137408327Y-126083770D01*
X137452365Y-126190088D01*
X137516299Y-126285771D01*
X137597671Y-126367143D01*
X137693354Y-126431077D01*
X137799672Y-126475115D01*
X137912538Y-126497565D01*
X138027616Y-126497565D01*
X138140482Y-126475115D01*
X138246800Y-126431077D01*
X138342483Y-126367143D01*
X138423855Y-126285771D01*
X138487789Y-126190088D01*
X138518139Y-126116817D01*
X139160021Y-126758700D01*
X131076700Y-126758700D01*
X131076700Y-119456200D01*
X132223064Y-119456200D01*
X131991945Y-119687319D01*
G37*
%TD.AperFunction*%
D20*
X169916288Y-123675277D02*
X169872250Y-123781595D01*
X169849800Y-123894461D01*
X169849800Y-124009539D01*
X169872250Y-124122405D01*
X169916288Y-124228723D01*
X169968992Y-124307600D01*
X168880765Y-124307600D01*
X168902371Y-124293163D01*
X168983743Y-124211791D01*
X169047677Y-124116108D01*
X169091715Y-124009790D01*
X169114165Y-123896924D01*
X169114165Y-123781846D01*
X169091715Y-123668980D01*
X169067606Y-123610775D01*
X169959387Y-123610775D01*
X169916288Y-123675277D01*
%TA.AperFunction,Conductor*%
D21*
G36*
X169916288Y-123675277D02*
G01*
X169872250Y-123781595D01*
X169849800Y-123894461D01*
X169849800Y-124009539D01*
X169872250Y-124122405D01*
X169916288Y-124228723D01*
X169968992Y-124307600D01*
X168880765Y-124307600D01*
X168902371Y-124293163D01*
X168983743Y-124211791D01*
X169047677Y-124116108D01*
X169091715Y-124009790D01*
X169114165Y-123896924D01*
X169114165Y-123781846D01*
X169091715Y-123668980D01*
X169067606Y-123610775D01*
X169959387Y-123610775D01*
X169916288Y-123675277D01*
G37*
%TD.AperFunction*%
D20*
X160061838Y-120335150D02*
X160017800Y-120441468D01*
X159995350Y-120554334D01*
X159995350Y-120669412D01*
X160017800Y-120782278D01*
X160061838Y-120888596D01*
X160125772Y-120984279D01*
X160207144Y-121065651D01*
X160302827Y-121129585D01*
X160409145Y-121173623D01*
X160522011Y-121196073D01*
X160637089Y-121196073D01*
X160656913Y-121192130D01*
X160861887Y-121397105D01*
X160873014Y-121410663D01*
X160886572Y-121421790D01*
X160886577Y-121421795D01*
X160907809Y-121439219D01*
X160927161Y-121455101D01*
X160988937Y-121488121D01*
X161024249Y-121498833D01*
X161024249Y-121908000D01*
X161029644Y-121962772D01*
X161045620Y-122015439D01*
X161071564Y-122063977D01*
X161106479Y-122106521D01*
X161149023Y-122141436D01*
X161197561Y-122167380D01*
X161250228Y-122183356D01*
X161305000Y-122188751D01*
X163213573Y-122188751D01*
X163167222Y-122219722D01*
X163085850Y-122301094D01*
X163021916Y-122396777D01*
X162977878Y-122503095D01*
X162955428Y-122615961D01*
X162955428Y-122731039D01*
X162977878Y-122843905D01*
X163021916Y-122950223D01*
X163085850Y-123045906D01*
X163167222Y-123127278D01*
X163262905Y-123191212D01*
X163276596Y-123196883D01*
X162980554Y-123196883D01*
X162960601Y-123194918D01*
X162940648Y-123196883D01*
X162940641Y-123196883D01*
X162888205Y-123202048D01*
X162880932Y-123202764D01*
X162804326Y-123226002D01*
X162733725Y-123263739D01*
X162708985Y-123284043D01*
X162687346Y-123301801D01*
X162687341Y-123301806D01*
X162671843Y-123314525D01*
X162659123Y-123330024D01*
X161935548Y-124053600D01*
X161718337Y-124053600D01*
X161394271Y-123729535D01*
X161381547Y-123714031D01*
X161319665Y-123663245D01*
X161249064Y-123625508D01*
X161231386Y-123620145D01*
X161303208Y-123590396D01*
X161398891Y-123526462D01*
X161480263Y-123445090D01*
X161544197Y-123349407D01*
X161588235Y-123243089D01*
X161610685Y-123130223D01*
X161610685Y-123015145D01*
X161588235Y-122902279D01*
X161544197Y-122795961D01*
X161480263Y-122700278D01*
X161398891Y-122618906D01*
X161303208Y-122554972D01*
X161196890Y-122510934D01*
X161084024Y-122488484D01*
X160968946Y-122488484D01*
X160856080Y-122510934D01*
X160749762Y-122554972D01*
X160654079Y-122618906D01*
X160572707Y-122700278D01*
X160508773Y-122795961D01*
X160464735Y-122902279D01*
X160442285Y-123015145D01*
X160442285Y-123130223D01*
X160464735Y-123243089D01*
X160508773Y-123349407D01*
X160572707Y-123445090D01*
X160654079Y-123526462D01*
X160749762Y-123590396D01*
X160764230Y-123596389D01*
X156802571Y-123596389D01*
X156782618Y-123594424D01*
X156762665Y-123596389D01*
X156762658Y-123596389D01*
X156710301Y-123601546D01*
X156702949Y-123602270D01*
X156646004Y-123619544D01*
X156626343Y-123625508D01*
X156555742Y-123663245D01*
X156533630Y-123681392D01*
X156509363Y-123701307D01*
X156509358Y-123701312D01*
X156493860Y-123714031D01*
X156481140Y-123729530D01*
X156091387Y-124119284D01*
X156049486Y-124018126D01*
X155985552Y-123922443D01*
X155904180Y-123841071D01*
X155808497Y-123777137D01*
X155702179Y-123733099D01*
X155589313Y-123710649D01*
X155474235Y-123710649D01*
X155361369Y-123733099D01*
X155255051Y-123777137D01*
X155159368Y-123841071D01*
X155097998Y-123902441D01*
X155037767Y-123812300D01*
X154956395Y-123730928D01*
X154860712Y-123666994D01*
X154754394Y-123622956D01*
X154641528Y-123600506D01*
X154526450Y-123600506D01*
X154504575Y-123604857D01*
X154477706Y-123582806D01*
X154431860Y-123558301D01*
X154973344Y-123558301D01*
X154990799Y-123560020D01*
X155008254Y-123558301D01*
X155008262Y-123558301D01*
X155060509Y-123553155D01*
X155127539Y-123532822D01*
X155189315Y-123499802D01*
X155243462Y-123455364D01*
X155254598Y-123441795D01*
X155843364Y-122853029D01*
X156186020Y-122853029D01*
X156186020Y-122968107D01*
X156208470Y-123080973D01*
X156252508Y-123187291D01*
X156316442Y-123282974D01*
X156397814Y-123364346D01*
X156493497Y-123428280D01*
X156599815Y-123472318D01*
X156712681Y-123494768D01*
X156827759Y-123494768D01*
X156940625Y-123472318D01*
X157046943Y-123428280D01*
X157142626Y-123364346D01*
X157223998Y-123282974D01*
X157287932Y-123187291D01*
X157331970Y-123080973D01*
X157354420Y-122968107D01*
X157354420Y-122853029D01*
X157331970Y-122740163D01*
X157287932Y-122633845D01*
X157223998Y-122538162D01*
X157142626Y-122456790D01*
X157046943Y-122392856D01*
X156940625Y-122348818D01*
X156827759Y-122326368D01*
X156712681Y-122326368D01*
X156599815Y-122348818D01*
X156493497Y-122392856D01*
X156397814Y-122456790D01*
X156316442Y-122538162D01*
X156252508Y-122633845D01*
X156208470Y-122740163D01*
X156186020Y-122853029D01*
X155843364Y-122853029D01*
X157452399Y-121243995D01*
X157465962Y-121232864D01*
X157475113Y-121221713D01*
X157479301Y-121226816D01*
X157494799Y-121239535D01*
X158673800Y-122418536D01*
X158673800Y-122485539D01*
X158696250Y-122598405D01*
X158740288Y-122704723D01*
X158804222Y-122800406D01*
X158885594Y-122881778D01*
X158981277Y-122945712D01*
X159087595Y-122989750D01*
X159200461Y-123012200D01*
X159315539Y-123012200D01*
X159428405Y-122989750D01*
X159534723Y-122945712D01*
X159630406Y-122881778D01*
X159711778Y-122800406D01*
X159775712Y-122704723D01*
X159819750Y-122598405D01*
X159842200Y-122485539D01*
X159842200Y-122370461D01*
X159819750Y-122257595D01*
X159775712Y-122151277D01*
X159711778Y-122055594D01*
X159630406Y-121974222D01*
X159534723Y-121910288D01*
X159428405Y-121866250D01*
X159315539Y-121843800D01*
X159248536Y-121843800D01*
X158579802Y-121175066D01*
X158679782Y-121133653D01*
X158775465Y-121069719D01*
X158856837Y-120988347D01*
X158920771Y-120892664D01*
X158964809Y-120786346D01*
X158987259Y-120673480D01*
X158987259Y-120606477D01*
X159344712Y-120249024D01*
X160119386Y-120249024D01*
X160061838Y-120335150D01*
%TA.AperFunction,Conductor*%
D21*
G36*
X160061838Y-120335150D02*
G01*
X160017800Y-120441468D01*
X159995350Y-120554334D01*
X159995350Y-120669412D01*
X160017800Y-120782278D01*
X160061838Y-120888596D01*
X160125772Y-120984279D01*
X160207144Y-121065651D01*
X160302827Y-121129585D01*
X160409145Y-121173623D01*
X160522011Y-121196073D01*
X160637089Y-121196073D01*
X160656913Y-121192130D01*
X160861887Y-121397105D01*
X160873014Y-121410663D01*
X160886572Y-121421790D01*
X160886577Y-121421795D01*
X160907809Y-121439219D01*
X160927161Y-121455101D01*
X160988937Y-121488121D01*
X161024249Y-121498833D01*
X161024249Y-121908000D01*
X161029644Y-121962772D01*
X161045620Y-122015439D01*
X161071564Y-122063977D01*
X161106479Y-122106521D01*
X161149023Y-122141436D01*
X161197561Y-122167380D01*
X161250228Y-122183356D01*
X161305000Y-122188751D01*
X163213573Y-122188751D01*
X163167222Y-122219722D01*
X163085850Y-122301094D01*
X163021916Y-122396777D01*
X162977878Y-122503095D01*
X162955428Y-122615961D01*
X162955428Y-122731039D01*
X162977878Y-122843905D01*
X163021916Y-122950223D01*
X163085850Y-123045906D01*
X163167222Y-123127278D01*
X163262905Y-123191212D01*
X163276596Y-123196883D01*
X162980554Y-123196883D01*
X162960601Y-123194918D01*
X162940648Y-123196883D01*
X162940641Y-123196883D01*
X162888205Y-123202048D01*
X162880932Y-123202764D01*
X162804326Y-123226002D01*
X162733725Y-123263739D01*
X162708985Y-123284043D01*
X162687346Y-123301801D01*
X162687341Y-123301806D01*
X162671843Y-123314525D01*
X162659123Y-123330024D01*
X161935548Y-124053600D01*
X161718337Y-124053600D01*
X161394271Y-123729535D01*
X161381547Y-123714031D01*
X161319665Y-123663245D01*
X161249064Y-123625508D01*
X161231386Y-123620145D01*
X161303208Y-123590396D01*
X161398891Y-123526462D01*
X161480263Y-123445090D01*
X161544197Y-123349407D01*
X161588235Y-123243089D01*
X161610685Y-123130223D01*
X161610685Y-123015145D01*
X161588235Y-122902279D01*
X161544197Y-122795961D01*
X161480263Y-122700278D01*
X161398891Y-122618906D01*
X161303208Y-122554972D01*
X161196890Y-122510934D01*
X161084024Y-122488484D01*
X160968946Y-122488484D01*
X160856080Y-122510934D01*
X160749762Y-122554972D01*
X160654079Y-122618906D01*
X160572707Y-122700278D01*
X160508773Y-122795961D01*
X160464735Y-122902279D01*
X160442285Y-123015145D01*
X160442285Y-123130223D01*
X160464735Y-123243089D01*
X160508773Y-123349407D01*
X160572707Y-123445090D01*
X160654079Y-123526462D01*
X160749762Y-123590396D01*
X160764230Y-123596389D01*
X156802571Y-123596389D01*
X156782618Y-123594424D01*
X156762665Y-123596389D01*
X156762658Y-123596389D01*
X156710301Y-123601546D01*
X156702949Y-123602270D01*
X156646004Y-123619544D01*
X156626343Y-123625508D01*
X156555742Y-123663245D01*
X156533630Y-123681392D01*
X156509363Y-123701307D01*
X156509358Y-123701312D01*
X156493860Y-123714031D01*
X156481140Y-123729530D01*
X156091387Y-124119284D01*
X156049486Y-124018126D01*
X155985552Y-123922443D01*
X155904180Y-123841071D01*
X155808497Y-123777137D01*
X155702179Y-123733099D01*
X155589313Y-123710649D01*
X155474235Y-123710649D01*
X155361369Y-123733099D01*
X155255051Y-123777137D01*
X155159368Y-123841071D01*
X155097998Y-123902441D01*
X155037767Y-123812300D01*
X154956395Y-123730928D01*
X154860712Y-123666994D01*
X154754394Y-123622956D01*
X154641528Y-123600506D01*
X154526450Y-123600506D01*
X154504575Y-123604857D01*
X154477706Y-123582806D01*
X154431860Y-123558301D01*
X154973344Y-123558301D01*
X154990799Y-123560020D01*
X155008254Y-123558301D01*
X155008262Y-123558301D01*
X155060509Y-123553155D01*
X155127539Y-123532822D01*
X155189315Y-123499802D01*
X155243462Y-123455364D01*
X155254598Y-123441795D01*
X155843364Y-122853029D01*
X156186020Y-122853029D01*
X156186020Y-122968107D01*
X156208470Y-123080973D01*
X156252508Y-123187291D01*
X156316442Y-123282974D01*
X156397814Y-123364346D01*
X156493497Y-123428280D01*
X156599815Y-123472318D01*
X156712681Y-123494768D01*
X156827759Y-123494768D01*
X156940625Y-123472318D01*
X157046943Y-123428280D01*
X157142626Y-123364346D01*
X157223998Y-123282974D01*
X157287932Y-123187291D01*
X157331970Y-123080973D01*
X157354420Y-122968107D01*
X157354420Y-122853029D01*
X157331970Y-122740163D01*
X157287932Y-122633845D01*
X157223998Y-122538162D01*
X157142626Y-122456790D01*
X157046943Y-122392856D01*
X156940625Y-122348818D01*
X156827759Y-122326368D01*
X156712681Y-122326368D01*
X156599815Y-122348818D01*
X156493497Y-122392856D01*
X156397814Y-122456790D01*
X156316442Y-122538162D01*
X156252508Y-122633845D01*
X156208470Y-122740163D01*
X156186020Y-122853029D01*
X155843364Y-122853029D01*
X157452399Y-121243995D01*
X157465962Y-121232864D01*
X157475113Y-121221713D01*
X157479301Y-121226816D01*
X157494799Y-121239535D01*
X158673800Y-122418536D01*
X158673800Y-122485539D01*
X158696250Y-122598405D01*
X158740288Y-122704723D01*
X158804222Y-122800406D01*
X158885594Y-122881778D01*
X158981277Y-122945712D01*
X159087595Y-122989750D01*
X159200461Y-123012200D01*
X159315539Y-123012200D01*
X159428405Y-122989750D01*
X159534723Y-122945712D01*
X159630406Y-122881778D01*
X159711778Y-122800406D01*
X159775712Y-122704723D01*
X159819750Y-122598405D01*
X159842200Y-122485539D01*
X159842200Y-122370461D01*
X159819750Y-122257595D01*
X159775712Y-122151277D01*
X159711778Y-122055594D01*
X159630406Y-121974222D01*
X159534723Y-121910288D01*
X159428405Y-121866250D01*
X159315539Y-121843800D01*
X159248536Y-121843800D01*
X158579802Y-121175066D01*
X158679782Y-121133653D01*
X158775465Y-121069719D01*
X158856837Y-120988347D01*
X158920771Y-120892664D01*
X158964809Y-120786346D01*
X158987259Y-120673480D01*
X158987259Y-120606477D01*
X159344712Y-120249024D01*
X160119386Y-120249024D01*
X160061838Y-120335150D01*
G37*
%TD.AperFunction*%
D20*
X149551754Y-122486490D02*
X149551752Y-122486491D01*
X149551753Y-122486491D01*
X149511170Y-122519796D01*
X149511165Y-122519801D01*
X149497607Y-122530928D01*
X149486480Y-122544486D01*
X148282626Y-123748342D01*
X147757845Y-123748342D01*
X147641464Y-123631961D01*
X147630328Y-123618392D01*
X147576181Y-123573954D01*
X147548282Y-123559042D01*
X148636728Y-122470597D01*
X149581488Y-122470597D01*
X149551754Y-122486490D01*
%TA.AperFunction,Conductor*%
D21*
G36*
X149551754Y-122486490D02*
G01*
X149551752Y-122486491D01*
X149551753Y-122486491D01*
X149511170Y-122519796D01*
X149511165Y-122519801D01*
X149497607Y-122530928D01*
X149486480Y-122544486D01*
X148282626Y-123748342D01*
X147757845Y-123748342D01*
X147641464Y-123631961D01*
X147630328Y-123618392D01*
X147576181Y-123573954D01*
X147548282Y-123559042D01*
X148636728Y-122470597D01*
X149581488Y-122470597D01*
X149551754Y-122486490D01*
G37*
%TD.AperFunction*%
D20*
X140820650Y-117640961D02*
X140872897Y-117646107D01*
X140872905Y-117646107D01*
X140890360Y-117647826D01*
X140907815Y-117646107D01*
X142135453Y-117646107D01*
X142132385Y-117653513D01*
X142109935Y-117766379D01*
X142109935Y-117881457D01*
X142132385Y-117994323D01*
X142176423Y-118100641D01*
X142240357Y-118196324D01*
X142321729Y-118277696D01*
X142400192Y-118330124D01*
X142357722Y-118372594D01*
X142293788Y-118468277D01*
X142249750Y-118574595D01*
X142227300Y-118687461D01*
X142227300Y-118802539D01*
X142249750Y-118915405D01*
X142293788Y-119021723D01*
X142357722Y-119117406D01*
X142439094Y-119198778D01*
X142534777Y-119262712D01*
X142641095Y-119306750D01*
X142753961Y-119329200D01*
X142869039Y-119329200D01*
X142981905Y-119306750D01*
X143088223Y-119262712D01*
X143183906Y-119198778D01*
X143265278Y-119117406D01*
X143329212Y-119021723D01*
X143373250Y-118915405D01*
X143385111Y-118855777D01*
X143410561Y-118869380D01*
X143463228Y-118885356D01*
X143518000Y-118890751D01*
X144142009Y-118890751D01*
X144142008Y-119438705D01*
X144140288Y-119456168D01*
X144147154Y-119525878D01*
X144167487Y-119592908D01*
X144200507Y-119654684D01*
X144244945Y-119708831D01*
X144281636Y-119738943D01*
X144299092Y-119753269D01*
X144360868Y-119786289D01*
X144391057Y-119795446D01*
X144413192Y-119828574D01*
X144447212Y-119862594D01*
X144413232Y-119896573D01*
X144349298Y-119992256D01*
X144305260Y-120098574D01*
X144282810Y-120211440D01*
X144282810Y-120326518D01*
X144305260Y-120439384D01*
X144349298Y-120545702D01*
X144413232Y-120641385D01*
X144494604Y-120722757D01*
X144590287Y-120786691D01*
X144696605Y-120830729D01*
X144809471Y-120853179D01*
X144924549Y-120853179D01*
X144944373Y-120849236D01*
X146388802Y-122293666D01*
X146388802Y-122517026D01*
X146371996Y-122528256D01*
X146290624Y-122609628D01*
X146226690Y-122705311D01*
X146182652Y-122811629D01*
X146160202Y-122924495D01*
X146160202Y-123039573D01*
X146182652Y-123152439D01*
X146206761Y-123210644D01*
X145130355Y-123210644D01*
X145130355Y-123152620D01*
X145107905Y-123039754D01*
X145063867Y-122933436D01*
X144999933Y-122837753D01*
X144918561Y-122756381D01*
X144822878Y-122692447D01*
X144716560Y-122648409D01*
X144603694Y-122625959D01*
X144488616Y-122625959D01*
X144375750Y-122648409D01*
X144269432Y-122692447D01*
X144173749Y-122756381D01*
X144126371Y-122803759D01*
X140418130Y-122803759D01*
X140453406Y-122780188D01*
X140534778Y-122698816D01*
X140598712Y-122603133D01*
X140642750Y-122496815D01*
X140665200Y-122383949D01*
X140665200Y-122268871D01*
X140642750Y-122156005D01*
X140598712Y-122049687D01*
X140534778Y-121954004D01*
X140453406Y-121872632D01*
X140357723Y-121808698D01*
X140251405Y-121764660D01*
X140138539Y-121742210D01*
X140023461Y-121742210D01*
X139910595Y-121764660D01*
X139804277Y-121808698D01*
X139708594Y-121872632D01*
X139673816Y-121907410D01*
X139656347Y-121874729D01*
X139631926Y-121844973D01*
X139623041Y-121834146D01*
X139623036Y-121834141D01*
X139611908Y-121820582D01*
X139598349Y-121809455D01*
X139585699Y-121796804D01*
X139585699Y-120831683D01*
X139644552Y-120856061D01*
X139757418Y-120878511D01*
X139872496Y-120878511D01*
X139985362Y-120856061D01*
X140091680Y-120812023D01*
X140187363Y-120748089D01*
X140199196Y-120736256D01*
X140170861Y-120804663D01*
X140148411Y-120917529D01*
X140148411Y-121032607D01*
X140170861Y-121145473D01*
X140214899Y-121251791D01*
X140278833Y-121347474D01*
X140360205Y-121428846D01*
X140455888Y-121492780D01*
X140562206Y-121536818D01*
X140675072Y-121559268D01*
X140790150Y-121559268D01*
X140903016Y-121536818D01*
X141009334Y-121492780D01*
X141105017Y-121428846D01*
X141186389Y-121347474D01*
X141250323Y-121251791D01*
X141294361Y-121145473D01*
X141316811Y-121032607D01*
X141316811Y-120917529D01*
X141294361Y-120804663D01*
X141250323Y-120698345D01*
X141186389Y-120602662D01*
X141105017Y-120521290D01*
X141009334Y-120457356D01*
X140903016Y-120413318D01*
X140790150Y-120390868D01*
X140675072Y-120390868D01*
X140562206Y-120413318D01*
X140455888Y-120457356D01*
X140360205Y-120521290D01*
X140348372Y-120533123D01*
X140376707Y-120464716D01*
X140399157Y-120351850D01*
X140399157Y-120327697D01*
X142496946Y-120327697D01*
X142496946Y-120442775D01*
X142519396Y-120555641D01*
X142563434Y-120661959D01*
X142627368Y-120757642D01*
X142708740Y-120839014D01*
X142804423Y-120902948D01*
X142910741Y-120946986D01*
X143023607Y-120969436D01*
X143138685Y-120969436D01*
X143251551Y-120946986D01*
X143357869Y-120902948D01*
X143453552Y-120839014D01*
X143534924Y-120757642D01*
X143598858Y-120661959D01*
X143642896Y-120555641D01*
X143665346Y-120442775D01*
X143665346Y-120327697D01*
X143642896Y-120214831D01*
X143598858Y-120108513D01*
X143534924Y-120012830D01*
X143453552Y-119931458D01*
X143357869Y-119867524D01*
X143251551Y-119823486D01*
X143138685Y-119801036D01*
X143023607Y-119801036D01*
X142910741Y-119823486D01*
X142804423Y-119867524D01*
X142708740Y-119931458D01*
X142627368Y-120012830D01*
X142563434Y-120108513D01*
X142519396Y-120214831D01*
X142496946Y-120327697D01*
X140399157Y-120327697D01*
X140399157Y-120236772D01*
X140376707Y-120123906D01*
X140332669Y-120017588D01*
X140268735Y-119921905D01*
X140187363Y-119840533D01*
X140091680Y-119776599D01*
X139985362Y-119732561D01*
X139872496Y-119710111D01*
X139757418Y-119710111D01*
X139644552Y-119732561D01*
X139585699Y-119756939D01*
X139585699Y-118414687D01*
X139593095Y-118417750D01*
X139705961Y-118440200D01*
X139776313Y-118440200D01*
X139773250Y-118447595D01*
X139750800Y-118560461D01*
X139750800Y-118675539D01*
X139773250Y-118788405D01*
X139817288Y-118894723D01*
X139881222Y-118990406D01*
X139962594Y-119071778D01*
X140058277Y-119135712D01*
X140164595Y-119179750D01*
X140277461Y-119202200D01*
X140392539Y-119202200D01*
X140505405Y-119179750D01*
X140611723Y-119135712D01*
X140707406Y-119071778D01*
X140788778Y-118990406D01*
X140852712Y-118894723D01*
X140896750Y-118788405D01*
X140919200Y-118675539D01*
X140919200Y-118560461D01*
X140896750Y-118447595D01*
X140852712Y-118341277D01*
X140788778Y-118245594D01*
X140707406Y-118164222D01*
X140611723Y-118100288D01*
X140505405Y-118056250D01*
X140392539Y-118033800D01*
X140322187Y-118033800D01*
X140325250Y-118026405D01*
X140347700Y-117913539D01*
X140347700Y-117798461D01*
X140344167Y-117780698D01*
X140422838Y-117780698D01*
X140535704Y-117758248D01*
X140642022Y-117714210D01*
X140737705Y-117650276D01*
X140764157Y-117623824D01*
X140820650Y-117640961D01*
%TA.AperFunction,Conductor*%
D21*
G36*
X140820650Y-117640961D02*
G01*
X140872897Y-117646107D01*
X140872905Y-117646107D01*
X140890360Y-117647826D01*
X140907815Y-117646107D01*
X142135453Y-117646107D01*
X142132385Y-117653513D01*
X142109935Y-117766379D01*
X142109935Y-117881457D01*
X142132385Y-117994323D01*
X142176423Y-118100641D01*
X142240357Y-118196324D01*
X142321729Y-118277696D01*
X142400192Y-118330124D01*
X142357722Y-118372594D01*
X142293788Y-118468277D01*
X142249750Y-118574595D01*
X142227300Y-118687461D01*
X142227300Y-118802539D01*
X142249750Y-118915405D01*
X142293788Y-119021723D01*
X142357722Y-119117406D01*
X142439094Y-119198778D01*
X142534777Y-119262712D01*
X142641095Y-119306750D01*
X142753961Y-119329200D01*
X142869039Y-119329200D01*
X142981905Y-119306750D01*
X143088223Y-119262712D01*
X143183906Y-119198778D01*
X143265278Y-119117406D01*
X143329212Y-119021723D01*
X143373250Y-118915405D01*
X143385111Y-118855777D01*
X143410561Y-118869380D01*
X143463228Y-118885356D01*
X143518000Y-118890751D01*
X144142009Y-118890751D01*
X144142008Y-119438705D01*
X144140288Y-119456168D01*
X144147154Y-119525878D01*
X144167487Y-119592908D01*
X144200507Y-119654684D01*
X144244945Y-119708831D01*
X144281636Y-119738943D01*
X144299092Y-119753269D01*
X144360868Y-119786289D01*
X144391057Y-119795446D01*
X144413192Y-119828574D01*
X144447212Y-119862594D01*
X144413232Y-119896573D01*
X144349298Y-119992256D01*
X144305260Y-120098574D01*
X144282810Y-120211440D01*
X144282810Y-120326518D01*
X144305260Y-120439384D01*
X144349298Y-120545702D01*
X144413232Y-120641385D01*
X144494604Y-120722757D01*
X144590287Y-120786691D01*
X144696605Y-120830729D01*
X144809471Y-120853179D01*
X144924549Y-120853179D01*
X144944373Y-120849236D01*
X146388802Y-122293666D01*
X146388802Y-122517026D01*
X146371996Y-122528256D01*
X146290624Y-122609628D01*
X146226690Y-122705311D01*
X146182652Y-122811629D01*
X146160202Y-122924495D01*
X146160202Y-123039573D01*
X146182652Y-123152439D01*
X146206761Y-123210644D01*
X145130355Y-123210644D01*
X145130355Y-123152620D01*
X145107905Y-123039754D01*
X145063867Y-122933436D01*
X144999933Y-122837753D01*
X144918561Y-122756381D01*
X144822878Y-122692447D01*
X144716560Y-122648409D01*
X144603694Y-122625959D01*
X144488616Y-122625959D01*
X144375750Y-122648409D01*
X144269432Y-122692447D01*
X144173749Y-122756381D01*
X144126371Y-122803759D01*
X140418130Y-122803759D01*
X140453406Y-122780188D01*
X140534778Y-122698816D01*
X140598712Y-122603133D01*
X140642750Y-122496815D01*
X140665200Y-122383949D01*
X140665200Y-122268871D01*
X140642750Y-122156005D01*
X140598712Y-122049687D01*
X140534778Y-121954004D01*
X140453406Y-121872632D01*
X140357723Y-121808698D01*
X140251405Y-121764660D01*
X140138539Y-121742210D01*
X140023461Y-121742210D01*
X139910595Y-121764660D01*
X139804277Y-121808698D01*
X139708594Y-121872632D01*
X139673816Y-121907410D01*
X139656347Y-121874729D01*
X139631926Y-121844973D01*
X139623041Y-121834146D01*
X139623036Y-121834141D01*
X139611908Y-121820582D01*
X139598349Y-121809455D01*
X139585699Y-121796804D01*
X139585699Y-120831683D01*
X139644552Y-120856061D01*
X139757418Y-120878511D01*
X139872496Y-120878511D01*
X139985362Y-120856061D01*
X140091680Y-120812023D01*
X140187363Y-120748089D01*
X140199196Y-120736256D01*
X140170861Y-120804663D01*
X140148411Y-120917529D01*
X140148411Y-121032607D01*
X140170861Y-121145473D01*
X140214899Y-121251791D01*
X140278833Y-121347474D01*
X140360205Y-121428846D01*
X140455888Y-121492780D01*
X140562206Y-121536818D01*
X140675072Y-121559268D01*
X140790150Y-121559268D01*
X140903016Y-121536818D01*
X141009334Y-121492780D01*
X141105017Y-121428846D01*
X141186389Y-121347474D01*
X141250323Y-121251791D01*
X141294361Y-121145473D01*
X141316811Y-121032607D01*
X141316811Y-120917529D01*
X141294361Y-120804663D01*
X141250323Y-120698345D01*
X141186389Y-120602662D01*
X141105017Y-120521290D01*
X141009334Y-120457356D01*
X140903016Y-120413318D01*
X140790150Y-120390868D01*
X140675072Y-120390868D01*
X140562206Y-120413318D01*
X140455888Y-120457356D01*
X140360205Y-120521290D01*
X140348372Y-120533123D01*
X140376707Y-120464716D01*
X140399157Y-120351850D01*
X140399157Y-120327697D01*
X142496946Y-120327697D01*
X142496946Y-120442775D01*
X142519396Y-120555641D01*
X142563434Y-120661959D01*
X142627368Y-120757642D01*
X142708740Y-120839014D01*
X142804423Y-120902948D01*
X142910741Y-120946986D01*
X143023607Y-120969436D01*
X143138685Y-120969436D01*
X143251551Y-120946986D01*
X143357869Y-120902948D01*
X143453552Y-120839014D01*
X143534924Y-120757642D01*
X143598858Y-120661959D01*
X143642896Y-120555641D01*
X143665346Y-120442775D01*
X143665346Y-120327697D01*
X143642896Y-120214831D01*
X143598858Y-120108513D01*
X143534924Y-120012830D01*
X143453552Y-119931458D01*
X143357869Y-119867524D01*
X143251551Y-119823486D01*
X143138685Y-119801036D01*
X143023607Y-119801036D01*
X142910741Y-119823486D01*
X142804423Y-119867524D01*
X142708740Y-119931458D01*
X142627368Y-120012830D01*
X142563434Y-120108513D01*
X142519396Y-120214831D01*
X142496946Y-120327697D01*
X140399157Y-120327697D01*
X140399157Y-120236772D01*
X140376707Y-120123906D01*
X140332669Y-120017588D01*
X140268735Y-119921905D01*
X140187363Y-119840533D01*
X140091680Y-119776599D01*
X139985362Y-119732561D01*
X139872496Y-119710111D01*
X139757418Y-119710111D01*
X139644552Y-119732561D01*
X139585699Y-119756939D01*
X139585699Y-118414687D01*
X139593095Y-118417750D01*
X139705961Y-118440200D01*
X139776313Y-118440200D01*
X139773250Y-118447595D01*
X139750800Y-118560461D01*
X139750800Y-118675539D01*
X139773250Y-118788405D01*
X139817288Y-118894723D01*
X139881222Y-118990406D01*
X139962594Y-119071778D01*
X140058277Y-119135712D01*
X140164595Y-119179750D01*
X140277461Y-119202200D01*
X140392539Y-119202200D01*
X140505405Y-119179750D01*
X140611723Y-119135712D01*
X140707406Y-119071778D01*
X140788778Y-118990406D01*
X140852712Y-118894723D01*
X140896750Y-118788405D01*
X140919200Y-118675539D01*
X140919200Y-118560461D01*
X140896750Y-118447595D01*
X140852712Y-118341277D01*
X140788778Y-118245594D01*
X140707406Y-118164222D01*
X140611723Y-118100288D01*
X140505405Y-118056250D01*
X140392539Y-118033800D01*
X140322187Y-118033800D01*
X140325250Y-118026405D01*
X140347700Y-117913539D01*
X140347700Y-117798461D01*
X140344167Y-117780698D01*
X140422838Y-117780698D01*
X140535704Y-117758248D01*
X140642022Y-117714210D01*
X140737705Y-117650276D01*
X140764157Y-117623824D01*
X140820650Y-117640961D01*
G37*
%TD.AperFunction*%
D20*
X182776250Y-106937189D02*
X182920776Y-106980825D01*
X183054071Y-107051699D01*
X183171065Y-107147117D01*
X183267298Y-107263443D01*
X183339100Y-107396238D01*
X183383743Y-107540459D01*
X183400700Y-107701790D01*
X183400700Y-111222580D01*
X183342468Y-111198460D01*
X183229602Y-111176010D01*
X183114524Y-111176010D01*
X183001658Y-111198460D01*
X182943453Y-111222569D01*
X182943453Y-110993608D01*
X182945418Y-110973655D01*
X182943453Y-110953702D01*
X182943453Y-110953696D01*
X182937572Y-110893988D01*
X182936378Y-110890050D01*
X182923756Y-110848442D01*
X182914334Y-110817381D01*
X182876597Y-110746780D01*
X182825811Y-110684898D01*
X182810308Y-110672175D01*
X182151666Y-110013533D01*
X182138942Y-109998029D01*
X182077060Y-109947243D01*
X182006459Y-109909506D01*
X181929852Y-109886268D01*
X181870144Y-109880387D01*
X181870137Y-109880387D01*
X181850184Y-109878422D01*
X181830231Y-109880387D01*
X180013166Y-109880387D01*
X179993213Y-109878422D01*
X179973260Y-109880387D01*
X179973253Y-109880387D01*
X179920817Y-109885552D01*
X179913544Y-109886268D01*
X179849155Y-109905800D01*
X179836938Y-109909506D01*
X179766337Y-109947243D01*
X179744788Y-109964928D01*
X179719958Y-109985305D01*
X179719953Y-109985310D01*
X179704455Y-109998029D01*
X179691736Y-110013527D01*
X178081761Y-111623502D01*
X178121184Y-111528327D01*
X178143634Y-111415461D01*
X178143634Y-111300383D01*
X178121184Y-111187517D01*
X178077146Y-111081199D01*
X178013212Y-110985516D01*
X177931840Y-110904144D01*
X177836157Y-110840210D01*
X177729839Y-110796172D01*
X177616973Y-110773722D01*
X177501895Y-110773722D01*
X177389029Y-110796172D01*
X177282711Y-110840210D01*
X177187028Y-110904144D01*
X177105656Y-110985516D01*
X177041722Y-111081199D01*
X176997684Y-111187517D01*
X176975234Y-111300383D01*
X176975234Y-111415461D01*
X176997684Y-111528327D01*
X177041722Y-111634645D01*
X177105656Y-111730328D01*
X177187028Y-111811700D01*
X177282711Y-111875634D01*
X177389029Y-111919672D01*
X177501895Y-111942122D01*
X177616973Y-111942122D01*
X177729839Y-111919672D01*
X177825015Y-111880249D01*
X177656015Y-112049249D01*
X176300000Y-112049249D01*
X176245228Y-112054644D01*
X176192561Y-112070620D01*
X176144023Y-112096564D01*
X176101479Y-112131479D01*
X176066564Y-112174023D01*
X176040620Y-112222561D01*
X176024644Y-112275228D01*
X176019249Y-112330000D01*
X176019249Y-112630000D01*
X176024644Y-112684772D01*
X176040620Y-112737439D01*
X176063369Y-112780000D01*
X176040620Y-112822561D01*
X176024644Y-112875228D01*
X176019249Y-112930000D01*
X176019249Y-113230000D01*
X176024644Y-113284772D01*
X176040620Y-113337439D01*
X176063369Y-113380000D01*
X176040620Y-113422561D01*
X176024644Y-113475228D01*
X176019249Y-113530000D01*
X176019249Y-113830000D01*
X176024644Y-113884772D01*
X176040620Y-113937439D01*
X176063369Y-113980000D01*
X176040620Y-114022561D01*
X176024644Y-114075228D01*
X176019249Y-114130000D01*
X176019249Y-114430000D01*
X176024644Y-114484772D01*
X176040620Y-114537439D01*
X176063369Y-114580000D01*
X176040620Y-114622561D01*
X176024644Y-114675228D01*
X176019249Y-114730000D01*
X176019249Y-115030000D01*
X176024644Y-115084772D01*
X176040620Y-115137439D01*
X176063369Y-115180000D01*
X176040620Y-115222561D01*
X176024644Y-115275228D01*
X176019249Y-115330000D01*
X176019249Y-115392465D01*
X176004333Y-115382498D01*
X175898015Y-115338460D01*
X175785149Y-115316010D01*
X175670071Y-115316010D01*
X175557205Y-115338460D01*
X175450887Y-115382498D01*
X175355204Y-115446432D01*
X175273832Y-115527804D01*
X175209898Y-115623487D01*
X175165860Y-115729805D01*
X175143410Y-115842671D01*
X175143410Y-115957749D01*
X175165860Y-116070615D01*
X175209898Y-116176933D01*
X175273832Y-116272616D01*
X175355204Y-116353988D01*
X175450887Y-116417922D01*
X175557205Y-116461960D01*
X175670071Y-116484410D01*
X175785149Y-116484410D01*
X175898015Y-116461960D01*
X176004333Y-116417922D01*
X176062769Y-116378876D01*
X176063369Y-116380000D01*
X176040620Y-116422561D01*
X176024644Y-116475228D01*
X176019249Y-116530000D01*
X176019249Y-116830000D01*
X176023544Y-116873600D01*
X173333468Y-116873600D01*
X171917946Y-115458078D01*
X171905222Y-115442574D01*
X171843340Y-115391788D01*
X171772739Y-115354051D01*
X171696132Y-115330813D01*
X171636424Y-115324932D01*
X171636417Y-115324932D01*
X171616464Y-115322967D01*
X171596511Y-115324932D01*
X169379373Y-115324932D01*
X169331995Y-115277554D01*
X169236312Y-115213620D01*
X169129994Y-115169582D01*
X169017128Y-115147132D01*
X168902050Y-115147132D01*
X168789184Y-115169582D01*
X168682866Y-115213620D01*
X168587183Y-115277554D01*
X168505811Y-115358926D01*
X168441877Y-115454609D01*
X168397839Y-115560927D01*
X168375389Y-115673793D01*
X168375389Y-115788871D01*
X168397839Y-115901737D01*
X168441877Y-116008055D01*
X168505811Y-116103738D01*
X168587183Y-116185110D01*
X168682866Y-116249044D01*
X168789184Y-116293082D01*
X168902050Y-116315532D01*
X169017128Y-116315532D01*
X169129994Y-116293082D01*
X169236312Y-116249044D01*
X169331995Y-116185110D01*
X169379373Y-116137732D01*
X171448128Y-116137732D01*
X171987712Y-116677316D01*
X170896040Y-116677316D01*
X170876087Y-116675351D01*
X170856134Y-116677316D01*
X170856127Y-116677316D01*
X170803962Y-116682454D01*
X170796418Y-116683197D01*
X170772462Y-116690464D01*
X170719812Y-116706435D01*
X170649211Y-116744172D01*
X170623833Y-116764999D01*
X170602832Y-116782234D01*
X170602827Y-116782239D01*
X170587329Y-116794958D01*
X170574610Y-116810456D01*
X169144747Y-118240320D01*
X169129243Y-118253044D01*
X169078457Y-118314927D01*
X169040721Y-118385527D01*
X169040720Y-118385528D01*
X169017482Y-118462134D01*
X169017311Y-118463873D01*
X169011601Y-118521843D01*
X169011601Y-118521849D01*
X169009636Y-118541802D01*
X169011601Y-118561755D01*
X169011601Y-118754464D01*
X168419403Y-119346662D01*
X168403893Y-119359391D01*
X168353107Y-119421274D01*
X168329221Y-119465962D01*
X168328750Y-119463595D01*
X168284712Y-119357277D01*
X168220778Y-119261594D01*
X168139406Y-119180222D01*
X168043723Y-119116288D01*
X167937405Y-119072250D01*
X167824539Y-119049800D01*
X167709461Y-119049800D01*
X167596595Y-119072250D01*
X167490277Y-119116288D01*
X167394594Y-119180222D01*
X167313222Y-119261594D01*
X167249288Y-119357277D01*
X167205250Y-119463595D01*
X167182800Y-119576461D01*
X167182800Y-119691539D01*
X167205250Y-119804405D01*
X167249288Y-119910723D01*
X167313222Y-120006406D01*
X167360601Y-120053785D01*
X167360600Y-120174692D01*
X166015954Y-118830046D01*
X166093277Y-118881712D01*
X166199595Y-118925750D01*
X166312461Y-118948200D01*
X166427539Y-118948200D01*
X166540405Y-118925750D01*
X166646723Y-118881712D01*
X166742406Y-118817778D01*
X166823778Y-118736406D01*
X166887712Y-118640723D01*
X166931750Y-118534405D01*
X166954200Y-118421539D01*
X166954200Y-118306461D01*
X166931750Y-118193595D01*
X166887712Y-118087277D01*
X166823778Y-117991594D01*
X166742406Y-117910222D01*
X166646723Y-117846288D01*
X166540405Y-117802250D01*
X166427539Y-117779800D01*
X166312461Y-117779800D01*
X166199595Y-117802250D01*
X166093277Y-117846288D01*
X165997594Y-117910222D01*
X165916222Y-117991594D01*
X165852288Y-118087277D01*
X165808250Y-118193595D01*
X165785800Y-118306461D01*
X165785800Y-118421539D01*
X165808250Y-118534405D01*
X165852288Y-118640723D01*
X165903954Y-118718046D01*
X165760401Y-118574493D01*
X165760401Y-118333151D01*
X165762366Y-118313198D01*
X165760401Y-118293245D01*
X165760401Y-118293239D01*
X165755074Y-118239154D01*
X165754520Y-118233530D01*
X165746133Y-118205882D01*
X165731282Y-118156924D01*
X165693545Y-118086323D01*
X165642759Y-118024441D01*
X165627255Y-118011717D01*
X165078539Y-117463001D01*
X165577144Y-117463001D01*
X165594599Y-117464720D01*
X165612054Y-117463001D01*
X165612062Y-117463001D01*
X165664309Y-117457855D01*
X165731339Y-117437522D01*
X165793115Y-117404502D01*
X165847262Y-117360064D01*
X165858398Y-117346495D01*
X166038033Y-117166860D01*
X168037135Y-117166860D01*
X168037135Y-117281938D01*
X168059585Y-117394804D01*
X168103623Y-117501122D01*
X168167557Y-117596805D01*
X168248929Y-117678177D01*
X168344612Y-117742111D01*
X168450930Y-117786149D01*
X168563796Y-117808599D01*
X168678874Y-117808599D01*
X168791740Y-117786149D01*
X168898058Y-117742111D01*
X168993741Y-117678177D01*
X169075113Y-117596805D01*
X169139047Y-117501122D01*
X169183085Y-117394804D01*
X169205535Y-117281938D01*
X169205535Y-117166860D01*
X169183085Y-117053994D01*
X169139047Y-116947676D01*
X169075113Y-116851993D01*
X168993741Y-116770621D01*
X168898058Y-116706687D01*
X168791740Y-116662649D01*
X168678874Y-116640199D01*
X168563796Y-116640199D01*
X168450930Y-116662649D01*
X168344612Y-116706687D01*
X168248929Y-116770621D01*
X168167557Y-116851993D01*
X168103623Y-116947676D01*
X168059585Y-117053994D01*
X168037135Y-117166860D01*
X166038033Y-117166860D01*
X169819294Y-113385600D01*
X172889992Y-113385600D01*
X172901222Y-113402406D01*
X172982594Y-113483778D01*
X173078277Y-113547712D01*
X173184595Y-113591750D01*
X173297461Y-113614200D01*
X173412539Y-113614200D01*
X173525405Y-113591750D01*
X173631723Y-113547712D01*
X173727406Y-113483778D01*
X173808778Y-113402406D01*
X173872712Y-113306723D01*
X173916750Y-113200405D01*
X173939200Y-113087539D01*
X173939200Y-112972461D01*
X173916750Y-112859595D01*
X173872712Y-112753277D01*
X173808778Y-112657594D01*
X173727406Y-112576222D01*
X173631723Y-112512288D01*
X173525405Y-112468250D01*
X173412539Y-112445800D01*
X173297461Y-112445800D01*
X173184595Y-112468250D01*
X173078277Y-112512288D01*
X172982594Y-112576222D01*
X172901222Y-112657594D01*
X172889992Y-112674400D01*
X169689455Y-112674400D01*
X169672000Y-112672681D01*
X169654545Y-112674400D01*
X169654537Y-112674400D01*
X169602290Y-112679546D01*
X169535260Y-112699879D01*
X169473484Y-112732899D01*
X169419337Y-112777337D01*
X169408206Y-112790900D01*
X165447306Y-116751801D01*
X164095751Y-116751801D01*
X164095751Y-115328000D01*
X164090356Y-115273228D01*
X164074380Y-115220561D01*
X164048436Y-115172023D01*
X164013521Y-115129479D01*
X163970977Y-115094564D01*
X163922439Y-115068620D01*
X163869772Y-115052644D01*
X163815000Y-115047249D01*
X163107026Y-115047249D01*
X163097645Y-115024601D01*
X164059208Y-115024601D01*
X164079161Y-115026566D01*
X164099114Y-115024601D01*
X164099121Y-115024601D01*
X164158829Y-115018720D01*
X164235436Y-114995482D01*
X164306037Y-114957745D01*
X164367919Y-114906959D01*
X164380643Y-114891455D01*
X166897261Y-112374838D01*
X166912758Y-112362120D01*
X166925477Y-112346622D01*
X166925482Y-112346617D01*
X166948310Y-112318800D01*
X166963544Y-112300238D01*
X167001281Y-112229637D01*
X167008225Y-112206746D01*
X167024519Y-112153031D01*
X167026086Y-112137116D01*
X167030400Y-112093322D01*
X167030400Y-112093315D01*
X167032365Y-112073362D01*
X167030400Y-112053409D01*
X167030400Y-110909784D01*
X167077778Y-110862406D01*
X167141712Y-110766723D01*
X167185750Y-110660405D01*
X167208200Y-110547539D01*
X167208200Y-110432461D01*
X167185750Y-110319595D01*
X167141712Y-110213277D01*
X167077778Y-110117594D01*
X166996406Y-110036222D01*
X166900723Y-109972288D01*
X166794405Y-109928250D01*
X166681539Y-109905800D01*
X166614537Y-109905800D01*
X165998198Y-109289461D01*
X178644487Y-109289461D01*
X178644487Y-109404539D01*
X178666937Y-109517405D01*
X178710975Y-109623723D01*
X178774909Y-109719406D01*
X178856281Y-109800778D01*
X178951964Y-109864712D01*
X179058282Y-109908750D01*
X179171148Y-109931200D01*
X179286226Y-109931200D01*
X179399092Y-109908750D01*
X179505410Y-109864712D01*
X179601093Y-109800778D01*
X179682465Y-109719406D01*
X179746399Y-109623723D01*
X179790437Y-109517405D01*
X179812887Y-109404539D01*
X179812887Y-109289461D01*
X179790437Y-109176595D01*
X179746399Y-109070277D01*
X179682465Y-108974594D01*
X179601093Y-108893222D01*
X179505410Y-108829288D01*
X179399092Y-108785250D01*
X179286226Y-108762800D01*
X179171148Y-108762800D01*
X179058282Y-108785250D01*
X178951964Y-108829288D01*
X178856281Y-108893222D01*
X178774909Y-108974594D01*
X178710975Y-109070277D01*
X178666937Y-109176595D01*
X178644487Y-109289461D01*
X165998198Y-109289461D01*
X164893481Y-108184745D01*
X164880758Y-108169242D01*
X164818876Y-108118456D01*
X164748275Y-108080719D01*
X164671668Y-108057481D01*
X164611960Y-108051600D01*
X164611953Y-108051600D01*
X164592000Y-108049635D01*
X164572047Y-108051600D01*
X164095751Y-108051600D01*
X164095751Y-107708000D01*
X164090356Y-107653228D01*
X164074380Y-107600561D01*
X164048436Y-107552023D01*
X164013521Y-107509479D01*
X163970977Y-107474564D01*
X163922439Y-107448620D01*
X163869772Y-107432644D01*
X163815000Y-107427249D01*
X162103985Y-107427249D01*
X162068683Y-107391947D01*
X162055959Y-107376443D01*
X161994077Y-107325657D01*
X161923476Y-107287920D01*
X161846869Y-107264682D01*
X161787161Y-107258801D01*
X161787154Y-107258801D01*
X161767201Y-107256836D01*
X161747248Y-107258801D01*
X148640752Y-107258801D01*
X148620799Y-107256836D01*
X148600846Y-107258801D01*
X148600839Y-107258801D01*
X148548403Y-107263966D01*
X148541130Y-107264682D01*
X148469538Y-107286399D01*
X148464524Y-107287920D01*
X148393923Y-107325657D01*
X148369120Y-107346013D01*
X148347544Y-107363719D01*
X148347539Y-107363724D01*
X148332041Y-107376443D01*
X148319321Y-107391942D01*
X148167664Y-107543600D01*
X146629784Y-107543600D01*
X146602406Y-107516222D01*
X146506723Y-107452288D01*
X146400405Y-107408250D01*
X146287539Y-107385800D01*
X146172461Y-107385800D01*
X146059595Y-107408250D01*
X145953277Y-107452288D01*
X145857594Y-107516222D01*
X145776222Y-107597594D01*
X145712288Y-107693277D01*
X145668250Y-107799595D01*
X145645800Y-107912461D01*
X145645800Y-108027539D01*
X145668250Y-108140405D01*
X145712288Y-108246723D01*
X145776222Y-108342406D01*
X145857594Y-108423778D01*
X145953277Y-108487712D01*
X146059595Y-108531750D01*
X146172461Y-108554200D01*
X146287539Y-108554200D01*
X146400405Y-108531750D01*
X146506723Y-108487712D01*
X146602406Y-108423778D01*
X146669784Y-108356400D01*
X148316047Y-108356400D01*
X148336000Y-108358365D01*
X148355953Y-108356400D01*
X148355960Y-108356400D01*
X148415668Y-108350519D01*
X148492275Y-108327281D01*
X148562876Y-108289544D01*
X148624758Y-108238758D01*
X148637482Y-108223254D01*
X148789136Y-108071601D01*
X152325511Y-108071601D01*
X152293450Y-108085967D01*
X152176723Y-108168880D01*
X152078414Y-108272972D01*
X152002301Y-108394243D01*
X151951310Y-108528033D01*
X151927400Y-108669200D01*
X151927400Y-109169200D01*
X152605200Y-109169200D01*
X152605200Y-109149200D01*
X152706800Y-109149200D01*
X152706800Y-109169200D01*
X153384600Y-109169200D01*
X153384600Y-108669200D01*
X153360690Y-108528033D01*
X153309699Y-108394243D01*
X153233586Y-108272972D01*
X153135277Y-108168880D01*
X153018550Y-108085967D01*
X152986489Y-108071601D01*
X161024249Y-108071601D01*
X161024249Y-109208000D01*
X161029644Y-109262772D01*
X161045620Y-109315439D01*
X161071564Y-109363977D01*
X161106479Y-109406521D01*
X161149023Y-109441436D01*
X161197561Y-109467380D01*
X161250228Y-109483356D01*
X161305000Y-109488751D01*
X163815000Y-109488751D01*
X163869772Y-109483356D01*
X163922439Y-109467380D01*
X163970977Y-109441436D01*
X164013521Y-109406521D01*
X164048436Y-109363977D01*
X164074380Y-109315439D01*
X164090356Y-109262772D01*
X164095751Y-109208000D01*
X164095751Y-108864400D01*
X164423664Y-108864400D01*
X165592063Y-110032800D01*
X165550461Y-110032800D01*
X165437595Y-110055250D01*
X165331277Y-110099288D01*
X165235594Y-110163222D01*
X165154222Y-110244594D01*
X165090288Y-110340277D01*
X165046250Y-110446595D01*
X165023800Y-110559461D01*
X165023800Y-110674539D01*
X165027743Y-110694362D01*
X164044585Y-111677522D01*
X164043600Y-111105950D01*
X163986450Y-111048800D01*
X162610800Y-111048800D01*
X162610800Y-111068800D01*
X162509200Y-111068800D01*
X162509200Y-111048800D01*
X161133550Y-111048800D01*
X161076400Y-111105950D01*
X161075294Y-111748000D01*
X161079708Y-111792813D01*
X161092779Y-111835905D01*
X161106508Y-111861590D01*
X160751484Y-111861590D01*
X160537798Y-111647905D01*
X160526663Y-111634337D01*
X160472516Y-111589899D01*
X160410740Y-111556879D01*
X160343710Y-111536546D01*
X160291463Y-111531400D01*
X160291455Y-111531400D01*
X160274000Y-111529681D01*
X160256545Y-111531400D01*
X158640452Y-111531400D01*
X158622999Y-111529681D01*
X158605546Y-111531400D01*
X158605537Y-111531400D01*
X158553290Y-111536546D01*
X158486260Y-111556879D01*
X158424484Y-111589899D01*
X158424482Y-111589900D01*
X158424483Y-111589900D01*
X158383900Y-111623205D01*
X158383895Y-111623210D01*
X158370337Y-111634337D01*
X158359210Y-111647895D01*
X153443760Y-116563347D01*
X153430197Y-116574478D01*
X153385759Y-116628625D01*
X153380880Y-116637753D01*
X153352739Y-116690400D01*
X153332405Y-116757431D01*
X153325540Y-116827141D01*
X153327260Y-116844607D01*
X153327259Y-121649989D01*
X153310453Y-121661219D01*
X153229081Y-121742591D01*
X153217851Y-121759397D01*
X148506887Y-121759397D01*
X148489432Y-121757678D01*
X148471977Y-121759397D01*
X148471970Y-121759397D01*
X148426620Y-121763864D01*
X148419722Y-121764543D01*
X148391006Y-121773254D01*
X148352693Y-121784876D01*
X148290917Y-121817896D01*
X148290915Y-121817897D01*
X148290916Y-121817897D01*
X148250333Y-121851202D01*
X148250328Y-121851207D01*
X148236770Y-121862334D01*
X148225643Y-121875892D01*
X147301394Y-122800142D01*
X147262114Y-122705311D01*
X147198180Y-122609628D01*
X147116808Y-122528256D01*
X147100002Y-122517026D01*
X147100002Y-122163823D01*
X147101721Y-122146370D01*
X147100002Y-122128917D01*
X147100002Y-122128908D01*
X147094856Y-122076661D01*
X147074523Y-122009631D01*
X147073911Y-122008485D01*
X147064220Y-121990355D01*
X147041503Y-121947855D01*
X147032187Y-121936504D01*
X147008197Y-121907271D01*
X147008187Y-121907261D01*
X146997064Y-121893708D01*
X146983512Y-121882586D01*
X145447267Y-120346342D01*
X145451210Y-120326518D01*
X145451210Y-120211440D01*
X145428760Y-120098574D01*
X145384722Y-119992256D01*
X145320788Y-119896573D01*
X145286769Y-119862554D01*
X145320748Y-119828574D01*
X145384682Y-119732891D01*
X145428720Y-119626573D01*
X145451170Y-119513707D01*
X145451170Y-119398629D01*
X145428720Y-119285763D01*
X145384682Y-119179445D01*
X145320748Y-119083762D01*
X145239376Y-119002390D01*
X145143693Y-118938456D01*
X145037375Y-118894418D01*
X144924509Y-118871968D01*
X144853208Y-118871968D01*
X144853208Y-118607063D01*
X144854927Y-118589607D01*
X144853208Y-118572152D01*
X144853208Y-118572145D01*
X144848254Y-118521843D01*
X144848062Y-118519897D01*
X144832113Y-118467320D01*
X144827729Y-118452868D01*
X144798751Y-118398654D01*
X144798751Y-117610000D01*
X144797744Y-117599773D01*
X146286256Y-117599773D01*
X146285249Y-117610000D01*
X146285249Y-118610000D01*
X146290644Y-118664772D01*
X146306620Y-118717439D01*
X146332564Y-118765977D01*
X146341985Y-118777457D01*
X146294354Y-118825088D01*
X146274530Y-118821145D01*
X146159452Y-118821145D01*
X146046586Y-118843595D01*
X145940268Y-118887633D01*
X145844585Y-118951567D01*
X145763213Y-119032939D01*
X145699279Y-119128622D01*
X145655241Y-119234940D01*
X145632791Y-119347806D01*
X145632791Y-119462884D01*
X145655241Y-119575750D01*
X145699279Y-119682068D01*
X145763213Y-119777751D01*
X145844585Y-119859123D01*
X145940268Y-119923057D01*
X146046586Y-119967095D01*
X146159452Y-119989545D01*
X146274530Y-119989545D01*
X146387396Y-119967095D01*
X146493714Y-119923057D01*
X146589397Y-119859123D01*
X146670769Y-119777751D01*
X146734703Y-119682068D01*
X146778741Y-119575750D01*
X146801191Y-119462884D01*
X146801191Y-119347806D01*
X146797248Y-119327982D01*
X147234479Y-118890751D01*
X147566000Y-118890751D01*
X147620772Y-118885356D01*
X147673439Y-118869380D01*
X147721977Y-118843436D01*
X147764521Y-118808521D01*
X147799436Y-118765977D01*
X147825380Y-118717439D01*
X147841356Y-118664772D01*
X147846751Y-118610000D01*
X147846751Y-117610000D01*
X147841356Y-117555228D01*
X147825380Y-117502561D01*
X147799436Y-117454023D01*
X147764521Y-117411479D01*
X147721977Y-117376564D01*
X147673439Y-117350620D01*
X147620772Y-117334644D01*
X147566000Y-117329249D01*
X147398666Y-117329249D01*
X147396121Y-117320860D01*
X147363101Y-117259084D01*
X147318663Y-117204937D01*
X147305099Y-117193805D01*
X147116371Y-117005078D01*
X147105236Y-116991510D01*
X147051089Y-116947072D01*
X146989313Y-116914052D01*
X146922283Y-116893719D01*
X146870036Y-116888573D01*
X146870028Y-116888573D01*
X146852573Y-116886854D01*
X146835118Y-116888573D01*
X143493056Y-116888573D01*
X143507761Y-116814645D01*
X143507761Y-116699567D01*
X143485311Y-116586701D01*
X143441273Y-116480383D01*
X143377339Y-116384700D01*
X143295967Y-116303328D01*
X143200284Y-116239394D01*
X143162574Y-116223774D01*
X143208911Y-116154426D01*
X143252949Y-116048108D01*
X143275399Y-115935242D01*
X143275399Y-115820164D01*
X143252949Y-115707298D01*
X143238585Y-115672619D01*
X143292576Y-115650255D01*
X143388259Y-115586321D01*
X143469631Y-115504949D01*
X143533565Y-115409266D01*
X143577603Y-115302948D01*
X143600053Y-115190082D01*
X143600053Y-115075004D01*
X143577603Y-114962138D01*
X143533565Y-114855820D01*
X143469631Y-114760137D01*
X143388259Y-114678765D01*
X143292576Y-114614831D01*
X143186258Y-114570793D01*
X143073392Y-114548343D01*
X142958314Y-114548343D01*
X142845448Y-114570793D01*
X142739130Y-114614831D01*
X142643447Y-114678765D01*
X142562075Y-114760137D01*
X142498141Y-114855820D01*
X142454103Y-114962138D01*
X142431653Y-115075004D01*
X142431653Y-115190082D01*
X142454103Y-115302948D01*
X142468467Y-115337627D01*
X142414476Y-115359991D01*
X142318793Y-115423925D01*
X142237421Y-115505297D01*
X142173487Y-115600980D01*
X142129449Y-115707298D01*
X142106999Y-115820164D01*
X142106999Y-115935242D01*
X142129449Y-116048108D01*
X142173487Y-116154426D01*
X142237421Y-116250109D01*
X142318793Y-116331481D01*
X142414476Y-116395415D01*
X142452186Y-116411035D01*
X142405849Y-116480383D01*
X142361811Y-116586701D01*
X142339361Y-116699567D01*
X142339361Y-116814645D01*
X142361811Y-116927511D01*
X142364874Y-116934907D01*
X141038135Y-116934907D01*
X140994867Y-116899397D01*
X140933091Y-116866377D01*
X140866061Y-116846044D01*
X140831468Y-116842637D01*
X140819077Y-116824092D01*
X140737705Y-116742720D01*
X140642022Y-116678786D01*
X140535704Y-116634748D01*
X140463870Y-116620460D01*
X140471712Y-116608723D01*
X140515750Y-116502405D01*
X140538200Y-116389539D01*
X140538200Y-116274461D01*
X140534257Y-116254637D01*
X141273382Y-115515513D01*
X141286940Y-115504386D01*
X141298067Y-115490828D01*
X141298072Y-115490823D01*
X141327792Y-115454609D01*
X141331378Y-115450239D01*
X141364398Y-115388463D01*
X141384731Y-115321433D01*
X141389877Y-115269186D01*
X141389877Y-115269177D01*
X141391596Y-115251724D01*
X141389877Y-115234271D01*
X141389877Y-114866409D01*
X142805486Y-113450800D01*
X143262400Y-113450800D01*
X143262400Y-113975800D01*
X143286791Y-114121844D01*
X143339205Y-114260323D01*
X143417628Y-114385916D01*
X143519046Y-114493796D01*
X143639561Y-114579818D01*
X143774543Y-114640675D01*
X143848205Y-114659682D01*
X143965200Y-114619595D01*
X143965200Y-113450800D01*
X144066800Y-113450800D01*
X144066800Y-114619595D01*
X144183795Y-114659682D01*
X144257457Y-114640675D01*
X144392439Y-114579818D01*
X144512954Y-114493796D01*
X144614372Y-114385916D01*
X144692795Y-114260323D01*
X144745209Y-114121844D01*
X144769600Y-113975800D01*
X144769600Y-113450800D01*
X144066800Y-113450800D01*
X143965200Y-113450800D01*
X143262400Y-113450800D01*
X142805486Y-113450800D01*
X143262400Y-112993887D01*
X143262400Y-113349200D01*
X143965200Y-113349200D01*
X143965200Y-113329200D01*
X144066800Y-113329200D01*
X144066800Y-113349200D01*
X144769600Y-113349200D01*
X144769600Y-112840472D01*
X144841600Y-112840472D01*
X144841600Y-112959528D01*
X144864827Y-113076297D01*
X144910388Y-113186291D01*
X144976532Y-113285282D01*
X145060718Y-113369468D01*
X145159709Y-113435612D01*
X145269703Y-113481173D01*
X145386472Y-113504400D01*
X145505528Y-113504400D01*
X145622297Y-113481173D01*
X145732291Y-113435612D01*
X145831282Y-113369468D01*
X145915468Y-113285282D01*
X145981612Y-113186291D01*
X146027173Y-113076297D01*
X146050400Y-112959528D01*
X146050400Y-112840472D01*
X146027173Y-112723703D01*
X145998700Y-112654961D01*
X146037300Y-112654961D01*
X146037300Y-112770039D01*
X146059750Y-112882905D01*
X146103788Y-112989223D01*
X146167722Y-113084906D01*
X146249094Y-113166278D01*
X146344777Y-113230212D01*
X146451095Y-113274250D01*
X146563961Y-113296700D01*
X146679039Y-113296700D01*
X146791905Y-113274250D01*
X146898223Y-113230212D01*
X146993906Y-113166278D01*
X147041284Y-113118900D01*
X148760544Y-113118900D01*
X148780497Y-113120865D01*
X148800450Y-113118900D01*
X148800457Y-113118900D01*
X148860165Y-113113019D01*
X148936772Y-113089781D01*
X149007373Y-113052044D01*
X149069255Y-113001258D01*
X149081979Y-112985754D01*
X149227261Y-112840472D01*
X150621600Y-112840472D01*
X150621600Y-112959528D01*
X150644827Y-113076297D01*
X150690388Y-113186291D01*
X150756532Y-113285282D01*
X150840718Y-113369468D01*
X150939709Y-113435612D01*
X151049703Y-113481173D01*
X151166472Y-113504400D01*
X151285528Y-113504400D01*
X151402297Y-113481173D01*
X151475623Y-113450800D01*
X151902400Y-113450800D01*
X151902400Y-113975800D01*
X151926791Y-114121844D01*
X151979205Y-114260323D01*
X152057628Y-114385916D01*
X152159046Y-114493796D01*
X152279561Y-114579818D01*
X152414543Y-114640675D01*
X152488205Y-114659682D01*
X152605200Y-114619595D01*
X152605200Y-113450800D01*
X152706800Y-113450800D01*
X152706800Y-114619595D01*
X152823795Y-114659682D01*
X152897457Y-114640675D01*
X153032439Y-114579818D01*
X153152954Y-114493796D01*
X153254372Y-114385916D01*
X153332795Y-114260323D01*
X153385209Y-114121844D01*
X153409600Y-113975800D01*
X153409600Y-113450800D01*
X152706800Y-113450800D01*
X152605200Y-113450800D01*
X151902400Y-113450800D01*
X151475623Y-113450800D01*
X151512291Y-113435612D01*
X151611282Y-113369468D01*
X151695468Y-113285282D01*
X151761612Y-113186291D01*
X151807173Y-113076297D01*
X151830400Y-112959528D01*
X151830400Y-112840472D01*
X151827164Y-112824200D01*
X151902400Y-112824200D01*
X151902400Y-113349200D01*
X152605200Y-113349200D01*
X152605200Y-112180405D01*
X152706800Y-112180405D01*
X152706800Y-113349200D01*
X153409600Y-113349200D01*
X153409600Y-112824200D01*
X153385209Y-112678156D01*
X153332795Y-112539677D01*
X153254372Y-112414084D01*
X153152954Y-112306204D01*
X153032439Y-112220182D01*
X152897457Y-112159325D01*
X152823795Y-112140318D01*
X152706800Y-112180405D01*
X152605200Y-112180405D01*
X152488205Y-112140318D01*
X152414543Y-112159325D01*
X152279561Y-112220182D01*
X152159046Y-112306204D01*
X152057628Y-112414084D01*
X151979205Y-112539677D01*
X151926791Y-112678156D01*
X151902400Y-112824200D01*
X151827164Y-112824200D01*
X151807173Y-112723703D01*
X151761612Y-112613709D01*
X151695468Y-112514718D01*
X151611282Y-112430532D01*
X151512291Y-112364388D01*
X151402297Y-112318827D01*
X151285528Y-112295600D01*
X151166472Y-112295600D01*
X151049703Y-112318827D01*
X150939709Y-112364388D01*
X150840718Y-112430532D01*
X150756532Y-112514718D01*
X150690388Y-112613709D01*
X150644827Y-112723703D01*
X150621600Y-112840472D01*
X149227261Y-112840472D01*
X150053734Y-112013999D01*
X150120737Y-112013999D01*
X150233603Y-111991549D01*
X150339921Y-111947511D01*
X150435604Y-111883577D01*
X150516976Y-111802205D01*
X150580910Y-111706522D01*
X150624948Y-111600204D01*
X150647398Y-111487338D01*
X150647398Y-111372260D01*
X150624948Y-111259394D01*
X150580910Y-111153076D01*
X150516976Y-111057393D01*
X150435604Y-110976021D01*
X150339921Y-110912087D01*
X150233603Y-110868049D01*
X150120737Y-110845599D01*
X150005659Y-110845599D01*
X149892793Y-110868049D01*
X149786475Y-110912087D01*
X149690792Y-110976021D01*
X149609420Y-111057393D01*
X149545486Y-111153076D01*
X149501448Y-111259394D01*
X149478998Y-111372260D01*
X149478998Y-111439263D01*
X148612161Y-112306100D01*
X147041284Y-112306100D01*
X146993906Y-112258722D01*
X146898223Y-112194788D01*
X146791905Y-112150750D01*
X146679039Y-112128300D01*
X146563961Y-112128300D01*
X146451095Y-112150750D01*
X146344777Y-112194788D01*
X146249094Y-112258722D01*
X146167722Y-112340094D01*
X146103788Y-112435777D01*
X146059750Y-112542095D01*
X146037300Y-112654961D01*
X145998700Y-112654961D01*
X145981612Y-112613709D01*
X145915468Y-112514718D01*
X145831282Y-112430532D01*
X145732291Y-112364388D01*
X145622297Y-112318827D01*
X145505528Y-112295600D01*
X145386472Y-112295600D01*
X145269703Y-112318827D01*
X145159709Y-112364388D01*
X145060718Y-112430532D01*
X144976532Y-112514718D01*
X144910388Y-112613709D01*
X144864827Y-112723703D01*
X144841600Y-112840472D01*
X144769600Y-112840472D01*
X144769600Y-112824200D01*
X144745209Y-112678156D01*
X144692795Y-112539677D01*
X144614372Y-112414084D01*
X144512954Y-112306204D01*
X144392439Y-112220182D01*
X144257457Y-112159325D01*
X144183795Y-112140318D01*
X144080615Y-112175671D01*
X145029687Y-111226600D01*
X147489992Y-111226600D01*
X147501222Y-111243406D01*
X147582594Y-111324778D01*
X147678277Y-111388712D01*
X147784595Y-111432750D01*
X147897461Y-111455200D01*
X148012539Y-111455200D01*
X148125405Y-111432750D01*
X148231723Y-111388712D01*
X148327406Y-111324778D01*
X148408778Y-111243406D01*
X148472712Y-111147723D01*
X148516750Y-111041405D01*
X148539200Y-110928539D01*
X148539200Y-110813461D01*
X148516750Y-110700595D01*
X148472712Y-110594277D01*
X148408778Y-110498594D01*
X148327406Y-110417222D01*
X148231723Y-110353288D01*
X148125405Y-110309250D01*
X148012539Y-110286800D01*
X147897461Y-110286800D01*
X147784595Y-110309250D01*
X147678277Y-110353288D01*
X147582594Y-110417222D01*
X147501222Y-110498594D01*
X147489992Y-110515400D01*
X144899848Y-110515400D01*
X144882393Y-110513681D01*
X144864937Y-110515400D01*
X144864930Y-110515400D01*
X144818959Y-110519928D01*
X144812682Y-110520546D01*
X144799783Y-110524459D01*
X144745653Y-110540879D01*
X144683877Y-110573899D01*
X144629730Y-110618337D01*
X144618599Y-110631900D01*
X142138399Y-113112101D01*
X142138399Y-109270800D01*
X143287400Y-109270800D01*
X143287400Y-109770800D01*
X143311310Y-109911967D01*
X143362301Y-110045757D01*
X143438414Y-110167028D01*
X143536723Y-110271120D01*
X143653450Y-110354033D01*
X143784110Y-110412580D01*
X143852125Y-110429932D01*
X143965200Y-110389526D01*
X143965200Y-109270800D01*
X144066800Y-109270800D01*
X144066800Y-110389526D01*
X144179875Y-110429932D01*
X144247890Y-110412580D01*
X144378550Y-110354033D01*
X144495277Y-110271120D01*
X144593586Y-110167028D01*
X144669699Y-110045757D01*
X144720690Y-109911967D01*
X144744600Y-109770800D01*
X144744600Y-109270800D01*
X144066800Y-109270800D01*
X143965200Y-109270800D01*
X143287400Y-109270800D01*
X142138399Y-109270800D01*
X142138399Y-108669200D01*
X143287400Y-108669200D01*
X143287400Y-109169200D01*
X143965200Y-109169200D01*
X143965200Y-108050474D01*
X143852125Y-108010068D01*
X143784110Y-108027420D01*
X143653450Y-108085967D01*
X143536723Y-108168880D01*
X143438414Y-108272972D01*
X143362301Y-108394243D01*
X143311310Y-108528033D01*
X143287400Y-108669200D01*
X142138399Y-108669200D01*
X142138399Y-108399254D01*
X142140118Y-108381799D01*
X142138399Y-108364343D01*
X142138399Y-108364336D01*
X142133253Y-108312089D01*
X142130110Y-108301726D01*
X142123610Y-108280301D01*
X142112920Y-108245059D01*
X142079900Y-108183283D01*
X142057849Y-108156415D01*
X142062200Y-108134539D01*
X142062200Y-108019461D01*
X142039750Y-107906595D01*
X142036687Y-107899199D01*
X144101686Y-107899199D01*
X144223747Y-108021261D01*
X144179875Y-108010068D01*
X144066800Y-108050474D01*
X144066800Y-109169200D01*
X144744600Y-109169200D01*
X144744600Y-108669200D01*
X144720690Y-108528033D01*
X144714637Y-108512151D01*
X145761590Y-109559105D01*
X145772717Y-109572663D01*
X145786275Y-109583790D01*
X145786280Y-109583795D01*
X145812901Y-109605642D01*
X145826864Y-109617101D01*
X145888640Y-109650121D01*
X145955670Y-109670454D01*
X146007917Y-109675600D01*
X146007926Y-109675600D01*
X146025379Y-109677319D01*
X146042832Y-109675600D01*
X150651655Y-109675600D01*
X154118158Y-113142105D01*
X154129285Y-113155663D01*
X154142843Y-113166790D01*
X154142848Y-113166795D01*
X154168134Y-113187546D01*
X154183432Y-113200101D01*
X154245208Y-113233121D01*
X154255606Y-113236275D01*
X154312237Y-113253454D01*
X154319135Y-113254133D01*
X154346831Y-113256861D01*
X154359222Y-113275406D01*
X154440594Y-113356778D01*
X154536277Y-113420712D01*
X154642595Y-113464750D01*
X154755461Y-113487200D01*
X154870539Y-113487200D01*
X154983405Y-113464750D01*
X155089723Y-113420712D01*
X155185406Y-113356778D01*
X155266778Y-113275406D01*
X155330712Y-113179723D01*
X155374750Y-113073405D01*
X155397200Y-112960539D01*
X155397200Y-112845461D01*
X155374750Y-112732595D01*
X155330712Y-112626277D01*
X155266778Y-112530594D01*
X155185406Y-112449222D01*
X155089723Y-112385288D01*
X154983405Y-112341250D01*
X154870539Y-112318800D01*
X154755461Y-112318800D01*
X154642595Y-112341250D01*
X154536277Y-112385288D01*
X154440594Y-112449222D01*
X154435829Y-112453987D01*
X152370318Y-110388477D01*
X152424110Y-110412580D01*
X152492125Y-110429932D01*
X152605200Y-110389526D01*
X152605200Y-109270800D01*
X152706800Y-109270800D01*
X152706800Y-110389526D01*
X152819875Y-110429932D01*
X152866017Y-110418160D01*
X155758600Y-110418160D01*
X155758600Y-110561840D01*
X155786631Y-110702758D01*
X155841614Y-110835500D01*
X155921438Y-110954965D01*
X156023035Y-111056562D01*
X156142500Y-111136386D01*
X156275242Y-111191369D01*
X156416160Y-111219400D01*
X156559840Y-111219400D01*
X156700758Y-111191369D01*
X156833500Y-111136386D01*
X156952965Y-111056562D01*
X157054562Y-110954965D01*
X157134386Y-110835500D01*
X157189369Y-110702758D01*
X157217400Y-110561840D01*
X157217400Y-110418160D01*
X158758600Y-110418160D01*
X158758600Y-110561840D01*
X158786631Y-110702758D01*
X158841614Y-110835500D01*
X158921438Y-110954965D01*
X159023035Y-111056562D01*
X159142500Y-111136386D01*
X159275242Y-111191369D01*
X159416160Y-111219400D01*
X159559840Y-111219400D01*
X159700758Y-111191369D01*
X159833500Y-111136386D01*
X159952965Y-111056562D01*
X160054562Y-110954965D01*
X160134386Y-110835500D01*
X160189369Y-110702758D01*
X160217400Y-110561840D01*
X160217400Y-110418160D01*
X160189369Y-110277242D01*
X160177257Y-110248000D01*
X161075294Y-110248000D01*
X161076400Y-110890050D01*
X161133550Y-110947200D01*
X162509200Y-110947200D01*
X162509200Y-110076550D01*
X162610800Y-110076550D01*
X162610800Y-110947200D01*
X163986450Y-110947200D01*
X164043600Y-110890050D01*
X164044706Y-110248000D01*
X164040292Y-110203187D01*
X164027221Y-110160095D01*
X164005994Y-110120382D01*
X163977427Y-110085573D01*
X163942618Y-110057006D01*
X163902905Y-110035779D01*
X163859813Y-110022708D01*
X163815000Y-110018294D01*
X162667950Y-110019400D01*
X162610800Y-110076550D01*
X162509200Y-110076550D01*
X162452050Y-110019400D01*
X161305000Y-110018294D01*
X161260187Y-110022708D01*
X161217095Y-110035779D01*
X161177382Y-110057006D01*
X161142573Y-110085573D01*
X161114006Y-110120382D01*
X161092779Y-110160095D01*
X161079708Y-110203187D01*
X161075294Y-110248000D01*
X160177257Y-110248000D01*
X160134386Y-110144500D01*
X160054562Y-110025035D01*
X159952965Y-109923438D01*
X159833500Y-109843614D01*
X159700758Y-109788631D01*
X159559840Y-109760600D01*
X159416160Y-109760600D01*
X159275242Y-109788631D01*
X159142500Y-109843614D01*
X159023035Y-109923438D01*
X158921438Y-110025035D01*
X158841614Y-110144500D01*
X158786631Y-110277242D01*
X158758600Y-110418160D01*
X157217400Y-110418160D01*
X157189369Y-110277242D01*
X157134386Y-110144500D01*
X157054562Y-110025035D01*
X156952965Y-109923438D01*
X156833500Y-109843614D01*
X156700758Y-109788631D01*
X156559840Y-109760600D01*
X156416160Y-109760600D01*
X156275242Y-109788631D01*
X156142500Y-109843614D01*
X156023035Y-109923438D01*
X155921438Y-110025035D01*
X155841614Y-110144500D01*
X155786631Y-110277242D01*
X155758600Y-110418160D01*
X152866017Y-110418160D01*
X152887890Y-110412580D01*
X153018550Y-110354033D01*
X153135277Y-110271120D01*
X153233586Y-110167028D01*
X153309699Y-110045757D01*
X153360690Y-109911967D01*
X153384600Y-109770800D01*
X153384600Y-109270800D01*
X152706800Y-109270800D01*
X152605200Y-109270800D01*
X151927400Y-109270800D01*
X151927400Y-109770800D01*
X151951310Y-109911967D01*
X151986722Y-110004880D01*
X151062747Y-109080906D01*
X151051611Y-109067337D01*
X150997464Y-109022899D01*
X150935688Y-108989879D01*
X150868658Y-108969546D01*
X150816411Y-108964400D01*
X150816403Y-108964400D01*
X150798948Y-108962681D01*
X150781493Y-108964400D01*
X146172675Y-108964400D01*
X144512778Y-107304505D01*
X144501642Y-107290936D01*
X144447495Y-107246498D01*
X144385719Y-107213478D01*
X144318689Y-107193145D01*
X144266442Y-107187999D01*
X144266434Y-107187999D01*
X144248979Y-107186280D01*
X144231524Y-107187999D01*
X140046640Y-107187999D01*
X140029185Y-107186280D01*
X140011730Y-107187999D01*
X140011722Y-107187999D01*
X139959475Y-107193145D01*
X139892445Y-107213478D01*
X139879497Y-107220399D01*
X139830669Y-107246498D01*
X139791494Y-107278649D01*
X139776522Y-107290936D01*
X139765390Y-107304500D01*
X139649201Y-107420689D01*
X139406011Y-107177500D01*
X139394876Y-107163932D01*
X139340729Y-107119494D01*
X139278953Y-107086474D01*
X139211923Y-107066141D01*
X139159676Y-107060995D01*
X139159668Y-107060995D01*
X139142213Y-107059276D01*
X139124758Y-107060995D01*
X137027082Y-107060995D01*
X137009629Y-107059276D01*
X136992176Y-107060995D01*
X136992167Y-107060995D01*
X136939920Y-107066141D01*
X136872890Y-107086474D01*
X136811114Y-107119494D01*
X136806957Y-107122906D01*
X136770530Y-107152800D01*
X136770525Y-107152805D01*
X136756967Y-107163932D01*
X136745840Y-107177490D01*
X136158901Y-107764431D01*
X136145337Y-107775563D01*
X136100899Y-107829710D01*
X136070012Y-107887495D01*
X136068786Y-107889790D01*
X136067879Y-107891486D01*
X136047546Y-107958516D01*
X136042400Y-108010763D01*
X136042400Y-108010770D01*
X136042157Y-108013236D01*
X135968924Y-108062169D01*
X135875169Y-108155924D01*
X135801506Y-108266168D01*
X135763000Y-108359131D01*
X135724494Y-108266168D01*
X135650831Y-108155924D01*
X135557076Y-108062169D01*
X135446832Y-107988506D01*
X135324336Y-107937767D01*
X135194295Y-107911900D01*
X135061705Y-107911900D01*
X134931664Y-107937767D01*
X134809168Y-107988506D01*
X134698924Y-108062169D01*
X134605169Y-108155924D01*
X134531506Y-108266168D01*
X134493000Y-108359131D01*
X134454494Y-108266168D01*
X134380831Y-108155924D01*
X134287076Y-108062169D01*
X134176832Y-107988506D01*
X134054336Y-107937767D01*
X133924295Y-107911900D01*
X133791705Y-107911900D01*
X133661664Y-107937767D01*
X133539168Y-107988506D01*
X133428924Y-108062169D01*
X133335169Y-108155924D01*
X133261506Y-108266168D01*
X133223000Y-108359131D01*
X133184494Y-108266168D01*
X133110831Y-108155924D01*
X133017076Y-108062169D01*
X132906832Y-107988506D01*
X132784336Y-107937767D01*
X132654295Y-107911900D01*
X132521705Y-107911900D01*
X132391664Y-107937767D01*
X132269168Y-107988506D01*
X132158924Y-108062169D01*
X132065169Y-108155924D01*
X131991506Y-108266168D01*
X131953000Y-108359131D01*
X131914494Y-108266168D01*
X131840831Y-108155924D01*
X131747076Y-108062169D01*
X131636832Y-107988506D01*
X131514336Y-107937767D01*
X131384295Y-107911900D01*
X131251705Y-107911900D01*
X131121664Y-107937767D01*
X131076700Y-107956392D01*
X131076700Y-106921300D01*
X182614202Y-106921300D01*
X182776250Y-106937189D01*
%TA.AperFunction,Conductor*%
D21*
G36*
X182776250Y-106937189D02*
G01*
X182920776Y-106980825D01*
X183054071Y-107051699D01*
X183171065Y-107147117D01*
X183267298Y-107263443D01*
X183339100Y-107396238D01*
X183383743Y-107540459D01*
X183400700Y-107701790D01*
X183400700Y-111222580D01*
X183342468Y-111198460D01*
X183229602Y-111176010D01*
X183114524Y-111176010D01*
X183001658Y-111198460D01*
X182943453Y-111222569D01*
X182943453Y-110993608D01*
X182945418Y-110973655D01*
X182943453Y-110953702D01*
X182943453Y-110953696D01*
X182937572Y-110893988D01*
X182936378Y-110890050D01*
X182923756Y-110848442D01*
X182914334Y-110817381D01*
X182876597Y-110746780D01*
X182825811Y-110684898D01*
X182810308Y-110672175D01*
X182151666Y-110013533D01*
X182138942Y-109998029D01*
X182077060Y-109947243D01*
X182006459Y-109909506D01*
X181929852Y-109886268D01*
X181870144Y-109880387D01*
X181870137Y-109880387D01*
X181850184Y-109878422D01*
X181830231Y-109880387D01*
X180013166Y-109880387D01*
X179993213Y-109878422D01*
X179973260Y-109880387D01*
X179973253Y-109880387D01*
X179920817Y-109885552D01*
X179913544Y-109886268D01*
X179849155Y-109905800D01*
X179836938Y-109909506D01*
X179766337Y-109947243D01*
X179744788Y-109964928D01*
X179719958Y-109985305D01*
X179719953Y-109985310D01*
X179704455Y-109998029D01*
X179691736Y-110013527D01*
X178081761Y-111623502D01*
X178121184Y-111528327D01*
X178143634Y-111415461D01*
X178143634Y-111300383D01*
X178121184Y-111187517D01*
X178077146Y-111081199D01*
X178013212Y-110985516D01*
X177931840Y-110904144D01*
X177836157Y-110840210D01*
X177729839Y-110796172D01*
X177616973Y-110773722D01*
X177501895Y-110773722D01*
X177389029Y-110796172D01*
X177282711Y-110840210D01*
X177187028Y-110904144D01*
X177105656Y-110985516D01*
X177041722Y-111081199D01*
X176997684Y-111187517D01*
X176975234Y-111300383D01*
X176975234Y-111415461D01*
X176997684Y-111528327D01*
X177041722Y-111634645D01*
X177105656Y-111730328D01*
X177187028Y-111811700D01*
X177282711Y-111875634D01*
X177389029Y-111919672D01*
X177501895Y-111942122D01*
X177616973Y-111942122D01*
X177729839Y-111919672D01*
X177825015Y-111880249D01*
X177656015Y-112049249D01*
X176300000Y-112049249D01*
X176245228Y-112054644D01*
X176192561Y-112070620D01*
X176144023Y-112096564D01*
X176101479Y-112131479D01*
X176066564Y-112174023D01*
X176040620Y-112222561D01*
X176024644Y-112275228D01*
X176019249Y-112330000D01*
X176019249Y-112630000D01*
X176024644Y-112684772D01*
X176040620Y-112737439D01*
X176063369Y-112780000D01*
X176040620Y-112822561D01*
X176024644Y-112875228D01*
X176019249Y-112930000D01*
X176019249Y-113230000D01*
X176024644Y-113284772D01*
X176040620Y-113337439D01*
X176063369Y-113380000D01*
X176040620Y-113422561D01*
X176024644Y-113475228D01*
X176019249Y-113530000D01*
X176019249Y-113830000D01*
X176024644Y-113884772D01*
X176040620Y-113937439D01*
X176063369Y-113980000D01*
X176040620Y-114022561D01*
X176024644Y-114075228D01*
X176019249Y-114130000D01*
X176019249Y-114430000D01*
X176024644Y-114484772D01*
X176040620Y-114537439D01*
X176063369Y-114580000D01*
X176040620Y-114622561D01*
X176024644Y-114675228D01*
X176019249Y-114730000D01*
X176019249Y-115030000D01*
X176024644Y-115084772D01*
X176040620Y-115137439D01*
X176063369Y-115180000D01*
X176040620Y-115222561D01*
X176024644Y-115275228D01*
X176019249Y-115330000D01*
X176019249Y-115392465D01*
X176004333Y-115382498D01*
X175898015Y-115338460D01*
X175785149Y-115316010D01*
X175670071Y-115316010D01*
X175557205Y-115338460D01*
X175450887Y-115382498D01*
X175355204Y-115446432D01*
X175273832Y-115527804D01*
X175209898Y-115623487D01*
X175165860Y-115729805D01*
X175143410Y-115842671D01*
X175143410Y-115957749D01*
X175165860Y-116070615D01*
X175209898Y-116176933D01*
X175273832Y-116272616D01*
X175355204Y-116353988D01*
X175450887Y-116417922D01*
X175557205Y-116461960D01*
X175670071Y-116484410D01*
X175785149Y-116484410D01*
X175898015Y-116461960D01*
X176004333Y-116417922D01*
X176062769Y-116378876D01*
X176063369Y-116380000D01*
X176040620Y-116422561D01*
X176024644Y-116475228D01*
X176019249Y-116530000D01*
X176019249Y-116830000D01*
X176023544Y-116873600D01*
X173333468Y-116873600D01*
X171917946Y-115458078D01*
X171905222Y-115442574D01*
X171843340Y-115391788D01*
X171772739Y-115354051D01*
X171696132Y-115330813D01*
X171636424Y-115324932D01*
X171636417Y-115324932D01*
X171616464Y-115322967D01*
X171596511Y-115324932D01*
X169379373Y-115324932D01*
X169331995Y-115277554D01*
X169236312Y-115213620D01*
X169129994Y-115169582D01*
X169017128Y-115147132D01*
X168902050Y-115147132D01*
X168789184Y-115169582D01*
X168682866Y-115213620D01*
X168587183Y-115277554D01*
X168505811Y-115358926D01*
X168441877Y-115454609D01*
X168397839Y-115560927D01*
X168375389Y-115673793D01*
X168375389Y-115788871D01*
X168397839Y-115901737D01*
X168441877Y-116008055D01*
X168505811Y-116103738D01*
X168587183Y-116185110D01*
X168682866Y-116249044D01*
X168789184Y-116293082D01*
X168902050Y-116315532D01*
X169017128Y-116315532D01*
X169129994Y-116293082D01*
X169236312Y-116249044D01*
X169331995Y-116185110D01*
X169379373Y-116137732D01*
X171448128Y-116137732D01*
X171987712Y-116677316D01*
X170896040Y-116677316D01*
X170876087Y-116675351D01*
X170856134Y-116677316D01*
X170856127Y-116677316D01*
X170803962Y-116682454D01*
X170796418Y-116683197D01*
X170772462Y-116690464D01*
X170719812Y-116706435D01*
X170649211Y-116744172D01*
X170623833Y-116764999D01*
X170602832Y-116782234D01*
X170602827Y-116782239D01*
X170587329Y-116794958D01*
X170574610Y-116810456D01*
X169144747Y-118240320D01*
X169129243Y-118253044D01*
X169078457Y-118314927D01*
X169040721Y-118385527D01*
X169040720Y-118385528D01*
X169017482Y-118462134D01*
X169017311Y-118463873D01*
X169011601Y-118521843D01*
X169011601Y-118521849D01*
X169009636Y-118541802D01*
X169011601Y-118561755D01*
X169011601Y-118754464D01*
X168419403Y-119346662D01*
X168403893Y-119359391D01*
X168353107Y-119421274D01*
X168329221Y-119465962D01*
X168328750Y-119463595D01*
X168284712Y-119357277D01*
X168220778Y-119261594D01*
X168139406Y-119180222D01*
X168043723Y-119116288D01*
X167937405Y-119072250D01*
X167824539Y-119049800D01*
X167709461Y-119049800D01*
X167596595Y-119072250D01*
X167490277Y-119116288D01*
X167394594Y-119180222D01*
X167313222Y-119261594D01*
X167249288Y-119357277D01*
X167205250Y-119463595D01*
X167182800Y-119576461D01*
X167182800Y-119691539D01*
X167205250Y-119804405D01*
X167249288Y-119910723D01*
X167313222Y-120006406D01*
X167360601Y-120053785D01*
X167360600Y-120174692D01*
X166015954Y-118830046D01*
X166093277Y-118881712D01*
X166199595Y-118925750D01*
X166312461Y-118948200D01*
X166427539Y-118948200D01*
X166540405Y-118925750D01*
X166646723Y-118881712D01*
X166742406Y-118817778D01*
X166823778Y-118736406D01*
X166887712Y-118640723D01*
X166931750Y-118534405D01*
X166954200Y-118421539D01*
X166954200Y-118306461D01*
X166931750Y-118193595D01*
X166887712Y-118087277D01*
X166823778Y-117991594D01*
X166742406Y-117910222D01*
X166646723Y-117846288D01*
X166540405Y-117802250D01*
X166427539Y-117779800D01*
X166312461Y-117779800D01*
X166199595Y-117802250D01*
X166093277Y-117846288D01*
X165997594Y-117910222D01*
X165916222Y-117991594D01*
X165852288Y-118087277D01*
X165808250Y-118193595D01*
X165785800Y-118306461D01*
X165785800Y-118421539D01*
X165808250Y-118534405D01*
X165852288Y-118640723D01*
X165903954Y-118718046D01*
X165760401Y-118574493D01*
X165760401Y-118333151D01*
X165762366Y-118313198D01*
X165760401Y-118293245D01*
X165760401Y-118293239D01*
X165755074Y-118239154D01*
X165754520Y-118233530D01*
X165746133Y-118205882D01*
X165731282Y-118156924D01*
X165693545Y-118086323D01*
X165642759Y-118024441D01*
X165627255Y-118011717D01*
X165078539Y-117463001D01*
X165577144Y-117463001D01*
X165594599Y-117464720D01*
X165612054Y-117463001D01*
X165612062Y-117463001D01*
X165664309Y-117457855D01*
X165731339Y-117437522D01*
X165793115Y-117404502D01*
X165847262Y-117360064D01*
X165858398Y-117346495D01*
X166038033Y-117166860D01*
X168037135Y-117166860D01*
X168037135Y-117281938D01*
X168059585Y-117394804D01*
X168103623Y-117501122D01*
X168167557Y-117596805D01*
X168248929Y-117678177D01*
X168344612Y-117742111D01*
X168450930Y-117786149D01*
X168563796Y-117808599D01*
X168678874Y-117808599D01*
X168791740Y-117786149D01*
X168898058Y-117742111D01*
X168993741Y-117678177D01*
X169075113Y-117596805D01*
X169139047Y-117501122D01*
X169183085Y-117394804D01*
X169205535Y-117281938D01*
X169205535Y-117166860D01*
X169183085Y-117053994D01*
X169139047Y-116947676D01*
X169075113Y-116851993D01*
X168993741Y-116770621D01*
X168898058Y-116706687D01*
X168791740Y-116662649D01*
X168678874Y-116640199D01*
X168563796Y-116640199D01*
X168450930Y-116662649D01*
X168344612Y-116706687D01*
X168248929Y-116770621D01*
X168167557Y-116851993D01*
X168103623Y-116947676D01*
X168059585Y-117053994D01*
X168037135Y-117166860D01*
X166038033Y-117166860D01*
X169819294Y-113385600D01*
X172889992Y-113385600D01*
X172901222Y-113402406D01*
X172982594Y-113483778D01*
X173078277Y-113547712D01*
X173184595Y-113591750D01*
X173297461Y-113614200D01*
X173412539Y-113614200D01*
X173525405Y-113591750D01*
X173631723Y-113547712D01*
X173727406Y-113483778D01*
X173808778Y-113402406D01*
X173872712Y-113306723D01*
X173916750Y-113200405D01*
X173939200Y-113087539D01*
X173939200Y-112972461D01*
X173916750Y-112859595D01*
X173872712Y-112753277D01*
X173808778Y-112657594D01*
X173727406Y-112576222D01*
X173631723Y-112512288D01*
X173525405Y-112468250D01*
X173412539Y-112445800D01*
X173297461Y-112445800D01*
X173184595Y-112468250D01*
X173078277Y-112512288D01*
X172982594Y-112576222D01*
X172901222Y-112657594D01*
X172889992Y-112674400D01*
X169689455Y-112674400D01*
X169672000Y-112672681D01*
X169654545Y-112674400D01*
X169654537Y-112674400D01*
X169602290Y-112679546D01*
X169535260Y-112699879D01*
X169473484Y-112732899D01*
X169419337Y-112777337D01*
X169408206Y-112790900D01*
X165447306Y-116751801D01*
X164095751Y-116751801D01*
X164095751Y-115328000D01*
X164090356Y-115273228D01*
X164074380Y-115220561D01*
X164048436Y-115172023D01*
X164013521Y-115129479D01*
X163970977Y-115094564D01*
X163922439Y-115068620D01*
X163869772Y-115052644D01*
X163815000Y-115047249D01*
X163107026Y-115047249D01*
X163097645Y-115024601D01*
X164059208Y-115024601D01*
X164079161Y-115026566D01*
X164099114Y-115024601D01*
X164099121Y-115024601D01*
X164158829Y-115018720D01*
X164235436Y-114995482D01*
X164306037Y-114957745D01*
X164367919Y-114906959D01*
X164380643Y-114891455D01*
X166897261Y-112374838D01*
X166912758Y-112362120D01*
X166925477Y-112346622D01*
X166925482Y-112346617D01*
X166948310Y-112318800D01*
X166963544Y-112300238D01*
X167001281Y-112229637D01*
X167008225Y-112206746D01*
X167024519Y-112153031D01*
X167026086Y-112137116D01*
X167030400Y-112093322D01*
X167030400Y-112093315D01*
X167032365Y-112073362D01*
X167030400Y-112053409D01*
X167030400Y-110909784D01*
X167077778Y-110862406D01*
X167141712Y-110766723D01*
X167185750Y-110660405D01*
X167208200Y-110547539D01*
X167208200Y-110432461D01*
X167185750Y-110319595D01*
X167141712Y-110213277D01*
X167077778Y-110117594D01*
X166996406Y-110036222D01*
X166900723Y-109972288D01*
X166794405Y-109928250D01*
X166681539Y-109905800D01*
X166614537Y-109905800D01*
X165998198Y-109289461D01*
X178644487Y-109289461D01*
X178644487Y-109404539D01*
X178666937Y-109517405D01*
X178710975Y-109623723D01*
X178774909Y-109719406D01*
X178856281Y-109800778D01*
X178951964Y-109864712D01*
X179058282Y-109908750D01*
X179171148Y-109931200D01*
X179286226Y-109931200D01*
X179399092Y-109908750D01*
X179505410Y-109864712D01*
X179601093Y-109800778D01*
X179682465Y-109719406D01*
X179746399Y-109623723D01*
X179790437Y-109517405D01*
X179812887Y-109404539D01*
X179812887Y-109289461D01*
X179790437Y-109176595D01*
X179746399Y-109070277D01*
X179682465Y-108974594D01*
X179601093Y-108893222D01*
X179505410Y-108829288D01*
X179399092Y-108785250D01*
X179286226Y-108762800D01*
X179171148Y-108762800D01*
X179058282Y-108785250D01*
X178951964Y-108829288D01*
X178856281Y-108893222D01*
X178774909Y-108974594D01*
X178710975Y-109070277D01*
X178666937Y-109176595D01*
X178644487Y-109289461D01*
X165998198Y-109289461D01*
X164893481Y-108184745D01*
X164880758Y-108169242D01*
X164818876Y-108118456D01*
X164748275Y-108080719D01*
X164671668Y-108057481D01*
X164611960Y-108051600D01*
X164611953Y-108051600D01*
X164592000Y-108049635D01*
X164572047Y-108051600D01*
X164095751Y-108051600D01*
X164095751Y-107708000D01*
X164090356Y-107653228D01*
X164074380Y-107600561D01*
X164048436Y-107552023D01*
X164013521Y-107509479D01*
X163970977Y-107474564D01*
X163922439Y-107448620D01*
X163869772Y-107432644D01*
X163815000Y-107427249D01*
X162103985Y-107427249D01*
X162068683Y-107391947D01*
X162055959Y-107376443D01*
X161994077Y-107325657D01*
X161923476Y-107287920D01*
X161846869Y-107264682D01*
X161787161Y-107258801D01*
X161787154Y-107258801D01*
X161767201Y-107256836D01*
X161747248Y-107258801D01*
X148640752Y-107258801D01*
X148620799Y-107256836D01*
X148600846Y-107258801D01*
X148600839Y-107258801D01*
X148548403Y-107263966D01*
X148541130Y-107264682D01*
X148469538Y-107286399D01*
X148464524Y-107287920D01*
X148393923Y-107325657D01*
X148369120Y-107346013D01*
X148347544Y-107363719D01*
X148347539Y-107363724D01*
X148332041Y-107376443D01*
X148319321Y-107391942D01*
X148167664Y-107543600D01*
X146629784Y-107543600D01*
X146602406Y-107516222D01*
X146506723Y-107452288D01*
X146400405Y-107408250D01*
X146287539Y-107385800D01*
X146172461Y-107385800D01*
X146059595Y-107408250D01*
X145953277Y-107452288D01*
X145857594Y-107516222D01*
X145776222Y-107597594D01*
X145712288Y-107693277D01*
X145668250Y-107799595D01*
X145645800Y-107912461D01*
X145645800Y-108027539D01*
X145668250Y-108140405D01*
X145712288Y-108246723D01*
X145776222Y-108342406D01*
X145857594Y-108423778D01*
X145953277Y-108487712D01*
X146059595Y-108531750D01*
X146172461Y-108554200D01*
X146287539Y-108554200D01*
X146400405Y-108531750D01*
X146506723Y-108487712D01*
X146602406Y-108423778D01*
X146669784Y-108356400D01*
X148316047Y-108356400D01*
X148336000Y-108358365D01*
X148355953Y-108356400D01*
X148355960Y-108356400D01*
X148415668Y-108350519D01*
X148492275Y-108327281D01*
X148562876Y-108289544D01*
X148624758Y-108238758D01*
X148637482Y-108223254D01*
X148789136Y-108071601D01*
X152325511Y-108071601D01*
X152293450Y-108085967D01*
X152176723Y-108168880D01*
X152078414Y-108272972D01*
X152002301Y-108394243D01*
X151951310Y-108528033D01*
X151927400Y-108669200D01*
X151927400Y-109169200D01*
X152605200Y-109169200D01*
X152605200Y-109149200D01*
X152706800Y-109149200D01*
X152706800Y-109169200D01*
X153384600Y-109169200D01*
X153384600Y-108669200D01*
X153360690Y-108528033D01*
X153309699Y-108394243D01*
X153233586Y-108272972D01*
X153135277Y-108168880D01*
X153018550Y-108085967D01*
X152986489Y-108071601D01*
X161024249Y-108071601D01*
X161024249Y-109208000D01*
X161029644Y-109262772D01*
X161045620Y-109315439D01*
X161071564Y-109363977D01*
X161106479Y-109406521D01*
X161149023Y-109441436D01*
X161197561Y-109467380D01*
X161250228Y-109483356D01*
X161305000Y-109488751D01*
X163815000Y-109488751D01*
X163869772Y-109483356D01*
X163922439Y-109467380D01*
X163970977Y-109441436D01*
X164013521Y-109406521D01*
X164048436Y-109363977D01*
X164074380Y-109315439D01*
X164090356Y-109262772D01*
X164095751Y-109208000D01*
X164095751Y-108864400D01*
X164423664Y-108864400D01*
X165592063Y-110032800D01*
X165550461Y-110032800D01*
X165437595Y-110055250D01*
X165331277Y-110099288D01*
X165235594Y-110163222D01*
X165154222Y-110244594D01*
X165090288Y-110340277D01*
X165046250Y-110446595D01*
X165023800Y-110559461D01*
X165023800Y-110674539D01*
X165027743Y-110694362D01*
X164044585Y-111677522D01*
X164043600Y-111105950D01*
X163986450Y-111048800D01*
X162610800Y-111048800D01*
X162610800Y-111068800D01*
X162509200Y-111068800D01*
X162509200Y-111048800D01*
X161133550Y-111048800D01*
X161076400Y-111105950D01*
X161075294Y-111748000D01*
X161079708Y-111792813D01*
X161092779Y-111835905D01*
X161106508Y-111861590D01*
X160751484Y-111861590D01*
X160537798Y-111647905D01*
X160526663Y-111634337D01*
X160472516Y-111589899D01*
X160410740Y-111556879D01*
X160343710Y-111536546D01*
X160291463Y-111531400D01*
X160291455Y-111531400D01*
X160274000Y-111529681D01*
X160256545Y-111531400D01*
X158640452Y-111531400D01*
X158622999Y-111529681D01*
X158605546Y-111531400D01*
X158605537Y-111531400D01*
X158553290Y-111536546D01*
X158486260Y-111556879D01*
X158424484Y-111589899D01*
X158424482Y-111589900D01*
X158424483Y-111589900D01*
X158383900Y-111623205D01*
X158383895Y-111623210D01*
X158370337Y-111634337D01*
X158359210Y-111647895D01*
X153443760Y-116563347D01*
X153430197Y-116574478D01*
X153385759Y-116628625D01*
X153380880Y-116637753D01*
X153352739Y-116690400D01*
X153332405Y-116757431D01*
X153325540Y-116827141D01*
X153327260Y-116844607D01*
X153327259Y-121649989D01*
X153310453Y-121661219D01*
X153229081Y-121742591D01*
X153217851Y-121759397D01*
X148506887Y-121759397D01*
X148489432Y-121757678D01*
X148471977Y-121759397D01*
X148471970Y-121759397D01*
X148426620Y-121763864D01*
X148419722Y-121764543D01*
X148391006Y-121773254D01*
X148352693Y-121784876D01*
X148290917Y-121817896D01*
X148290915Y-121817897D01*
X148290916Y-121817897D01*
X148250333Y-121851202D01*
X148250328Y-121851207D01*
X148236770Y-121862334D01*
X148225643Y-121875892D01*
X147301394Y-122800142D01*
X147262114Y-122705311D01*
X147198180Y-122609628D01*
X147116808Y-122528256D01*
X147100002Y-122517026D01*
X147100002Y-122163823D01*
X147101721Y-122146370D01*
X147100002Y-122128917D01*
X147100002Y-122128908D01*
X147094856Y-122076661D01*
X147074523Y-122009631D01*
X147073911Y-122008485D01*
X147064220Y-121990355D01*
X147041503Y-121947855D01*
X147032187Y-121936504D01*
X147008197Y-121907271D01*
X147008187Y-121907261D01*
X146997064Y-121893708D01*
X146983512Y-121882586D01*
X145447267Y-120346342D01*
X145451210Y-120326518D01*
X145451210Y-120211440D01*
X145428760Y-120098574D01*
X145384722Y-119992256D01*
X145320788Y-119896573D01*
X145286769Y-119862554D01*
X145320748Y-119828574D01*
X145384682Y-119732891D01*
X145428720Y-119626573D01*
X145451170Y-119513707D01*
X145451170Y-119398629D01*
X145428720Y-119285763D01*
X145384682Y-119179445D01*
X145320748Y-119083762D01*
X145239376Y-119002390D01*
X145143693Y-118938456D01*
X145037375Y-118894418D01*
X144924509Y-118871968D01*
X144853208Y-118871968D01*
X144853208Y-118607063D01*
X144854927Y-118589607D01*
X144853208Y-118572152D01*
X144853208Y-118572145D01*
X144848254Y-118521843D01*
X144848062Y-118519897D01*
X144832113Y-118467320D01*
X144827729Y-118452868D01*
X144798751Y-118398654D01*
X144798751Y-117610000D01*
X144797744Y-117599773D01*
X146286256Y-117599773D01*
X146285249Y-117610000D01*
X146285249Y-118610000D01*
X146290644Y-118664772D01*
X146306620Y-118717439D01*
X146332564Y-118765977D01*
X146341985Y-118777457D01*
X146294354Y-118825088D01*
X146274530Y-118821145D01*
X146159452Y-118821145D01*
X146046586Y-118843595D01*
X145940268Y-118887633D01*
X145844585Y-118951567D01*
X145763213Y-119032939D01*
X145699279Y-119128622D01*
X145655241Y-119234940D01*
X145632791Y-119347806D01*
X145632791Y-119462884D01*
X145655241Y-119575750D01*
X145699279Y-119682068D01*
X145763213Y-119777751D01*
X145844585Y-119859123D01*
X145940268Y-119923057D01*
X146046586Y-119967095D01*
X146159452Y-119989545D01*
X146274530Y-119989545D01*
X146387396Y-119967095D01*
X146493714Y-119923057D01*
X146589397Y-119859123D01*
X146670769Y-119777751D01*
X146734703Y-119682068D01*
X146778741Y-119575750D01*
X146801191Y-119462884D01*
X146801191Y-119347806D01*
X146797248Y-119327982D01*
X147234479Y-118890751D01*
X147566000Y-118890751D01*
X147620772Y-118885356D01*
X147673439Y-118869380D01*
X147721977Y-118843436D01*
X147764521Y-118808521D01*
X147799436Y-118765977D01*
X147825380Y-118717439D01*
X147841356Y-118664772D01*
X147846751Y-118610000D01*
X147846751Y-117610000D01*
X147841356Y-117555228D01*
X147825380Y-117502561D01*
X147799436Y-117454023D01*
X147764521Y-117411479D01*
X147721977Y-117376564D01*
X147673439Y-117350620D01*
X147620772Y-117334644D01*
X147566000Y-117329249D01*
X147398666Y-117329249D01*
X147396121Y-117320860D01*
X147363101Y-117259084D01*
X147318663Y-117204937D01*
X147305099Y-117193805D01*
X147116371Y-117005078D01*
X147105236Y-116991510D01*
X147051089Y-116947072D01*
X146989313Y-116914052D01*
X146922283Y-116893719D01*
X146870036Y-116888573D01*
X146870028Y-116888573D01*
X146852573Y-116886854D01*
X146835118Y-116888573D01*
X143493056Y-116888573D01*
X143507761Y-116814645D01*
X143507761Y-116699567D01*
X143485311Y-116586701D01*
X143441273Y-116480383D01*
X143377339Y-116384700D01*
X143295967Y-116303328D01*
X143200284Y-116239394D01*
X143162574Y-116223774D01*
X143208911Y-116154426D01*
X143252949Y-116048108D01*
X143275399Y-115935242D01*
X143275399Y-115820164D01*
X143252949Y-115707298D01*
X143238585Y-115672619D01*
X143292576Y-115650255D01*
X143388259Y-115586321D01*
X143469631Y-115504949D01*
X143533565Y-115409266D01*
X143577603Y-115302948D01*
X143600053Y-115190082D01*
X143600053Y-115075004D01*
X143577603Y-114962138D01*
X143533565Y-114855820D01*
X143469631Y-114760137D01*
X143388259Y-114678765D01*
X143292576Y-114614831D01*
X143186258Y-114570793D01*
X143073392Y-114548343D01*
X142958314Y-114548343D01*
X142845448Y-114570793D01*
X142739130Y-114614831D01*
X142643447Y-114678765D01*
X142562075Y-114760137D01*
X142498141Y-114855820D01*
X142454103Y-114962138D01*
X142431653Y-115075004D01*
X142431653Y-115190082D01*
X142454103Y-115302948D01*
X142468467Y-115337627D01*
X142414476Y-115359991D01*
X142318793Y-115423925D01*
X142237421Y-115505297D01*
X142173487Y-115600980D01*
X142129449Y-115707298D01*
X142106999Y-115820164D01*
X142106999Y-115935242D01*
X142129449Y-116048108D01*
X142173487Y-116154426D01*
X142237421Y-116250109D01*
X142318793Y-116331481D01*
X142414476Y-116395415D01*
X142452186Y-116411035D01*
X142405849Y-116480383D01*
X142361811Y-116586701D01*
X142339361Y-116699567D01*
X142339361Y-116814645D01*
X142361811Y-116927511D01*
X142364874Y-116934907D01*
X141038135Y-116934907D01*
X140994867Y-116899397D01*
X140933091Y-116866377D01*
X140866061Y-116846044D01*
X140831468Y-116842637D01*
X140819077Y-116824092D01*
X140737705Y-116742720D01*
X140642022Y-116678786D01*
X140535704Y-116634748D01*
X140463870Y-116620460D01*
X140471712Y-116608723D01*
X140515750Y-116502405D01*
X140538200Y-116389539D01*
X140538200Y-116274461D01*
X140534257Y-116254637D01*
X141273382Y-115515513D01*
X141286940Y-115504386D01*
X141298067Y-115490828D01*
X141298072Y-115490823D01*
X141327792Y-115454609D01*
X141331378Y-115450239D01*
X141364398Y-115388463D01*
X141384731Y-115321433D01*
X141389877Y-115269186D01*
X141389877Y-115269177D01*
X141391596Y-115251724D01*
X141389877Y-115234271D01*
X141389877Y-114866409D01*
X142805486Y-113450800D01*
X143262400Y-113450800D01*
X143262400Y-113975800D01*
X143286791Y-114121844D01*
X143339205Y-114260323D01*
X143417628Y-114385916D01*
X143519046Y-114493796D01*
X143639561Y-114579818D01*
X143774543Y-114640675D01*
X143848205Y-114659682D01*
X143965200Y-114619595D01*
X143965200Y-113450800D01*
X144066800Y-113450800D01*
X144066800Y-114619595D01*
X144183795Y-114659682D01*
X144257457Y-114640675D01*
X144392439Y-114579818D01*
X144512954Y-114493796D01*
X144614372Y-114385916D01*
X144692795Y-114260323D01*
X144745209Y-114121844D01*
X144769600Y-113975800D01*
X144769600Y-113450800D01*
X144066800Y-113450800D01*
X143965200Y-113450800D01*
X143262400Y-113450800D01*
X142805486Y-113450800D01*
X143262400Y-112993887D01*
X143262400Y-113349200D01*
X143965200Y-113349200D01*
X143965200Y-113329200D01*
X144066800Y-113329200D01*
X144066800Y-113349200D01*
X144769600Y-113349200D01*
X144769600Y-112840472D01*
X144841600Y-112840472D01*
X144841600Y-112959528D01*
X144864827Y-113076297D01*
X144910388Y-113186291D01*
X144976532Y-113285282D01*
X145060718Y-113369468D01*
X145159709Y-113435612D01*
X145269703Y-113481173D01*
X145386472Y-113504400D01*
X145505528Y-113504400D01*
X145622297Y-113481173D01*
X145732291Y-113435612D01*
X145831282Y-113369468D01*
X145915468Y-113285282D01*
X145981612Y-113186291D01*
X146027173Y-113076297D01*
X146050400Y-112959528D01*
X146050400Y-112840472D01*
X146027173Y-112723703D01*
X145998700Y-112654961D01*
X146037300Y-112654961D01*
X146037300Y-112770039D01*
X146059750Y-112882905D01*
X146103788Y-112989223D01*
X146167722Y-113084906D01*
X146249094Y-113166278D01*
X146344777Y-113230212D01*
X146451095Y-113274250D01*
X146563961Y-113296700D01*
X146679039Y-113296700D01*
X146791905Y-113274250D01*
X146898223Y-113230212D01*
X146993906Y-113166278D01*
X147041284Y-113118900D01*
X148760544Y-113118900D01*
X148780497Y-113120865D01*
X148800450Y-113118900D01*
X148800457Y-113118900D01*
X148860165Y-113113019D01*
X148936772Y-113089781D01*
X149007373Y-113052044D01*
X149069255Y-113001258D01*
X149081979Y-112985754D01*
X149227261Y-112840472D01*
X150621600Y-112840472D01*
X150621600Y-112959528D01*
X150644827Y-113076297D01*
X150690388Y-113186291D01*
X150756532Y-113285282D01*
X150840718Y-113369468D01*
X150939709Y-113435612D01*
X151049703Y-113481173D01*
X151166472Y-113504400D01*
X151285528Y-113504400D01*
X151402297Y-113481173D01*
X151475623Y-113450800D01*
X151902400Y-113450800D01*
X151902400Y-113975800D01*
X151926791Y-114121844D01*
X151979205Y-114260323D01*
X152057628Y-114385916D01*
X152159046Y-114493796D01*
X152279561Y-114579818D01*
X152414543Y-114640675D01*
X152488205Y-114659682D01*
X152605200Y-114619595D01*
X152605200Y-113450800D01*
X152706800Y-113450800D01*
X152706800Y-114619595D01*
X152823795Y-114659682D01*
X152897457Y-114640675D01*
X153032439Y-114579818D01*
X153152954Y-114493796D01*
X153254372Y-114385916D01*
X153332795Y-114260323D01*
X153385209Y-114121844D01*
X153409600Y-113975800D01*
X153409600Y-113450800D01*
X152706800Y-113450800D01*
X152605200Y-113450800D01*
X151902400Y-113450800D01*
X151475623Y-113450800D01*
X151512291Y-113435612D01*
X151611282Y-113369468D01*
X151695468Y-113285282D01*
X151761612Y-113186291D01*
X151807173Y-113076297D01*
X151830400Y-112959528D01*
X151830400Y-112840472D01*
X151827164Y-112824200D01*
X151902400Y-112824200D01*
X151902400Y-113349200D01*
X152605200Y-113349200D01*
X152605200Y-112180405D01*
X152706800Y-112180405D01*
X152706800Y-113349200D01*
X153409600Y-113349200D01*
X153409600Y-112824200D01*
X153385209Y-112678156D01*
X153332795Y-112539677D01*
X153254372Y-112414084D01*
X153152954Y-112306204D01*
X153032439Y-112220182D01*
X152897457Y-112159325D01*
X152823795Y-112140318D01*
X152706800Y-112180405D01*
X152605200Y-112180405D01*
X152488205Y-112140318D01*
X152414543Y-112159325D01*
X152279561Y-112220182D01*
X152159046Y-112306204D01*
X152057628Y-112414084D01*
X151979205Y-112539677D01*
X151926791Y-112678156D01*
X151902400Y-112824200D01*
X151827164Y-112824200D01*
X151807173Y-112723703D01*
X151761612Y-112613709D01*
X151695468Y-112514718D01*
X151611282Y-112430532D01*
X151512291Y-112364388D01*
X151402297Y-112318827D01*
X151285528Y-112295600D01*
X151166472Y-112295600D01*
X151049703Y-112318827D01*
X150939709Y-112364388D01*
X150840718Y-112430532D01*
X150756532Y-112514718D01*
X150690388Y-112613709D01*
X150644827Y-112723703D01*
X150621600Y-112840472D01*
X149227261Y-112840472D01*
X150053734Y-112013999D01*
X150120737Y-112013999D01*
X150233603Y-111991549D01*
X150339921Y-111947511D01*
X150435604Y-111883577D01*
X150516976Y-111802205D01*
X150580910Y-111706522D01*
X150624948Y-111600204D01*
X150647398Y-111487338D01*
X150647398Y-111372260D01*
X150624948Y-111259394D01*
X150580910Y-111153076D01*
X150516976Y-111057393D01*
X150435604Y-110976021D01*
X150339921Y-110912087D01*
X150233603Y-110868049D01*
X150120737Y-110845599D01*
X150005659Y-110845599D01*
X149892793Y-110868049D01*
X149786475Y-110912087D01*
X149690792Y-110976021D01*
X149609420Y-111057393D01*
X149545486Y-111153076D01*
X149501448Y-111259394D01*
X149478998Y-111372260D01*
X149478998Y-111439263D01*
X148612161Y-112306100D01*
X147041284Y-112306100D01*
X146993906Y-112258722D01*
X146898223Y-112194788D01*
X146791905Y-112150750D01*
X146679039Y-112128300D01*
X146563961Y-112128300D01*
X146451095Y-112150750D01*
X146344777Y-112194788D01*
X146249094Y-112258722D01*
X146167722Y-112340094D01*
X146103788Y-112435777D01*
X146059750Y-112542095D01*
X146037300Y-112654961D01*
X145998700Y-112654961D01*
X145981612Y-112613709D01*
X145915468Y-112514718D01*
X145831282Y-112430532D01*
X145732291Y-112364388D01*
X145622297Y-112318827D01*
X145505528Y-112295600D01*
X145386472Y-112295600D01*
X145269703Y-112318827D01*
X145159709Y-112364388D01*
X145060718Y-112430532D01*
X144976532Y-112514718D01*
X144910388Y-112613709D01*
X144864827Y-112723703D01*
X144841600Y-112840472D01*
X144769600Y-112840472D01*
X144769600Y-112824200D01*
X144745209Y-112678156D01*
X144692795Y-112539677D01*
X144614372Y-112414084D01*
X144512954Y-112306204D01*
X144392439Y-112220182D01*
X144257457Y-112159325D01*
X144183795Y-112140318D01*
X144080615Y-112175671D01*
X145029687Y-111226600D01*
X147489992Y-111226600D01*
X147501222Y-111243406D01*
X147582594Y-111324778D01*
X147678277Y-111388712D01*
X147784595Y-111432750D01*
X147897461Y-111455200D01*
X148012539Y-111455200D01*
X148125405Y-111432750D01*
X148231723Y-111388712D01*
X148327406Y-111324778D01*
X148408778Y-111243406D01*
X148472712Y-111147723D01*
X148516750Y-111041405D01*
X148539200Y-110928539D01*
X148539200Y-110813461D01*
X148516750Y-110700595D01*
X148472712Y-110594277D01*
X148408778Y-110498594D01*
X148327406Y-110417222D01*
X148231723Y-110353288D01*
X148125405Y-110309250D01*
X148012539Y-110286800D01*
X147897461Y-110286800D01*
X147784595Y-110309250D01*
X147678277Y-110353288D01*
X147582594Y-110417222D01*
X147501222Y-110498594D01*
X147489992Y-110515400D01*
X144899848Y-110515400D01*
X144882393Y-110513681D01*
X144864937Y-110515400D01*
X144864930Y-110515400D01*
X144818959Y-110519928D01*
X144812682Y-110520546D01*
X144799783Y-110524459D01*
X144745653Y-110540879D01*
X144683877Y-110573899D01*
X144629730Y-110618337D01*
X144618599Y-110631900D01*
X142138399Y-113112101D01*
X142138399Y-109270800D01*
X143287400Y-109270800D01*
X143287400Y-109770800D01*
X143311310Y-109911967D01*
X143362301Y-110045757D01*
X143438414Y-110167028D01*
X143536723Y-110271120D01*
X143653450Y-110354033D01*
X143784110Y-110412580D01*
X143852125Y-110429932D01*
X143965200Y-110389526D01*
X143965200Y-109270800D01*
X144066800Y-109270800D01*
X144066800Y-110389526D01*
X144179875Y-110429932D01*
X144247890Y-110412580D01*
X144378550Y-110354033D01*
X144495277Y-110271120D01*
X144593586Y-110167028D01*
X144669699Y-110045757D01*
X144720690Y-109911967D01*
X144744600Y-109770800D01*
X144744600Y-109270800D01*
X144066800Y-109270800D01*
X143965200Y-109270800D01*
X143287400Y-109270800D01*
X142138399Y-109270800D01*
X142138399Y-108669200D01*
X143287400Y-108669200D01*
X143287400Y-109169200D01*
X143965200Y-109169200D01*
X143965200Y-108050474D01*
X143852125Y-108010068D01*
X143784110Y-108027420D01*
X143653450Y-108085967D01*
X143536723Y-108168880D01*
X143438414Y-108272972D01*
X143362301Y-108394243D01*
X143311310Y-108528033D01*
X143287400Y-108669200D01*
X142138399Y-108669200D01*
X142138399Y-108399254D01*
X142140118Y-108381799D01*
X142138399Y-108364343D01*
X142138399Y-108364336D01*
X142133253Y-108312089D01*
X142130110Y-108301726D01*
X142123610Y-108280301D01*
X142112920Y-108245059D01*
X142079900Y-108183283D01*
X142057849Y-108156415D01*
X142062200Y-108134539D01*
X142062200Y-108019461D01*
X142039750Y-107906595D01*
X142036687Y-107899199D01*
X144101686Y-107899199D01*
X144223747Y-108021261D01*
X144179875Y-108010068D01*
X144066800Y-108050474D01*
X144066800Y-109169200D01*
X144744600Y-109169200D01*
X144744600Y-108669200D01*
X144720690Y-108528033D01*
X144714637Y-108512151D01*
X145761590Y-109559105D01*
X145772717Y-109572663D01*
X145786275Y-109583790D01*
X145786280Y-109583795D01*
X145812901Y-109605642D01*
X145826864Y-109617101D01*
X145888640Y-109650121D01*
X145955670Y-109670454D01*
X146007917Y-109675600D01*
X146007926Y-109675600D01*
X146025379Y-109677319D01*
X146042832Y-109675600D01*
X150651655Y-109675600D01*
X154118158Y-113142105D01*
X154129285Y-113155663D01*
X154142843Y-113166790D01*
X154142848Y-113166795D01*
X154168134Y-113187546D01*
X154183432Y-113200101D01*
X154245208Y-113233121D01*
X154255606Y-113236275D01*
X154312237Y-113253454D01*
X154319135Y-113254133D01*
X154346831Y-113256861D01*
X154359222Y-113275406D01*
X154440594Y-113356778D01*
X154536277Y-113420712D01*
X154642595Y-113464750D01*
X154755461Y-113487200D01*
X154870539Y-113487200D01*
X154983405Y-113464750D01*
X155089723Y-113420712D01*
X155185406Y-113356778D01*
X155266778Y-113275406D01*
X155330712Y-113179723D01*
X155374750Y-113073405D01*
X155397200Y-112960539D01*
X155397200Y-112845461D01*
X155374750Y-112732595D01*
X155330712Y-112626277D01*
X155266778Y-112530594D01*
X155185406Y-112449222D01*
X155089723Y-112385288D01*
X154983405Y-112341250D01*
X154870539Y-112318800D01*
X154755461Y-112318800D01*
X154642595Y-112341250D01*
X154536277Y-112385288D01*
X154440594Y-112449222D01*
X154435829Y-112453987D01*
X152370318Y-110388477D01*
X152424110Y-110412580D01*
X152492125Y-110429932D01*
X152605200Y-110389526D01*
X152605200Y-109270800D01*
X152706800Y-109270800D01*
X152706800Y-110389526D01*
X152819875Y-110429932D01*
X152866017Y-110418160D01*
X155758600Y-110418160D01*
X155758600Y-110561840D01*
X155786631Y-110702758D01*
X155841614Y-110835500D01*
X155921438Y-110954965D01*
X156023035Y-111056562D01*
X156142500Y-111136386D01*
X156275242Y-111191369D01*
X156416160Y-111219400D01*
X156559840Y-111219400D01*
X156700758Y-111191369D01*
X156833500Y-111136386D01*
X156952965Y-111056562D01*
X157054562Y-110954965D01*
X157134386Y-110835500D01*
X157189369Y-110702758D01*
X157217400Y-110561840D01*
X157217400Y-110418160D01*
X158758600Y-110418160D01*
X158758600Y-110561840D01*
X158786631Y-110702758D01*
X158841614Y-110835500D01*
X158921438Y-110954965D01*
X159023035Y-111056562D01*
X159142500Y-111136386D01*
X159275242Y-111191369D01*
X159416160Y-111219400D01*
X159559840Y-111219400D01*
X159700758Y-111191369D01*
X159833500Y-111136386D01*
X159952965Y-111056562D01*
X160054562Y-110954965D01*
X160134386Y-110835500D01*
X160189369Y-110702758D01*
X160217400Y-110561840D01*
X160217400Y-110418160D01*
X160189369Y-110277242D01*
X160177257Y-110248000D01*
X161075294Y-110248000D01*
X161076400Y-110890050D01*
X161133550Y-110947200D01*
X162509200Y-110947200D01*
X162509200Y-110076550D01*
X162610800Y-110076550D01*
X162610800Y-110947200D01*
X163986450Y-110947200D01*
X164043600Y-110890050D01*
X164044706Y-110248000D01*
X164040292Y-110203187D01*
X164027221Y-110160095D01*
X164005994Y-110120382D01*
X163977427Y-110085573D01*
X163942618Y-110057006D01*
X163902905Y-110035779D01*
X163859813Y-110022708D01*
X163815000Y-110018294D01*
X162667950Y-110019400D01*
X162610800Y-110076550D01*
X162509200Y-110076550D01*
X162452050Y-110019400D01*
X161305000Y-110018294D01*
X161260187Y-110022708D01*
X161217095Y-110035779D01*
X161177382Y-110057006D01*
X161142573Y-110085573D01*
X161114006Y-110120382D01*
X161092779Y-110160095D01*
X161079708Y-110203187D01*
X161075294Y-110248000D01*
X160177257Y-110248000D01*
X160134386Y-110144500D01*
X160054562Y-110025035D01*
X159952965Y-109923438D01*
X159833500Y-109843614D01*
X159700758Y-109788631D01*
X159559840Y-109760600D01*
X159416160Y-109760600D01*
X159275242Y-109788631D01*
X159142500Y-109843614D01*
X159023035Y-109923438D01*
X158921438Y-110025035D01*
X158841614Y-110144500D01*
X158786631Y-110277242D01*
X158758600Y-110418160D01*
X157217400Y-110418160D01*
X157189369Y-110277242D01*
X157134386Y-110144500D01*
X157054562Y-110025035D01*
X156952965Y-109923438D01*
X156833500Y-109843614D01*
X156700758Y-109788631D01*
X156559840Y-109760600D01*
X156416160Y-109760600D01*
X156275242Y-109788631D01*
X156142500Y-109843614D01*
X156023035Y-109923438D01*
X155921438Y-110025035D01*
X155841614Y-110144500D01*
X155786631Y-110277242D01*
X155758600Y-110418160D01*
X152866017Y-110418160D01*
X152887890Y-110412580D01*
X153018550Y-110354033D01*
X153135277Y-110271120D01*
X153233586Y-110167028D01*
X153309699Y-110045757D01*
X153360690Y-109911967D01*
X153384600Y-109770800D01*
X153384600Y-109270800D01*
X152706800Y-109270800D01*
X152605200Y-109270800D01*
X151927400Y-109270800D01*
X151927400Y-109770800D01*
X151951310Y-109911967D01*
X151986722Y-110004880D01*
X151062747Y-109080906D01*
X151051611Y-109067337D01*
X150997464Y-109022899D01*
X150935688Y-108989879D01*
X150868658Y-108969546D01*
X150816411Y-108964400D01*
X150816403Y-108964400D01*
X150798948Y-108962681D01*
X150781493Y-108964400D01*
X146172675Y-108964400D01*
X144512778Y-107304505D01*
X144501642Y-107290936D01*
X144447495Y-107246498D01*
X144385719Y-107213478D01*
X144318689Y-107193145D01*
X144266442Y-107187999D01*
X144266434Y-107187999D01*
X144248979Y-107186280D01*
X144231524Y-107187999D01*
X140046640Y-107187999D01*
X140029185Y-107186280D01*
X140011730Y-107187999D01*
X140011722Y-107187999D01*
X139959475Y-107193145D01*
X139892445Y-107213478D01*
X139879497Y-107220399D01*
X139830669Y-107246498D01*
X139791494Y-107278649D01*
X139776522Y-107290936D01*
X139765390Y-107304500D01*
X139649201Y-107420689D01*
X139406011Y-107177500D01*
X139394876Y-107163932D01*
X139340729Y-107119494D01*
X139278953Y-107086474D01*
X139211923Y-107066141D01*
X139159676Y-107060995D01*
X139159668Y-107060995D01*
X139142213Y-107059276D01*
X139124758Y-107060995D01*
X137027082Y-107060995D01*
X137009629Y-107059276D01*
X136992176Y-107060995D01*
X136992167Y-107060995D01*
X136939920Y-107066141D01*
X136872890Y-107086474D01*
X136811114Y-107119494D01*
X136806957Y-107122906D01*
X136770530Y-107152800D01*
X136770525Y-107152805D01*
X136756967Y-107163932D01*
X136745840Y-107177490D01*
X136158901Y-107764431D01*
X136145337Y-107775563D01*
X136100899Y-107829710D01*
X136070012Y-107887495D01*
X136068786Y-107889790D01*
X136067879Y-107891486D01*
X136047546Y-107958516D01*
X136042400Y-108010763D01*
X136042400Y-108010770D01*
X136042157Y-108013236D01*
X135968924Y-108062169D01*
X135875169Y-108155924D01*
X135801506Y-108266168D01*
X135763000Y-108359131D01*
X135724494Y-108266168D01*
X135650831Y-108155924D01*
X135557076Y-108062169D01*
X135446832Y-107988506D01*
X135324336Y-107937767D01*
X135194295Y-107911900D01*
X135061705Y-107911900D01*
X134931664Y-107937767D01*
X134809168Y-107988506D01*
X134698924Y-108062169D01*
X134605169Y-108155924D01*
X134531506Y-108266168D01*
X134493000Y-108359131D01*
X134454494Y-108266168D01*
X134380831Y-108155924D01*
X134287076Y-108062169D01*
X134176832Y-107988506D01*
X134054336Y-107937767D01*
X133924295Y-107911900D01*
X133791705Y-107911900D01*
X133661664Y-107937767D01*
X133539168Y-107988506D01*
X133428924Y-108062169D01*
X133335169Y-108155924D01*
X133261506Y-108266168D01*
X133223000Y-108359131D01*
X133184494Y-108266168D01*
X133110831Y-108155924D01*
X133017076Y-108062169D01*
X132906832Y-107988506D01*
X132784336Y-107937767D01*
X132654295Y-107911900D01*
X132521705Y-107911900D01*
X132391664Y-107937767D01*
X132269168Y-107988506D01*
X132158924Y-108062169D01*
X132065169Y-108155924D01*
X131991506Y-108266168D01*
X131953000Y-108359131D01*
X131914494Y-108266168D01*
X131840831Y-108155924D01*
X131747076Y-108062169D01*
X131636832Y-107988506D01*
X131514336Y-107937767D01*
X131384295Y-107911900D01*
X131251705Y-107911900D01*
X131121664Y-107937767D01*
X131076700Y-107956392D01*
X131076700Y-106921300D01*
X182614202Y-106921300D01*
X182776250Y-106937189D01*
G37*
%TD.AperFunction*%
D20*
X160137204Y-112761098D02*
X160148337Y-112774663D01*
X160202484Y-112819101D01*
X160264260Y-112852121D01*
X160306203Y-112864844D01*
X160331289Y-112872454D01*
X160337566Y-112873072D01*
X160383537Y-112877600D01*
X160383544Y-112877600D01*
X160401000Y-112879319D01*
X160418455Y-112877600D01*
X160616216Y-112877600D01*
X160582222Y-112911594D01*
X160518288Y-113007277D01*
X160474250Y-113113595D01*
X160451800Y-113226461D01*
X160451800Y-113341539D01*
X160474250Y-113454405D01*
X160518288Y-113560723D01*
X160582222Y-113656406D01*
X160663594Y-113737778D01*
X160759277Y-113801712D01*
X160865595Y-113845750D01*
X160978461Y-113868200D01*
X161024249Y-113868200D01*
X161024249Y-114211801D01*
X160063600Y-114211801D01*
X160043647Y-114209836D01*
X160023694Y-114211801D01*
X160023688Y-114211801D01*
X159971983Y-114216894D01*
X159963979Y-114217682D01*
X159946150Y-114223091D01*
X159887373Y-114240920D01*
X159816772Y-114278657D01*
X159754890Y-114329443D01*
X159742166Y-114344947D01*
X159536096Y-114551017D01*
X159423400Y-114528601D01*
X159268296Y-114528601D01*
X159116172Y-114558860D01*
X158972874Y-114618216D01*
X158843910Y-114704387D01*
X158734234Y-114814063D01*
X158648063Y-114943027D01*
X158588707Y-115086325D01*
X158558448Y-115238449D01*
X158558448Y-115393553D01*
X158588707Y-115545677D01*
X158648063Y-115688975D01*
X158734234Y-115817939D01*
X158843910Y-115927615D01*
X158972874Y-116013786D01*
X159116172Y-116073142D01*
X159268296Y-116103401D01*
X159423400Y-116103401D01*
X159575524Y-116073142D01*
X159718822Y-116013786D01*
X159847786Y-115927615D01*
X159957462Y-115817939D01*
X160043633Y-115688975D01*
X160102989Y-115545677D01*
X160133248Y-115393553D01*
X160133248Y-115238449D01*
X160110832Y-115125753D01*
X160211984Y-115024601D01*
X162022355Y-115024601D01*
X162012974Y-115047249D01*
X161305000Y-115047249D01*
X161250228Y-115052644D01*
X161197561Y-115068620D01*
X161149023Y-115094564D01*
X161106479Y-115129479D01*
X161071564Y-115172023D01*
X161045620Y-115220561D01*
X161029644Y-115273228D01*
X161024249Y-115328000D01*
X161024249Y-116751801D01*
X159413433Y-116751801D01*
X159395980Y-116750082D01*
X159378527Y-116751801D01*
X159378518Y-116751801D01*
X159326271Y-116756947D01*
X159259241Y-116777280D01*
X159197465Y-116810300D01*
X159197463Y-116810301D01*
X159197464Y-116810301D01*
X159156881Y-116843606D01*
X159156876Y-116843611D01*
X159143318Y-116854738D01*
X159132191Y-116868296D01*
X156974201Y-119026288D01*
X156960636Y-119037421D01*
X156916198Y-119091568D01*
X156891431Y-119137904D01*
X156884921Y-119150084D01*
X156883178Y-119153344D01*
X156875168Y-119179750D01*
X156862995Y-119219881D01*
X156862845Y-119220374D01*
X156857699Y-119272621D01*
X156857699Y-119272628D01*
X156855980Y-119290083D01*
X156857699Y-119307539D01*
X156857700Y-120832906D01*
X155143200Y-122547407D01*
X155143200Y-122497461D01*
X155120750Y-122384595D01*
X155076712Y-122278277D01*
X155012778Y-122182594D01*
X154931406Y-122101222D01*
X154914600Y-122089992D01*
X154914600Y-116639242D01*
X158947755Y-112606088D01*
X159982195Y-112606088D01*
X160137204Y-112761098D01*
%TA.AperFunction,Conductor*%
D21*
G36*
X160137204Y-112761098D02*
G01*
X160148337Y-112774663D01*
X160202484Y-112819101D01*
X160264260Y-112852121D01*
X160306203Y-112864844D01*
X160331289Y-112872454D01*
X160337566Y-112873072D01*
X160383537Y-112877600D01*
X160383544Y-112877600D01*
X160401000Y-112879319D01*
X160418455Y-112877600D01*
X160616216Y-112877600D01*
X160582222Y-112911594D01*
X160518288Y-113007277D01*
X160474250Y-113113595D01*
X160451800Y-113226461D01*
X160451800Y-113341539D01*
X160474250Y-113454405D01*
X160518288Y-113560723D01*
X160582222Y-113656406D01*
X160663594Y-113737778D01*
X160759277Y-113801712D01*
X160865595Y-113845750D01*
X160978461Y-113868200D01*
X161024249Y-113868200D01*
X161024249Y-114211801D01*
X160063600Y-114211801D01*
X160043647Y-114209836D01*
X160023694Y-114211801D01*
X160023688Y-114211801D01*
X159971983Y-114216894D01*
X159963979Y-114217682D01*
X159946150Y-114223091D01*
X159887373Y-114240920D01*
X159816772Y-114278657D01*
X159754890Y-114329443D01*
X159742166Y-114344947D01*
X159536096Y-114551017D01*
X159423400Y-114528601D01*
X159268296Y-114528601D01*
X159116172Y-114558860D01*
X158972874Y-114618216D01*
X158843910Y-114704387D01*
X158734234Y-114814063D01*
X158648063Y-114943027D01*
X158588707Y-115086325D01*
X158558448Y-115238449D01*
X158558448Y-115393553D01*
X158588707Y-115545677D01*
X158648063Y-115688975D01*
X158734234Y-115817939D01*
X158843910Y-115927615D01*
X158972874Y-116013786D01*
X159116172Y-116073142D01*
X159268296Y-116103401D01*
X159423400Y-116103401D01*
X159575524Y-116073142D01*
X159718822Y-116013786D01*
X159847786Y-115927615D01*
X159957462Y-115817939D01*
X160043633Y-115688975D01*
X160102989Y-115545677D01*
X160133248Y-115393553D01*
X160133248Y-115238449D01*
X160110832Y-115125753D01*
X160211984Y-115024601D01*
X162022355Y-115024601D01*
X162012974Y-115047249D01*
X161305000Y-115047249D01*
X161250228Y-115052644D01*
X161197561Y-115068620D01*
X161149023Y-115094564D01*
X161106479Y-115129479D01*
X161071564Y-115172023D01*
X161045620Y-115220561D01*
X161029644Y-115273228D01*
X161024249Y-115328000D01*
X161024249Y-116751801D01*
X159413433Y-116751801D01*
X159395980Y-116750082D01*
X159378527Y-116751801D01*
X159378518Y-116751801D01*
X159326271Y-116756947D01*
X159259241Y-116777280D01*
X159197465Y-116810300D01*
X159197463Y-116810301D01*
X159197464Y-116810301D01*
X159156881Y-116843606D01*
X159156876Y-116843611D01*
X159143318Y-116854738D01*
X159132191Y-116868296D01*
X156974201Y-119026288D01*
X156960636Y-119037421D01*
X156916198Y-119091568D01*
X156891431Y-119137904D01*
X156884921Y-119150084D01*
X156883178Y-119153344D01*
X156875168Y-119179750D01*
X156862995Y-119219881D01*
X156862845Y-119220374D01*
X156857699Y-119272621D01*
X156857699Y-119272628D01*
X156855980Y-119290083D01*
X156857699Y-119307539D01*
X156857700Y-120832906D01*
X155143200Y-122547407D01*
X155143200Y-122497461D01*
X155120750Y-122384595D01*
X155076712Y-122278277D01*
X155012778Y-122182594D01*
X154931406Y-122101222D01*
X154914600Y-122089992D01*
X154914600Y-116639242D01*
X158947755Y-112606088D01*
X159982195Y-112606088D01*
X160137204Y-112761098D01*
G37*
%TD.AperFunction*%
D20*
X180505930Y-121844973D02*
X180512743Y-121845644D01*
X180565639Y-121850854D01*
X180565646Y-121850854D01*
X180585599Y-121852819D01*
X180605552Y-121850854D01*
X180834832Y-121850854D01*
X180926968Y-121942990D01*
X180926969Y-122230383D01*
X180757268Y-122400084D01*
X180712406Y-122355222D01*
X180616723Y-122291288D01*
X180510405Y-122247250D01*
X180397539Y-122224800D01*
X180352077Y-122224800D01*
X180365549Y-122211328D01*
X180429483Y-122115645D01*
X180473521Y-122009327D01*
X180495971Y-121896461D01*
X180495971Y-121841952D01*
X180505930Y-121844973D01*
%TA.AperFunction,Conductor*%
D21*
G36*
X180505930Y-121844973D02*
G01*
X180512743Y-121845644D01*
X180565639Y-121850854D01*
X180565646Y-121850854D01*
X180585599Y-121852819D01*
X180605552Y-121850854D01*
X180834832Y-121850854D01*
X180926968Y-121942990D01*
X180926969Y-122230383D01*
X180757268Y-122400084D01*
X180712406Y-122355222D01*
X180616723Y-122291288D01*
X180510405Y-122247250D01*
X180397539Y-122224800D01*
X180352077Y-122224800D01*
X180365549Y-122211328D01*
X180429483Y-122115645D01*
X180473521Y-122009327D01*
X180495971Y-121896461D01*
X180495971Y-121841952D01*
X180505930Y-121844973D01*
G37*
%TD.AperFunction*%
D20*
X136701012Y-119118160D02*
X136589615Y-119229558D01*
X136576052Y-119240689D01*
X136564921Y-119254252D01*
X136564919Y-119254254D01*
X136555975Y-119265153D01*
X136531614Y-119294836D01*
X136517286Y-119321642D01*
X136498594Y-119356611D01*
X136478260Y-119423642D01*
X136471395Y-119493352D01*
X136473115Y-119510817D01*
X136473114Y-120083718D01*
X136471395Y-120101174D01*
X136473114Y-120118629D01*
X136473114Y-120118636D01*
X136477040Y-120158493D01*
X136478260Y-120170884D01*
X136482619Y-120185253D01*
X136498593Y-120237913D01*
X136531613Y-120299689D01*
X136543802Y-120314541D01*
X136543802Y-121353249D01*
X132671599Y-121353249D01*
X132671599Y-120157137D01*
X132779405Y-120049331D01*
X135178800Y-120049331D01*
X135178800Y-120164409D01*
X135201250Y-120277275D01*
X135245288Y-120383593D01*
X135309222Y-120479276D01*
X135390594Y-120560648D01*
X135486277Y-120624582D01*
X135592595Y-120668620D01*
X135705461Y-120691070D01*
X135820539Y-120691070D01*
X135933405Y-120668620D01*
X136039723Y-120624582D01*
X136135406Y-120560648D01*
X136216778Y-120479276D01*
X136280712Y-120383593D01*
X136324750Y-120277275D01*
X136347200Y-120164409D01*
X136347200Y-120049331D01*
X136324750Y-119936465D01*
X136280712Y-119830147D01*
X136216778Y-119734464D01*
X136135406Y-119653092D01*
X136039723Y-119589158D01*
X135933405Y-119545120D01*
X135820539Y-119522670D01*
X135705461Y-119522670D01*
X135592595Y-119545120D01*
X135486277Y-119589158D01*
X135390594Y-119653092D01*
X135309222Y-119734464D01*
X135245288Y-119830147D01*
X135201250Y-119936465D01*
X135178800Y-120049331D01*
X132779405Y-120049331D01*
X134893254Y-117935482D01*
X134908758Y-117922758D01*
X134915329Y-117914751D01*
X136620000Y-117914751D01*
X136674772Y-117909356D01*
X136701013Y-117901396D01*
X136701012Y-119118160D01*
%TA.AperFunction,Conductor*%
D21*
G36*
X136701012Y-119118160D02*
G01*
X136589615Y-119229558D01*
X136576052Y-119240689D01*
X136564921Y-119254252D01*
X136564919Y-119254254D01*
X136555975Y-119265153D01*
X136531614Y-119294836D01*
X136517286Y-119321642D01*
X136498594Y-119356611D01*
X136478260Y-119423642D01*
X136471395Y-119493352D01*
X136473115Y-119510817D01*
X136473114Y-120083718D01*
X136471395Y-120101174D01*
X136473114Y-120118629D01*
X136473114Y-120118636D01*
X136477040Y-120158493D01*
X136478260Y-120170884D01*
X136482619Y-120185253D01*
X136498593Y-120237913D01*
X136531613Y-120299689D01*
X136543802Y-120314541D01*
X136543802Y-121353249D01*
X132671599Y-121353249D01*
X132671599Y-120157137D01*
X132779405Y-120049331D01*
X135178800Y-120049331D01*
X135178800Y-120164409D01*
X135201250Y-120277275D01*
X135245288Y-120383593D01*
X135309222Y-120479276D01*
X135390594Y-120560648D01*
X135486277Y-120624582D01*
X135592595Y-120668620D01*
X135705461Y-120691070D01*
X135820539Y-120691070D01*
X135933405Y-120668620D01*
X136039723Y-120624582D01*
X136135406Y-120560648D01*
X136216778Y-120479276D01*
X136280712Y-120383593D01*
X136324750Y-120277275D01*
X136347200Y-120164409D01*
X136347200Y-120049331D01*
X136324750Y-119936465D01*
X136280712Y-119830147D01*
X136216778Y-119734464D01*
X136135406Y-119653092D01*
X136039723Y-119589158D01*
X135933405Y-119545120D01*
X135820539Y-119522670D01*
X135705461Y-119522670D01*
X135592595Y-119545120D01*
X135486277Y-119589158D01*
X135390594Y-119653092D01*
X135309222Y-119734464D01*
X135245288Y-119830147D01*
X135201250Y-119936465D01*
X135178800Y-120049331D01*
X132779405Y-120049331D01*
X134893254Y-117935482D01*
X134908758Y-117922758D01*
X134915329Y-117914751D01*
X136620000Y-117914751D01*
X136674772Y-117909356D01*
X136701013Y-117901396D01*
X136701012Y-119118160D01*
G37*
%TD.AperFunction*%
D20*
X182844559Y-120572374D02*
X182950877Y-120616412D01*
X183063743Y-120638862D01*
X183178821Y-120638862D01*
X183291687Y-120616412D01*
X183398005Y-120572374D01*
X183400701Y-120570573D01*
X183400701Y-121164370D01*
X183398013Y-121162574D01*
X183291695Y-121118536D01*
X183178829Y-121096086D01*
X183063751Y-121096086D01*
X182950885Y-121118536D01*
X182844567Y-121162574D01*
X182809906Y-121185734D01*
X182809906Y-120549219D01*
X182844559Y-120572374D01*
%TA.AperFunction,Conductor*%
D21*
G36*
X182844559Y-120572374D02*
G01*
X182950877Y-120616412D01*
X183063743Y-120638862D01*
X183178821Y-120638862D01*
X183291687Y-120616412D01*
X183398005Y-120572374D01*
X183400701Y-120570573D01*
X183400701Y-121164370D01*
X183398013Y-121162574D01*
X183291695Y-121118536D01*
X183178829Y-121096086D01*
X183063751Y-121096086D01*
X182950885Y-121118536D01*
X182844567Y-121162574D01*
X182809906Y-121185734D01*
X182809906Y-120549219D01*
X182844559Y-120572374D01*
G37*
%TD.AperFunction*%
D20*
X172527466Y-118510257D02*
X172540186Y-118525756D01*
X172555684Y-118538475D01*
X172555689Y-118538480D01*
X172576690Y-118555715D01*
X172602068Y-118576542D01*
X172664664Y-118610000D01*
X172672669Y-118614279D01*
X172749275Y-118637517D01*
X172755144Y-118638095D01*
X172808984Y-118643398D01*
X172808990Y-118643398D01*
X172828943Y-118645363D01*
X172848896Y-118643398D01*
X173501456Y-118643398D01*
X173467548Y-118677306D01*
X173403614Y-118772989D01*
X173359576Y-118879307D01*
X173337126Y-118992173D01*
X173337126Y-119107251D01*
X173359576Y-119220117D01*
X173383685Y-119278322D01*
X173211848Y-119278322D01*
X172661831Y-118728305D01*
X172649107Y-118712801D01*
X172587225Y-118662015D01*
X172516624Y-118624278D01*
X172440017Y-118601040D01*
X172380309Y-118595159D01*
X172380302Y-118595159D01*
X172360349Y-118593194D01*
X172340396Y-118595159D01*
X171081619Y-118595159D01*
X171107847Y-118577634D01*
X171189219Y-118496262D01*
X171253153Y-118400579D01*
X171297191Y-118294261D01*
X171319641Y-118181395D01*
X171319641Y-118114392D01*
X171486706Y-117947327D01*
X171964537Y-117947327D01*
X172527466Y-118510257D01*
%TA.AperFunction,Conductor*%
D21*
G36*
X172527466Y-118510257D02*
G01*
X172540186Y-118525756D01*
X172555684Y-118538475D01*
X172555689Y-118538480D01*
X172576690Y-118555715D01*
X172602068Y-118576542D01*
X172664664Y-118610000D01*
X172672669Y-118614279D01*
X172749275Y-118637517D01*
X172755144Y-118638095D01*
X172808984Y-118643398D01*
X172808990Y-118643398D01*
X172828943Y-118645363D01*
X172848896Y-118643398D01*
X173501456Y-118643398D01*
X173467548Y-118677306D01*
X173403614Y-118772989D01*
X173359576Y-118879307D01*
X173337126Y-118992173D01*
X173337126Y-119107251D01*
X173359576Y-119220117D01*
X173383685Y-119278322D01*
X173211848Y-119278322D01*
X172661831Y-118728305D01*
X172649107Y-118712801D01*
X172587225Y-118662015D01*
X172516624Y-118624278D01*
X172440017Y-118601040D01*
X172380309Y-118595159D01*
X172380302Y-118595159D01*
X172360349Y-118593194D01*
X172340396Y-118595159D01*
X171081619Y-118595159D01*
X171107847Y-118577634D01*
X171189219Y-118496262D01*
X171253153Y-118400579D01*
X171297191Y-118294261D01*
X171319641Y-118181395D01*
X171319641Y-118114392D01*
X171486706Y-117947327D01*
X171964537Y-117947327D01*
X172527466Y-118510257D01*
G37*
%TD.AperFunction*%
D20*
X132421479Y-117832521D02*
X132464023Y-117867436D01*
X132512561Y-117893380D01*
X132565228Y-117909356D01*
X132620000Y-117914751D01*
X133764513Y-117914751D01*
X132410200Y-119269064D01*
X132410200Y-117818778D01*
X132421479Y-117832521D01*
%TA.AperFunction,Conductor*%
D21*
G36*
X132421479Y-117832521D02*
G01*
X132464023Y-117867436D01*
X132512561Y-117893380D01*
X132565228Y-117909356D01*
X132620000Y-117914751D01*
X133764513Y-117914751D01*
X132410200Y-119269064D01*
X132410200Y-117818778D01*
X132421479Y-117832521D01*
G37*
%TD.AperFunction*%
D20*
X131991506Y-108903832D02*
X132065169Y-109014076D01*
X132158924Y-109107831D01*
X132269168Y-109181494D01*
X132362131Y-109220000D01*
X132269168Y-109258506D01*
X132158924Y-109332169D01*
X132065169Y-109425924D01*
X131991506Y-109536168D01*
X131940767Y-109658664D01*
X131927892Y-109723393D01*
X131925624Y-109707329D01*
X131885139Y-109591625D01*
X131852074Y-109529764D01*
X131754062Y-109490780D01*
X131389842Y-109855000D01*
X131754062Y-110219220D01*
X131852074Y-110180236D01*
X131905262Y-110069794D01*
X131927382Y-109984048D01*
X131940767Y-110051336D01*
X131991506Y-110173832D01*
X132065169Y-110284076D01*
X132158924Y-110377831D01*
X132232401Y-110426927D01*
X132232401Y-110431429D01*
X132133063Y-110411670D01*
X132017985Y-110411670D01*
X131905119Y-110434120D01*
X131798801Y-110478158D01*
X131703118Y-110542092D01*
X131621746Y-110623464D01*
X131557812Y-110719147D01*
X131513774Y-110825465D01*
X131491324Y-110938331D01*
X131491324Y-111053409D01*
X131513774Y-111166275D01*
X131557812Y-111272593D01*
X131621746Y-111368276D01*
X131703118Y-111449648D01*
X131719924Y-111460878D01*
X131719925Y-113325559D01*
X131718205Y-113343024D01*
X131725070Y-113412734D01*
X131745404Y-113479765D01*
X131753331Y-113494595D01*
X131778424Y-113541540D01*
X131822862Y-113595687D01*
X131836425Y-113606818D01*
X131897266Y-113667660D01*
X131820037Y-113652298D01*
X131704959Y-113652298D01*
X131592093Y-113674748D01*
X131485775Y-113718786D01*
X131390092Y-113782720D01*
X131308720Y-113864092D01*
X131244786Y-113959775D01*
X131200748Y-114066093D01*
X131178298Y-114178959D01*
X131178298Y-114294037D01*
X131200748Y-114406903D01*
X131244786Y-114513221D01*
X131308720Y-114608904D01*
X131390092Y-114690276D01*
X131485775Y-114754210D01*
X131512226Y-114765166D01*
X131498788Y-114785277D01*
X131454750Y-114891595D01*
X131432300Y-115004461D01*
X131432300Y-115119539D01*
X131454750Y-115232405D01*
X131476115Y-115283985D01*
X131422275Y-115306286D01*
X131326592Y-115370220D01*
X131245220Y-115451592D01*
X131181286Y-115547275D01*
X131137248Y-115653593D01*
X131114798Y-115766459D01*
X131114798Y-115881537D01*
X131137248Y-115994403D01*
X131181286Y-116100721D01*
X131245220Y-116196404D01*
X131326592Y-116277776D01*
X131422275Y-116341710D01*
X131528593Y-116385748D01*
X131560003Y-116391996D01*
X131550236Y-116415575D01*
X131527786Y-116528441D01*
X131527786Y-116643519D01*
X131550236Y-116756385D01*
X131594274Y-116862703D01*
X131658208Y-116958386D01*
X131739580Y-117039758D01*
X131835263Y-117103692D01*
X131941581Y-117147730D01*
X132054447Y-117170180D01*
X132169525Y-117170180D01*
X132282391Y-117147730D01*
X132339249Y-117124179D01*
X132339249Y-117272317D01*
X132334000Y-117271800D01*
X131076700Y-117271800D01*
X131076700Y-110429497D01*
X131103206Y-110442262D01*
X131221903Y-110472883D01*
X131344292Y-110479758D01*
X131465671Y-110462624D01*
X131581375Y-110422139D01*
X131643236Y-110389074D01*
X131682220Y-110291062D01*
X131318000Y-109926842D01*
X131303858Y-109940985D01*
X131232016Y-109869143D01*
X131246158Y-109855000D01*
X131232016Y-109840858D01*
X131303858Y-109769016D01*
X131318000Y-109783158D01*
X131682220Y-109418938D01*
X131643236Y-109320926D01*
X131532794Y-109267738D01*
X131447048Y-109245618D01*
X131514336Y-109232233D01*
X131636832Y-109181494D01*
X131747076Y-109107831D01*
X131840831Y-109014076D01*
X131914494Y-108903832D01*
X131953000Y-108810869D01*
X131991506Y-108903832D01*
%TA.AperFunction,Conductor*%
D21*
G36*
X131991506Y-108903832D02*
G01*
X132065169Y-109014076D01*
X132158924Y-109107831D01*
X132269168Y-109181494D01*
X132362131Y-109220000D01*
X132269168Y-109258506D01*
X132158924Y-109332169D01*
X132065169Y-109425924D01*
X131991506Y-109536168D01*
X131940767Y-109658664D01*
X131927892Y-109723393D01*
X131925624Y-109707329D01*
X131885139Y-109591625D01*
X131852074Y-109529764D01*
X131754062Y-109490780D01*
X131389842Y-109855000D01*
X131754062Y-110219220D01*
X131852074Y-110180236D01*
X131905262Y-110069794D01*
X131927382Y-109984048D01*
X131940767Y-110051336D01*
X131991506Y-110173832D01*
X132065169Y-110284076D01*
X132158924Y-110377831D01*
X132232401Y-110426927D01*
X132232401Y-110431429D01*
X132133063Y-110411670D01*
X132017985Y-110411670D01*
X131905119Y-110434120D01*
X131798801Y-110478158D01*
X131703118Y-110542092D01*
X131621746Y-110623464D01*
X131557812Y-110719147D01*
X131513774Y-110825465D01*
X131491324Y-110938331D01*
X131491324Y-111053409D01*
X131513774Y-111166275D01*
X131557812Y-111272593D01*
X131621746Y-111368276D01*
X131703118Y-111449648D01*
X131719924Y-111460878D01*
X131719925Y-113325559D01*
X131718205Y-113343024D01*
X131725070Y-113412734D01*
X131745404Y-113479765D01*
X131753331Y-113494595D01*
X131778424Y-113541540D01*
X131822862Y-113595687D01*
X131836425Y-113606818D01*
X131897266Y-113667660D01*
X131820037Y-113652298D01*
X131704959Y-113652298D01*
X131592093Y-113674748D01*
X131485775Y-113718786D01*
X131390092Y-113782720D01*
X131308720Y-113864092D01*
X131244786Y-113959775D01*
X131200748Y-114066093D01*
X131178298Y-114178959D01*
X131178298Y-114294037D01*
X131200748Y-114406903D01*
X131244786Y-114513221D01*
X131308720Y-114608904D01*
X131390092Y-114690276D01*
X131485775Y-114754210D01*
X131512226Y-114765166D01*
X131498788Y-114785277D01*
X131454750Y-114891595D01*
X131432300Y-115004461D01*
X131432300Y-115119539D01*
X131454750Y-115232405D01*
X131476115Y-115283985D01*
X131422275Y-115306286D01*
X131326592Y-115370220D01*
X131245220Y-115451592D01*
X131181286Y-115547275D01*
X131137248Y-115653593D01*
X131114798Y-115766459D01*
X131114798Y-115881537D01*
X131137248Y-115994403D01*
X131181286Y-116100721D01*
X131245220Y-116196404D01*
X131326592Y-116277776D01*
X131422275Y-116341710D01*
X131528593Y-116385748D01*
X131560003Y-116391996D01*
X131550236Y-116415575D01*
X131527786Y-116528441D01*
X131527786Y-116643519D01*
X131550236Y-116756385D01*
X131594274Y-116862703D01*
X131658208Y-116958386D01*
X131739580Y-117039758D01*
X131835263Y-117103692D01*
X131941581Y-117147730D01*
X132054447Y-117170180D01*
X132169525Y-117170180D01*
X132282391Y-117147730D01*
X132339249Y-117124179D01*
X132339249Y-117272317D01*
X132334000Y-117271800D01*
X131076700Y-117271800D01*
X131076700Y-110429497D01*
X131103206Y-110442262D01*
X131221903Y-110472883D01*
X131344292Y-110479758D01*
X131465671Y-110462624D01*
X131581375Y-110422139D01*
X131643236Y-110389074D01*
X131682220Y-110291062D01*
X131318000Y-109926842D01*
X131303858Y-109940985D01*
X131232016Y-109869143D01*
X131246158Y-109855000D01*
X131232016Y-109840858D01*
X131303858Y-109769016D01*
X131318000Y-109783158D01*
X131682220Y-109418938D01*
X131643236Y-109320926D01*
X131532794Y-109267738D01*
X131447048Y-109245618D01*
X131514336Y-109232233D01*
X131636832Y-109181494D01*
X131747076Y-109107831D01*
X131840831Y-109014076D01*
X131914494Y-108903832D01*
X131953000Y-108810869D01*
X131991506Y-108903832D01*
G37*
%TD.AperFunction*%
D20*
X182527095Y-112948255D02*
X182585872Y-112966084D01*
X182603701Y-112971493D01*
X182611705Y-112972281D01*
X182663410Y-112977374D01*
X182663416Y-112977374D01*
X182683369Y-112979339D01*
X182695417Y-112978153D01*
X182742016Y-113024752D01*
X182837699Y-113088686D01*
X182944017Y-113132724D01*
X183056883Y-113155174D01*
X183171961Y-113155174D01*
X183284827Y-113132724D01*
X183391145Y-113088686D01*
X183400700Y-113082301D01*
X183400700Y-113784077D01*
X183398023Y-113782288D01*
X183291705Y-113738250D01*
X183178839Y-113715800D01*
X183063761Y-113715800D01*
X182950895Y-113738250D01*
X182844577Y-113782288D01*
X182748894Y-113846222D01*
X182667522Y-113927594D01*
X182603588Y-114023277D01*
X182559550Y-114129595D01*
X182537100Y-114242461D01*
X182537100Y-114357539D01*
X182559550Y-114470405D01*
X182603588Y-114576723D01*
X182667522Y-114672406D01*
X182748894Y-114753778D01*
X182844577Y-114817712D01*
X182950895Y-114861750D01*
X183063761Y-114884200D01*
X183178839Y-114884200D01*
X183291705Y-114861750D01*
X183398023Y-114817712D01*
X183400700Y-114815923D01*
X183400700Y-115203464D01*
X183396778Y-115197594D01*
X183315406Y-115116222D01*
X183219723Y-115052288D01*
X183113405Y-115008250D01*
X183000539Y-114985800D01*
X182933537Y-114985800D01*
X182486242Y-114538506D01*
X182486242Y-112926419D01*
X182527095Y-112948255D01*
%TA.AperFunction,Conductor*%
D21*
G36*
X182527095Y-112948255D02*
G01*
X182585872Y-112966084D01*
X182603701Y-112971493D01*
X182611705Y-112972281D01*
X182663410Y-112977374D01*
X182663416Y-112977374D01*
X182683369Y-112979339D01*
X182695417Y-112978153D01*
X182742016Y-113024752D01*
X182837699Y-113088686D01*
X182944017Y-113132724D01*
X183056883Y-113155174D01*
X183171961Y-113155174D01*
X183284827Y-113132724D01*
X183391145Y-113088686D01*
X183400700Y-113082301D01*
X183400700Y-113784077D01*
X183398023Y-113782288D01*
X183291705Y-113738250D01*
X183178839Y-113715800D01*
X183063761Y-113715800D01*
X182950895Y-113738250D01*
X182844577Y-113782288D01*
X182748894Y-113846222D01*
X182667522Y-113927594D01*
X182603588Y-114023277D01*
X182559550Y-114129595D01*
X182537100Y-114242461D01*
X182537100Y-114357539D01*
X182559550Y-114470405D01*
X182603588Y-114576723D01*
X182667522Y-114672406D01*
X182748894Y-114753778D01*
X182844577Y-114817712D01*
X182950895Y-114861750D01*
X183063761Y-114884200D01*
X183178839Y-114884200D01*
X183291705Y-114861750D01*
X183398023Y-114817712D01*
X183400700Y-114815923D01*
X183400700Y-115203464D01*
X183396778Y-115197594D01*
X183315406Y-115116222D01*
X183219723Y-115052288D01*
X183113405Y-115008250D01*
X183000539Y-114985800D01*
X182933537Y-114985800D01*
X182486242Y-114538506D01*
X182486242Y-112926419D01*
X182527095Y-112948255D01*
G37*
%TD.AperFunction*%
D20*
X181673443Y-114362396D02*
X181668409Y-114337088D01*
X181624371Y-114230770D01*
X181560437Y-114135087D01*
X181479065Y-114053715D01*
X181383382Y-113989781D01*
X181277064Y-113945743D01*
X181164198Y-113923293D01*
X181161899Y-113923293D01*
X181181045Y-113904147D01*
X181244979Y-113808464D01*
X181289017Y-113702146D01*
X181311467Y-113589280D01*
X181311467Y-113474202D01*
X181289017Y-113361336D01*
X181244979Y-113255018D01*
X181181045Y-113159335D01*
X181099673Y-113077963D01*
X181003990Y-113014029D01*
X180897672Y-112969991D01*
X180784806Y-112947541D01*
X180669728Y-112947541D01*
X180556862Y-112969991D01*
X180494441Y-112995846D01*
X180494441Y-112461726D01*
X181067395Y-111888773D01*
X181079277Y-111896712D01*
X181185595Y-111940750D01*
X181298461Y-111963200D01*
X181413539Y-111963200D01*
X181526405Y-111940750D01*
X181632723Y-111896712D01*
X181673442Y-111869504D01*
X181673443Y-114362396D01*
%TA.AperFunction,Conductor*%
D21*
G36*
X181673443Y-114362396D02*
G01*
X181668409Y-114337088D01*
X181624371Y-114230770D01*
X181560437Y-114135087D01*
X181479065Y-114053715D01*
X181383382Y-113989781D01*
X181277064Y-113945743D01*
X181164198Y-113923293D01*
X181161899Y-113923293D01*
X181181045Y-113904147D01*
X181244979Y-113808464D01*
X181289017Y-113702146D01*
X181311467Y-113589280D01*
X181311467Y-113474202D01*
X181289017Y-113361336D01*
X181244979Y-113255018D01*
X181181045Y-113159335D01*
X181099673Y-113077963D01*
X181003990Y-113014029D01*
X180897672Y-112969991D01*
X180784806Y-112947541D01*
X180669728Y-112947541D01*
X180556862Y-112969991D01*
X180494441Y-112995846D01*
X180494441Y-112461726D01*
X181067395Y-111888773D01*
X181079277Y-111896712D01*
X181185595Y-111940750D01*
X181298461Y-111963200D01*
X181413539Y-111963200D01*
X181526405Y-111940750D01*
X181632723Y-111896712D01*
X181673442Y-111869504D01*
X181673443Y-114362396D01*
G37*
%TD.AperFunction*%
D20*
X134531506Y-108903832D02*
X134605169Y-109014076D01*
X134698924Y-109107831D01*
X134809168Y-109181494D01*
X134902131Y-109220000D01*
X134809168Y-109258506D01*
X134698924Y-109332169D01*
X134605169Y-109425924D01*
X134531506Y-109536168D01*
X134480767Y-109658664D01*
X134467892Y-109723393D01*
X134465624Y-109707329D01*
X134425139Y-109591625D01*
X134392074Y-109529764D01*
X134294062Y-109490780D01*
X133929842Y-109855000D01*
X133943985Y-109869143D01*
X133872143Y-109940985D01*
X133858000Y-109926842D01*
X133493780Y-110291062D01*
X133532764Y-110389074D01*
X133643206Y-110442262D01*
X133761903Y-110472883D01*
X133884292Y-110479758D01*
X134005671Y-110462624D01*
X134023839Y-110456267D01*
X133518365Y-110961742D01*
X133454277Y-110988288D01*
X133358594Y-111052222D01*
X133317685Y-111093131D01*
X133295778Y-111060346D01*
X133214406Y-110978974D01*
X133171224Y-110950120D01*
X133139101Y-110890023D01*
X133126181Y-110874280D01*
X133105795Y-110849439D01*
X133105785Y-110849429D01*
X133094662Y-110835876D01*
X133081109Y-110824753D01*
X132943600Y-110687245D01*
X132943600Y-110426926D01*
X133017076Y-110377831D01*
X133110831Y-110284076D01*
X133184494Y-110173832D01*
X133235233Y-110051336D01*
X133248108Y-109986607D01*
X133250376Y-110002671D01*
X133290861Y-110118375D01*
X133323926Y-110180236D01*
X133421938Y-110219220D01*
X133786158Y-109855000D01*
X133421938Y-109490780D01*
X133323926Y-109529764D01*
X133270738Y-109640206D01*
X133248618Y-109725952D01*
X133235233Y-109658664D01*
X133184494Y-109536168D01*
X133110831Y-109425924D01*
X133017076Y-109332169D01*
X132906832Y-109258506D01*
X132813869Y-109220000D01*
X132906832Y-109181494D01*
X133017076Y-109107831D01*
X133110831Y-109014076D01*
X133184494Y-108903832D01*
X133223000Y-108810869D01*
X133261506Y-108903832D01*
X133335169Y-109014076D01*
X133428924Y-109107831D01*
X133539168Y-109181494D01*
X133661664Y-109232233D01*
X133726393Y-109245108D01*
X133710329Y-109247376D01*
X133594625Y-109287861D01*
X133532764Y-109320926D01*
X133493780Y-109418938D01*
X133858000Y-109783158D01*
X134222220Y-109418938D01*
X134183236Y-109320926D01*
X134072794Y-109267738D01*
X133987048Y-109245618D01*
X134054336Y-109232233D01*
X134176832Y-109181494D01*
X134287076Y-109107831D01*
X134380831Y-109014076D01*
X134454494Y-108903832D01*
X134493000Y-108810869D01*
X134531506Y-108903832D01*
%TA.AperFunction,Conductor*%
D21*
G36*
X134531506Y-108903832D02*
G01*
X134605169Y-109014076D01*
X134698924Y-109107831D01*
X134809168Y-109181494D01*
X134902131Y-109220000D01*
X134809168Y-109258506D01*
X134698924Y-109332169D01*
X134605169Y-109425924D01*
X134531506Y-109536168D01*
X134480767Y-109658664D01*
X134467892Y-109723393D01*
X134465624Y-109707329D01*
X134425139Y-109591625D01*
X134392074Y-109529764D01*
X134294062Y-109490780D01*
X133929842Y-109855000D01*
X133943985Y-109869143D01*
X133872143Y-109940985D01*
X133858000Y-109926842D01*
X133493780Y-110291062D01*
X133532764Y-110389074D01*
X133643206Y-110442262D01*
X133761903Y-110472883D01*
X133884292Y-110479758D01*
X134005671Y-110462624D01*
X134023839Y-110456267D01*
X133518365Y-110961742D01*
X133454277Y-110988288D01*
X133358594Y-111052222D01*
X133317685Y-111093131D01*
X133295778Y-111060346D01*
X133214406Y-110978974D01*
X133171224Y-110950120D01*
X133139101Y-110890023D01*
X133126181Y-110874280D01*
X133105795Y-110849439D01*
X133105785Y-110849429D01*
X133094662Y-110835876D01*
X133081109Y-110824753D01*
X132943600Y-110687245D01*
X132943600Y-110426926D01*
X133017076Y-110377831D01*
X133110831Y-110284076D01*
X133184494Y-110173832D01*
X133235233Y-110051336D01*
X133248108Y-109986607D01*
X133250376Y-110002671D01*
X133290861Y-110118375D01*
X133323926Y-110180236D01*
X133421938Y-110219220D01*
X133786158Y-109855000D01*
X133421938Y-109490780D01*
X133323926Y-109529764D01*
X133270738Y-109640206D01*
X133248618Y-109725952D01*
X133235233Y-109658664D01*
X133184494Y-109536168D01*
X133110831Y-109425924D01*
X133017076Y-109332169D01*
X132906832Y-109258506D01*
X132813869Y-109220000D01*
X132906832Y-109181494D01*
X133017076Y-109107831D01*
X133110831Y-109014076D01*
X133184494Y-108903832D01*
X133223000Y-108810869D01*
X133261506Y-108903832D01*
X133335169Y-109014076D01*
X133428924Y-109107831D01*
X133539168Y-109181494D01*
X133661664Y-109232233D01*
X133726393Y-109245108D01*
X133710329Y-109247376D01*
X133594625Y-109287861D01*
X133532764Y-109320926D01*
X133493780Y-109418938D01*
X133858000Y-109783158D01*
X134222220Y-109418938D01*
X134183236Y-109320926D01*
X134072794Y-109267738D01*
X133987048Y-109245618D01*
X134054336Y-109232233D01*
X134176832Y-109181494D01*
X134287076Y-109107831D01*
X134380831Y-109014076D01*
X134454494Y-108903832D01*
X134493000Y-108810869D01*
X134531506Y-108903832D01*
G37*
%TD.AperFunction*%
%TD*%
M02*
