%TF.GenerationSoftware,KiCad,Pcbnew,(5.1.10-1-10_14)*%
%TF.CreationDate,2022-01-16T17:40:32-08:00*%
%TF.ProjectId,umbelt-board,756d6265-6c74-42d6-926f-6172642e6b69,1.0.1*%
%TF.SameCoordinates,Original*%
%TF.FileFunction,Paste,Top*%
%TF.FilePolarity,Positive*%
%FSLAX46Y46*%
G04 Gerber Fmt 4.6, Leading zero omitted, Abs format (unit mm)*
G04 Created by KiCad (PCBNEW (5.1.10-1-10_14)) date 2022-01-16 17:40:32*
%MOMM*%
%LPD*%
G01*
G04 APERTURE LIST*
%ADD10C,0.010000*%
%ADD11C,0.250000*%
%ADD12R,0.900000X1.200000*%
%ADD13R,0.600000X1.150000*%
%ADD14R,0.300000X1.150000*%
%ADD15R,0.600000X1.550000*%
%ADD16R,1.200000X1.800000*%
%ADD17R,1.100000X0.700000*%
%ADD18R,0.850000X0.600000*%
%ADD19R,0.900000X1.000000*%
%ADD20R,1.000000X0.800000*%
%ADD21R,0.700000X1.500000*%
%ADD22R,0.400000X0.600000*%
%ADD23R,0.600000X0.400000*%
%ADD24R,2.300000X0.325000*%
%ADD25R,0.325000X1.300000*%
%ADD26R,0.950000X0.450000*%
%ADD27R,0.560000X0.350000*%
G04 APERTURE END LIST*
D10*
%TO.C,U4*%
G36*
X134557000Y-109223000D02*
G01*
X134683000Y-109223000D01*
X134683000Y-110233000D01*
X134557000Y-110233000D01*
X134557000Y-109223000D01*
G37*
X134557000Y-109223000D02*
X134683000Y-109223000D01*
X134683000Y-110233000D01*
X134557000Y-110233000D01*
X134557000Y-109223000D01*
%TD*%
D11*
%TO.C,U15*%
X175522000Y-121404000D03*
X176022000Y-121404000D03*
X176522000Y-121404000D03*
X175522000Y-120904000D03*
X176022000Y-120904000D03*
X175522000Y-120404000D03*
X176022000Y-120404000D03*
X176522000Y-120404000D03*
%TD*%
%TO.C,C1*%
G36*
G01*
X149991000Y-122753000D02*
X150491000Y-122753000D01*
G75*
G02*
X150716000Y-122978000I0J-225000D01*
G01*
X150716000Y-123428000D01*
G75*
G02*
X150491000Y-123653000I-225000J0D01*
G01*
X149991000Y-123653000D01*
G75*
G02*
X149766000Y-123428000I0J225000D01*
G01*
X149766000Y-122978000D01*
G75*
G02*
X149991000Y-122753000I225000J0D01*
G01*
G37*
G36*
G01*
X149991000Y-121203000D02*
X150491000Y-121203000D01*
G75*
G02*
X150716000Y-121428000I0J-225000D01*
G01*
X150716000Y-121878000D01*
G75*
G02*
X150491000Y-122103000I-225000J0D01*
G01*
X149991000Y-122103000D01*
G75*
G02*
X149766000Y-121878000I0J225000D01*
G01*
X149766000Y-121428000D01*
G75*
G02*
X149991000Y-121203000I225000J0D01*
G01*
G37*
%TD*%
%TO.C,C2*%
G36*
G01*
X152015000Y-122103000D02*
X151515000Y-122103000D01*
G75*
G02*
X151290000Y-121878000I0J225000D01*
G01*
X151290000Y-121428000D01*
G75*
G02*
X151515000Y-121203000I225000J0D01*
G01*
X152015000Y-121203000D01*
G75*
G02*
X152240000Y-121428000I0J-225000D01*
G01*
X152240000Y-121878000D01*
G75*
G02*
X152015000Y-122103000I-225000J0D01*
G01*
G37*
G36*
G01*
X152015000Y-123653000D02*
X151515000Y-123653000D01*
G75*
G02*
X151290000Y-123428000I0J225000D01*
G01*
X151290000Y-122978000D01*
G75*
G02*
X151515000Y-122753000I225000J0D01*
G01*
X152015000Y-122753000D01*
G75*
G02*
X152240000Y-122978000I0J-225000D01*
G01*
X152240000Y-123428000D01*
G75*
G02*
X152015000Y-123653000I-225000J0D01*
G01*
G37*
%TD*%
%TO.C,C3*%
G36*
G01*
X148467000Y-122753000D02*
X148967000Y-122753000D01*
G75*
G02*
X149192000Y-122978000I0J-225000D01*
G01*
X149192000Y-123428000D01*
G75*
G02*
X148967000Y-123653000I-225000J0D01*
G01*
X148467000Y-123653000D01*
G75*
G02*
X148242000Y-123428000I0J225000D01*
G01*
X148242000Y-122978000D01*
G75*
G02*
X148467000Y-122753000I225000J0D01*
G01*
G37*
G36*
G01*
X148467000Y-121203000D02*
X148967000Y-121203000D01*
G75*
G02*
X149192000Y-121428000I0J-225000D01*
G01*
X149192000Y-121878000D01*
G75*
G02*
X148967000Y-122103000I-225000J0D01*
G01*
X148467000Y-122103000D01*
G75*
G02*
X148242000Y-121878000I0J225000D01*
G01*
X148242000Y-121428000D01*
G75*
G02*
X148467000Y-121203000I225000J0D01*
G01*
G37*
%TD*%
%TO.C,C4*%
G36*
G01*
X155900000Y-119884000D02*
X155900000Y-119384000D01*
G75*
G02*
X156125000Y-119159000I225000J0D01*
G01*
X156575000Y-119159000D01*
G75*
G02*
X156800000Y-119384000I0J-225000D01*
G01*
X156800000Y-119884000D01*
G75*
G02*
X156575000Y-120109000I-225000J0D01*
G01*
X156125000Y-120109000D01*
G75*
G02*
X155900000Y-119884000I0J225000D01*
G01*
G37*
G36*
G01*
X154350000Y-119884000D02*
X154350000Y-119384000D01*
G75*
G02*
X154575000Y-119159000I225000J0D01*
G01*
X155025000Y-119159000D01*
G75*
G02*
X155250000Y-119384000I0J-225000D01*
G01*
X155250000Y-119884000D01*
G75*
G02*
X155025000Y-120109000I-225000J0D01*
G01*
X154575000Y-120109000D01*
G75*
G02*
X154350000Y-119884000I0J225000D01*
G01*
G37*
%TD*%
%TO.C,C5*%
G36*
G01*
X145105000Y-117598000D02*
X145105000Y-117098000D01*
G75*
G02*
X145330000Y-116873000I225000J0D01*
G01*
X145780000Y-116873000D01*
G75*
G02*
X146005000Y-117098000I0J-225000D01*
G01*
X146005000Y-117598000D01*
G75*
G02*
X145780000Y-117823000I-225000J0D01*
G01*
X145330000Y-117823000D01*
G75*
G02*
X145105000Y-117598000I0J225000D01*
G01*
G37*
G36*
G01*
X143555000Y-117598000D02*
X143555000Y-117098000D01*
G75*
G02*
X143780000Y-116873000I225000J0D01*
G01*
X144230000Y-116873000D01*
G75*
G02*
X144455000Y-117098000I0J-225000D01*
G01*
X144455000Y-117598000D01*
G75*
G02*
X144230000Y-117823000I-225000J0D01*
G01*
X143780000Y-117823000D01*
G75*
G02*
X143555000Y-117598000I0J225000D01*
G01*
G37*
%TD*%
%TO.C,C6*%
G36*
G01*
X145105000Y-116074000D02*
X145105000Y-115574000D01*
G75*
G02*
X145330000Y-115349000I225000J0D01*
G01*
X145780000Y-115349000D01*
G75*
G02*
X146005000Y-115574000I0J-225000D01*
G01*
X146005000Y-116074000D01*
G75*
G02*
X145780000Y-116299000I-225000J0D01*
G01*
X145330000Y-116299000D01*
G75*
G02*
X145105000Y-116074000I0J225000D01*
G01*
G37*
G36*
G01*
X143555000Y-116074000D02*
X143555000Y-115574000D01*
G75*
G02*
X143780000Y-115349000I225000J0D01*
G01*
X144230000Y-115349000D01*
G75*
G02*
X144455000Y-115574000I0J-225000D01*
G01*
X144455000Y-116074000D01*
G75*
G02*
X144230000Y-116299000I-225000J0D01*
G01*
X143780000Y-116299000D01*
G75*
G02*
X143555000Y-116074000I0J225000D01*
G01*
G37*
%TD*%
%TO.C,C7*%
G36*
G01*
X145105000Y-122932000D02*
X145105000Y-122432000D01*
G75*
G02*
X145330000Y-122207000I225000J0D01*
G01*
X145780000Y-122207000D01*
G75*
G02*
X146005000Y-122432000I0J-225000D01*
G01*
X146005000Y-122932000D01*
G75*
G02*
X145780000Y-123157000I-225000J0D01*
G01*
X145330000Y-123157000D01*
G75*
G02*
X145105000Y-122932000I0J225000D01*
G01*
G37*
G36*
G01*
X143555000Y-122932000D02*
X143555000Y-122432000D01*
G75*
G02*
X143780000Y-122207000I225000J0D01*
G01*
X144230000Y-122207000D01*
G75*
G02*
X144455000Y-122432000I0J-225000D01*
G01*
X144455000Y-122932000D01*
G75*
G02*
X144230000Y-123157000I-225000J0D01*
G01*
X143780000Y-123157000D01*
G75*
G02*
X143555000Y-122932000I0J225000D01*
G01*
G37*
%TD*%
%TO.C,C8*%
G36*
G01*
X135311000Y-107192000D02*
X135311000Y-107692000D01*
G75*
G02*
X135086000Y-107917000I-225000J0D01*
G01*
X134636000Y-107917000D01*
G75*
G02*
X134411000Y-107692000I0J225000D01*
G01*
X134411000Y-107192000D01*
G75*
G02*
X134636000Y-106967000I225000J0D01*
G01*
X135086000Y-106967000D01*
G75*
G02*
X135311000Y-107192000I0J-225000D01*
G01*
G37*
G36*
G01*
X136861000Y-107192000D02*
X136861000Y-107692000D01*
G75*
G02*
X136636000Y-107917000I-225000J0D01*
G01*
X136186000Y-107917000D01*
G75*
G02*
X135961000Y-107692000I0J225000D01*
G01*
X135961000Y-107192000D01*
G75*
G02*
X136186000Y-106967000I225000J0D01*
G01*
X136636000Y-106967000D01*
G75*
G02*
X136861000Y-107192000I0J-225000D01*
G01*
G37*
%TD*%
%TO.C,C9*%
G36*
G01*
X140533000Y-123440000D02*
X140533000Y-122940000D01*
G75*
G02*
X140758000Y-122715000I225000J0D01*
G01*
X141208000Y-122715000D01*
G75*
G02*
X141433000Y-122940000I0J-225000D01*
G01*
X141433000Y-123440000D01*
G75*
G02*
X141208000Y-123665000I-225000J0D01*
G01*
X140758000Y-123665000D01*
G75*
G02*
X140533000Y-123440000I0J225000D01*
G01*
G37*
G36*
G01*
X138983000Y-123440000D02*
X138983000Y-122940000D01*
G75*
G02*
X139208000Y-122715000I225000J0D01*
G01*
X139658000Y-122715000D01*
G75*
G02*
X139883000Y-122940000I0J-225000D01*
G01*
X139883000Y-123440000D01*
G75*
G02*
X139658000Y-123665000I-225000J0D01*
G01*
X139208000Y-123665000D01*
G75*
G02*
X138983000Y-123440000I0J225000D01*
G01*
G37*
%TD*%
%TO.C,C10*%
G36*
G01*
X174502000Y-109799000D02*
X175002000Y-109799000D01*
G75*
G02*
X175227000Y-110024000I0J-225000D01*
G01*
X175227000Y-110474000D01*
G75*
G02*
X175002000Y-110699000I-225000J0D01*
G01*
X174502000Y-110699000D01*
G75*
G02*
X174277000Y-110474000I0J225000D01*
G01*
X174277000Y-110024000D01*
G75*
G02*
X174502000Y-109799000I225000J0D01*
G01*
G37*
G36*
G01*
X174502000Y-108249000D02*
X175002000Y-108249000D01*
G75*
G02*
X175227000Y-108474000I0J-225000D01*
G01*
X175227000Y-108924000D01*
G75*
G02*
X175002000Y-109149000I-225000J0D01*
G01*
X174502000Y-109149000D01*
G75*
G02*
X174277000Y-108924000I0J225000D01*
G01*
X174277000Y-108474000D01*
G75*
G02*
X174502000Y-108249000I225000J0D01*
G01*
G37*
%TD*%
%TO.C,C11*%
G36*
G01*
X160270000Y-114483000D02*
X159770000Y-114483000D01*
G75*
G02*
X159545000Y-114258000I0J225000D01*
G01*
X159545000Y-113808000D01*
G75*
G02*
X159770000Y-113583000I225000J0D01*
G01*
X160270000Y-113583000D01*
G75*
G02*
X160495000Y-113808000I0J-225000D01*
G01*
X160495000Y-114258000D01*
G75*
G02*
X160270000Y-114483000I-225000J0D01*
G01*
G37*
G36*
G01*
X160270000Y-116033000D02*
X159770000Y-116033000D01*
G75*
G02*
X159545000Y-115808000I0J225000D01*
G01*
X159545000Y-115358000D01*
G75*
G02*
X159770000Y-115133000I225000J0D01*
G01*
X160270000Y-115133000D01*
G75*
G02*
X160495000Y-115358000I0J-225000D01*
G01*
X160495000Y-115808000D01*
G75*
G02*
X160270000Y-116033000I-225000J0D01*
G01*
G37*
%TD*%
%TO.C,C12*%
G36*
G01*
X165358000Y-117165000D02*
X165858000Y-117165000D01*
G75*
G02*
X166083000Y-117390000I0J-225000D01*
G01*
X166083000Y-117840000D01*
G75*
G02*
X165858000Y-118065000I-225000J0D01*
G01*
X165358000Y-118065000D01*
G75*
G02*
X165133000Y-117840000I0J225000D01*
G01*
X165133000Y-117390000D01*
G75*
G02*
X165358000Y-117165000I225000J0D01*
G01*
G37*
G36*
G01*
X165358000Y-115615000D02*
X165858000Y-115615000D01*
G75*
G02*
X166083000Y-115840000I0J-225000D01*
G01*
X166083000Y-116290000D01*
G75*
G02*
X165858000Y-116515000I-225000J0D01*
G01*
X165358000Y-116515000D01*
G75*
G02*
X165133000Y-116290000I0J225000D01*
G01*
X165133000Y-115840000D01*
G75*
G02*
X165358000Y-115615000I225000J0D01*
G01*
G37*
%TD*%
%TO.C,C13*%
G36*
G01*
X162743000Y-118241000D02*
X162743000Y-118741000D01*
G75*
G02*
X162518000Y-118966000I-225000J0D01*
G01*
X162068000Y-118966000D01*
G75*
G02*
X161843000Y-118741000I0J225000D01*
G01*
X161843000Y-118241000D01*
G75*
G02*
X162068000Y-118016000I225000J0D01*
G01*
X162518000Y-118016000D01*
G75*
G02*
X162743000Y-118241000I0J-225000D01*
G01*
G37*
G36*
G01*
X164293000Y-118241000D02*
X164293000Y-118741000D01*
G75*
G02*
X164068000Y-118966000I-225000J0D01*
G01*
X163618000Y-118966000D01*
G75*
G02*
X163393000Y-118741000I0J225000D01*
G01*
X163393000Y-118241000D01*
G75*
G02*
X163618000Y-118016000I225000J0D01*
G01*
X164068000Y-118016000D01*
G75*
G02*
X164293000Y-118241000I0J-225000D01*
G01*
G37*
%TD*%
%TO.C,C14*%
G36*
G01*
X162743000Y-119765000D02*
X162743000Y-120265000D01*
G75*
G02*
X162518000Y-120490000I-225000J0D01*
G01*
X162068000Y-120490000D01*
G75*
G02*
X161843000Y-120265000I0J225000D01*
G01*
X161843000Y-119765000D01*
G75*
G02*
X162068000Y-119540000I225000J0D01*
G01*
X162518000Y-119540000D01*
G75*
G02*
X162743000Y-119765000I0J-225000D01*
G01*
G37*
G36*
G01*
X164293000Y-119765000D02*
X164293000Y-120265000D01*
G75*
G02*
X164068000Y-120490000I-225000J0D01*
G01*
X163618000Y-120490000D01*
G75*
G02*
X163393000Y-120265000I0J225000D01*
G01*
X163393000Y-119765000D01*
G75*
G02*
X163618000Y-119540000I225000J0D01*
G01*
X164068000Y-119540000D01*
G75*
G02*
X164293000Y-119765000I0J-225000D01*
G01*
G37*
%TD*%
%TO.C,C15*%
G36*
G01*
X143506000Y-125151000D02*
X143006000Y-125151000D01*
G75*
G02*
X142781000Y-124926000I0J225000D01*
G01*
X142781000Y-124476000D01*
G75*
G02*
X143006000Y-124251000I225000J0D01*
G01*
X143506000Y-124251000D01*
G75*
G02*
X143731000Y-124476000I0J-225000D01*
G01*
X143731000Y-124926000D01*
G75*
G02*
X143506000Y-125151000I-225000J0D01*
G01*
G37*
G36*
G01*
X143506000Y-126701000D02*
X143006000Y-126701000D01*
G75*
G02*
X142781000Y-126476000I0J225000D01*
G01*
X142781000Y-126026000D01*
G75*
G02*
X143006000Y-125801000I225000J0D01*
G01*
X143506000Y-125801000D01*
G75*
G02*
X143731000Y-126026000I0J-225000D01*
G01*
X143731000Y-126476000D01*
G75*
G02*
X143506000Y-126701000I-225000J0D01*
G01*
G37*
%TD*%
%TO.C,C16*%
G36*
G01*
X151126000Y-125151000D02*
X150626000Y-125151000D01*
G75*
G02*
X150401000Y-124926000I0J225000D01*
G01*
X150401000Y-124476000D01*
G75*
G02*
X150626000Y-124251000I225000J0D01*
G01*
X151126000Y-124251000D01*
G75*
G02*
X151351000Y-124476000I0J-225000D01*
G01*
X151351000Y-124926000D01*
G75*
G02*
X151126000Y-125151000I-225000J0D01*
G01*
G37*
G36*
G01*
X151126000Y-126701000D02*
X150626000Y-126701000D01*
G75*
G02*
X150401000Y-126476000I0J225000D01*
G01*
X150401000Y-126026000D01*
G75*
G02*
X150626000Y-125801000I225000J0D01*
G01*
X151126000Y-125801000D01*
G75*
G02*
X151351000Y-126026000I0J-225000D01*
G01*
X151351000Y-126476000D01*
G75*
G02*
X151126000Y-126701000I-225000J0D01*
G01*
G37*
%TD*%
%TO.C,C17*%
G36*
G01*
X158746000Y-125151000D02*
X158246000Y-125151000D01*
G75*
G02*
X158021000Y-124926000I0J225000D01*
G01*
X158021000Y-124476000D01*
G75*
G02*
X158246000Y-124251000I225000J0D01*
G01*
X158746000Y-124251000D01*
G75*
G02*
X158971000Y-124476000I0J-225000D01*
G01*
X158971000Y-124926000D01*
G75*
G02*
X158746000Y-125151000I-225000J0D01*
G01*
G37*
G36*
G01*
X158746000Y-126701000D02*
X158246000Y-126701000D01*
G75*
G02*
X158021000Y-126476000I0J225000D01*
G01*
X158021000Y-126026000D01*
G75*
G02*
X158246000Y-125801000I225000J0D01*
G01*
X158746000Y-125801000D01*
G75*
G02*
X158971000Y-126026000I0J-225000D01*
G01*
X158971000Y-126476000D01*
G75*
G02*
X158746000Y-126701000I-225000J0D01*
G01*
G37*
%TD*%
%TO.C,C18*%
G36*
G01*
X158746000Y-122103000D02*
X158246000Y-122103000D01*
G75*
G02*
X158021000Y-121878000I0J225000D01*
G01*
X158021000Y-121428000D01*
G75*
G02*
X158246000Y-121203000I225000J0D01*
G01*
X158746000Y-121203000D01*
G75*
G02*
X158971000Y-121428000I0J-225000D01*
G01*
X158971000Y-121878000D01*
G75*
G02*
X158746000Y-122103000I-225000J0D01*
G01*
G37*
G36*
G01*
X158746000Y-123653000D02*
X158246000Y-123653000D01*
G75*
G02*
X158021000Y-123428000I0J225000D01*
G01*
X158021000Y-122978000D01*
G75*
G02*
X158246000Y-122753000I225000J0D01*
G01*
X158746000Y-122753000D01*
G75*
G02*
X158971000Y-122978000I0J-225000D01*
G01*
X158971000Y-123428000D01*
G75*
G02*
X158746000Y-123653000I-225000J0D01*
G01*
G37*
%TD*%
%TO.C,C19*%
G36*
G01*
X166366000Y-125151000D02*
X165866000Y-125151000D01*
G75*
G02*
X165641000Y-124926000I0J225000D01*
G01*
X165641000Y-124476000D01*
G75*
G02*
X165866000Y-124251000I225000J0D01*
G01*
X166366000Y-124251000D01*
G75*
G02*
X166591000Y-124476000I0J-225000D01*
G01*
X166591000Y-124926000D01*
G75*
G02*
X166366000Y-125151000I-225000J0D01*
G01*
G37*
G36*
G01*
X166366000Y-126701000D02*
X165866000Y-126701000D01*
G75*
G02*
X165641000Y-126476000I0J225000D01*
G01*
X165641000Y-126026000D01*
G75*
G02*
X165866000Y-125801000I225000J0D01*
G01*
X166366000Y-125801000D01*
G75*
G02*
X166591000Y-126026000I0J-225000D01*
G01*
X166591000Y-126476000D01*
G75*
G02*
X166366000Y-126701000I-225000J0D01*
G01*
G37*
%TD*%
%TO.C,C20*%
G36*
G01*
X166366000Y-122103000D02*
X165866000Y-122103000D01*
G75*
G02*
X165641000Y-121878000I0J225000D01*
G01*
X165641000Y-121428000D01*
G75*
G02*
X165866000Y-121203000I225000J0D01*
G01*
X166366000Y-121203000D01*
G75*
G02*
X166591000Y-121428000I0J-225000D01*
G01*
X166591000Y-121878000D01*
G75*
G02*
X166366000Y-122103000I-225000J0D01*
G01*
G37*
G36*
G01*
X166366000Y-123653000D02*
X165866000Y-123653000D01*
G75*
G02*
X165641000Y-123428000I0J225000D01*
G01*
X165641000Y-122978000D01*
G75*
G02*
X165866000Y-122753000I225000J0D01*
G01*
X166366000Y-122753000D01*
G75*
G02*
X166591000Y-122978000I0J-225000D01*
G01*
X166591000Y-123428000D01*
G75*
G02*
X166366000Y-123653000I-225000J0D01*
G01*
G37*
%TD*%
%TO.C,C21*%
G36*
G01*
X172649000Y-124464000D02*
X172649000Y-124964000D01*
G75*
G02*
X172424000Y-125189000I-225000J0D01*
G01*
X171974000Y-125189000D01*
G75*
G02*
X171749000Y-124964000I0J225000D01*
G01*
X171749000Y-124464000D01*
G75*
G02*
X171974000Y-124239000I225000J0D01*
G01*
X172424000Y-124239000D01*
G75*
G02*
X172649000Y-124464000I0J-225000D01*
G01*
G37*
G36*
G01*
X174199000Y-124464000D02*
X174199000Y-124964000D01*
G75*
G02*
X173974000Y-125189000I-225000J0D01*
G01*
X173524000Y-125189000D01*
G75*
G02*
X173299000Y-124964000I0J225000D01*
G01*
X173299000Y-124464000D01*
G75*
G02*
X173524000Y-124239000I225000J0D01*
G01*
X173974000Y-124239000D01*
G75*
G02*
X174199000Y-124464000I0J-225000D01*
G01*
G37*
%TD*%
%TO.C,C22*%
G36*
G01*
X175697000Y-124464000D02*
X175697000Y-124964000D01*
G75*
G02*
X175472000Y-125189000I-225000J0D01*
G01*
X175022000Y-125189000D01*
G75*
G02*
X174797000Y-124964000I0J225000D01*
G01*
X174797000Y-124464000D01*
G75*
G02*
X175022000Y-124239000I225000J0D01*
G01*
X175472000Y-124239000D01*
G75*
G02*
X175697000Y-124464000I0J-225000D01*
G01*
G37*
G36*
G01*
X177247000Y-124464000D02*
X177247000Y-124964000D01*
G75*
G02*
X177022000Y-125189000I-225000J0D01*
G01*
X176572000Y-125189000D01*
G75*
G02*
X176347000Y-124964000I0J225000D01*
G01*
X176347000Y-124464000D01*
G75*
G02*
X176572000Y-124239000I225000J0D01*
G01*
X177022000Y-124239000D01*
G75*
G02*
X177247000Y-124464000I0J-225000D01*
G01*
G37*
%TD*%
%TO.C,C23*%
G36*
G01*
X178745000Y-124464000D02*
X178745000Y-124964000D01*
G75*
G02*
X178520000Y-125189000I-225000J0D01*
G01*
X178070000Y-125189000D01*
G75*
G02*
X177845000Y-124964000I0J225000D01*
G01*
X177845000Y-124464000D01*
G75*
G02*
X178070000Y-124239000I225000J0D01*
G01*
X178520000Y-124239000D01*
G75*
G02*
X178745000Y-124464000I0J-225000D01*
G01*
G37*
G36*
G01*
X180295000Y-124464000D02*
X180295000Y-124964000D01*
G75*
G02*
X180070000Y-125189000I-225000J0D01*
G01*
X179620000Y-125189000D01*
G75*
G02*
X179395000Y-124964000I0J225000D01*
G01*
X179395000Y-124464000D01*
G75*
G02*
X179620000Y-124239000I225000J0D01*
G01*
X180070000Y-124239000D01*
G75*
G02*
X180295000Y-124464000I0J-225000D01*
G01*
G37*
%TD*%
%TO.C,C24*%
G36*
G01*
X181793000Y-124464000D02*
X181793000Y-124964000D01*
G75*
G02*
X181568000Y-125189000I-225000J0D01*
G01*
X181118000Y-125189000D01*
G75*
G02*
X180893000Y-124964000I0J225000D01*
G01*
X180893000Y-124464000D01*
G75*
G02*
X181118000Y-124239000I225000J0D01*
G01*
X181568000Y-124239000D01*
G75*
G02*
X181793000Y-124464000I0J-225000D01*
G01*
G37*
G36*
G01*
X183343000Y-124464000D02*
X183343000Y-124964000D01*
G75*
G02*
X183118000Y-125189000I-225000J0D01*
G01*
X182668000Y-125189000D01*
G75*
G02*
X182443000Y-124964000I0J225000D01*
G01*
X182443000Y-124464000D01*
G75*
G02*
X182668000Y-124239000I225000J0D01*
G01*
X183118000Y-124239000D01*
G75*
G02*
X183343000Y-124464000I0J-225000D01*
G01*
G37*
%TD*%
%TO.C,C25*%
G36*
G01*
X178745000Y-116844000D02*
X178745000Y-117344000D01*
G75*
G02*
X178520000Y-117569000I-225000J0D01*
G01*
X178070000Y-117569000D01*
G75*
G02*
X177845000Y-117344000I0J225000D01*
G01*
X177845000Y-116844000D01*
G75*
G02*
X178070000Y-116619000I225000J0D01*
G01*
X178520000Y-116619000D01*
G75*
G02*
X178745000Y-116844000I0J-225000D01*
G01*
G37*
G36*
G01*
X180295000Y-116844000D02*
X180295000Y-117344000D01*
G75*
G02*
X180070000Y-117569000I-225000J0D01*
G01*
X179620000Y-117569000D01*
G75*
G02*
X179395000Y-117344000I0J225000D01*
G01*
X179395000Y-116844000D01*
G75*
G02*
X179620000Y-116619000I225000J0D01*
G01*
X180070000Y-116619000D01*
G75*
G02*
X180295000Y-116844000I0J-225000D01*
G01*
G37*
%TD*%
%TO.C,C26*%
G36*
G01*
X181793000Y-116844000D02*
X181793000Y-117344000D01*
G75*
G02*
X181568000Y-117569000I-225000J0D01*
G01*
X181118000Y-117569000D01*
G75*
G02*
X180893000Y-117344000I0J225000D01*
G01*
X180893000Y-116844000D01*
G75*
G02*
X181118000Y-116619000I225000J0D01*
G01*
X181568000Y-116619000D01*
G75*
G02*
X181793000Y-116844000I0J-225000D01*
G01*
G37*
G36*
G01*
X183343000Y-116844000D02*
X183343000Y-117344000D01*
G75*
G02*
X183118000Y-117569000I-225000J0D01*
G01*
X182668000Y-117569000D01*
G75*
G02*
X182443000Y-117344000I0J225000D01*
G01*
X182443000Y-116844000D01*
G75*
G02*
X182668000Y-116619000I225000J0D01*
G01*
X183118000Y-116619000D01*
G75*
G02*
X183343000Y-116844000I0J-225000D01*
G01*
G37*
%TD*%
%TO.C,C27*%
G36*
G01*
X133346000Y-125151000D02*
X132846000Y-125151000D01*
G75*
G02*
X132621000Y-124926000I0J225000D01*
G01*
X132621000Y-124476000D01*
G75*
G02*
X132846000Y-124251000I225000J0D01*
G01*
X133346000Y-124251000D01*
G75*
G02*
X133571000Y-124476000I0J-225000D01*
G01*
X133571000Y-124926000D01*
G75*
G02*
X133346000Y-125151000I-225000J0D01*
G01*
G37*
G36*
G01*
X133346000Y-126701000D02*
X132846000Y-126701000D01*
G75*
G02*
X132621000Y-126476000I0J225000D01*
G01*
X132621000Y-126026000D01*
G75*
G02*
X132846000Y-125801000I225000J0D01*
G01*
X133346000Y-125801000D01*
G75*
G02*
X133571000Y-126026000I0J-225000D01*
G01*
X133571000Y-126476000D01*
G75*
G02*
X133346000Y-126701000I-225000J0D01*
G01*
G37*
%TD*%
%TO.C,D1*%
G36*
G01*
X131569750Y-110078000D02*
X132082250Y-110078000D01*
G75*
G02*
X132301000Y-110296750I0J-218750D01*
G01*
X132301000Y-110734250D01*
G75*
G02*
X132082250Y-110953000I-218750J0D01*
G01*
X131569750Y-110953000D01*
G75*
G02*
X131351000Y-110734250I0J218750D01*
G01*
X131351000Y-110296750D01*
G75*
G02*
X131569750Y-110078000I218750J0D01*
G01*
G37*
G36*
G01*
X131569750Y-108503000D02*
X132082250Y-108503000D01*
G75*
G02*
X132301000Y-108721750I0J-218750D01*
G01*
X132301000Y-109159250D01*
G75*
G02*
X132082250Y-109378000I-218750J0D01*
G01*
X131569750Y-109378000D01*
G75*
G02*
X131351000Y-109159250I0J218750D01*
G01*
X131351000Y-108721750D01*
G75*
G02*
X131569750Y-108503000I218750J0D01*
G01*
G37*
%TD*%
D12*
%TO.C,D2*%
X165736000Y-114046000D03*
X169036000Y-114046000D03*
%TD*%
%TO.C,D3*%
G36*
G01*
X170312500Y-116075750D02*
X170312500Y-116588250D01*
G75*
G02*
X170093750Y-116807000I-218750J0D01*
G01*
X169656250Y-116807000D01*
G75*
G02*
X169437500Y-116588250I0J218750D01*
G01*
X169437500Y-116075750D01*
G75*
G02*
X169656250Y-115857000I218750J0D01*
G01*
X170093750Y-115857000D01*
G75*
G02*
X170312500Y-116075750I0J-218750D01*
G01*
G37*
G36*
G01*
X171887500Y-116075750D02*
X171887500Y-116588250D01*
G75*
G02*
X171668750Y-116807000I-218750J0D01*
G01*
X171231250Y-116807000D01*
G75*
G02*
X171012500Y-116588250I0J218750D01*
G01*
X171012500Y-116075750D01*
G75*
G02*
X171231250Y-115857000I218750J0D01*
G01*
X171668750Y-115857000D01*
G75*
G02*
X171887500Y-116075750I0J-218750D01*
G01*
G37*
%TD*%
D13*
%TO.C,J1*%
X145136000Y-113975000D03*
X145936000Y-113975000D03*
X150736000Y-113975000D03*
X151536000Y-113975000D03*
D14*
X150086000Y-113975000D03*
X149586000Y-113975000D03*
X149086000Y-113975000D03*
X146586000Y-113975000D03*
X147086000Y-113975000D03*
X147586000Y-113975000D03*
X148586000Y-113975000D03*
X148086000Y-113975000D03*
D13*
X145936000Y-113975000D03*
X150736000Y-113975000D03*
X145136000Y-113975000D03*
X151536000Y-113975000D03*
%TD*%
D15*
%TO.C,J3*%
X164616000Y-111760000D03*
X165616000Y-111760000D03*
X166616000Y-111760000D03*
X167616000Y-111760000D03*
D16*
X168916000Y-107885000D03*
X163316000Y-107885000D03*
%TD*%
D17*
%TO.C,J5*%
X180233000Y-107470000D03*
X180233000Y-110970000D03*
D18*
X176508000Y-108620000D03*
X176508000Y-109820000D03*
%TD*%
%TO.C,Q1*%
G36*
G01*
X171504000Y-113134000D02*
X171504000Y-113434000D01*
G75*
G02*
X171354000Y-113584000I-150000J0D01*
G01*
X170179000Y-113584000D01*
G75*
G02*
X170029000Y-113434000I0J150000D01*
G01*
X170029000Y-113134000D01*
G75*
G02*
X170179000Y-112984000I150000J0D01*
G01*
X171354000Y-112984000D01*
G75*
G02*
X171504000Y-113134000I0J-150000D01*
G01*
G37*
G36*
G01*
X173379000Y-112184000D02*
X173379000Y-112484000D01*
G75*
G02*
X173229000Y-112634000I-150000J0D01*
G01*
X172054000Y-112634000D01*
G75*
G02*
X171904000Y-112484000I0J150000D01*
G01*
X171904000Y-112184000D01*
G75*
G02*
X172054000Y-112034000I150000J0D01*
G01*
X173229000Y-112034000D01*
G75*
G02*
X173379000Y-112184000I0J-150000D01*
G01*
G37*
G36*
G01*
X173379000Y-114084000D02*
X173379000Y-114384000D01*
G75*
G02*
X173229000Y-114534000I-150000J0D01*
G01*
X172054000Y-114534000D01*
G75*
G02*
X171904000Y-114384000I0J150000D01*
G01*
X171904000Y-114084000D01*
G75*
G02*
X172054000Y-113934000I150000J0D01*
G01*
X173229000Y-113934000D01*
G75*
G02*
X173379000Y-114084000I0J-150000D01*
G01*
G37*
%TD*%
%TO.C,R1*%
G36*
G01*
X150093000Y-117074000D02*
X150643000Y-117074000D01*
G75*
G02*
X150843000Y-117274000I0J-200000D01*
G01*
X150843000Y-117674000D01*
G75*
G02*
X150643000Y-117874000I-200000J0D01*
G01*
X150093000Y-117874000D01*
G75*
G02*
X149893000Y-117674000I0J200000D01*
G01*
X149893000Y-117274000D01*
G75*
G02*
X150093000Y-117074000I200000J0D01*
G01*
G37*
G36*
G01*
X150093000Y-115424000D02*
X150643000Y-115424000D01*
G75*
G02*
X150843000Y-115624000I0J-200000D01*
G01*
X150843000Y-116024000D01*
G75*
G02*
X150643000Y-116224000I-200000J0D01*
G01*
X150093000Y-116224000D01*
G75*
G02*
X149893000Y-116024000I0J200000D01*
G01*
X149893000Y-115624000D01*
G75*
G02*
X150093000Y-115424000I200000J0D01*
G01*
G37*
%TD*%
%TO.C,R2*%
G36*
G01*
X148569000Y-117074000D02*
X149119000Y-117074000D01*
G75*
G02*
X149319000Y-117274000I0J-200000D01*
G01*
X149319000Y-117674000D01*
G75*
G02*
X149119000Y-117874000I-200000J0D01*
G01*
X148569000Y-117874000D01*
G75*
G02*
X148369000Y-117674000I0J200000D01*
G01*
X148369000Y-117274000D01*
G75*
G02*
X148569000Y-117074000I200000J0D01*
G01*
G37*
G36*
G01*
X148569000Y-115424000D02*
X149119000Y-115424000D01*
G75*
G02*
X149319000Y-115624000I0J-200000D01*
G01*
X149319000Y-116024000D01*
G75*
G02*
X149119000Y-116224000I-200000J0D01*
G01*
X148569000Y-116224000D01*
G75*
G02*
X148369000Y-116024000I0J200000D01*
G01*
X148369000Y-115624000D01*
G75*
G02*
X148569000Y-115424000I200000J0D01*
G01*
G37*
%TD*%
%TO.C,R3*%
G36*
G01*
X141053000Y-108691000D02*
X141053000Y-109241000D01*
G75*
G02*
X140853000Y-109441000I-200000J0D01*
G01*
X140453000Y-109441000D01*
G75*
G02*
X140253000Y-109241000I0J200000D01*
G01*
X140253000Y-108691000D01*
G75*
G02*
X140453000Y-108491000I200000J0D01*
G01*
X140853000Y-108491000D01*
G75*
G02*
X141053000Y-108691000I0J-200000D01*
G01*
G37*
G36*
G01*
X142703000Y-108691000D02*
X142703000Y-109241000D01*
G75*
G02*
X142503000Y-109441000I-200000J0D01*
G01*
X142103000Y-109441000D01*
G75*
G02*
X141903000Y-109241000I0J200000D01*
G01*
X141903000Y-108691000D01*
G75*
G02*
X142103000Y-108491000I200000J0D01*
G01*
X142503000Y-108491000D01*
G75*
G02*
X142703000Y-108691000I0J-200000D01*
G01*
G37*
%TD*%
%TO.C,R4*%
G36*
G01*
X141053000Y-110215000D02*
X141053000Y-110765000D01*
G75*
G02*
X140853000Y-110965000I-200000J0D01*
G01*
X140453000Y-110965000D01*
G75*
G02*
X140253000Y-110765000I0J200000D01*
G01*
X140253000Y-110215000D01*
G75*
G02*
X140453000Y-110015000I200000J0D01*
G01*
X140853000Y-110015000D01*
G75*
G02*
X141053000Y-110215000I0J-200000D01*
G01*
G37*
G36*
G01*
X142703000Y-110215000D02*
X142703000Y-110765000D01*
G75*
G02*
X142503000Y-110965000I-200000J0D01*
G01*
X142103000Y-110965000D01*
G75*
G02*
X141903000Y-110765000I0J200000D01*
G01*
X141903000Y-110215000D01*
G75*
G02*
X142103000Y-110015000I200000J0D01*
G01*
X142503000Y-110015000D01*
G75*
G02*
X142703000Y-110215000I0J-200000D01*
G01*
G37*
%TD*%
%TO.C,R5*%
G36*
G01*
X132950000Y-107717000D02*
X132950000Y-107167000D01*
G75*
G02*
X133150000Y-106967000I200000J0D01*
G01*
X133550000Y-106967000D01*
G75*
G02*
X133750000Y-107167000I0J-200000D01*
G01*
X133750000Y-107717000D01*
G75*
G02*
X133550000Y-107917000I-200000J0D01*
G01*
X133150000Y-107917000D01*
G75*
G02*
X132950000Y-107717000I0J200000D01*
G01*
G37*
G36*
G01*
X131300000Y-107717000D02*
X131300000Y-107167000D01*
G75*
G02*
X131500000Y-106967000I200000J0D01*
G01*
X131900000Y-106967000D01*
G75*
G02*
X132100000Y-107167000I0J-200000D01*
G01*
X132100000Y-107717000D01*
G75*
G02*
X131900000Y-107917000I-200000J0D01*
G01*
X131500000Y-107917000D01*
G75*
G02*
X131300000Y-107717000I0J200000D01*
G01*
G37*
%TD*%
%TO.C,R6*%
G36*
G01*
X134957000Y-122915000D02*
X134957000Y-123465000D01*
G75*
G02*
X134757000Y-123665000I-200000J0D01*
G01*
X134357000Y-123665000D01*
G75*
G02*
X134157000Y-123465000I0J200000D01*
G01*
X134157000Y-122915000D01*
G75*
G02*
X134357000Y-122715000I200000J0D01*
G01*
X134757000Y-122715000D01*
G75*
G02*
X134957000Y-122915000I0J-200000D01*
G01*
G37*
G36*
G01*
X136607000Y-122915000D02*
X136607000Y-123465000D01*
G75*
G02*
X136407000Y-123665000I-200000J0D01*
G01*
X136007000Y-123665000D01*
G75*
G02*
X135807000Y-123465000I0J200000D01*
G01*
X135807000Y-122915000D01*
G75*
G02*
X136007000Y-122715000I200000J0D01*
G01*
X136407000Y-122715000D01*
G75*
G02*
X136607000Y-122915000I0J-200000D01*
G01*
G37*
%TD*%
%TO.C,R7*%
G36*
G01*
X131909000Y-122915000D02*
X131909000Y-123465000D01*
G75*
G02*
X131709000Y-123665000I-200000J0D01*
G01*
X131309000Y-123665000D01*
G75*
G02*
X131109000Y-123465000I0J200000D01*
G01*
X131109000Y-122915000D01*
G75*
G02*
X131309000Y-122715000I200000J0D01*
G01*
X131709000Y-122715000D01*
G75*
G02*
X131909000Y-122915000I0J-200000D01*
G01*
G37*
G36*
G01*
X133559000Y-122915000D02*
X133559000Y-123465000D01*
G75*
G02*
X133359000Y-123665000I-200000J0D01*
G01*
X132959000Y-123665000D01*
G75*
G02*
X132759000Y-123465000I0J200000D01*
G01*
X132759000Y-122915000D01*
G75*
G02*
X132959000Y-122715000I200000J0D01*
G01*
X133359000Y-122715000D01*
G75*
G02*
X133559000Y-122915000I0J-200000D01*
G01*
G37*
%TD*%
%TO.C,R8*%
G36*
G01*
X138917000Y-110153000D02*
X139467000Y-110153000D01*
G75*
G02*
X139667000Y-110353000I0J-200000D01*
G01*
X139667000Y-110753000D01*
G75*
G02*
X139467000Y-110953000I-200000J0D01*
G01*
X138917000Y-110953000D01*
G75*
G02*
X138717000Y-110753000I0J200000D01*
G01*
X138717000Y-110353000D01*
G75*
G02*
X138917000Y-110153000I200000J0D01*
G01*
G37*
G36*
G01*
X138917000Y-108503000D02*
X139467000Y-108503000D01*
G75*
G02*
X139667000Y-108703000I0J-200000D01*
G01*
X139667000Y-109103000D01*
G75*
G02*
X139467000Y-109303000I-200000J0D01*
G01*
X138917000Y-109303000D01*
G75*
G02*
X138717000Y-109103000I0J200000D01*
G01*
X138717000Y-108703000D01*
G75*
G02*
X138917000Y-108503000I200000J0D01*
G01*
G37*
%TD*%
%TO.C,R9*%
G36*
G01*
X140633000Y-107717000D02*
X140633000Y-107167000D01*
G75*
G02*
X140833000Y-106967000I200000J0D01*
G01*
X141233000Y-106967000D01*
G75*
G02*
X141433000Y-107167000I0J-200000D01*
G01*
X141433000Y-107717000D01*
G75*
G02*
X141233000Y-107917000I-200000J0D01*
G01*
X140833000Y-107917000D01*
G75*
G02*
X140633000Y-107717000I0J200000D01*
G01*
G37*
G36*
G01*
X138983000Y-107717000D02*
X138983000Y-107167000D01*
G75*
G02*
X139183000Y-106967000I200000J0D01*
G01*
X139583000Y-106967000D01*
G75*
G02*
X139783000Y-107167000I0J-200000D01*
G01*
X139783000Y-107717000D01*
G75*
G02*
X139583000Y-107917000I-200000J0D01*
G01*
X139183000Y-107917000D01*
G75*
G02*
X138983000Y-107717000I0J200000D01*
G01*
G37*
%TD*%
%TO.C,R10*%
G36*
G01*
X167407000Y-116415000D02*
X166857000Y-116415000D01*
G75*
G02*
X166657000Y-116215000I0J200000D01*
G01*
X166657000Y-115815000D01*
G75*
G02*
X166857000Y-115615000I200000J0D01*
G01*
X167407000Y-115615000D01*
G75*
G02*
X167607000Y-115815000I0J-200000D01*
G01*
X167607000Y-116215000D01*
G75*
G02*
X167407000Y-116415000I-200000J0D01*
G01*
G37*
G36*
G01*
X167407000Y-118065000D02*
X166857000Y-118065000D01*
G75*
G02*
X166657000Y-117865000I0J200000D01*
G01*
X166657000Y-117465000D01*
G75*
G02*
X166857000Y-117265000I200000J0D01*
G01*
X167407000Y-117265000D01*
G75*
G02*
X167607000Y-117465000I0J-200000D01*
G01*
X167607000Y-117865000D01*
G75*
G02*
X167407000Y-118065000I-200000J0D01*
G01*
G37*
%TD*%
%TO.C,R11*%
G36*
G01*
X174669000Y-117115000D02*
X174669000Y-116565000D01*
G75*
G02*
X174869000Y-116365000I200000J0D01*
G01*
X175269000Y-116365000D01*
G75*
G02*
X175469000Y-116565000I0J-200000D01*
G01*
X175469000Y-117115000D01*
G75*
G02*
X175269000Y-117315000I-200000J0D01*
G01*
X174869000Y-117315000D01*
G75*
G02*
X174669000Y-117115000I0J200000D01*
G01*
G37*
G36*
G01*
X173019000Y-117115000D02*
X173019000Y-116565000D01*
G75*
G02*
X173219000Y-116365000I200000J0D01*
G01*
X173619000Y-116365000D01*
G75*
G02*
X173819000Y-116565000I0J-200000D01*
G01*
X173819000Y-117115000D01*
G75*
G02*
X173619000Y-117315000I-200000J0D01*
G01*
X173219000Y-117315000D01*
G75*
G02*
X173019000Y-117115000I0J200000D01*
G01*
G37*
%TD*%
%TO.C,R12*%
G36*
G01*
X176255000Y-118027000D02*
X176805000Y-118027000D01*
G75*
G02*
X177005000Y-118227000I0J-200000D01*
G01*
X177005000Y-118627000D01*
G75*
G02*
X176805000Y-118827000I-200000J0D01*
G01*
X176255000Y-118827000D01*
G75*
G02*
X176055000Y-118627000I0J200000D01*
G01*
X176055000Y-118227000D01*
G75*
G02*
X176255000Y-118027000I200000J0D01*
G01*
G37*
G36*
G01*
X176255000Y-116377000D02*
X176805000Y-116377000D01*
G75*
G02*
X177005000Y-116577000I0J-200000D01*
G01*
X177005000Y-116977000D01*
G75*
G02*
X176805000Y-117177000I-200000J0D01*
G01*
X176255000Y-117177000D01*
G75*
G02*
X176055000Y-116977000I0J200000D01*
G01*
X176055000Y-116577000D01*
G75*
G02*
X176255000Y-116377000I200000J0D01*
G01*
G37*
%TD*%
%TO.C,R13*%
G36*
G01*
X151617000Y-117074000D02*
X152167000Y-117074000D01*
G75*
G02*
X152367000Y-117274000I0J-200000D01*
G01*
X152367000Y-117674000D01*
G75*
G02*
X152167000Y-117874000I-200000J0D01*
G01*
X151617000Y-117874000D01*
G75*
G02*
X151417000Y-117674000I0J200000D01*
G01*
X151417000Y-117274000D01*
G75*
G02*
X151617000Y-117074000I200000J0D01*
G01*
G37*
G36*
G01*
X151617000Y-115424000D02*
X152167000Y-115424000D01*
G75*
G02*
X152367000Y-115624000I0J-200000D01*
G01*
X152367000Y-116024000D01*
G75*
G02*
X152167000Y-116224000I-200000J0D01*
G01*
X151617000Y-116224000D01*
G75*
G02*
X151417000Y-116024000I0J200000D01*
G01*
X151417000Y-115624000D01*
G75*
G02*
X151617000Y-115424000I200000J0D01*
G01*
G37*
%TD*%
%TO.C,R14*%
G36*
G01*
X142007000Y-125051000D02*
X141457000Y-125051000D01*
G75*
G02*
X141257000Y-124851000I0J200000D01*
G01*
X141257000Y-124451000D01*
G75*
G02*
X141457000Y-124251000I200000J0D01*
G01*
X142007000Y-124251000D01*
G75*
G02*
X142207000Y-124451000I0J-200000D01*
G01*
X142207000Y-124851000D01*
G75*
G02*
X142007000Y-125051000I-200000J0D01*
G01*
G37*
G36*
G01*
X142007000Y-126701000D02*
X141457000Y-126701000D01*
G75*
G02*
X141257000Y-126501000I0J200000D01*
G01*
X141257000Y-126101000D01*
G75*
G02*
X141457000Y-125901000I200000J0D01*
G01*
X142007000Y-125901000D01*
G75*
G02*
X142207000Y-126101000I0J-200000D01*
G01*
X142207000Y-126501000D01*
G75*
G02*
X142007000Y-126701000I-200000J0D01*
G01*
G37*
%TD*%
%TO.C,R15*%
G36*
G01*
X144505000Y-125901000D02*
X145055000Y-125901000D01*
G75*
G02*
X145255000Y-126101000I0J-200000D01*
G01*
X145255000Y-126501000D01*
G75*
G02*
X145055000Y-126701000I-200000J0D01*
G01*
X144505000Y-126701000D01*
G75*
G02*
X144305000Y-126501000I0J200000D01*
G01*
X144305000Y-126101000D01*
G75*
G02*
X144505000Y-125901000I200000J0D01*
G01*
G37*
G36*
G01*
X144505000Y-124251000D02*
X145055000Y-124251000D01*
G75*
G02*
X145255000Y-124451000I0J-200000D01*
G01*
X145255000Y-124851000D01*
G75*
G02*
X145055000Y-125051000I-200000J0D01*
G01*
X144505000Y-125051000D01*
G75*
G02*
X144305000Y-124851000I0J200000D01*
G01*
X144305000Y-124451000D01*
G75*
G02*
X144505000Y-124251000I200000J0D01*
G01*
G37*
%TD*%
%TO.C,R16*%
G36*
G01*
X149627000Y-125051000D02*
X149077000Y-125051000D01*
G75*
G02*
X148877000Y-124851000I0J200000D01*
G01*
X148877000Y-124451000D01*
G75*
G02*
X149077000Y-124251000I200000J0D01*
G01*
X149627000Y-124251000D01*
G75*
G02*
X149827000Y-124451000I0J-200000D01*
G01*
X149827000Y-124851000D01*
G75*
G02*
X149627000Y-125051000I-200000J0D01*
G01*
G37*
G36*
G01*
X149627000Y-126701000D02*
X149077000Y-126701000D01*
G75*
G02*
X148877000Y-126501000I0J200000D01*
G01*
X148877000Y-126101000D01*
G75*
G02*
X149077000Y-125901000I200000J0D01*
G01*
X149627000Y-125901000D01*
G75*
G02*
X149827000Y-126101000I0J-200000D01*
G01*
X149827000Y-126501000D01*
G75*
G02*
X149627000Y-126701000I-200000J0D01*
G01*
G37*
%TD*%
%TO.C,R17*%
G36*
G01*
X152125000Y-125901000D02*
X152675000Y-125901000D01*
G75*
G02*
X152875000Y-126101000I0J-200000D01*
G01*
X152875000Y-126501000D01*
G75*
G02*
X152675000Y-126701000I-200000J0D01*
G01*
X152125000Y-126701000D01*
G75*
G02*
X151925000Y-126501000I0J200000D01*
G01*
X151925000Y-126101000D01*
G75*
G02*
X152125000Y-125901000I200000J0D01*
G01*
G37*
G36*
G01*
X152125000Y-124251000D02*
X152675000Y-124251000D01*
G75*
G02*
X152875000Y-124451000I0J-200000D01*
G01*
X152875000Y-124851000D01*
G75*
G02*
X152675000Y-125051000I-200000J0D01*
G01*
X152125000Y-125051000D01*
G75*
G02*
X151925000Y-124851000I0J200000D01*
G01*
X151925000Y-124451000D01*
G75*
G02*
X152125000Y-124251000I200000J0D01*
G01*
G37*
%TD*%
%TO.C,R18*%
G36*
G01*
X157247000Y-125051000D02*
X156697000Y-125051000D01*
G75*
G02*
X156497000Y-124851000I0J200000D01*
G01*
X156497000Y-124451000D01*
G75*
G02*
X156697000Y-124251000I200000J0D01*
G01*
X157247000Y-124251000D01*
G75*
G02*
X157447000Y-124451000I0J-200000D01*
G01*
X157447000Y-124851000D01*
G75*
G02*
X157247000Y-125051000I-200000J0D01*
G01*
G37*
G36*
G01*
X157247000Y-126701000D02*
X156697000Y-126701000D01*
G75*
G02*
X156497000Y-126501000I0J200000D01*
G01*
X156497000Y-126101000D01*
G75*
G02*
X156697000Y-125901000I200000J0D01*
G01*
X157247000Y-125901000D01*
G75*
G02*
X157447000Y-126101000I0J-200000D01*
G01*
X157447000Y-126501000D01*
G75*
G02*
X157247000Y-126701000I-200000J0D01*
G01*
G37*
%TD*%
%TO.C,R19*%
G36*
G01*
X159745000Y-125901000D02*
X160295000Y-125901000D01*
G75*
G02*
X160495000Y-126101000I0J-200000D01*
G01*
X160495000Y-126501000D01*
G75*
G02*
X160295000Y-126701000I-200000J0D01*
G01*
X159745000Y-126701000D01*
G75*
G02*
X159545000Y-126501000I0J200000D01*
G01*
X159545000Y-126101000D01*
G75*
G02*
X159745000Y-125901000I200000J0D01*
G01*
G37*
G36*
G01*
X159745000Y-124251000D02*
X160295000Y-124251000D01*
G75*
G02*
X160495000Y-124451000I0J-200000D01*
G01*
X160495000Y-124851000D01*
G75*
G02*
X160295000Y-125051000I-200000J0D01*
G01*
X159745000Y-125051000D01*
G75*
G02*
X159545000Y-124851000I0J200000D01*
G01*
X159545000Y-124451000D01*
G75*
G02*
X159745000Y-124251000I200000J0D01*
G01*
G37*
%TD*%
%TO.C,R20*%
G36*
G01*
X157247000Y-122003000D02*
X156697000Y-122003000D01*
G75*
G02*
X156497000Y-121803000I0J200000D01*
G01*
X156497000Y-121403000D01*
G75*
G02*
X156697000Y-121203000I200000J0D01*
G01*
X157247000Y-121203000D01*
G75*
G02*
X157447000Y-121403000I0J-200000D01*
G01*
X157447000Y-121803000D01*
G75*
G02*
X157247000Y-122003000I-200000J0D01*
G01*
G37*
G36*
G01*
X157247000Y-123653000D02*
X156697000Y-123653000D01*
G75*
G02*
X156497000Y-123453000I0J200000D01*
G01*
X156497000Y-123053000D01*
G75*
G02*
X156697000Y-122853000I200000J0D01*
G01*
X157247000Y-122853000D01*
G75*
G02*
X157447000Y-123053000I0J-200000D01*
G01*
X157447000Y-123453000D01*
G75*
G02*
X157247000Y-123653000I-200000J0D01*
G01*
G37*
%TD*%
%TO.C,R21*%
G36*
G01*
X159745000Y-122853000D02*
X160295000Y-122853000D01*
G75*
G02*
X160495000Y-123053000I0J-200000D01*
G01*
X160495000Y-123453000D01*
G75*
G02*
X160295000Y-123653000I-200000J0D01*
G01*
X159745000Y-123653000D01*
G75*
G02*
X159545000Y-123453000I0J200000D01*
G01*
X159545000Y-123053000D01*
G75*
G02*
X159745000Y-122853000I200000J0D01*
G01*
G37*
G36*
G01*
X159745000Y-121203000D02*
X160295000Y-121203000D01*
G75*
G02*
X160495000Y-121403000I0J-200000D01*
G01*
X160495000Y-121803000D01*
G75*
G02*
X160295000Y-122003000I-200000J0D01*
G01*
X159745000Y-122003000D01*
G75*
G02*
X159545000Y-121803000I0J200000D01*
G01*
X159545000Y-121403000D01*
G75*
G02*
X159745000Y-121203000I200000J0D01*
G01*
G37*
%TD*%
%TO.C,R22*%
G36*
G01*
X164867000Y-125051000D02*
X164317000Y-125051000D01*
G75*
G02*
X164117000Y-124851000I0J200000D01*
G01*
X164117000Y-124451000D01*
G75*
G02*
X164317000Y-124251000I200000J0D01*
G01*
X164867000Y-124251000D01*
G75*
G02*
X165067000Y-124451000I0J-200000D01*
G01*
X165067000Y-124851000D01*
G75*
G02*
X164867000Y-125051000I-200000J0D01*
G01*
G37*
G36*
G01*
X164867000Y-126701000D02*
X164317000Y-126701000D01*
G75*
G02*
X164117000Y-126501000I0J200000D01*
G01*
X164117000Y-126101000D01*
G75*
G02*
X164317000Y-125901000I200000J0D01*
G01*
X164867000Y-125901000D01*
G75*
G02*
X165067000Y-126101000I0J-200000D01*
G01*
X165067000Y-126501000D01*
G75*
G02*
X164867000Y-126701000I-200000J0D01*
G01*
G37*
%TD*%
%TO.C,R23*%
G36*
G01*
X167365000Y-125901000D02*
X167915000Y-125901000D01*
G75*
G02*
X168115000Y-126101000I0J-200000D01*
G01*
X168115000Y-126501000D01*
G75*
G02*
X167915000Y-126701000I-200000J0D01*
G01*
X167365000Y-126701000D01*
G75*
G02*
X167165000Y-126501000I0J200000D01*
G01*
X167165000Y-126101000D01*
G75*
G02*
X167365000Y-125901000I200000J0D01*
G01*
G37*
G36*
G01*
X167365000Y-124251000D02*
X167915000Y-124251000D01*
G75*
G02*
X168115000Y-124451000I0J-200000D01*
G01*
X168115000Y-124851000D01*
G75*
G02*
X167915000Y-125051000I-200000J0D01*
G01*
X167365000Y-125051000D01*
G75*
G02*
X167165000Y-124851000I0J200000D01*
G01*
X167165000Y-124451000D01*
G75*
G02*
X167365000Y-124251000I200000J0D01*
G01*
G37*
%TD*%
%TO.C,R24*%
G36*
G01*
X164867000Y-122003000D02*
X164317000Y-122003000D01*
G75*
G02*
X164117000Y-121803000I0J200000D01*
G01*
X164117000Y-121403000D01*
G75*
G02*
X164317000Y-121203000I200000J0D01*
G01*
X164867000Y-121203000D01*
G75*
G02*
X165067000Y-121403000I0J-200000D01*
G01*
X165067000Y-121803000D01*
G75*
G02*
X164867000Y-122003000I-200000J0D01*
G01*
G37*
G36*
G01*
X164867000Y-123653000D02*
X164317000Y-123653000D01*
G75*
G02*
X164117000Y-123453000I0J200000D01*
G01*
X164117000Y-123053000D01*
G75*
G02*
X164317000Y-122853000I200000J0D01*
G01*
X164867000Y-122853000D01*
G75*
G02*
X165067000Y-123053000I0J-200000D01*
G01*
X165067000Y-123453000D01*
G75*
G02*
X164867000Y-123653000I-200000J0D01*
G01*
G37*
%TD*%
%TO.C,R25*%
G36*
G01*
X167365000Y-122853000D02*
X167915000Y-122853000D01*
G75*
G02*
X168115000Y-123053000I0J-200000D01*
G01*
X168115000Y-123453000D01*
G75*
G02*
X167915000Y-123653000I-200000J0D01*
G01*
X167365000Y-123653000D01*
G75*
G02*
X167165000Y-123453000I0J200000D01*
G01*
X167165000Y-123053000D01*
G75*
G02*
X167365000Y-122853000I200000J0D01*
G01*
G37*
G36*
G01*
X167365000Y-121203000D02*
X167915000Y-121203000D01*
G75*
G02*
X168115000Y-121403000I0J-200000D01*
G01*
X168115000Y-121803000D01*
G75*
G02*
X167915000Y-122003000I-200000J0D01*
G01*
X167365000Y-122003000D01*
G75*
G02*
X167165000Y-121803000I0J200000D01*
G01*
X167165000Y-121403000D01*
G75*
G02*
X167365000Y-121203000I200000J0D01*
G01*
G37*
%TD*%
%TO.C,R26*%
G36*
G01*
X173399000Y-126513000D02*
X173399000Y-125963000D01*
G75*
G02*
X173599000Y-125763000I200000J0D01*
G01*
X173999000Y-125763000D01*
G75*
G02*
X174199000Y-125963000I0J-200000D01*
G01*
X174199000Y-126513000D01*
G75*
G02*
X173999000Y-126713000I-200000J0D01*
G01*
X173599000Y-126713000D01*
G75*
G02*
X173399000Y-126513000I0J200000D01*
G01*
G37*
G36*
G01*
X171749000Y-126513000D02*
X171749000Y-125963000D01*
G75*
G02*
X171949000Y-125763000I200000J0D01*
G01*
X172349000Y-125763000D01*
G75*
G02*
X172549000Y-125963000I0J-200000D01*
G01*
X172549000Y-126513000D01*
G75*
G02*
X172349000Y-126713000I-200000J0D01*
G01*
X171949000Y-126713000D01*
G75*
G02*
X171749000Y-126513000I0J200000D01*
G01*
G37*
%TD*%
%TO.C,R27*%
G36*
G01*
X173399000Y-123465000D02*
X173399000Y-122915000D01*
G75*
G02*
X173599000Y-122715000I200000J0D01*
G01*
X173999000Y-122715000D01*
G75*
G02*
X174199000Y-122915000I0J-200000D01*
G01*
X174199000Y-123465000D01*
G75*
G02*
X173999000Y-123665000I-200000J0D01*
G01*
X173599000Y-123665000D01*
G75*
G02*
X173399000Y-123465000I0J200000D01*
G01*
G37*
G36*
G01*
X171749000Y-123465000D02*
X171749000Y-122915000D01*
G75*
G02*
X171949000Y-122715000I200000J0D01*
G01*
X172349000Y-122715000D01*
G75*
G02*
X172549000Y-122915000I0J-200000D01*
G01*
X172549000Y-123465000D01*
G75*
G02*
X172349000Y-123665000I-200000J0D01*
G01*
X171949000Y-123665000D01*
G75*
G02*
X171749000Y-123465000I0J200000D01*
G01*
G37*
%TD*%
%TO.C,R28*%
G36*
G01*
X175597000Y-125963000D02*
X175597000Y-126513000D01*
G75*
G02*
X175397000Y-126713000I-200000J0D01*
G01*
X174997000Y-126713000D01*
G75*
G02*
X174797000Y-126513000I0J200000D01*
G01*
X174797000Y-125963000D01*
G75*
G02*
X174997000Y-125763000I200000J0D01*
G01*
X175397000Y-125763000D01*
G75*
G02*
X175597000Y-125963000I0J-200000D01*
G01*
G37*
G36*
G01*
X177247000Y-125963000D02*
X177247000Y-126513000D01*
G75*
G02*
X177047000Y-126713000I-200000J0D01*
G01*
X176647000Y-126713000D01*
G75*
G02*
X176447000Y-126513000I0J200000D01*
G01*
X176447000Y-125963000D01*
G75*
G02*
X176647000Y-125763000I200000J0D01*
G01*
X177047000Y-125763000D01*
G75*
G02*
X177247000Y-125963000I0J-200000D01*
G01*
G37*
%TD*%
%TO.C,R29*%
G36*
G01*
X176447000Y-123465000D02*
X176447000Y-122915000D01*
G75*
G02*
X176647000Y-122715000I200000J0D01*
G01*
X177047000Y-122715000D01*
G75*
G02*
X177247000Y-122915000I0J-200000D01*
G01*
X177247000Y-123465000D01*
G75*
G02*
X177047000Y-123665000I-200000J0D01*
G01*
X176647000Y-123665000D01*
G75*
G02*
X176447000Y-123465000I0J200000D01*
G01*
G37*
G36*
G01*
X174797000Y-123465000D02*
X174797000Y-122915000D01*
G75*
G02*
X174997000Y-122715000I200000J0D01*
G01*
X175397000Y-122715000D01*
G75*
G02*
X175597000Y-122915000I0J-200000D01*
G01*
X175597000Y-123465000D01*
G75*
G02*
X175397000Y-123665000I-200000J0D01*
G01*
X174997000Y-123665000D01*
G75*
G02*
X174797000Y-123465000I0J200000D01*
G01*
G37*
%TD*%
%TO.C,R30*%
G36*
G01*
X178645000Y-125963000D02*
X178645000Y-126513000D01*
G75*
G02*
X178445000Y-126713000I-200000J0D01*
G01*
X178045000Y-126713000D01*
G75*
G02*
X177845000Y-126513000I0J200000D01*
G01*
X177845000Y-125963000D01*
G75*
G02*
X178045000Y-125763000I200000J0D01*
G01*
X178445000Y-125763000D01*
G75*
G02*
X178645000Y-125963000I0J-200000D01*
G01*
G37*
G36*
G01*
X180295000Y-125963000D02*
X180295000Y-126513000D01*
G75*
G02*
X180095000Y-126713000I-200000J0D01*
G01*
X179695000Y-126713000D01*
G75*
G02*
X179495000Y-126513000I0J200000D01*
G01*
X179495000Y-125963000D01*
G75*
G02*
X179695000Y-125763000I200000J0D01*
G01*
X180095000Y-125763000D01*
G75*
G02*
X180295000Y-125963000I0J-200000D01*
G01*
G37*
%TD*%
%TO.C,R31*%
G36*
G01*
X179495000Y-123465000D02*
X179495000Y-122915000D01*
G75*
G02*
X179695000Y-122715000I200000J0D01*
G01*
X180095000Y-122715000D01*
G75*
G02*
X180295000Y-122915000I0J-200000D01*
G01*
X180295000Y-123465000D01*
G75*
G02*
X180095000Y-123665000I-200000J0D01*
G01*
X179695000Y-123665000D01*
G75*
G02*
X179495000Y-123465000I0J200000D01*
G01*
G37*
G36*
G01*
X177845000Y-123465000D02*
X177845000Y-122915000D01*
G75*
G02*
X178045000Y-122715000I200000J0D01*
G01*
X178445000Y-122715000D01*
G75*
G02*
X178645000Y-122915000I0J-200000D01*
G01*
X178645000Y-123465000D01*
G75*
G02*
X178445000Y-123665000I-200000J0D01*
G01*
X178045000Y-123665000D01*
G75*
G02*
X177845000Y-123465000I0J200000D01*
G01*
G37*
%TD*%
%TO.C,R32*%
G36*
G01*
X181693000Y-125963000D02*
X181693000Y-126513000D01*
G75*
G02*
X181493000Y-126713000I-200000J0D01*
G01*
X181093000Y-126713000D01*
G75*
G02*
X180893000Y-126513000I0J200000D01*
G01*
X180893000Y-125963000D01*
G75*
G02*
X181093000Y-125763000I200000J0D01*
G01*
X181493000Y-125763000D01*
G75*
G02*
X181693000Y-125963000I0J-200000D01*
G01*
G37*
G36*
G01*
X183343000Y-125963000D02*
X183343000Y-126513000D01*
G75*
G02*
X183143000Y-126713000I-200000J0D01*
G01*
X182743000Y-126713000D01*
G75*
G02*
X182543000Y-126513000I0J200000D01*
G01*
X182543000Y-125963000D01*
G75*
G02*
X182743000Y-125763000I200000J0D01*
G01*
X183143000Y-125763000D01*
G75*
G02*
X183343000Y-125963000I0J-200000D01*
G01*
G37*
%TD*%
%TO.C,R33*%
G36*
G01*
X182543000Y-123465000D02*
X182543000Y-122915000D01*
G75*
G02*
X182743000Y-122715000I200000J0D01*
G01*
X183143000Y-122715000D01*
G75*
G02*
X183343000Y-122915000I0J-200000D01*
G01*
X183343000Y-123465000D01*
G75*
G02*
X183143000Y-123665000I-200000J0D01*
G01*
X182743000Y-123665000D01*
G75*
G02*
X182543000Y-123465000I0J200000D01*
G01*
G37*
G36*
G01*
X180893000Y-123465000D02*
X180893000Y-122915000D01*
G75*
G02*
X181093000Y-122715000I200000J0D01*
G01*
X181493000Y-122715000D01*
G75*
G02*
X181693000Y-122915000I0J-200000D01*
G01*
X181693000Y-123465000D01*
G75*
G02*
X181493000Y-123665000I-200000J0D01*
G01*
X181093000Y-123665000D01*
G75*
G02*
X180893000Y-123465000I0J200000D01*
G01*
G37*
%TD*%
%TO.C,R34*%
G36*
G01*
X178645000Y-118343000D02*
X178645000Y-118893000D01*
G75*
G02*
X178445000Y-119093000I-200000J0D01*
G01*
X178045000Y-119093000D01*
G75*
G02*
X177845000Y-118893000I0J200000D01*
G01*
X177845000Y-118343000D01*
G75*
G02*
X178045000Y-118143000I200000J0D01*
G01*
X178445000Y-118143000D01*
G75*
G02*
X178645000Y-118343000I0J-200000D01*
G01*
G37*
G36*
G01*
X180295000Y-118343000D02*
X180295000Y-118893000D01*
G75*
G02*
X180095000Y-119093000I-200000J0D01*
G01*
X179695000Y-119093000D01*
G75*
G02*
X179495000Y-118893000I0J200000D01*
G01*
X179495000Y-118343000D01*
G75*
G02*
X179695000Y-118143000I200000J0D01*
G01*
X180095000Y-118143000D01*
G75*
G02*
X180295000Y-118343000I0J-200000D01*
G01*
G37*
%TD*%
%TO.C,R35*%
G36*
G01*
X179495000Y-115845000D02*
X179495000Y-115295000D01*
G75*
G02*
X179695000Y-115095000I200000J0D01*
G01*
X180095000Y-115095000D01*
G75*
G02*
X180295000Y-115295000I0J-200000D01*
G01*
X180295000Y-115845000D01*
G75*
G02*
X180095000Y-116045000I-200000J0D01*
G01*
X179695000Y-116045000D01*
G75*
G02*
X179495000Y-115845000I0J200000D01*
G01*
G37*
G36*
G01*
X177845000Y-115845000D02*
X177845000Y-115295000D01*
G75*
G02*
X178045000Y-115095000I200000J0D01*
G01*
X178445000Y-115095000D01*
G75*
G02*
X178645000Y-115295000I0J-200000D01*
G01*
X178645000Y-115845000D01*
G75*
G02*
X178445000Y-116045000I-200000J0D01*
G01*
X178045000Y-116045000D01*
G75*
G02*
X177845000Y-115845000I0J200000D01*
G01*
G37*
%TD*%
%TO.C,R36*%
G36*
G01*
X182543000Y-118893000D02*
X182543000Y-118343000D01*
G75*
G02*
X182743000Y-118143000I200000J0D01*
G01*
X183143000Y-118143000D01*
G75*
G02*
X183343000Y-118343000I0J-200000D01*
G01*
X183343000Y-118893000D01*
G75*
G02*
X183143000Y-119093000I-200000J0D01*
G01*
X182743000Y-119093000D01*
G75*
G02*
X182543000Y-118893000I0J200000D01*
G01*
G37*
G36*
G01*
X180893000Y-118893000D02*
X180893000Y-118343000D01*
G75*
G02*
X181093000Y-118143000I200000J0D01*
G01*
X181493000Y-118143000D01*
G75*
G02*
X181693000Y-118343000I0J-200000D01*
G01*
X181693000Y-118893000D01*
G75*
G02*
X181493000Y-119093000I-200000J0D01*
G01*
X181093000Y-119093000D01*
G75*
G02*
X180893000Y-118893000I0J200000D01*
G01*
G37*
%TD*%
%TO.C,R37*%
G36*
G01*
X182543000Y-115845000D02*
X182543000Y-115295000D01*
G75*
G02*
X182743000Y-115095000I200000J0D01*
G01*
X183143000Y-115095000D01*
G75*
G02*
X183343000Y-115295000I0J-200000D01*
G01*
X183343000Y-115845000D01*
G75*
G02*
X183143000Y-116045000I-200000J0D01*
G01*
X182743000Y-116045000D01*
G75*
G02*
X182543000Y-115845000I0J200000D01*
G01*
G37*
G36*
G01*
X180893000Y-115845000D02*
X180893000Y-115295000D01*
G75*
G02*
X181093000Y-115095000I200000J0D01*
G01*
X181493000Y-115095000D01*
G75*
G02*
X181693000Y-115295000I0J-200000D01*
G01*
X181693000Y-115845000D01*
G75*
G02*
X181493000Y-116045000I-200000J0D01*
G01*
X181093000Y-116045000D01*
G75*
G02*
X180893000Y-115845000I0J200000D01*
G01*
G37*
%TD*%
%TO.C,R38*%
G36*
G01*
X131297000Y-125901000D02*
X131847000Y-125901000D01*
G75*
G02*
X132047000Y-126101000I0J-200000D01*
G01*
X132047000Y-126501000D01*
G75*
G02*
X131847000Y-126701000I-200000J0D01*
G01*
X131297000Y-126701000D01*
G75*
G02*
X131097000Y-126501000I0J200000D01*
G01*
X131097000Y-126101000D01*
G75*
G02*
X131297000Y-125901000I200000J0D01*
G01*
G37*
G36*
G01*
X131297000Y-124251000D02*
X131847000Y-124251000D01*
G75*
G02*
X132047000Y-124451000I0J-200000D01*
G01*
X132047000Y-124851000D01*
G75*
G02*
X131847000Y-125051000I-200000J0D01*
G01*
X131297000Y-125051000D01*
G75*
G02*
X131097000Y-124851000I0J200000D01*
G01*
X131097000Y-124451000D01*
G75*
G02*
X131297000Y-124251000I200000J0D01*
G01*
G37*
%TD*%
%TO.C,R39*%
G36*
G01*
X134345000Y-125901000D02*
X134895000Y-125901000D01*
G75*
G02*
X135095000Y-126101000I0J-200000D01*
G01*
X135095000Y-126501000D01*
G75*
G02*
X134895000Y-126701000I-200000J0D01*
G01*
X134345000Y-126701000D01*
G75*
G02*
X134145000Y-126501000I0J200000D01*
G01*
X134145000Y-126101000D01*
G75*
G02*
X134345000Y-125901000I200000J0D01*
G01*
G37*
G36*
G01*
X134345000Y-124251000D02*
X134895000Y-124251000D01*
G75*
G02*
X135095000Y-124451000I0J-200000D01*
G01*
X135095000Y-124851000D01*
G75*
G02*
X134895000Y-125051000I-200000J0D01*
G01*
X134345000Y-125051000D01*
G75*
G02*
X134145000Y-124851000I0J200000D01*
G01*
X134145000Y-124451000D01*
G75*
G02*
X134345000Y-124251000I200000J0D01*
G01*
G37*
%TD*%
D19*
%TO.C,SW1*%
X154414000Y-114216000D03*
X158514000Y-114216000D03*
X158514000Y-116416000D03*
X154414000Y-116416000D03*
%TD*%
D20*
%TO.C,SW2*%
X154338000Y-109390000D03*
X161638000Y-109390000D03*
X161638000Y-111490000D03*
X154338000Y-111490000D03*
D21*
X155738000Y-112240000D03*
X157238000Y-112240000D03*
X160238000Y-112240000D03*
%TD*%
D22*
%TO.C,U1*%
X141024000Y-112190000D03*
D23*
X135424000Y-114840000D03*
X135424000Y-115640000D03*
X135424000Y-116440000D03*
X135424000Y-117240000D03*
X135424000Y-118040000D03*
X135424000Y-118840000D03*
D22*
X131124000Y-121490000D03*
X132224000Y-121490000D03*
X133024000Y-121490000D03*
X131124000Y-112190000D03*
X132224000Y-112190000D03*
X133024000Y-112190000D03*
X134624000Y-112190000D03*
X135424000Y-112190000D03*
X136224000Y-112190000D03*
X137824000Y-112190000D03*
X138624000Y-112190000D03*
X139424000Y-112190000D03*
X140224000Y-112190000D03*
X131824000Y-113090000D03*
X132624000Y-113090000D03*
X133424000Y-113090000D03*
X134224000Y-113090000D03*
X135024000Y-113090000D03*
X135824000Y-113090000D03*
X136624000Y-113090000D03*
X137424000Y-113090000D03*
X138224000Y-113090000D03*
X139024000Y-113090000D03*
X139824000Y-113090000D03*
X135024000Y-120590000D03*
X135824000Y-120590000D03*
X136624000Y-120590000D03*
X137424000Y-120590000D03*
X138224000Y-120590000D03*
X134624000Y-121490000D03*
X135424000Y-121490000D03*
X136224000Y-121490000D03*
X137024000Y-121490000D03*
X137824000Y-121490000D03*
X138624000Y-121490000D03*
D23*
X141124000Y-114840000D03*
X141124000Y-115640000D03*
X141124000Y-116440000D03*
X141124000Y-117240000D03*
X141124000Y-118040000D03*
X141124000Y-118840000D03*
X142024000Y-112040000D03*
X142024000Y-112840000D03*
X142024000Y-113640000D03*
X142024000Y-114440000D03*
X142024000Y-115240000D03*
X142024000Y-116040000D03*
X142024000Y-116840000D03*
X142024000Y-117640000D03*
X142024000Y-118440000D03*
X142024000Y-119240000D03*
X142024000Y-120040000D03*
X142024000Y-120840000D03*
X142024000Y-121640000D03*
%TD*%
%TO.C,U2*%
G36*
G01*
X152805000Y-121261500D02*
X152805000Y-121086500D01*
G75*
G02*
X152892500Y-120999000I87500J0D01*
G01*
X153267500Y-120999000D01*
G75*
G02*
X153355000Y-121086500I0J-87500D01*
G01*
X153355000Y-121261500D01*
G75*
G02*
X153267500Y-121349000I-87500J0D01*
G01*
X152892500Y-121349000D01*
G75*
G02*
X152805000Y-121261500I0J87500D01*
G01*
G37*
G36*
G01*
X152805000Y-121761500D02*
X152805000Y-121586500D01*
G75*
G02*
X152892500Y-121499000I87500J0D01*
G01*
X153267500Y-121499000D01*
G75*
G02*
X153355000Y-121586500I0J-87500D01*
G01*
X153355000Y-121761500D01*
G75*
G02*
X153267500Y-121849000I-87500J0D01*
G01*
X152892500Y-121849000D01*
G75*
G02*
X152805000Y-121761500I0J87500D01*
G01*
G37*
G36*
G01*
X152805000Y-122261500D02*
X152805000Y-122086500D01*
G75*
G02*
X152892500Y-121999000I87500J0D01*
G01*
X153267500Y-121999000D01*
G75*
G02*
X153355000Y-122086500I0J-87500D01*
G01*
X153355000Y-122261500D01*
G75*
G02*
X153267500Y-122349000I-87500J0D01*
G01*
X152892500Y-122349000D01*
G75*
G02*
X152805000Y-122261500I0J87500D01*
G01*
G37*
G36*
G01*
X152805000Y-122761500D02*
X152805000Y-122586500D01*
G75*
G02*
X152892500Y-122499000I87500J0D01*
G01*
X153267500Y-122499000D01*
G75*
G02*
X153355000Y-122586500I0J-87500D01*
G01*
X153355000Y-122761500D01*
G75*
G02*
X153267500Y-122849000I-87500J0D01*
G01*
X152892500Y-122849000D01*
G75*
G02*
X152805000Y-122761500I0J87500D01*
G01*
G37*
G36*
G01*
X152805000Y-123261500D02*
X152805000Y-123086500D01*
G75*
G02*
X152892500Y-122999000I87500J0D01*
G01*
X153267500Y-122999000D01*
G75*
G02*
X153355000Y-123086500I0J-87500D01*
G01*
X153355000Y-123261500D01*
G75*
G02*
X153267500Y-123349000I-87500J0D01*
G01*
X152892500Y-123349000D01*
G75*
G02*
X152805000Y-123261500I0J87500D01*
G01*
G37*
G36*
G01*
X153630000Y-123586500D02*
X153630000Y-123211500D01*
G75*
G02*
X153717500Y-123124000I87500J0D01*
G01*
X153892500Y-123124000D01*
G75*
G02*
X153980000Y-123211500I0J-87500D01*
G01*
X153980000Y-123586500D01*
G75*
G02*
X153892500Y-123674000I-87500J0D01*
G01*
X153717500Y-123674000D01*
G75*
G02*
X153630000Y-123586500I0J87500D01*
G01*
G37*
G36*
G01*
X154130000Y-123586500D02*
X154130000Y-123211500D01*
G75*
G02*
X154217500Y-123124000I87500J0D01*
G01*
X154392500Y-123124000D01*
G75*
G02*
X154480000Y-123211500I0J-87500D01*
G01*
X154480000Y-123586500D01*
G75*
G02*
X154392500Y-123674000I-87500J0D01*
G01*
X154217500Y-123674000D01*
G75*
G02*
X154130000Y-123586500I0J87500D01*
G01*
G37*
G36*
G01*
X154630000Y-123586500D02*
X154630000Y-123211500D01*
G75*
G02*
X154717500Y-123124000I87500J0D01*
G01*
X154892500Y-123124000D01*
G75*
G02*
X154980000Y-123211500I0J-87500D01*
G01*
X154980000Y-123586500D01*
G75*
G02*
X154892500Y-123674000I-87500J0D01*
G01*
X154717500Y-123674000D01*
G75*
G02*
X154630000Y-123586500I0J87500D01*
G01*
G37*
G36*
G01*
X155255000Y-123261500D02*
X155255000Y-123086500D01*
G75*
G02*
X155342500Y-122999000I87500J0D01*
G01*
X155717500Y-122999000D01*
G75*
G02*
X155805000Y-123086500I0J-87500D01*
G01*
X155805000Y-123261500D01*
G75*
G02*
X155717500Y-123349000I-87500J0D01*
G01*
X155342500Y-123349000D01*
G75*
G02*
X155255000Y-123261500I0J87500D01*
G01*
G37*
G36*
G01*
X155255000Y-122761500D02*
X155255000Y-122586500D01*
G75*
G02*
X155342500Y-122499000I87500J0D01*
G01*
X155717500Y-122499000D01*
G75*
G02*
X155805000Y-122586500I0J-87500D01*
G01*
X155805000Y-122761500D01*
G75*
G02*
X155717500Y-122849000I-87500J0D01*
G01*
X155342500Y-122849000D01*
G75*
G02*
X155255000Y-122761500I0J87500D01*
G01*
G37*
G36*
G01*
X155255000Y-122261500D02*
X155255000Y-122086500D01*
G75*
G02*
X155342500Y-121999000I87500J0D01*
G01*
X155717500Y-121999000D01*
G75*
G02*
X155805000Y-122086500I0J-87500D01*
G01*
X155805000Y-122261500D01*
G75*
G02*
X155717500Y-122349000I-87500J0D01*
G01*
X155342500Y-122349000D01*
G75*
G02*
X155255000Y-122261500I0J87500D01*
G01*
G37*
G36*
G01*
X155255000Y-121761500D02*
X155255000Y-121586500D01*
G75*
G02*
X155342500Y-121499000I87500J0D01*
G01*
X155717500Y-121499000D01*
G75*
G02*
X155805000Y-121586500I0J-87500D01*
G01*
X155805000Y-121761500D01*
G75*
G02*
X155717500Y-121849000I-87500J0D01*
G01*
X155342500Y-121849000D01*
G75*
G02*
X155255000Y-121761500I0J87500D01*
G01*
G37*
G36*
G01*
X155255000Y-121261500D02*
X155255000Y-121086500D01*
G75*
G02*
X155342500Y-120999000I87500J0D01*
G01*
X155717500Y-120999000D01*
G75*
G02*
X155805000Y-121086500I0J-87500D01*
G01*
X155805000Y-121261500D01*
G75*
G02*
X155717500Y-121349000I-87500J0D01*
G01*
X155342500Y-121349000D01*
G75*
G02*
X155255000Y-121261500I0J87500D01*
G01*
G37*
G36*
G01*
X154630000Y-121136500D02*
X154630000Y-120761500D01*
G75*
G02*
X154717500Y-120674000I87500J0D01*
G01*
X154892500Y-120674000D01*
G75*
G02*
X154980000Y-120761500I0J-87500D01*
G01*
X154980000Y-121136500D01*
G75*
G02*
X154892500Y-121224000I-87500J0D01*
G01*
X154717500Y-121224000D01*
G75*
G02*
X154630000Y-121136500I0J87500D01*
G01*
G37*
G36*
G01*
X154130000Y-121136500D02*
X154130000Y-120761500D01*
G75*
G02*
X154217500Y-120674000I87500J0D01*
G01*
X154392500Y-120674000D01*
G75*
G02*
X154480000Y-120761500I0J-87500D01*
G01*
X154480000Y-121136500D01*
G75*
G02*
X154392500Y-121224000I-87500J0D01*
G01*
X154217500Y-121224000D01*
G75*
G02*
X154130000Y-121136500I0J87500D01*
G01*
G37*
G36*
G01*
X153630000Y-121136500D02*
X153630000Y-120761500D01*
G75*
G02*
X153717500Y-120674000I87500J0D01*
G01*
X153892500Y-120674000D01*
G75*
G02*
X153980000Y-120761500I0J-87500D01*
G01*
X153980000Y-121136500D01*
G75*
G02*
X153892500Y-121224000I-87500J0D01*
G01*
X153717500Y-121224000D01*
G75*
G02*
X153630000Y-121136500I0J87500D01*
G01*
G37*
%TD*%
D24*
%TO.C,U3*%
X145542000Y-121100500D03*
X145542000Y-118675500D03*
D25*
X147254500Y-119888000D03*
X143829500Y-119888000D03*
D26*
X146217000Y-120313000D03*
X146217000Y-119463000D03*
X144867000Y-120313000D03*
X144867000Y-119463000D03*
%TD*%
D27*
%TO.C,U4*%
X133485000Y-108978000D03*
X133485000Y-109478000D03*
X133485000Y-109978000D03*
X133485000Y-110478000D03*
X135755000Y-110478000D03*
X135755000Y-109978000D03*
X135755000Y-109478000D03*
X135755000Y-108978000D03*
%TD*%
D11*
%TO.C,U5*%
X139900000Y-125168000D03*
X139500000Y-125168000D03*
X139900000Y-124768000D03*
X139500000Y-124768000D03*
%TD*%
%TO.C,U6*%
G36*
G01*
X162339000Y-115862000D02*
X162339000Y-116162000D01*
G75*
G02*
X162189000Y-116312000I-150000J0D01*
G01*
X161164000Y-116312000D01*
G75*
G02*
X161014000Y-116162000I0J150000D01*
G01*
X161014000Y-115862000D01*
G75*
G02*
X161164000Y-115712000I150000J0D01*
G01*
X162189000Y-115712000D01*
G75*
G02*
X162339000Y-115862000I0J-150000D01*
G01*
G37*
G36*
G01*
X162339000Y-113962000D02*
X162339000Y-114262000D01*
G75*
G02*
X162189000Y-114412000I-150000J0D01*
G01*
X161164000Y-114412000D01*
G75*
G02*
X161014000Y-114262000I0J150000D01*
G01*
X161014000Y-113962000D01*
G75*
G02*
X161164000Y-113812000I150000J0D01*
G01*
X162189000Y-113812000D01*
G75*
G02*
X162339000Y-113962000I0J-150000D01*
G01*
G37*
G36*
G01*
X164614000Y-113962000D02*
X164614000Y-114262000D01*
G75*
G02*
X164464000Y-114412000I-150000J0D01*
G01*
X163439000Y-114412000D01*
G75*
G02*
X163289000Y-114262000I0J150000D01*
G01*
X163289000Y-113962000D01*
G75*
G02*
X163439000Y-113812000I150000J0D01*
G01*
X164464000Y-113812000D01*
G75*
G02*
X164614000Y-113962000I0J-150000D01*
G01*
G37*
G36*
G01*
X164614000Y-114912000D02*
X164614000Y-115212000D01*
G75*
G02*
X164464000Y-115362000I-150000J0D01*
G01*
X163439000Y-115362000D01*
G75*
G02*
X163289000Y-115212000I0J150000D01*
G01*
X163289000Y-114912000D01*
G75*
G02*
X163439000Y-114762000I150000J0D01*
G01*
X164464000Y-114762000D01*
G75*
G02*
X164614000Y-114912000I0J-150000D01*
G01*
G37*
G36*
G01*
X164614000Y-115862000D02*
X164614000Y-116162000D01*
G75*
G02*
X164464000Y-116312000I-150000J0D01*
G01*
X163439000Y-116312000D01*
G75*
G02*
X163289000Y-116162000I0J150000D01*
G01*
X163289000Y-115862000D01*
G75*
G02*
X163439000Y-115712000I150000J0D01*
G01*
X164464000Y-115712000D01*
G75*
G02*
X164614000Y-115862000I0J-150000D01*
G01*
G37*
%TD*%
%TO.C,U7*%
G36*
G01*
X176314000Y-114267000D02*
X176614000Y-114267000D01*
G75*
G02*
X176764000Y-114417000I0J-150000D01*
G01*
X176764000Y-115442000D01*
G75*
G02*
X176614000Y-115592000I-150000J0D01*
G01*
X176314000Y-115592000D01*
G75*
G02*
X176164000Y-115442000I0J150000D01*
G01*
X176164000Y-114417000D01*
G75*
G02*
X176314000Y-114267000I150000J0D01*
G01*
G37*
G36*
G01*
X174414000Y-114267000D02*
X174714000Y-114267000D01*
G75*
G02*
X174864000Y-114417000I0J-150000D01*
G01*
X174864000Y-115442000D01*
G75*
G02*
X174714000Y-115592000I-150000J0D01*
G01*
X174414000Y-115592000D01*
G75*
G02*
X174264000Y-115442000I0J150000D01*
G01*
X174264000Y-114417000D01*
G75*
G02*
X174414000Y-114267000I150000J0D01*
G01*
G37*
G36*
G01*
X174414000Y-111992000D02*
X174714000Y-111992000D01*
G75*
G02*
X174864000Y-112142000I0J-150000D01*
G01*
X174864000Y-113167000D01*
G75*
G02*
X174714000Y-113317000I-150000J0D01*
G01*
X174414000Y-113317000D01*
G75*
G02*
X174264000Y-113167000I0J150000D01*
G01*
X174264000Y-112142000D01*
G75*
G02*
X174414000Y-111992000I150000J0D01*
G01*
G37*
G36*
G01*
X175364000Y-111992000D02*
X175664000Y-111992000D01*
G75*
G02*
X175814000Y-112142000I0J-150000D01*
G01*
X175814000Y-113167000D01*
G75*
G02*
X175664000Y-113317000I-150000J0D01*
G01*
X175364000Y-113317000D01*
G75*
G02*
X175214000Y-113167000I0J150000D01*
G01*
X175214000Y-112142000D01*
G75*
G02*
X175364000Y-111992000I150000J0D01*
G01*
G37*
G36*
G01*
X176314000Y-111992000D02*
X176614000Y-111992000D01*
G75*
G02*
X176764000Y-112142000I0J-150000D01*
G01*
X176764000Y-113167000D01*
G75*
G02*
X176614000Y-113317000I-150000J0D01*
G01*
X176314000Y-113317000D01*
G75*
G02*
X176164000Y-113167000I0J150000D01*
G01*
X176164000Y-112142000D01*
G75*
G02*
X176314000Y-111992000I150000J0D01*
G01*
G37*
%TD*%
%TO.C,U8*%
X146566000Y-124976000D03*
X146566000Y-125476000D03*
X146566000Y-125976000D03*
X147066000Y-124976000D03*
X147066000Y-125476000D03*
X147566000Y-124976000D03*
X147566000Y-125476000D03*
X147566000Y-125976000D03*
%TD*%
%TO.C,U9*%
X154186000Y-124976000D03*
X154186000Y-125476000D03*
X154186000Y-125976000D03*
X154686000Y-124976000D03*
X154686000Y-125476000D03*
X155186000Y-124976000D03*
X155186000Y-125476000D03*
X155186000Y-125976000D03*
%TD*%
%TO.C,U10*%
X161806000Y-124976000D03*
X161806000Y-125476000D03*
X161806000Y-125976000D03*
X162306000Y-124976000D03*
X162306000Y-125476000D03*
X162806000Y-124976000D03*
X162806000Y-125476000D03*
X162806000Y-125976000D03*
%TD*%
%TO.C,U11*%
X161806000Y-121928000D03*
X161806000Y-122428000D03*
X161806000Y-122928000D03*
X162306000Y-121928000D03*
X162306000Y-122428000D03*
X162806000Y-121928000D03*
X162806000Y-122428000D03*
X162806000Y-122928000D03*
%TD*%
%TO.C,U12*%
X169426000Y-124976000D03*
X169426000Y-125476000D03*
X169426000Y-125976000D03*
X169926000Y-124976000D03*
X169926000Y-125476000D03*
X170426000Y-124976000D03*
X170426000Y-125476000D03*
X170426000Y-125976000D03*
%TD*%
%TO.C,U13*%
X169426000Y-121928000D03*
X169426000Y-122428000D03*
X169426000Y-122928000D03*
X169926000Y-121928000D03*
X169926000Y-122428000D03*
X170426000Y-121928000D03*
X170426000Y-122428000D03*
X170426000Y-122928000D03*
%TD*%
%TO.C,U14*%
X172474000Y-121404000D03*
X172974000Y-121404000D03*
X173474000Y-121404000D03*
X172474000Y-120904000D03*
X172974000Y-120904000D03*
X172474000Y-120404000D03*
X172974000Y-120404000D03*
X173474000Y-120404000D03*
%TD*%
%TO.C,U16*%
X178570000Y-121404000D03*
X179070000Y-121404000D03*
X179570000Y-121404000D03*
X178570000Y-120904000D03*
X179070000Y-120904000D03*
X178570000Y-120404000D03*
X179070000Y-120404000D03*
X179570000Y-120404000D03*
%TD*%
%TO.C,U17*%
X181618000Y-121404000D03*
X182118000Y-121404000D03*
X182618000Y-121404000D03*
X181618000Y-120904000D03*
X182118000Y-120904000D03*
X181618000Y-120404000D03*
X182118000Y-120404000D03*
X182618000Y-120404000D03*
%TD*%
%TO.C,U18*%
X178570000Y-113784000D03*
X179070000Y-113784000D03*
X179570000Y-113784000D03*
X178570000Y-113284000D03*
X179070000Y-113284000D03*
X178570000Y-112784000D03*
X179070000Y-112784000D03*
X179570000Y-112784000D03*
%TD*%
%TO.C,U19*%
X181618000Y-113784000D03*
X182118000Y-113784000D03*
X182618000Y-113784000D03*
X181618000Y-113284000D03*
X182118000Y-113284000D03*
X181618000Y-112784000D03*
X182118000Y-112784000D03*
X182618000Y-112784000D03*
%TD*%
%TO.C,U20*%
X136406000Y-124976000D03*
X136406000Y-125476000D03*
X136406000Y-125976000D03*
X136906000Y-124976000D03*
X136906000Y-125476000D03*
X137406000Y-124976000D03*
X137406000Y-125476000D03*
X137406000Y-125976000D03*
%TD*%
M02*
