%TF.GenerationSoftware,KiCad,Pcbnew,(5.1.10-1-10_14)*%
%TF.CreationDate,2021-09-19T22:53:24-07:00*%
%TF.ProjectId,umbelt-board,756d6265-6c74-42d6-926f-6172642e6b69,1.0*%
%TF.SameCoordinates,Original*%
%TF.FileFunction,Legend,Bot*%
%TF.FilePolarity,Positive*%
%FSLAX46Y46*%
G04 Gerber Fmt 4.6, Leading zero omitted, Abs format (unit mm)*
G04 Created by KiCad (PCBNEW (5.1.10-1-10_14)) date 2021-09-19 22:53:24*
%MOMM*%
%LPD*%
G01*
G04 APERTURE LIST*
%ADD10C,0.152400*%
%ADD11C,0.254000*%
%ADD12C,0.203200*%
%ADD13C,0.304800*%
%ADD14C,0.120000*%
%ADD15C,0.200000*%
%ADD16C,0.150000*%
G04 APERTURE END LIST*
D10*
X149541895Y-108802427D02*
X149541895Y-108415379D01*
X148729095Y-108516979D01*
X149541895Y-109073360D02*
X149000028Y-109141093D01*
X148729095Y-109174960D02*
X148767800Y-109131417D01*
X148806504Y-109165284D01*
X148767800Y-109208827D01*
X148729095Y-109174960D01*
X148806504Y-109165284D01*
X149503190Y-109813588D02*
X149541895Y-109731341D01*
X149541895Y-109576522D01*
X149503190Y-109503950D01*
X149464485Y-109470084D01*
X149387076Y-109441055D01*
X149154847Y-109470084D01*
X149077438Y-109518465D01*
X149038733Y-109562007D01*
X149000028Y-109644255D01*
X149000028Y-109799074D01*
X149038733Y-109871646D01*
X149503190Y-110471569D02*
X149541895Y-110389322D01*
X149541895Y-110234503D01*
X149503190Y-110161931D01*
X149425780Y-110132903D01*
X149116142Y-110171607D01*
X149038733Y-110219988D01*
X149000028Y-110302236D01*
X149000028Y-110457055D01*
X149038733Y-110529627D01*
X149116142Y-110558655D01*
X149193552Y-110548979D01*
X149270961Y-110152255D01*
X149000028Y-110921512D02*
X149541895Y-110853779D01*
X149077438Y-110911836D02*
X149038733Y-110955379D01*
X149000028Y-111037627D01*
X149000028Y-111153741D01*
X149038733Y-111226312D01*
X149116142Y-111255341D01*
X149541895Y-111202122D01*
X149503190Y-111555303D02*
X149541895Y-111627874D01*
X149541895Y-111782693D01*
X149503190Y-111864941D01*
X149425780Y-111913322D01*
X149387076Y-111918160D01*
X149309666Y-111889131D01*
X149270961Y-111816560D01*
X149270961Y-111700446D01*
X149232257Y-111627874D01*
X149154847Y-111598846D01*
X149116142Y-111603684D01*
X149038733Y-111652065D01*
X149000028Y-111734312D01*
X149000028Y-111850427D01*
X149038733Y-111922998D01*
X149503190Y-112561627D02*
X149541895Y-112479379D01*
X149541895Y-112324560D01*
X149503190Y-112251988D01*
X149425780Y-112222960D01*
X149116142Y-112261665D01*
X149038733Y-112310046D01*
X149000028Y-112392293D01*
X149000028Y-112547112D01*
X149038733Y-112619684D01*
X149116142Y-112648712D01*
X149193552Y-112639036D01*
X149270961Y-112242312D01*
X149464485Y-112953512D02*
X149503190Y-112987379D01*
X149541895Y-112943836D01*
X149503190Y-112909969D01*
X149464485Y-112953512D01*
X149541895Y-112943836D01*
X149038733Y-113006731D02*
X149077438Y-113040598D01*
X149116142Y-112997055D01*
X149077438Y-112963188D01*
X149038733Y-113006731D01*
X149116142Y-112997055D01*
X149464485Y-114424293D02*
X149503190Y-114380750D01*
X149541895Y-114259798D01*
X149541895Y-114182388D01*
X149503190Y-114071112D01*
X149425780Y-114003379D01*
X149348371Y-113974350D01*
X149193552Y-113954998D01*
X149077438Y-113969512D01*
X148922619Y-114027569D01*
X148845209Y-114075950D01*
X148767800Y-114163036D01*
X148729095Y-114283988D01*
X148729095Y-114361398D01*
X148767800Y-114472674D01*
X148806504Y-114506541D01*
X149116142Y-114816179D02*
X149116142Y-115087112D01*
X149541895Y-115150007D02*
X149541895Y-114762960D01*
X148729095Y-114864560D01*
X148729095Y-115251607D01*
X149541895Y-115962807D02*
X149154847Y-115740255D01*
X149541895Y-115498350D02*
X148729095Y-115599950D01*
X148729095Y-115909588D01*
X148767800Y-115982160D01*
X148806504Y-116016027D01*
X148883914Y-116045055D01*
X149000028Y-116030541D01*
X149077438Y-115982160D01*
X149116142Y-115938617D01*
X149154847Y-115856369D01*
X149154847Y-115546731D01*
X149541895Y-116311150D02*
X148729095Y-116412750D01*
X149541895Y-116775607D01*
X148729095Y-116877207D01*
X149232257Y-117201360D02*
X149232257Y-117820636D01*
X148729095Y-118425398D02*
X148729095Y-118580217D01*
X148767800Y-118652788D01*
X148845209Y-118720522D01*
X149000028Y-118739874D01*
X149270961Y-118706007D01*
X149425780Y-118647950D01*
X149503190Y-118560865D01*
X149541895Y-118478617D01*
X149541895Y-118323798D01*
X149503190Y-118251227D01*
X149425780Y-118183493D01*
X149270961Y-118164141D01*
X149000028Y-118198007D01*
X148845209Y-118256065D01*
X148767800Y-118343150D01*
X148729095Y-118425398D01*
X149541895Y-119020484D02*
X148729095Y-119122084D01*
X149116142Y-119073703D02*
X149116142Y-119538160D01*
X149541895Y-119484941D02*
X148729095Y-119586541D01*
X149541895Y-120259036D02*
X149541895Y-119871988D01*
X148729095Y-119973588D01*
X149232257Y-120568674D02*
X149232257Y-121187950D01*
X148729095Y-121560484D02*
X149541895Y-121652407D01*
X148961323Y-121879798D01*
X149541895Y-121962046D01*
X148729095Y-122257169D01*
X149000028Y-123074807D02*
X149541895Y-123200598D01*
X149000028Y-123461855D01*
X148806504Y-123756979D02*
X148767800Y-123800522D01*
X148729095Y-123882769D01*
X148729095Y-124076293D01*
X148767800Y-124148865D01*
X148806504Y-124182731D01*
X148883914Y-124211760D01*
X148961323Y-124202084D01*
X149077438Y-124148865D01*
X149541895Y-123626350D01*
X149541895Y-124129512D01*
X149232257Y-124516560D02*
X149232257Y-125135836D01*
X149541895Y-124787493D02*
X148922619Y-124864903D01*
X150371628Y-107670312D02*
X151029609Y-107588065D01*
X151107019Y-107539684D01*
X151145723Y-107496141D01*
X151184428Y-107413893D01*
X151184428Y-107297779D01*
X151145723Y-107225207D01*
X150874790Y-107607417D02*
X150913495Y-107525169D01*
X150913495Y-107370350D01*
X150874790Y-107297779D01*
X150836085Y-107263912D01*
X150758676Y-107234884D01*
X150526447Y-107263912D01*
X150449038Y-107312293D01*
X150410333Y-107355836D01*
X150371628Y-107438084D01*
X150371628Y-107592903D01*
X150410333Y-107665474D01*
X150913495Y-107989627D02*
X150371628Y-108057360D01*
X150100695Y-108091227D02*
X150139400Y-108047684D01*
X150178104Y-108081550D01*
X150139400Y-108125093D01*
X150100695Y-108091227D01*
X150178104Y-108081550D01*
X150371628Y-108328293D02*
X150371628Y-108637931D01*
X150100695Y-108478274D02*
X150797380Y-108391188D01*
X150874790Y-108420217D01*
X150913495Y-108492788D01*
X150913495Y-108570198D01*
X150913495Y-108841131D02*
X150100695Y-108942731D01*
X150913495Y-109189474D02*
X150487742Y-109242693D01*
X150410333Y-109213665D01*
X150371628Y-109141093D01*
X150371628Y-109024979D01*
X150410333Y-108942731D01*
X150449038Y-108899188D01*
X150371628Y-109992598D02*
X150913495Y-109924865D01*
X150371628Y-109644255D02*
X150797380Y-109591036D01*
X150874790Y-109620065D01*
X150913495Y-109692636D01*
X150913495Y-109808750D01*
X150874790Y-109890998D01*
X150836085Y-109934541D01*
X150913495Y-110311912D02*
X150100695Y-110413512D01*
X150410333Y-110374807D02*
X150371628Y-110457055D01*
X150371628Y-110611874D01*
X150410333Y-110684446D01*
X150449038Y-110718312D01*
X150526447Y-110747341D01*
X150758676Y-110718312D01*
X150836085Y-110669931D01*
X150874790Y-110626388D01*
X150913495Y-110544141D01*
X150913495Y-110389322D01*
X150874790Y-110316750D01*
X150836085Y-111056979D02*
X150874790Y-111090846D01*
X150913495Y-111047303D01*
X150874790Y-111013436D01*
X150836085Y-111056979D01*
X150913495Y-111047303D01*
X150874790Y-111787531D02*
X150913495Y-111705284D01*
X150913495Y-111550465D01*
X150874790Y-111477893D01*
X150836085Y-111444027D01*
X150758676Y-111414998D01*
X150526447Y-111444027D01*
X150449038Y-111492407D01*
X150410333Y-111535950D01*
X150371628Y-111618198D01*
X150371628Y-111773017D01*
X150410333Y-111845588D01*
X150913495Y-112247150D02*
X150874790Y-112174579D01*
X150836085Y-112140712D01*
X150758676Y-112111684D01*
X150526447Y-112140712D01*
X150449038Y-112189093D01*
X150410333Y-112232636D01*
X150371628Y-112314884D01*
X150371628Y-112430998D01*
X150410333Y-112503569D01*
X150449038Y-112537436D01*
X150526447Y-112566465D01*
X150758676Y-112537436D01*
X150836085Y-112489055D01*
X150874790Y-112445512D01*
X150913495Y-112363265D01*
X150913495Y-112247150D01*
X150913495Y-112866427D02*
X150371628Y-112934160D01*
X150449038Y-112924484D02*
X150410333Y-112968027D01*
X150371628Y-113050274D01*
X150371628Y-113166388D01*
X150410333Y-113238960D01*
X150487742Y-113267988D01*
X150913495Y-113214769D01*
X150487742Y-113267988D02*
X150410333Y-113316369D01*
X150371628Y-113398617D01*
X150371628Y-113514731D01*
X150410333Y-113587303D01*
X150487742Y-113616331D01*
X150913495Y-113563112D01*
X150061990Y-114637169D02*
X151107019Y-113809855D01*
X150874790Y-115154846D02*
X150913495Y-115072598D01*
X150913495Y-114917779D01*
X150874790Y-114845207D01*
X150836085Y-114811341D01*
X150758676Y-114782312D01*
X150526447Y-114811341D01*
X150449038Y-114859722D01*
X150410333Y-114903265D01*
X150371628Y-114985512D01*
X150371628Y-115140331D01*
X150410333Y-115212903D01*
X150371628Y-115488674D02*
X150913495Y-115614465D01*
X150371628Y-115875722D02*
X150913495Y-115614465D01*
X151107019Y-115512865D01*
X151145723Y-115469322D01*
X151184428Y-115387074D01*
X150371628Y-116533703D02*
X151029609Y-116451455D01*
X151107019Y-116403074D01*
X151145723Y-116359531D01*
X151184428Y-116277284D01*
X151184428Y-116161169D01*
X151145723Y-116088598D01*
X150874790Y-116470807D02*
X150913495Y-116388560D01*
X150913495Y-116233741D01*
X150874790Y-116161169D01*
X150836085Y-116127303D01*
X150758676Y-116098274D01*
X150526447Y-116127303D01*
X150449038Y-116175684D01*
X150410333Y-116219227D01*
X150371628Y-116301474D01*
X150371628Y-116456293D01*
X150410333Y-116528865D01*
X150913495Y-117201360D02*
X150487742Y-117254579D01*
X150410333Y-117225550D01*
X150371628Y-117152979D01*
X150371628Y-116998160D01*
X150410333Y-116915912D01*
X150874790Y-117206198D02*
X150913495Y-117123950D01*
X150913495Y-116930427D01*
X150874790Y-116857855D01*
X150797380Y-116828827D01*
X150719971Y-116838503D01*
X150642561Y-116886884D01*
X150603857Y-116969131D01*
X150603857Y-117162655D01*
X150565152Y-117244903D01*
X150371628Y-117656141D02*
X150913495Y-117588407D01*
X150449038Y-117646465D02*
X150410333Y-117690007D01*
X150371628Y-117772255D01*
X150371628Y-117888369D01*
X150410333Y-117960941D01*
X150487742Y-117989969D01*
X150913495Y-117936750D01*
X150371628Y-118391531D02*
X150913495Y-118323798D01*
X150449038Y-118381855D02*
X150410333Y-118425398D01*
X150371628Y-118507646D01*
X150371628Y-118623760D01*
X150410333Y-118696331D01*
X150487742Y-118725360D01*
X150913495Y-118672141D01*
X150061990Y-119746198D02*
X151107019Y-118918884D01*
X150371628Y-120326769D02*
X150913495Y-120259036D01*
X150371628Y-119978427D02*
X150797380Y-119925207D01*
X150874790Y-119954236D01*
X150913495Y-120026807D01*
X150913495Y-120142922D01*
X150874790Y-120225169D01*
X150836085Y-120268712D01*
X150913495Y-120646084D02*
X150371628Y-120713817D01*
X150449038Y-120704141D02*
X150410333Y-120747684D01*
X150371628Y-120829931D01*
X150371628Y-120946046D01*
X150410333Y-121018617D01*
X150487742Y-121047646D01*
X150913495Y-120994427D01*
X150487742Y-121047646D02*
X150410333Y-121096027D01*
X150371628Y-121178274D01*
X150371628Y-121294388D01*
X150410333Y-121366960D01*
X150487742Y-121395988D01*
X150913495Y-121342769D01*
X150913495Y-121729817D02*
X150100695Y-121831417D01*
X150410333Y-121792712D02*
X150371628Y-121874960D01*
X150371628Y-122029779D01*
X150410333Y-122102350D01*
X150449038Y-122136217D01*
X150526447Y-122165246D01*
X150758676Y-122136217D01*
X150836085Y-122087836D01*
X150874790Y-122044293D01*
X150913495Y-121962046D01*
X150913495Y-121807227D01*
X150874790Y-121734655D01*
X150874790Y-122779684D02*
X150913495Y-122697436D01*
X150913495Y-122542617D01*
X150874790Y-122470046D01*
X150797380Y-122441017D01*
X150487742Y-122479722D01*
X150410333Y-122528103D01*
X150371628Y-122610350D01*
X150371628Y-122765169D01*
X150410333Y-122837741D01*
X150487742Y-122866769D01*
X150565152Y-122857093D01*
X150642561Y-122460369D01*
X150913495Y-123278007D02*
X150874790Y-123205436D01*
X150797380Y-123176407D01*
X150100695Y-123263493D01*
X150371628Y-123539265D02*
X150371628Y-123848903D01*
X150100695Y-123689246D02*
X150797380Y-123602160D01*
X150874790Y-123631188D01*
X150913495Y-123703760D01*
X150913495Y-123781169D01*
X150603857Y-124090807D02*
X150603857Y-124710084D01*
X150913495Y-125058427D02*
X150100695Y-125160027D01*
X150913495Y-125406769D02*
X150487742Y-125459988D01*
X150410333Y-125430960D01*
X150371628Y-125358388D01*
X150371628Y-125242274D01*
X150410333Y-125160027D01*
X150449038Y-125116484D01*
X150371628Y-125784141D02*
X150913495Y-125871227D01*
X150526447Y-126074427D01*
X150913495Y-126180865D01*
X150371628Y-126403417D01*
X138570304Y-121915161D02*
X139383104Y-121915161D01*
X138802533Y-121644228D01*
X139383104Y-121373295D01*
X138570304Y-121373295D01*
X139383104Y-120831428D02*
X139383104Y-120676609D01*
X139344400Y-120599200D01*
X139266990Y-120521790D01*
X139112171Y-120483085D01*
X138841238Y-120483085D01*
X138686419Y-120521790D01*
X138609009Y-120599200D01*
X138570304Y-120676609D01*
X138570304Y-120831428D01*
X138609009Y-120908838D01*
X138686419Y-120986247D01*
X138841238Y-121024952D01*
X139112171Y-121024952D01*
X139266990Y-120986247D01*
X139344400Y-120908838D01*
X139383104Y-120831428D01*
X139383104Y-120250857D02*
X139383104Y-119786400D01*
X138570304Y-120018628D02*
X139383104Y-120018628D01*
X139383104Y-119360647D02*
X139383104Y-119205828D01*
X139344400Y-119128419D01*
X139266990Y-119051009D01*
X139112171Y-119012304D01*
X138841238Y-119012304D01*
X138686419Y-119051009D01*
X138609009Y-119128419D01*
X138570304Y-119205828D01*
X138570304Y-119360647D01*
X138609009Y-119438057D01*
X138686419Y-119515466D01*
X138841238Y-119554171D01*
X139112171Y-119554171D01*
X139266990Y-119515466D01*
X139344400Y-119438057D01*
X139383104Y-119360647D01*
X138570304Y-118199504D02*
X138957352Y-118470438D01*
X138570304Y-118663961D02*
X139383104Y-118663961D01*
X139383104Y-118354323D01*
X139344400Y-118276914D01*
X139305695Y-118238209D01*
X139228285Y-118199504D01*
X139112171Y-118199504D01*
X139034761Y-118238209D01*
X138996057Y-118276914D01*
X138957352Y-118354323D01*
X138957352Y-118663961D01*
X139383104Y-117077066D02*
X139383104Y-116999657D01*
X139344400Y-116922247D01*
X139305695Y-116883542D01*
X139228285Y-116844838D01*
X139073466Y-116806133D01*
X138879942Y-116806133D01*
X138725123Y-116844838D01*
X138647714Y-116883542D01*
X138609009Y-116922247D01*
X138570304Y-116999657D01*
X138570304Y-117077066D01*
X138609009Y-117154476D01*
X138647714Y-117193180D01*
X138725123Y-117231885D01*
X138879942Y-117270590D01*
X139073466Y-117270590D01*
X139228285Y-117231885D01*
X139305695Y-117193180D01*
X139344400Y-117154476D01*
X139383104Y-117077066D01*
D11*
X174557569Y-114366523D02*
X174398819Y-113096523D01*
X173831854Y-114366523D01*
X173673104Y-113096523D01*
X173211973Y-114245571D02*
X173159057Y-114306047D01*
X173227092Y-114366523D01*
X173280009Y-114306047D01*
X173211973Y-114245571D01*
X173227092Y-114366523D01*
X170913878Y-114245571D02*
X170981914Y-114306047D01*
X171170902Y-114366523D01*
X171291854Y-114366523D01*
X171465723Y-114306047D01*
X171571557Y-114185095D01*
X171616914Y-114064142D01*
X171647152Y-113822238D01*
X171624473Y-113640809D01*
X171533759Y-113398904D01*
X171458164Y-113277952D01*
X171322092Y-113157000D01*
X171133104Y-113096523D01*
X171012152Y-113096523D01*
X170838283Y-113157000D01*
X170785366Y-113217476D01*
X170399830Y-113519857D02*
X170203283Y-114366523D01*
X169795069Y-113519857D02*
X170203283Y-114366523D01*
X170362033Y-114668904D01*
X170430069Y-114729380D01*
X170558580Y-114789857D01*
X168766973Y-113519857D02*
X168895485Y-114547952D01*
X168971080Y-114668904D01*
X169039116Y-114729380D01*
X169167628Y-114789857D01*
X169349057Y-114789857D01*
X169462450Y-114729380D01*
X168865247Y-114306047D02*
X168993759Y-114366523D01*
X169235664Y-114366523D01*
X169349057Y-114306047D01*
X169401973Y-114245571D01*
X169447330Y-114124619D01*
X169401973Y-113761761D01*
X169326378Y-113640809D01*
X169258342Y-113580333D01*
X169129830Y-113519857D01*
X168887926Y-113519857D01*
X168774533Y-113580333D01*
X167723759Y-114366523D02*
X167640604Y-113701285D01*
X167685961Y-113580333D01*
X167799354Y-113519857D01*
X168041259Y-113519857D01*
X168169771Y-113580333D01*
X167716200Y-114306047D02*
X167844711Y-114366523D01*
X168147092Y-114366523D01*
X168260485Y-114306047D01*
X168305842Y-114185095D01*
X168290723Y-114064142D01*
X168215128Y-113943190D01*
X168086616Y-113882714D01*
X167784235Y-113882714D01*
X167655723Y-113822238D01*
X167013164Y-113519857D02*
X167118997Y-114366523D01*
X167028283Y-113640809D02*
X166960247Y-113580333D01*
X166831735Y-113519857D01*
X166650307Y-113519857D01*
X166536914Y-113580333D01*
X166491557Y-113701285D01*
X166574711Y-114366523D01*
X174376140Y-116906523D02*
X174217390Y-115636523D01*
X173907450Y-116543666D01*
X173370723Y-115636523D01*
X173529473Y-116906523D01*
X172909592Y-116785571D02*
X172856676Y-116846047D01*
X172924711Y-116906523D01*
X172977628Y-116846047D01*
X172909592Y-116785571D01*
X172924711Y-116906523D01*
X171352330Y-116906523D02*
X171193580Y-115636523D01*
X170709771Y-115636523D01*
X170596378Y-115697000D01*
X170543461Y-115757476D01*
X170498104Y-115878428D01*
X170520783Y-116059857D01*
X170596378Y-116180809D01*
X170664414Y-116241285D01*
X170792926Y-116301761D01*
X171276735Y-116301761D01*
X169538045Y-116906523D02*
X169454890Y-116241285D01*
X169500247Y-116120333D01*
X169613640Y-116059857D01*
X169855545Y-116059857D01*
X169984057Y-116120333D01*
X169530485Y-116846047D02*
X169658997Y-116906523D01*
X169961378Y-116906523D01*
X170074771Y-116846047D01*
X170120128Y-116725095D01*
X170105009Y-116604142D01*
X170029414Y-116483190D01*
X169900902Y-116422714D01*
X169598521Y-116422714D01*
X169470009Y-116362238D01*
X168283164Y-116059857D02*
X168388997Y-116906523D01*
X168827450Y-116059857D02*
X168910604Y-116725095D01*
X168865247Y-116846047D01*
X168751854Y-116906523D01*
X168570426Y-116906523D01*
X168441914Y-116846047D01*
X168373878Y-116785571D01*
X167602807Y-116906523D02*
X167716200Y-116846047D01*
X167761557Y-116725095D01*
X167625485Y-115636523D01*
X167134116Y-116059857D02*
X166937569Y-116906523D01*
X166529354Y-116059857D02*
X166937569Y-116906523D01*
X167096319Y-117208904D01*
X167164354Y-117269380D01*
X167292866Y-117329857D01*
D12*
X128983619Y-111745001D02*
X127967619Y-111872001D01*
X127967619Y-112259049D01*
X128016000Y-112349763D01*
X128064380Y-112392097D01*
X128161142Y-112428382D01*
X128306285Y-112410240D01*
X128403047Y-112349763D01*
X128451428Y-112295335D01*
X128499809Y-112192525D01*
X128499809Y-111805478D01*
X128983619Y-113341573D02*
X128499809Y-113063382D01*
X128983619Y-112761001D02*
X127967619Y-112888001D01*
X127967619Y-113275049D01*
X128016000Y-113365763D01*
X128064380Y-113408097D01*
X128161142Y-113444382D01*
X128306285Y-113426240D01*
X128403047Y-113365763D01*
X128451428Y-113311335D01*
X128499809Y-113208525D01*
X128499809Y-112821478D01*
X127967619Y-114097525D02*
X127967619Y-114291049D01*
X128016000Y-114381763D01*
X128112761Y-114466430D01*
X128306285Y-114490620D01*
X128644952Y-114448287D01*
X128838476Y-114375716D01*
X128935238Y-114266859D01*
X128983619Y-114164049D01*
X128983619Y-113970525D01*
X128935238Y-113879811D01*
X128838476Y-113795144D01*
X128644952Y-113770954D01*
X128306285Y-113813287D01*
X128112761Y-113885859D01*
X128016000Y-113994716D01*
X127967619Y-114097525D01*
X128016000Y-115494525D02*
X127967619Y-115403811D01*
X127967619Y-115258668D01*
X128016000Y-115107478D01*
X128112761Y-114998620D01*
X128209523Y-114938144D01*
X128403047Y-114865573D01*
X128548190Y-114847430D01*
X128741714Y-114871620D01*
X128838476Y-114907906D01*
X128935238Y-114992573D01*
X128983619Y-115131668D01*
X128983619Y-115228430D01*
X128935238Y-115379620D01*
X128886857Y-115434049D01*
X128548190Y-115476382D01*
X128548190Y-115282859D01*
D10*
X142099695Y-115652247D02*
X141286895Y-115652247D01*
X141286895Y-115961885D01*
X141325600Y-116039295D01*
X141364304Y-116078000D01*
X141441714Y-116116704D01*
X141557828Y-116116704D01*
X141635238Y-116078000D01*
X141673942Y-116039295D01*
X141712647Y-115961885D01*
X141712647Y-115652247D01*
X142099695Y-116465047D02*
X141286895Y-116465047D01*
X141286895Y-116658571D01*
X141325600Y-116774685D01*
X141403009Y-116852095D01*
X141480419Y-116890800D01*
X141635238Y-116929504D01*
X141751352Y-116929504D01*
X141906171Y-116890800D01*
X141983580Y-116852095D01*
X142060990Y-116774685D01*
X142099695Y-116658571D01*
X142099695Y-116465047D01*
X142099695Y-117277847D02*
X141286895Y-117277847D01*
X141867466Y-117548780D01*
X141286895Y-117819714D01*
X142099695Y-117819714D01*
X142177104Y-118013238D02*
X142177104Y-118632514D01*
X142099695Y-118826038D02*
X141286895Y-118826038D01*
X141286895Y-119019561D01*
X141325600Y-119135676D01*
X141403009Y-119213085D01*
X141480419Y-119251790D01*
X141635238Y-119290495D01*
X141751352Y-119290495D01*
X141906171Y-119251790D01*
X141983580Y-119213085D01*
X142060990Y-119135676D01*
X142099695Y-119019561D01*
X142099695Y-118826038D01*
X141867466Y-119600133D02*
X141867466Y-119987180D01*
X142099695Y-119522723D02*
X141286895Y-119793657D01*
X142099695Y-120064590D01*
X141286895Y-120219409D02*
X141286895Y-120683866D01*
X142099695Y-120451638D02*
X141286895Y-120451638D01*
X145909695Y-115574838D02*
X145096895Y-115574838D01*
X145096895Y-115884476D01*
X145135600Y-115961885D01*
X145174304Y-116000590D01*
X145251714Y-116039295D01*
X145367828Y-116039295D01*
X145445238Y-116000590D01*
X145483942Y-115961885D01*
X145522647Y-115884476D01*
X145522647Y-115574838D01*
X145909695Y-116387638D02*
X145096895Y-116387638D01*
X145096895Y-116581161D01*
X145135600Y-116697276D01*
X145213009Y-116774685D01*
X145290419Y-116813390D01*
X145445238Y-116852095D01*
X145561352Y-116852095D01*
X145716171Y-116813390D01*
X145793580Y-116774685D01*
X145870990Y-116697276D01*
X145909695Y-116581161D01*
X145909695Y-116387638D01*
X145909695Y-117200438D02*
X145096895Y-117200438D01*
X145677466Y-117471371D01*
X145096895Y-117742304D01*
X145909695Y-117742304D01*
X145987104Y-117935828D02*
X145987104Y-118555104D01*
X145832285Y-119213085D02*
X145870990Y-119174380D01*
X145909695Y-119058266D01*
X145909695Y-118980857D01*
X145870990Y-118864742D01*
X145793580Y-118787333D01*
X145716171Y-118748628D01*
X145561352Y-118709923D01*
X145445238Y-118709923D01*
X145290419Y-118748628D01*
X145213009Y-118787333D01*
X145135600Y-118864742D01*
X145096895Y-118980857D01*
X145096895Y-119058266D01*
X145135600Y-119174380D01*
X145174304Y-119213085D01*
X145909695Y-119948476D02*
X145909695Y-119561428D01*
X145096895Y-119561428D01*
X145909695Y-120219409D02*
X145096895Y-120219409D01*
X145909695Y-120683866D02*
X145445238Y-120335523D01*
X145096895Y-120683866D02*
X145561352Y-120219409D01*
D12*
X160228521Y-107901619D02*
X159599569Y-107901619D01*
X159986617Y-108288666D01*
X159841474Y-108288666D01*
X159750760Y-108337047D01*
X159708426Y-108385428D01*
X159672140Y-108482190D01*
X159702379Y-108724095D01*
X159762855Y-108820857D01*
X159817283Y-108869238D01*
X159920093Y-108917619D01*
X160210379Y-108917619D01*
X160301093Y-108869238D01*
X160343426Y-108820857D01*
X159279045Y-108820857D02*
X159236712Y-108869238D01*
X159291140Y-108917619D01*
X159333474Y-108869238D01*
X159279045Y-108820857D01*
X159291140Y-108917619D01*
X158777093Y-107901619D02*
X158148140Y-107901619D01*
X158535188Y-108288666D01*
X158390045Y-108288666D01*
X158299331Y-108337047D01*
X158256998Y-108385428D01*
X158220712Y-108482190D01*
X158250950Y-108724095D01*
X158311426Y-108820857D01*
X158365855Y-108869238D01*
X158468664Y-108917619D01*
X158758950Y-108917619D01*
X158849664Y-108869238D01*
X158891998Y-108820857D01*
X157857855Y-107901619D02*
X157646188Y-108917619D01*
X157180521Y-107901619D01*
X159605617Y-119077619D02*
X159478617Y-118061619D01*
X159236712Y-118061619D01*
X159097617Y-118110000D01*
X159012950Y-118206761D01*
X158976664Y-118303523D01*
X158952474Y-118497047D01*
X158970617Y-118642190D01*
X159043188Y-118835714D01*
X159103664Y-118932476D01*
X159212521Y-119029238D01*
X159363712Y-119077619D01*
X159605617Y-119077619D01*
X158269093Y-118061619D02*
X158172331Y-118061619D01*
X158081617Y-118110000D01*
X158039283Y-118158380D01*
X158002998Y-118255142D01*
X157978807Y-118448666D01*
X158009045Y-118690571D01*
X158081617Y-118884095D01*
X158142093Y-118980857D01*
X158196521Y-119029238D01*
X158299331Y-119077619D01*
X158396093Y-119077619D01*
X158486807Y-119029238D01*
X158529140Y-118980857D01*
X158565426Y-118884095D01*
X158589617Y-118690571D01*
X158559379Y-118448666D01*
X158486807Y-118255142D01*
X158426331Y-118158380D01*
X158371902Y-118110000D01*
X158269093Y-118061619D01*
X159545140Y-116755333D02*
X159061331Y-116755333D01*
X159678188Y-117045619D02*
X159212521Y-116029619D01*
X159000855Y-117045619D01*
X158129998Y-117045619D02*
X158710569Y-117045619D01*
X158420283Y-117045619D02*
X158293283Y-116029619D01*
X158408188Y-116174761D01*
X158517045Y-116271523D01*
X158619855Y-116319904D01*
X159545140Y-114215333D02*
X159061331Y-114215333D01*
X159678188Y-114505619D02*
X159212521Y-113489619D01*
X159000855Y-114505619D01*
X158341664Y-113489619D02*
X158244902Y-113489619D01*
X158154188Y-113538000D01*
X158111855Y-113586380D01*
X158075569Y-113683142D01*
X158051379Y-113876666D01*
X158081617Y-114118571D01*
X158154188Y-114312095D01*
X158214664Y-114408857D01*
X158269093Y-114457238D01*
X158371902Y-114505619D01*
X158468664Y-114505619D01*
X158559379Y-114457238D01*
X158601712Y-114408857D01*
X158637998Y-114312095D01*
X158662188Y-114118571D01*
X158631950Y-113876666D01*
X158559379Y-113683142D01*
X158498902Y-113586380D01*
X158444474Y-113538000D01*
X158341664Y-113489619D01*
X159508855Y-111506000D02*
X159599569Y-111457619D01*
X159744712Y-111457619D01*
X159895902Y-111506000D01*
X160004760Y-111602761D01*
X160065236Y-111699523D01*
X160137807Y-111893047D01*
X160155950Y-112038190D01*
X160131760Y-112231714D01*
X160095474Y-112328476D01*
X160010807Y-112425238D01*
X159871712Y-112473619D01*
X159774950Y-112473619D01*
X159623760Y-112425238D01*
X159569331Y-112376857D01*
X159526998Y-112038190D01*
X159720521Y-112038190D01*
X159145998Y-112473619D02*
X159018998Y-111457619D01*
X158565426Y-112473619D01*
X158438426Y-111457619D01*
X158081617Y-112473619D02*
X157954617Y-111457619D01*
X157712712Y-111457619D01*
X157573617Y-111506000D01*
X157488950Y-111602761D01*
X157452664Y-111699523D01*
X157428474Y-111893047D01*
X157446617Y-112038190D01*
X157519188Y-112231714D01*
X157579664Y-112328476D01*
X157688521Y-112425238D01*
X157839712Y-112473619D01*
X158081617Y-112473619D01*
X159605617Y-121617619D02*
X159478617Y-120601619D01*
X159236712Y-120601619D01*
X159097617Y-120650000D01*
X159012950Y-120746761D01*
X158976664Y-120843523D01*
X158952474Y-121037047D01*
X158970617Y-121182190D01*
X159043188Y-121375714D01*
X159103664Y-121472476D01*
X159212521Y-121569238D01*
X159363712Y-121617619D01*
X159605617Y-121617619D01*
X158057426Y-121617619D02*
X158637998Y-121617619D01*
X158347712Y-121617619D02*
X158220712Y-120601619D01*
X158335617Y-120746761D01*
X158444474Y-120843523D01*
X158547283Y-120891904D01*
X181963664Y-107139619D02*
X181334712Y-107139619D01*
X181721760Y-107526666D01*
X181576617Y-107526666D01*
X181485902Y-107575047D01*
X181443569Y-107623428D01*
X181407283Y-107720190D01*
X181437521Y-107962095D01*
X181497998Y-108058857D01*
X181552426Y-108107238D01*
X181655236Y-108155619D01*
X181945521Y-108155619D01*
X182036236Y-108107238D01*
X182078569Y-108058857D01*
X181014188Y-108058857D02*
X180971855Y-108107238D01*
X181026283Y-108155619D01*
X181068617Y-108107238D01*
X181014188Y-108058857D01*
X181026283Y-108155619D01*
X179931664Y-107139619D02*
X180415474Y-107139619D01*
X180524331Y-107623428D01*
X180469902Y-107575047D01*
X180367093Y-107526666D01*
X180125188Y-107526666D01*
X180034474Y-107575047D01*
X179992140Y-107623428D01*
X179955855Y-107720190D01*
X179986093Y-107962095D01*
X180046569Y-108058857D01*
X180100998Y-108107238D01*
X180203807Y-108155619D01*
X180445712Y-108155619D01*
X180536426Y-108107238D01*
X180578760Y-108058857D01*
X179526474Y-107768571D02*
X178752379Y-107768571D01*
X177754521Y-107139619D02*
X177948045Y-107139619D01*
X178050855Y-107188000D01*
X178105283Y-107236380D01*
X178220188Y-107381523D01*
X178292760Y-107575047D01*
X178341140Y-107962095D01*
X178304855Y-108058857D01*
X178262521Y-108107238D01*
X178171807Y-108155619D01*
X177978283Y-108155619D01*
X177875474Y-108107238D01*
X177821045Y-108058857D01*
X177760569Y-107962095D01*
X177730331Y-107720190D01*
X177766617Y-107623428D01*
X177808950Y-107575047D01*
X177899664Y-107526666D01*
X178093188Y-107526666D01*
X178195998Y-107575047D01*
X178250426Y-107623428D01*
X178310902Y-107720190D01*
X177367474Y-107139619D02*
X177155807Y-108155619D01*
X176690140Y-107139619D01*
X175704379Y-108155619D02*
X175577379Y-107139619D01*
X175220569Y-108155619D02*
X175093569Y-107139619D01*
X174639998Y-108155619D01*
X174512998Y-107139619D01*
X174156188Y-108155619D02*
X174029188Y-107139619D01*
X173642140Y-107139619D01*
X173551426Y-107188000D01*
X173509093Y-107236380D01*
X173472807Y-107333142D01*
X173490950Y-107478285D01*
X173551426Y-107575047D01*
X173605855Y-107623428D01*
X173708664Y-107671809D01*
X174095712Y-107671809D01*
X173013188Y-107139619D02*
X173115998Y-107962095D01*
X173079712Y-108058857D01*
X173037379Y-108107238D01*
X172946664Y-108155619D01*
X172753140Y-108155619D01*
X172650331Y-108107238D01*
X172595902Y-108058857D01*
X172535426Y-107962095D01*
X172432617Y-107139619D01*
X172093950Y-107139619D02*
X171513379Y-107139619D01*
X171930664Y-108155619D02*
X171803664Y-107139619D01*
D13*
X172724354Y-110671428D02*
X172406854Y-112195428D01*
X171708354Y-110671428D01*
X170592568Y-112195428D02*
X171463425Y-112195428D01*
X171027997Y-112195428D02*
X170837497Y-110671428D01*
X171009854Y-110889142D01*
X171173140Y-111034285D01*
X171327354Y-111106857D01*
X169921282Y-112050285D02*
X169857782Y-112122857D01*
X169939425Y-112195428D01*
X170002925Y-112122857D01*
X169921282Y-112050285D01*
X169939425Y-112195428D01*
X168732925Y-110671428D02*
X168587782Y-110671428D01*
X168451711Y-110744000D01*
X168388211Y-110816571D01*
X168333782Y-110961714D01*
X168297497Y-111252000D01*
X168342854Y-111614857D01*
X168451711Y-111905142D01*
X168542425Y-112050285D01*
X168624068Y-112122857D01*
X168778282Y-112195428D01*
X168923425Y-112195428D01*
X169059497Y-112122857D01*
X169122997Y-112050285D01*
X169177425Y-111905142D01*
X169213711Y-111614857D01*
X169168354Y-111252000D01*
X169059497Y-110961714D01*
X168968782Y-110816571D01*
X168887140Y-110744000D01*
X168732925Y-110671428D01*
X174357211Y-108639428D02*
X174511425Y-109873142D01*
X174456997Y-110018285D01*
X174393497Y-110090857D01*
X174257425Y-110163428D01*
X173967140Y-110163428D01*
X173812925Y-110090857D01*
X173731282Y-110018285D01*
X173640568Y-109873142D01*
X173486354Y-108639428D01*
X172951140Y-110163428D02*
X172760640Y-108639428D01*
X172388711Y-109728000D01*
X171744640Y-108639428D01*
X171935140Y-110163428D01*
X170601640Y-109365142D02*
X170392997Y-109437714D01*
X170329497Y-109510285D01*
X170275068Y-109655428D01*
X170302282Y-109873142D01*
X170392997Y-110018285D01*
X170474640Y-110090857D01*
X170628854Y-110163428D01*
X171209425Y-110163428D01*
X171018925Y-108639428D01*
X170510925Y-108639428D01*
X170374854Y-108712000D01*
X170311354Y-108784571D01*
X170256925Y-108929714D01*
X170275068Y-109074857D01*
X170365782Y-109220000D01*
X170447425Y-109292571D01*
X170601640Y-109365142D01*
X171109640Y-109365142D01*
X169585640Y-109365142D02*
X169077640Y-109365142D01*
X168959711Y-110163428D02*
X169685425Y-110163428D01*
X169494925Y-108639428D01*
X168769211Y-108639428D01*
X167580854Y-110163428D02*
X168306568Y-110163428D01*
X168116068Y-108639428D01*
X167100068Y-108639428D02*
X166229211Y-108639428D01*
X166855140Y-110163428D02*
X166664640Y-108639428D01*
D14*
%TO.C,J2*%
X164060000Y-107128000D02*
X164060000Y-107698000D01*
X164060000Y-107698000D02*
X165410000Y-107698000D01*
X161060000Y-107128000D02*
X161060000Y-122488000D01*
X164060000Y-122488000D02*
X161060000Y-122488000D01*
X164060000Y-107128000D02*
X161060000Y-107128000D01*
X164060000Y-121918000D02*
X164060000Y-122488000D01*
%TO.C,J4*%
X137033000Y-110490000D02*
X137033000Y-109855000D01*
X136398000Y-110490000D02*
X137033000Y-110490000D01*
X136958000Y-107170000D02*
X129378000Y-107170000D01*
X128778000Y-107770000D02*
X128778000Y-110670000D01*
X129378000Y-111270000D02*
X136958000Y-111270000D01*
X138938000Y-109870000D02*
X138938000Y-108570000D01*
X136958000Y-111270000D02*
X138938000Y-109870000D01*
X138938000Y-108570000D02*
X136958000Y-107170000D01*
X129378000Y-107170000D02*
X128778000Y-107770000D01*
X129378000Y-111270000D02*
X128778000Y-110670000D01*
D15*
%TO.C,J7*%
X137620000Y-116634000D02*
X137620000Y-115634000D01*
X137120000Y-116134000D02*
X138120000Y-116134000D01*
X137620000Y-123634000D02*
X137620000Y-122634000D01*
D14*
%TO.C,TP1*%
X143318000Y-117410000D02*
X143318000Y-118810000D01*
X144718000Y-117410000D02*
X143318000Y-117410000D01*
X144718000Y-118810000D02*
X144718000Y-117410000D01*
X143318000Y-118810000D02*
X144718000Y-118810000D01*
%TO.C,TP2*%
X146366000Y-117410000D02*
X146366000Y-118810000D01*
X147766000Y-117410000D02*
X146366000Y-117410000D01*
X147766000Y-118810000D02*
X147766000Y-117410000D01*
X146366000Y-118810000D02*
X147766000Y-118810000D01*
%TO.C,J2*%
D16*
X165560333Y-107910380D02*
X165560333Y-108624666D01*
X165607952Y-108767523D01*
X165703190Y-108862761D01*
X165846047Y-108910380D01*
X165941285Y-108910380D01*
X165131761Y-108005619D02*
X165084142Y-107958000D01*
X164988904Y-107910380D01*
X164750809Y-107910380D01*
X164655571Y-107958000D01*
X164607952Y-108005619D01*
X164560333Y-108100857D01*
X164560333Y-108196095D01*
X164607952Y-108338952D01*
X165179380Y-108910380D01*
X164560333Y-108910380D01*
%TO.C,J4*%
D10*
X127697895Y-108949066D02*
X128278466Y-108949066D01*
X128394580Y-108910361D01*
X128471990Y-108832952D01*
X128510695Y-108716838D01*
X128510695Y-108639428D01*
X127968828Y-109684457D02*
X128510695Y-109684457D01*
X127659190Y-109490933D02*
X128239761Y-109297409D01*
X128239761Y-109800571D01*
D16*
X129373380Y-111633761D02*
X129373380Y-112205190D01*
X130373380Y-111919476D02*
X129373380Y-111919476D01*
X130278142Y-113109952D02*
X130325761Y-113062333D01*
X130373380Y-112919476D01*
X130373380Y-112824238D01*
X130325761Y-112681380D01*
X130230523Y-112586142D01*
X130135285Y-112538523D01*
X129944809Y-112490904D01*
X129801952Y-112490904D01*
X129611476Y-112538523D01*
X129516238Y-112586142D01*
X129421000Y-112681380D01*
X129373380Y-112824238D01*
X129373380Y-112919476D01*
X129421000Y-113062333D01*
X129468619Y-113109952D01*
X129468619Y-113490904D02*
X129421000Y-113538523D01*
X129373380Y-113633761D01*
X129373380Y-113871857D01*
X129421000Y-113967095D01*
X129468619Y-114014714D01*
X129563857Y-114062333D01*
X129659095Y-114062333D01*
X129801952Y-114014714D01*
X130373380Y-113443285D01*
X130373380Y-114062333D01*
X129373380Y-114681380D02*
X129373380Y-114776619D01*
X129421000Y-114871857D01*
X129468619Y-114919476D01*
X129563857Y-114967095D01*
X129754333Y-115014714D01*
X129992428Y-115014714D01*
X130182904Y-114967095D01*
X130278142Y-114919476D01*
X130325761Y-114871857D01*
X130373380Y-114776619D01*
X130373380Y-114681380D01*
X130325761Y-114586142D01*
X130278142Y-114538523D01*
X130182904Y-114490904D01*
X129992428Y-114443285D01*
X129754333Y-114443285D01*
X129563857Y-114490904D01*
X129468619Y-114538523D01*
X129421000Y-114586142D01*
X129373380Y-114681380D01*
X129373380Y-115919476D02*
X129373380Y-115443285D01*
X129849571Y-115395666D01*
X129801952Y-115443285D01*
X129754333Y-115538523D01*
X129754333Y-115776619D01*
X129801952Y-115871857D01*
X129849571Y-115919476D01*
X129944809Y-115967095D01*
X130182904Y-115967095D01*
X130278142Y-115919476D01*
X130325761Y-115871857D01*
X130373380Y-115776619D01*
X130373380Y-115538523D01*
X130325761Y-115443285D01*
X130278142Y-115395666D01*
X129373380Y-116586142D02*
X129373380Y-116681380D01*
X129421000Y-116776619D01*
X129468619Y-116824238D01*
X129563857Y-116871857D01*
X129754333Y-116919476D01*
X129992428Y-116919476D01*
X130182904Y-116871857D01*
X130278142Y-116824238D01*
X130325761Y-116776619D01*
X130373380Y-116681380D01*
X130373380Y-116586142D01*
X130325761Y-116490904D01*
X130278142Y-116443285D01*
X130182904Y-116395666D01*
X129992428Y-116348047D01*
X129754333Y-116348047D01*
X129563857Y-116395666D01*
X129468619Y-116443285D01*
X129421000Y-116490904D01*
X129373380Y-116586142D01*
X129992428Y-117348047D02*
X129992428Y-118109952D01*
X130373380Y-118586142D02*
X129373380Y-118586142D01*
X130373380Y-119062333D02*
X129373380Y-119062333D01*
X129373380Y-119300428D01*
X129421000Y-119443285D01*
X129516238Y-119538523D01*
X129611476Y-119586142D01*
X129801952Y-119633761D01*
X129944809Y-119633761D01*
X130135285Y-119586142D01*
X130230523Y-119538523D01*
X130325761Y-119443285D01*
X130373380Y-119300428D01*
X130373380Y-119062333D01*
X130278142Y-120633761D02*
X130325761Y-120586142D01*
X130373380Y-120443285D01*
X130373380Y-120348047D01*
X130325761Y-120205190D01*
X130230523Y-120109952D01*
X130135285Y-120062333D01*
X129944809Y-120014714D01*
X129801952Y-120014714D01*
X129611476Y-120062333D01*
X129516238Y-120109952D01*
X129421000Y-120205190D01*
X129373380Y-120348047D01*
X129373380Y-120443285D01*
X129421000Y-120586142D01*
X129468619Y-120633761D01*
X129992428Y-121062333D02*
X129992428Y-121824238D01*
X130373380Y-122300428D02*
X129373380Y-122300428D01*
X130373380Y-122871857D01*
X129373380Y-122871857D01*
X130373380Y-123824238D02*
X130373380Y-123348047D01*
X129373380Y-123348047D01*
%TO.C,TP1*%
D10*
X143572895Y-119116323D02*
X143572895Y-119580780D01*
X144385695Y-119348552D02*
X143572895Y-119348552D01*
X144385695Y-119851714D02*
X143572895Y-119851714D01*
X143572895Y-120161352D01*
X143611600Y-120238761D01*
X143650304Y-120277466D01*
X143727714Y-120316171D01*
X143843828Y-120316171D01*
X143921238Y-120277466D01*
X143959942Y-120238761D01*
X143998647Y-120161352D01*
X143998647Y-119851714D01*
X144385695Y-121090266D02*
X144385695Y-120625809D01*
X144385695Y-120858038D02*
X143572895Y-120858038D01*
X143689009Y-120780628D01*
X143766419Y-120703219D01*
X143805123Y-120625809D01*
%TO.C,TP2*%
X146620895Y-119116323D02*
X146620895Y-119580780D01*
X147433695Y-119348552D02*
X146620895Y-119348552D01*
X147433695Y-119851714D02*
X146620895Y-119851714D01*
X146620895Y-120161352D01*
X146659600Y-120238761D01*
X146698304Y-120277466D01*
X146775714Y-120316171D01*
X146891828Y-120316171D01*
X146969238Y-120277466D01*
X147007942Y-120238761D01*
X147046647Y-120161352D01*
X147046647Y-119851714D01*
X146698304Y-120625809D02*
X146659600Y-120664514D01*
X146620895Y-120741923D01*
X146620895Y-120935447D01*
X146659600Y-121012857D01*
X146698304Y-121051561D01*
X146775714Y-121090266D01*
X146853123Y-121090266D01*
X146969238Y-121051561D01*
X147433695Y-120587104D01*
X147433695Y-121090266D01*
%TD*%
M02*
