%TF.GenerationSoftware,KiCad,Pcbnew,(5.1.10-1-10_14)*%
%TF.CreationDate,2021-09-19T22:53:24-07:00*%
%TF.ProjectId,umbelt-board,756d6265-6c74-42d6-926f-6172642e6b69,1.0*%
%TF.SameCoordinates,Original*%
%TF.FileFunction,Legend,Top*%
%TF.FilePolarity,Positive*%
%FSLAX46Y46*%
G04 Gerber Fmt 4.6, Leading zero omitted, Abs format (unit mm)*
G04 Created by KiCad (PCBNEW (5.1.10-1-10_14)) date 2021-09-19 22:53:24*
%MOMM*%
%LPD*%
G01*
G04 APERTURE LIST*
%ADD10C,0.304800*%
%ADD11C,0.203200*%
%ADD12C,0.300000*%
%ADD13C,0.120000*%
%ADD14C,0.200000*%
%ADD15C,0.127000*%
%ADD16C,0.100000*%
%ADD17C,0.152400*%
G04 APERTURE END LIST*
D10*
X182030914Y-110171865D02*
X182088971Y-110004950D01*
X182147028Y-109954150D01*
X182263142Y-109910607D01*
X182437314Y-109932379D01*
X182553428Y-110004950D01*
X182611485Y-110070265D01*
X182669542Y-110193636D01*
X182669542Y-110658093D01*
X181450342Y-110505693D01*
X181450342Y-110099293D01*
X181508400Y-109990436D01*
X181566457Y-109939636D01*
X181682571Y-109896093D01*
X181798685Y-109910607D01*
X181914800Y-109983179D01*
X181972857Y-110048493D01*
X182030914Y-110171865D01*
X182030914Y-110578265D01*
X182321200Y-109453407D02*
X182321200Y-108872836D01*
X182669542Y-109613065D02*
X181450342Y-109054265D01*
X182669542Y-108800265D01*
X181450342Y-108415636D02*
X181450342Y-107718950D01*
X182669542Y-108219693D02*
X181450342Y-108067293D01*
D11*
X170942000Y-117348000D02*
X171196000Y-117602000D01*
X170942000Y-117348000D02*
X170688000Y-117602000D01*
X170942000Y-118364000D02*
X170942000Y-117348000D01*
D10*
X170819807Y-118944571D02*
X170885122Y-118886514D01*
X171066550Y-118828457D01*
X171182665Y-118828457D01*
X171349579Y-118886514D01*
X171451179Y-119002628D01*
X171494722Y-119118742D01*
X171523750Y-119350971D01*
X171501979Y-119525142D01*
X171414893Y-119757371D01*
X171342322Y-119873485D01*
X171211693Y-119989600D01*
X171030265Y-120047657D01*
X170914150Y-120047657D01*
X170747236Y-119989600D01*
X170696436Y-119931542D01*
X170311807Y-118828457D02*
X170159407Y-120047657D01*
X170231979Y-119467085D02*
X169535293Y-119467085D01*
X169615122Y-118828457D02*
X169462722Y-120047657D01*
X169049065Y-119176800D02*
X168468493Y-119176800D01*
X169208722Y-118828457D02*
X168649922Y-120047657D01*
X168395922Y-118828457D01*
X167292836Y-118828457D02*
X167626665Y-119409028D01*
X167989522Y-118828457D02*
X167837122Y-120047657D01*
X167372665Y-120047657D01*
X167263807Y-119989600D01*
X167213007Y-119931542D01*
X167169465Y-119815428D01*
X167191236Y-119641257D01*
X167263807Y-119525142D01*
X167329122Y-119467085D01*
X167452493Y-119409028D01*
X167916950Y-119409028D01*
X165986550Y-119989600D02*
X166095407Y-120047657D01*
X166269579Y-120047657D01*
X166451007Y-119989600D01*
X166581636Y-119873485D01*
X166654207Y-119757371D01*
X166741293Y-119525142D01*
X166763065Y-119350971D01*
X166734036Y-119118742D01*
X166690493Y-119002628D01*
X166588893Y-118886514D01*
X166421979Y-118828457D01*
X166305865Y-118828457D01*
X166124436Y-118886514D01*
X166059122Y-118944571D01*
X166008322Y-119350971D01*
X166240550Y-119350971D01*
X165471293Y-119467085D02*
X165064893Y-119467085D01*
X164970550Y-118828457D02*
X165551122Y-118828457D01*
X165398722Y-120047657D01*
X164818150Y-120047657D01*
X158366550Y-117431457D02*
X158700379Y-118012028D01*
X159063236Y-117431457D02*
X158910836Y-118650657D01*
X158446379Y-118650657D01*
X158337522Y-118592600D01*
X158286722Y-118534542D01*
X158243179Y-118418428D01*
X158264950Y-118244257D01*
X158337522Y-118128142D01*
X158402836Y-118070085D01*
X158526207Y-118012028D01*
X158990665Y-118012028D01*
X157764207Y-118070085D02*
X157357807Y-118070085D01*
X157263465Y-117431457D02*
X157844036Y-117431457D01*
X157691636Y-118650657D01*
X157111065Y-118650657D01*
X156791750Y-117489514D02*
X156624836Y-117431457D01*
X156334550Y-117431457D01*
X156211179Y-117489514D01*
X156145865Y-117547571D01*
X156073293Y-117663685D01*
X156058779Y-117779800D01*
X156102322Y-117895914D01*
X156153122Y-117953971D01*
X156261979Y-118012028D01*
X156486950Y-118070085D01*
X156595807Y-118128142D01*
X156646607Y-118186200D01*
X156690150Y-118302314D01*
X156675636Y-118418428D01*
X156603065Y-118534542D01*
X156537750Y-118592600D01*
X156414379Y-118650657D01*
X156124093Y-118650657D01*
X155957179Y-118592600D01*
X155499979Y-118070085D02*
X155093579Y-118070085D01*
X154999236Y-117431457D02*
X155579807Y-117431457D01*
X155427407Y-118650657D01*
X154846836Y-118650657D01*
X154498493Y-118650657D02*
X153801807Y-118650657D01*
X154302550Y-117431457D02*
X154150150Y-118650657D01*
D12*
X156091142Y-108517428D02*
X155805428Y-108517428D01*
X155671500Y-108446000D01*
X155546500Y-108303142D01*
X155510785Y-108017428D01*
X155573285Y-107517428D01*
X155680428Y-107231714D01*
X155841142Y-107088857D01*
X155992928Y-107017428D01*
X156278642Y-107017428D01*
X156412571Y-107088857D01*
X156537571Y-107231714D01*
X156573285Y-107517428D01*
X156510785Y-108017428D01*
X156403642Y-108303142D01*
X156242928Y-108446000D01*
X156091142Y-108517428D01*
X154992928Y-107017428D02*
X154805428Y-108517428D01*
X154135785Y-107017428D01*
X153948285Y-108517428D01*
X161671142Y-108517428D02*
X161385428Y-108517428D01*
X161251500Y-108446000D01*
X161126500Y-108303142D01*
X161090785Y-108017428D01*
X161153285Y-107517428D01*
X161260428Y-107231714D01*
X161421142Y-107088857D01*
X161572928Y-107017428D01*
X161858642Y-107017428D01*
X161992571Y-107088857D01*
X162117571Y-107231714D01*
X162153285Y-107517428D01*
X162090785Y-108017428D01*
X161983642Y-108303142D01*
X161822928Y-108446000D01*
X161671142Y-108517428D01*
X159974714Y-107803142D02*
X160474714Y-107803142D01*
X160572928Y-107017428D02*
X160385428Y-108517428D01*
X159671142Y-108517428D01*
X158689000Y-107803142D02*
X159189000Y-107803142D01*
X159287214Y-107017428D02*
X159099714Y-108517428D01*
X158385428Y-108517428D01*
D13*
%TO.C,U15*%
X177192000Y-121549000D02*
X177192000Y-122074000D01*
X177192000Y-122074000D02*
X176667000Y-122074000D01*
X177192000Y-121549000D02*
X177192000Y-122074000D01*
X177192000Y-122074000D02*
X176667000Y-122074000D01*
X174852000Y-121549000D02*
X174852000Y-122074000D01*
X174852000Y-122074000D02*
X175377000Y-122074000D01*
X177192000Y-121549000D02*
X177192000Y-122074000D01*
X177192000Y-122074000D02*
X176667000Y-122074000D01*
X174852000Y-120259000D02*
X174852000Y-119734000D01*
X174852000Y-119734000D02*
X175377000Y-119734000D01*
X177192000Y-120396000D02*
X176530000Y-119734000D01*
D14*
X177172000Y-119854000D02*
G75*
G03*
X177172000Y-119854000I-100000J0D01*
G01*
D13*
%TO.C,C1*%
X149731000Y-122287420D02*
X149731000Y-122568580D01*
X150751000Y-122287420D02*
X150751000Y-122568580D01*
%TO.C,C2*%
X152275000Y-122568580D02*
X152275000Y-122287420D01*
X151255000Y-122568580D02*
X151255000Y-122287420D01*
%TO.C,C3*%
X148207000Y-122287420D02*
X148207000Y-122568580D01*
X149227000Y-122287420D02*
X149227000Y-122568580D01*
%TO.C,C4*%
X155434420Y-120144000D02*
X155715580Y-120144000D01*
X155434420Y-119124000D02*
X155715580Y-119124000D01*
%TO.C,C5*%
X144639420Y-117858000D02*
X144920580Y-117858000D01*
X144639420Y-116838000D02*
X144920580Y-116838000D01*
%TO.C,C6*%
X144639420Y-116334000D02*
X144920580Y-116334000D01*
X144639420Y-115314000D02*
X144920580Y-115314000D01*
%TO.C,C7*%
X144639420Y-123192000D02*
X144920580Y-123192000D01*
X144639420Y-122172000D02*
X144920580Y-122172000D01*
%TO.C,C8*%
X135776580Y-106932000D02*
X135495420Y-106932000D01*
X135776580Y-107952000D02*
X135495420Y-107952000D01*
%TO.C,C9*%
X140067420Y-123700000D02*
X140348580Y-123700000D01*
X140067420Y-122680000D02*
X140348580Y-122680000D01*
%TO.C,C10*%
X174242000Y-109333420D02*
X174242000Y-109614580D01*
X175262000Y-109333420D02*
X175262000Y-109614580D01*
%TO.C,C11*%
X160530000Y-114948580D02*
X160530000Y-114667420D01*
X159510000Y-114948580D02*
X159510000Y-114667420D01*
%TO.C,C12*%
X165098000Y-116699420D02*
X165098000Y-116980580D01*
X166118000Y-116699420D02*
X166118000Y-116980580D01*
%TO.C,C13*%
X163208580Y-117981000D02*
X162927420Y-117981000D01*
X163208580Y-119001000D02*
X162927420Y-119001000D01*
%TO.C,C14*%
X163208580Y-119505000D02*
X162927420Y-119505000D01*
X163208580Y-120525000D02*
X162927420Y-120525000D01*
%TO.C,C15*%
X143766000Y-125616580D02*
X143766000Y-125335420D01*
X142746000Y-125616580D02*
X142746000Y-125335420D01*
%TO.C,C16*%
X151386000Y-125616580D02*
X151386000Y-125335420D01*
X150366000Y-125616580D02*
X150366000Y-125335420D01*
%TO.C,C17*%
X159006000Y-125616580D02*
X159006000Y-125335420D01*
X157986000Y-125616580D02*
X157986000Y-125335420D01*
%TO.C,C18*%
X159006000Y-122568580D02*
X159006000Y-122287420D01*
X157986000Y-122568580D02*
X157986000Y-122287420D01*
%TO.C,C19*%
X166626000Y-125616580D02*
X166626000Y-125335420D01*
X165606000Y-125616580D02*
X165606000Y-125335420D01*
%TO.C,C20*%
X166626000Y-122568580D02*
X166626000Y-122287420D01*
X165606000Y-122568580D02*
X165606000Y-122287420D01*
%TO.C,C21*%
X173114580Y-124204000D02*
X172833420Y-124204000D01*
X173114580Y-125224000D02*
X172833420Y-125224000D01*
%TO.C,C22*%
X176162580Y-124204000D02*
X175881420Y-124204000D01*
X176162580Y-125224000D02*
X175881420Y-125224000D01*
%TO.C,C23*%
X179210580Y-124204000D02*
X178929420Y-124204000D01*
X179210580Y-125224000D02*
X178929420Y-125224000D01*
%TO.C,C24*%
X182258580Y-124204000D02*
X181977420Y-124204000D01*
X182258580Y-125224000D02*
X181977420Y-125224000D01*
%TO.C,C25*%
X179210580Y-116584000D02*
X178929420Y-116584000D01*
X179210580Y-117604000D02*
X178929420Y-117604000D01*
%TO.C,C26*%
X182258580Y-116584000D02*
X181977420Y-116584000D01*
X182258580Y-117604000D02*
X181977420Y-117604000D01*
%TO.C,C27*%
X133606000Y-125616580D02*
X133606000Y-125335420D01*
X132586000Y-125616580D02*
X132586000Y-125335420D01*
%TO.C,D1*%
X131091000Y-108243000D02*
X131091000Y-110528000D01*
X132561000Y-108243000D02*
X131091000Y-108243000D01*
X132561000Y-110528000D02*
X132561000Y-108243000D01*
%TO.C,D2*%
X169636000Y-115046000D02*
X165736000Y-115046000D01*
X169636000Y-113046000D02*
X165736000Y-113046000D01*
X169636000Y-115046000D02*
X169636000Y-113046000D01*
%TO.C,D3*%
X172147500Y-115597000D02*
X169862500Y-115597000D01*
X172147500Y-117067000D02*
X172147500Y-115597000D01*
X169862500Y-117067000D02*
X172147500Y-117067000D01*
D14*
%TO.C,J1*%
X153126000Y-107900000D02*
X153126000Y-106620000D01*
X153126000Y-106620000D02*
X143546000Y-106620000D01*
X143546000Y-106620000D02*
X143546000Y-107900000D01*
X153126000Y-111870000D02*
X153126000Y-110620000D01*
X143546000Y-111870000D02*
X143546000Y-110620000D01*
D15*
%TO.C,J3*%
X167916000Y-107185000D02*
X164316000Y-107185000D01*
X163116000Y-111435000D02*
X163116000Y-109160000D01*
X163916000Y-111435000D02*
X163116000Y-111435000D01*
X169116000Y-111435000D02*
X169116000Y-109160000D01*
X168316000Y-111435000D02*
X169116000Y-111435000D01*
D12*
X168666000Y-112145000D02*
G75*
G03*
X168666000Y-112145000I-100000J0D01*
G01*
D16*
%TO.C,J5*%
X176383000Y-107120000D02*
X176383000Y-107950000D01*
X176383000Y-110490000D02*
X176383000Y-111320000D01*
X176383000Y-111320000D02*
X179324000Y-111320000D01*
X176383000Y-107120000D02*
X179324000Y-107120000D01*
X179832000Y-108204000D02*
X179832000Y-110236000D01*
D12*
X175868000Y-110490000D02*
G75*
G03*
X175868000Y-110490000I-100000J0D01*
G01*
D13*
%TO.C,Q1*%
X171704000Y-114844000D02*
X173379000Y-114844000D01*
X171704000Y-114844000D02*
X171054000Y-114844000D01*
X171704000Y-111724000D02*
X172354000Y-111724000D01*
X171704000Y-111724000D02*
X171054000Y-111724000D01*
%TO.C,R1*%
X149845500Y-116411742D02*
X149845500Y-116886258D01*
X150890500Y-116411742D02*
X150890500Y-116886258D01*
%TO.C,R2*%
X148321500Y-116411742D02*
X148321500Y-116886258D01*
X149366500Y-116411742D02*
X149366500Y-116886258D01*
%TO.C,R3*%
X141715258Y-108443500D02*
X141240742Y-108443500D01*
X141715258Y-109488500D02*
X141240742Y-109488500D01*
%TO.C,R4*%
X141715258Y-109967500D02*
X141240742Y-109967500D01*
X141715258Y-111012500D02*
X141240742Y-111012500D01*
%TO.C,R5*%
X132287742Y-107964500D02*
X132762258Y-107964500D01*
X132287742Y-106919500D02*
X132762258Y-106919500D01*
%TO.C,R6*%
X135619258Y-122667500D02*
X135144742Y-122667500D01*
X135619258Y-123712500D02*
X135144742Y-123712500D01*
%TO.C,R7*%
X132571258Y-122667500D02*
X132096742Y-122667500D01*
X132571258Y-123712500D02*
X132096742Y-123712500D01*
%TO.C,R8*%
X138669500Y-109490742D02*
X138669500Y-109965258D01*
X139714500Y-109490742D02*
X139714500Y-109965258D01*
%TO.C,R9*%
X139970742Y-107964500D02*
X140445258Y-107964500D01*
X139970742Y-106919500D02*
X140445258Y-106919500D01*
%TO.C,R10*%
X167654500Y-117077258D02*
X167654500Y-116602742D01*
X166609500Y-117077258D02*
X166609500Y-116602742D01*
%TO.C,R11*%
X174006742Y-117362500D02*
X174481258Y-117362500D01*
X174006742Y-116317500D02*
X174481258Y-116317500D01*
%TO.C,R12*%
X176007500Y-117364742D02*
X176007500Y-117839258D01*
X177052500Y-117364742D02*
X177052500Y-117839258D01*
%TO.C,R13*%
X151369500Y-116411742D02*
X151369500Y-116886258D01*
X152414500Y-116411742D02*
X152414500Y-116886258D01*
%TO.C,R14*%
X142254500Y-125713258D02*
X142254500Y-125238742D01*
X141209500Y-125713258D02*
X141209500Y-125238742D01*
%TO.C,R15*%
X144257500Y-125238742D02*
X144257500Y-125713258D01*
X145302500Y-125238742D02*
X145302500Y-125713258D01*
%TO.C,R16*%
X149874500Y-125713258D02*
X149874500Y-125238742D01*
X148829500Y-125713258D02*
X148829500Y-125238742D01*
%TO.C,R17*%
X151877500Y-125238742D02*
X151877500Y-125713258D01*
X152922500Y-125238742D02*
X152922500Y-125713258D01*
%TO.C,R18*%
X157494500Y-125713258D02*
X157494500Y-125238742D01*
X156449500Y-125713258D02*
X156449500Y-125238742D01*
%TO.C,R19*%
X159497500Y-125238742D02*
X159497500Y-125713258D01*
X160542500Y-125238742D02*
X160542500Y-125713258D01*
%TO.C,R20*%
X157494500Y-122665258D02*
X157494500Y-122190742D01*
X156449500Y-122665258D02*
X156449500Y-122190742D01*
%TO.C,R21*%
X159497500Y-122190742D02*
X159497500Y-122665258D01*
X160542500Y-122190742D02*
X160542500Y-122665258D01*
%TO.C,R22*%
X165114500Y-125713258D02*
X165114500Y-125238742D01*
X164069500Y-125713258D02*
X164069500Y-125238742D01*
%TO.C,R23*%
X167117500Y-125238742D02*
X167117500Y-125713258D01*
X168162500Y-125238742D02*
X168162500Y-125713258D01*
%TO.C,R24*%
X165114500Y-122665258D02*
X165114500Y-122190742D01*
X164069500Y-122665258D02*
X164069500Y-122190742D01*
%TO.C,R25*%
X167117500Y-122190742D02*
X167117500Y-122665258D01*
X168162500Y-122190742D02*
X168162500Y-122665258D01*
%TO.C,R26*%
X172736742Y-126760500D02*
X173211258Y-126760500D01*
X172736742Y-125715500D02*
X173211258Y-125715500D01*
%TO.C,R27*%
X172736742Y-123712500D02*
X173211258Y-123712500D01*
X172736742Y-122667500D02*
X173211258Y-122667500D01*
%TO.C,R28*%
X176259258Y-125715500D02*
X175784742Y-125715500D01*
X176259258Y-126760500D02*
X175784742Y-126760500D01*
%TO.C,R29*%
X175784742Y-123712500D02*
X176259258Y-123712500D01*
X175784742Y-122667500D02*
X176259258Y-122667500D01*
%TO.C,R30*%
X179307258Y-125715500D02*
X178832742Y-125715500D01*
X179307258Y-126760500D02*
X178832742Y-126760500D01*
%TO.C,R31*%
X178832742Y-123712500D02*
X179307258Y-123712500D01*
X178832742Y-122667500D02*
X179307258Y-122667500D01*
%TO.C,R32*%
X182355258Y-125715500D02*
X181880742Y-125715500D01*
X182355258Y-126760500D02*
X181880742Y-126760500D01*
%TO.C,R33*%
X181880742Y-123712500D02*
X182355258Y-123712500D01*
X181880742Y-122667500D02*
X182355258Y-122667500D01*
%TO.C,R34*%
X179307258Y-118095500D02*
X178832742Y-118095500D01*
X179307258Y-119140500D02*
X178832742Y-119140500D01*
%TO.C,R35*%
X178832742Y-116092500D02*
X179307258Y-116092500D01*
X178832742Y-115047500D02*
X179307258Y-115047500D01*
%TO.C,R36*%
X181880742Y-119140500D02*
X182355258Y-119140500D01*
X181880742Y-118095500D02*
X182355258Y-118095500D01*
%TO.C,R37*%
X181880742Y-116092500D02*
X182355258Y-116092500D01*
X181880742Y-115047500D02*
X182355258Y-115047500D01*
%TO.C,R38*%
X131049500Y-125238742D02*
X131049500Y-125713258D01*
X132094500Y-125238742D02*
X132094500Y-125713258D01*
%TO.C,R39*%
X134097500Y-125238742D02*
X134097500Y-125713258D01*
X135142500Y-125238742D02*
X135142500Y-125713258D01*
%TO.C,SW1*%
X154178000Y-113538000D02*
X158750000Y-113538000D01*
X154178000Y-117094000D02*
X158750000Y-117094000D01*
D15*
%TO.C,SW2*%
X161338000Y-111740000D02*
X161338000Y-109140000D01*
X154638000Y-111740000D02*
X161338000Y-111740000D01*
X154638000Y-109140000D02*
X154638000Y-111740000D01*
X154638000Y-109140000D02*
X161338000Y-109140000D01*
D12*
X161390000Y-112522000D02*
G75*
G03*
X161390000Y-112522000I-100000J0D01*
G01*
D13*
%TO.C,U1*%
X142724000Y-111490000D02*
X142724000Y-112590000D01*
X141624000Y-111490000D02*
X142724000Y-111490000D01*
X142724000Y-122190000D02*
X142724000Y-121090000D01*
X141624000Y-122190000D02*
X142724000Y-122190000D01*
X127024000Y-111490000D02*
X128124000Y-111490000D01*
X127024000Y-112590000D02*
X127024000Y-111490000D01*
X130574000Y-122440000D02*
X131674000Y-122440000D01*
X127024000Y-122190000D02*
X131674000Y-122190000D01*
X127024000Y-121090000D02*
X127024000Y-122190000D01*
%TO.C,U2*%
X153370000Y-120564000D02*
X152695000Y-120564000D01*
X155915000Y-123784000D02*
X155915000Y-123609000D01*
X155240000Y-123784000D02*
X155915000Y-123784000D01*
X152695000Y-123784000D02*
X152695000Y-123609000D01*
X153370000Y-123784000D02*
X152695000Y-123784000D01*
X155915000Y-120564000D02*
X155915000Y-120739000D01*
X155240000Y-120564000D02*
X155915000Y-120564000D01*
%TO.C,U3*%
X143292000Y-118888000D02*
X143292000Y-121638000D01*
X143292000Y-121638000D02*
X147792000Y-121638000D01*
X147792000Y-121638000D02*
X147792000Y-118138000D01*
X147792000Y-118138000D02*
X144042000Y-118138000D01*
D12*
X143392000Y-118138000D02*
G75*
G03*
X143392000Y-118138000I-100000J0D01*
G01*
D15*
%TO.C,U4*%
X133120000Y-110973000D02*
X136120000Y-110973000D01*
X133120000Y-108483000D02*
X136120000Y-108483000D01*
D14*
X132720000Y-108778000D02*
G75*
G03*
X132720000Y-108778000I-100000J0D01*
G01*
D13*
%TO.C,U5*%
X140240000Y-124428000D02*
X139700000Y-124428000D01*
X139160000Y-124968000D02*
X139160000Y-125508000D01*
X139160000Y-125508000D02*
X140240000Y-125508000D01*
X140240000Y-125508000D02*
X140240000Y-124428000D01*
%TO.C,U6*%
X162814000Y-116622000D02*
X164614000Y-116622000D01*
X162814000Y-116622000D02*
X162014000Y-116622000D01*
X162814000Y-113502000D02*
X163614000Y-113502000D01*
X162814000Y-113502000D02*
X162014000Y-113502000D01*
%TO.C,U7*%
X177074000Y-113792000D02*
X177074000Y-111992000D01*
X177074000Y-113792000D02*
X177074000Y-114592000D01*
X173954000Y-113792000D02*
X173954000Y-112992000D01*
X173954000Y-113792000D02*
X173954000Y-114592000D01*
%TO.C,U8*%
X146421000Y-126646000D02*
X145896000Y-126646000D01*
X145896000Y-126646000D02*
X145896000Y-126121000D01*
X146421000Y-126646000D02*
X145896000Y-126646000D01*
X145896000Y-126646000D02*
X145896000Y-126121000D01*
X146421000Y-124306000D02*
X145896000Y-124306000D01*
X145896000Y-124306000D02*
X145896000Y-124831000D01*
X146421000Y-126646000D02*
X145896000Y-126646000D01*
X145896000Y-126646000D02*
X145896000Y-126121000D01*
X147711000Y-124306000D02*
X148236000Y-124306000D01*
X148236000Y-124306000D02*
X148236000Y-124831000D01*
X147574000Y-126646000D02*
X148236000Y-125984000D01*
D14*
X148216000Y-126526000D02*
G75*
G03*
X148216000Y-126526000I-100000J0D01*
G01*
D13*
%TO.C,U9*%
X154041000Y-126646000D02*
X153516000Y-126646000D01*
X153516000Y-126646000D02*
X153516000Y-126121000D01*
X154041000Y-126646000D02*
X153516000Y-126646000D01*
X153516000Y-126646000D02*
X153516000Y-126121000D01*
X154041000Y-124306000D02*
X153516000Y-124306000D01*
X153516000Y-124306000D02*
X153516000Y-124831000D01*
X154041000Y-126646000D02*
X153516000Y-126646000D01*
X153516000Y-126646000D02*
X153516000Y-126121000D01*
X155331000Y-124306000D02*
X155856000Y-124306000D01*
X155856000Y-124306000D02*
X155856000Y-124831000D01*
X155194000Y-126646000D02*
X155856000Y-125984000D01*
D14*
X155836000Y-126526000D02*
G75*
G03*
X155836000Y-126526000I-100000J0D01*
G01*
D13*
%TO.C,U10*%
X161661000Y-126646000D02*
X161136000Y-126646000D01*
X161136000Y-126646000D02*
X161136000Y-126121000D01*
X161661000Y-126646000D02*
X161136000Y-126646000D01*
X161136000Y-126646000D02*
X161136000Y-126121000D01*
X161661000Y-124306000D02*
X161136000Y-124306000D01*
X161136000Y-124306000D02*
X161136000Y-124831000D01*
X161661000Y-126646000D02*
X161136000Y-126646000D01*
X161136000Y-126646000D02*
X161136000Y-126121000D01*
X162951000Y-124306000D02*
X163476000Y-124306000D01*
X163476000Y-124306000D02*
X163476000Y-124831000D01*
X162814000Y-126646000D02*
X163476000Y-125984000D01*
D14*
X163456000Y-126526000D02*
G75*
G03*
X163456000Y-126526000I-100000J0D01*
G01*
D13*
%TO.C,U11*%
X161661000Y-123598000D02*
X161136000Y-123598000D01*
X161136000Y-123598000D02*
X161136000Y-123073000D01*
X161661000Y-123598000D02*
X161136000Y-123598000D01*
X161136000Y-123598000D02*
X161136000Y-123073000D01*
X161661000Y-121258000D02*
X161136000Y-121258000D01*
X161136000Y-121258000D02*
X161136000Y-121783000D01*
X161661000Y-123598000D02*
X161136000Y-123598000D01*
X161136000Y-123598000D02*
X161136000Y-123073000D01*
X162951000Y-121258000D02*
X163476000Y-121258000D01*
X163476000Y-121258000D02*
X163476000Y-121783000D01*
X162814000Y-123598000D02*
X163476000Y-122936000D01*
D14*
X163456000Y-123478000D02*
G75*
G03*
X163456000Y-123478000I-100000J0D01*
G01*
D13*
%TO.C,U12*%
X169281000Y-126646000D02*
X168756000Y-126646000D01*
X168756000Y-126646000D02*
X168756000Y-126121000D01*
X169281000Y-126646000D02*
X168756000Y-126646000D01*
X168756000Y-126646000D02*
X168756000Y-126121000D01*
X169281000Y-124306000D02*
X168756000Y-124306000D01*
X168756000Y-124306000D02*
X168756000Y-124831000D01*
X169281000Y-126646000D02*
X168756000Y-126646000D01*
X168756000Y-126646000D02*
X168756000Y-126121000D01*
X170571000Y-124306000D02*
X171096000Y-124306000D01*
X171096000Y-124306000D02*
X171096000Y-124831000D01*
X170434000Y-126646000D02*
X171096000Y-125984000D01*
D14*
X171076000Y-126526000D02*
G75*
G03*
X171076000Y-126526000I-100000J0D01*
G01*
D13*
%TO.C,U13*%
X169281000Y-123598000D02*
X168756000Y-123598000D01*
X168756000Y-123598000D02*
X168756000Y-123073000D01*
X169281000Y-123598000D02*
X168756000Y-123598000D01*
X168756000Y-123598000D02*
X168756000Y-123073000D01*
X169281000Y-121258000D02*
X168756000Y-121258000D01*
X168756000Y-121258000D02*
X168756000Y-121783000D01*
X169281000Y-123598000D02*
X168756000Y-123598000D01*
X168756000Y-123598000D02*
X168756000Y-123073000D01*
X170571000Y-121258000D02*
X171096000Y-121258000D01*
X171096000Y-121258000D02*
X171096000Y-121783000D01*
X170434000Y-123598000D02*
X171096000Y-122936000D01*
D14*
X171076000Y-123478000D02*
G75*
G03*
X171076000Y-123478000I-100000J0D01*
G01*
D13*
%TO.C,U14*%
X174144000Y-121549000D02*
X174144000Y-122074000D01*
X174144000Y-122074000D02*
X173619000Y-122074000D01*
X174144000Y-121549000D02*
X174144000Y-122074000D01*
X174144000Y-122074000D02*
X173619000Y-122074000D01*
X171804000Y-121549000D02*
X171804000Y-122074000D01*
X171804000Y-122074000D02*
X172329000Y-122074000D01*
X174144000Y-121549000D02*
X174144000Y-122074000D01*
X174144000Y-122074000D02*
X173619000Y-122074000D01*
X171804000Y-120259000D02*
X171804000Y-119734000D01*
X171804000Y-119734000D02*
X172329000Y-119734000D01*
X174144000Y-120396000D02*
X173482000Y-119734000D01*
D14*
X174124000Y-119854000D02*
G75*
G03*
X174124000Y-119854000I-100000J0D01*
G01*
D13*
%TO.C,U16*%
X180240000Y-121549000D02*
X180240000Y-122074000D01*
X180240000Y-122074000D02*
X179715000Y-122074000D01*
X180240000Y-121549000D02*
X180240000Y-122074000D01*
X180240000Y-122074000D02*
X179715000Y-122074000D01*
X177900000Y-121549000D02*
X177900000Y-122074000D01*
X177900000Y-122074000D02*
X178425000Y-122074000D01*
X180240000Y-121549000D02*
X180240000Y-122074000D01*
X180240000Y-122074000D02*
X179715000Y-122074000D01*
X177900000Y-120259000D02*
X177900000Y-119734000D01*
X177900000Y-119734000D02*
X178425000Y-119734000D01*
X180240000Y-120396000D02*
X179578000Y-119734000D01*
D14*
X180220000Y-119854000D02*
G75*
G03*
X180220000Y-119854000I-100000J0D01*
G01*
D13*
%TO.C,U17*%
X183288000Y-121549000D02*
X183288000Y-122074000D01*
X183288000Y-122074000D02*
X182763000Y-122074000D01*
X183288000Y-121549000D02*
X183288000Y-122074000D01*
X183288000Y-122074000D02*
X182763000Y-122074000D01*
X180948000Y-121549000D02*
X180948000Y-122074000D01*
X180948000Y-122074000D02*
X181473000Y-122074000D01*
X183288000Y-121549000D02*
X183288000Y-122074000D01*
X183288000Y-122074000D02*
X182763000Y-122074000D01*
X180948000Y-120259000D02*
X180948000Y-119734000D01*
X180948000Y-119734000D02*
X181473000Y-119734000D01*
X183288000Y-120396000D02*
X182626000Y-119734000D01*
D14*
X183268000Y-119854000D02*
G75*
G03*
X183268000Y-119854000I-100000J0D01*
G01*
D13*
%TO.C,U18*%
X180240000Y-113929000D02*
X180240000Y-114454000D01*
X180240000Y-114454000D02*
X179715000Y-114454000D01*
X180240000Y-113929000D02*
X180240000Y-114454000D01*
X180240000Y-114454000D02*
X179715000Y-114454000D01*
X177900000Y-113929000D02*
X177900000Y-114454000D01*
X177900000Y-114454000D02*
X178425000Y-114454000D01*
X180240000Y-113929000D02*
X180240000Y-114454000D01*
X180240000Y-114454000D02*
X179715000Y-114454000D01*
X177900000Y-112639000D02*
X177900000Y-112114000D01*
X177900000Y-112114000D02*
X178425000Y-112114000D01*
X180240000Y-112776000D02*
X179578000Y-112114000D01*
D14*
X180220000Y-112234000D02*
G75*
G03*
X180220000Y-112234000I-100000J0D01*
G01*
D13*
%TO.C,U19*%
X183288000Y-113929000D02*
X183288000Y-114454000D01*
X183288000Y-114454000D02*
X182763000Y-114454000D01*
X183288000Y-113929000D02*
X183288000Y-114454000D01*
X183288000Y-114454000D02*
X182763000Y-114454000D01*
X180948000Y-113929000D02*
X180948000Y-114454000D01*
X180948000Y-114454000D02*
X181473000Y-114454000D01*
X183288000Y-113929000D02*
X183288000Y-114454000D01*
X183288000Y-114454000D02*
X182763000Y-114454000D01*
X180948000Y-112639000D02*
X180948000Y-112114000D01*
X180948000Y-112114000D02*
X181473000Y-112114000D01*
X183288000Y-112776000D02*
X182626000Y-112114000D01*
D14*
X183268000Y-112234000D02*
G75*
G03*
X183268000Y-112234000I-100000J0D01*
G01*
D13*
%TO.C,U20*%
X136261000Y-126646000D02*
X135736000Y-126646000D01*
X135736000Y-126646000D02*
X135736000Y-126121000D01*
X136261000Y-126646000D02*
X135736000Y-126646000D01*
X135736000Y-126646000D02*
X135736000Y-126121000D01*
X136261000Y-124306000D02*
X135736000Y-124306000D01*
X135736000Y-124306000D02*
X135736000Y-124831000D01*
X136261000Y-126646000D02*
X135736000Y-126646000D01*
X135736000Y-126646000D02*
X135736000Y-126121000D01*
X137551000Y-124306000D02*
X138076000Y-124306000D01*
X138076000Y-124306000D02*
X138076000Y-124831000D01*
X137414000Y-126646000D02*
X138076000Y-125984000D01*
D14*
X138056000Y-126526000D02*
G75*
G03*
X138056000Y-126526000I-100000J0D01*
G01*
%TO.C,C1*%
D17*
X150105533Y-120686285D02*
X150066828Y-120724990D01*
X149950714Y-120763695D01*
X149873304Y-120763695D01*
X149757190Y-120724990D01*
X149679780Y-120647580D01*
X149641076Y-120570171D01*
X149602371Y-120415352D01*
X149602371Y-120299238D01*
X149641076Y-120144419D01*
X149679780Y-120067009D01*
X149757190Y-119989600D01*
X149873304Y-119950895D01*
X149950714Y-119950895D01*
X150066828Y-119989600D01*
X150105533Y-120028304D01*
X150879628Y-120763695D02*
X150415171Y-120763695D01*
X150647400Y-120763695D02*
X150647400Y-119950895D01*
X150569990Y-120067009D01*
X150492580Y-120144419D01*
X150415171Y-120183123D01*
%TO.C,C2*%
X152055285Y-120277466D02*
X152093990Y-120316171D01*
X152132695Y-120432285D01*
X152132695Y-120509695D01*
X152093990Y-120625809D01*
X152016580Y-120703219D01*
X151939171Y-120741923D01*
X151784352Y-120780628D01*
X151668238Y-120780628D01*
X151513419Y-120741923D01*
X151436009Y-120703219D01*
X151358600Y-120625809D01*
X151319895Y-120509695D01*
X151319895Y-120432285D01*
X151358600Y-120316171D01*
X151397304Y-120277466D01*
X151397304Y-119967828D02*
X151358600Y-119929123D01*
X151319895Y-119851714D01*
X151319895Y-119658190D01*
X151358600Y-119580780D01*
X151397304Y-119542076D01*
X151474714Y-119503371D01*
X151552123Y-119503371D01*
X151668238Y-119542076D01*
X152132695Y-120006533D01*
X152132695Y-119503371D01*
%TO.C,C3*%
X149134285Y-120277466D02*
X149172990Y-120316171D01*
X149211695Y-120432285D01*
X149211695Y-120509695D01*
X149172990Y-120625809D01*
X149095580Y-120703219D01*
X149018171Y-120741923D01*
X148863352Y-120780628D01*
X148747238Y-120780628D01*
X148592419Y-120741923D01*
X148515009Y-120703219D01*
X148437600Y-120625809D01*
X148398895Y-120509695D01*
X148398895Y-120432285D01*
X148437600Y-120316171D01*
X148476304Y-120277466D01*
X148398895Y-120006533D02*
X148398895Y-119503371D01*
X148708533Y-119774304D01*
X148708533Y-119658190D01*
X148747238Y-119580780D01*
X148785942Y-119542076D01*
X148863352Y-119503371D01*
X149056876Y-119503371D01*
X149134285Y-119542076D01*
X149172990Y-119580780D01*
X149211695Y-119658190D01*
X149211695Y-119890419D01*
X149172990Y-119967828D01*
X149134285Y-120006533D01*
%TO.C,C4*%
X157852533Y-119924285D02*
X157813828Y-119962990D01*
X157697714Y-120001695D01*
X157620304Y-120001695D01*
X157504190Y-119962990D01*
X157426780Y-119885580D01*
X157388076Y-119808171D01*
X157349371Y-119653352D01*
X157349371Y-119537238D01*
X157388076Y-119382419D01*
X157426780Y-119305009D01*
X157504190Y-119227600D01*
X157620304Y-119188895D01*
X157697714Y-119188895D01*
X157813828Y-119227600D01*
X157852533Y-119266304D01*
X158549219Y-119459828D02*
X158549219Y-120001695D01*
X158355695Y-119150190D02*
X158162171Y-119730761D01*
X158665333Y-119730761D01*
%TO.C,C5*%
X146930533Y-117638285D02*
X146891828Y-117676990D01*
X146775714Y-117715695D01*
X146698304Y-117715695D01*
X146582190Y-117676990D01*
X146504780Y-117599580D01*
X146466076Y-117522171D01*
X146427371Y-117367352D01*
X146427371Y-117251238D01*
X146466076Y-117096419D01*
X146504780Y-117019009D01*
X146582190Y-116941600D01*
X146698304Y-116902895D01*
X146775714Y-116902895D01*
X146891828Y-116941600D01*
X146930533Y-116980304D01*
X147665923Y-116902895D02*
X147278876Y-116902895D01*
X147240171Y-117289942D01*
X147278876Y-117251238D01*
X147356285Y-117212533D01*
X147549809Y-117212533D01*
X147627219Y-117251238D01*
X147665923Y-117289942D01*
X147704628Y-117367352D01*
X147704628Y-117560876D01*
X147665923Y-117638285D01*
X147627219Y-117676990D01*
X147549809Y-117715695D01*
X147356285Y-117715695D01*
X147278876Y-117676990D01*
X147240171Y-117638285D01*
%TO.C,C6*%
X146930533Y-116114285D02*
X146891828Y-116152990D01*
X146775714Y-116191695D01*
X146698304Y-116191695D01*
X146582190Y-116152990D01*
X146504780Y-116075580D01*
X146466076Y-115998171D01*
X146427371Y-115843352D01*
X146427371Y-115727238D01*
X146466076Y-115572419D01*
X146504780Y-115495009D01*
X146582190Y-115417600D01*
X146698304Y-115378895D01*
X146775714Y-115378895D01*
X146891828Y-115417600D01*
X146930533Y-115456304D01*
X147627219Y-115378895D02*
X147472400Y-115378895D01*
X147394990Y-115417600D01*
X147356285Y-115456304D01*
X147278876Y-115572419D01*
X147240171Y-115727238D01*
X147240171Y-116036876D01*
X147278876Y-116114285D01*
X147317580Y-116152990D01*
X147394990Y-116191695D01*
X147549809Y-116191695D01*
X147627219Y-116152990D01*
X147665923Y-116114285D01*
X147704628Y-116036876D01*
X147704628Y-115843352D01*
X147665923Y-115765942D01*
X147627219Y-115727238D01*
X147549809Y-115688533D01*
X147394990Y-115688533D01*
X147317580Y-115727238D01*
X147278876Y-115765942D01*
X147240171Y-115843352D01*
%TO.C,C7*%
X142358533Y-123226285D02*
X142319828Y-123264990D01*
X142203714Y-123303695D01*
X142126304Y-123303695D01*
X142010190Y-123264990D01*
X141932780Y-123187580D01*
X141894076Y-123110171D01*
X141855371Y-122955352D01*
X141855371Y-122839238D01*
X141894076Y-122684419D01*
X141932780Y-122607009D01*
X142010190Y-122529600D01*
X142126304Y-122490895D01*
X142203714Y-122490895D01*
X142319828Y-122529600D01*
X142358533Y-122568304D01*
X142629466Y-122490895D02*
X143171333Y-122490895D01*
X142822990Y-123303695D01*
%TO.C,C8*%
X129068285Y-108085466D02*
X129106990Y-108124171D01*
X129145695Y-108240285D01*
X129145695Y-108317695D01*
X129106990Y-108433809D01*
X129029580Y-108511219D01*
X128952171Y-108549923D01*
X128797352Y-108588628D01*
X128681238Y-108588628D01*
X128526419Y-108549923D01*
X128449009Y-108511219D01*
X128371600Y-108433809D01*
X128332895Y-108317695D01*
X128332895Y-108240285D01*
X128371600Y-108124171D01*
X128410304Y-108085466D01*
X128681238Y-107621009D02*
X128642533Y-107698419D01*
X128603828Y-107737123D01*
X128526419Y-107775828D01*
X128487714Y-107775828D01*
X128410304Y-107737123D01*
X128371600Y-107698419D01*
X128332895Y-107621009D01*
X128332895Y-107466190D01*
X128371600Y-107388780D01*
X128410304Y-107350076D01*
X128487714Y-107311371D01*
X128526419Y-107311371D01*
X128603828Y-107350076D01*
X128642533Y-107388780D01*
X128681238Y-107466190D01*
X128681238Y-107621009D01*
X128719942Y-107698419D01*
X128758647Y-107737123D01*
X128836057Y-107775828D01*
X128990876Y-107775828D01*
X129068285Y-107737123D01*
X129106990Y-107698419D01*
X129145695Y-107621009D01*
X129145695Y-107466190D01*
X129106990Y-107388780D01*
X129068285Y-107350076D01*
X128990876Y-107311371D01*
X128836057Y-107311371D01*
X128758647Y-107350076D01*
X128719942Y-107388780D01*
X128681238Y-107466190D01*
%TO.C,C9*%
X137786533Y-123480285D02*
X137747828Y-123518990D01*
X137631714Y-123557695D01*
X137554304Y-123557695D01*
X137438190Y-123518990D01*
X137360780Y-123441580D01*
X137322076Y-123364171D01*
X137283371Y-123209352D01*
X137283371Y-123093238D01*
X137322076Y-122938419D01*
X137360780Y-122861009D01*
X137438190Y-122783600D01*
X137554304Y-122744895D01*
X137631714Y-122744895D01*
X137747828Y-122783600D01*
X137786533Y-122822304D01*
X138173580Y-123557695D02*
X138328400Y-123557695D01*
X138405809Y-123518990D01*
X138444514Y-123480285D01*
X138521923Y-123364171D01*
X138560628Y-123209352D01*
X138560628Y-122899714D01*
X138521923Y-122822304D01*
X138483219Y-122783600D01*
X138405809Y-122744895D01*
X138250990Y-122744895D01*
X138173580Y-122783600D01*
X138134876Y-122822304D01*
X138096171Y-122899714D01*
X138096171Y-123093238D01*
X138134876Y-123170647D01*
X138173580Y-123209352D01*
X138250990Y-123248057D01*
X138405809Y-123248057D01*
X138483219Y-123209352D01*
X138521923Y-123170647D01*
X138560628Y-123093238D01*
%TO.C,C10*%
X173772285Y-110758514D02*
X173810990Y-110797219D01*
X173849695Y-110913333D01*
X173849695Y-110990742D01*
X173810990Y-111106857D01*
X173733580Y-111184266D01*
X173656171Y-111222971D01*
X173501352Y-111261676D01*
X173385238Y-111261676D01*
X173230419Y-111222971D01*
X173153009Y-111184266D01*
X173075600Y-111106857D01*
X173036895Y-110990742D01*
X173036895Y-110913333D01*
X173075600Y-110797219D01*
X173114304Y-110758514D01*
X173849695Y-109984419D02*
X173849695Y-110448876D01*
X173849695Y-110216647D02*
X173036895Y-110216647D01*
X173153009Y-110294057D01*
X173230419Y-110371466D01*
X173269123Y-110448876D01*
X173036895Y-109481257D02*
X173036895Y-109403847D01*
X173075600Y-109326438D01*
X173114304Y-109287733D01*
X173191714Y-109249028D01*
X173346533Y-109210323D01*
X173540057Y-109210323D01*
X173694876Y-109249028D01*
X173772285Y-109287733D01*
X173810990Y-109326438D01*
X173849695Y-109403847D01*
X173849695Y-109481257D01*
X173810990Y-109558666D01*
X173772285Y-109597371D01*
X173694876Y-109636076D01*
X173540057Y-109674780D01*
X173346533Y-109674780D01*
X173191714Y-109636076D01*
X173114304Y-109597371D01*
X173075600Y-109558666D01*
X173036895Y-109481257D01*
%TO.C,C11*%
X160310285Y-117870514D02*
X160348990Y-117909219D01*
X160387695Y-118025333D01*
X160387695Y-118102742D01*
X160348990Y-118218857D01*
X160271580Y-118296266D01*
X160194171Y-118334971D01*
X160039352Y-118373676D01*
X159923238Y-118373676D01*
X159768419Y-118334971D01*
X159691009Y-118296266D01*
X159613600Y-118218857D01*
X159574895Y-118102742D01*
X159574895Y-118025333D01*
X159613600Y-117909219D01*
X159652304Y-117870514D01*
X160387695Y-117096419D02*
X160387695Y-117560876D01*
X160387695Y-117328647D02*
X159574895Y-117328647D01*
X159691009Y-117406057D01*
X159768419Y-117483466D01*
X159807123Y-117560876D01*
X160387695Y-116322323D02*
X160387695Y-116786780D01*
X160387695Y-116554552D02*
X159574895Y-116554552D01*
X159691009Y-116631961D01*
X159768419Y-116709371D01*
X159807123Y-116786780D01*
%TO.C,C12*%
X163180485Y-117638285D02*
X163141780Y-117676990D01*
X163025666Y-117715695D01*
X162948257Y-117715695D01*
X162832142Y-117676990D01*
X162754733Y-117599580D01*
X162716028Y-117522171D01*
X162677323Y-117367352D01*
X162677323Y-117251238D01*
X162716028Y-117096419D01*
X162754733Y-117019009D01*
X162832142Y-116941600D01*
X162948257Y-116902895D01*
X163025666Y-116902895D01*
X163141780Y-116941600D01*
X163180485Y-116980304D01*
X163954580Y-117715695D02*
X163490123Y-117715695D01*
X163722352Y-117715695D02*
X163722352Y-116902895D01*
X163644942Y-117019009D01*
X163567533Y-117096419D01*
X163490123Y-117135123D01*
X164264219Y-116980304D02*
X164302923Y-116941600D01*
X164380333Y-116902895D01*
X164573857Y-116902895D01*
X164651266Y-116941600D01*
X164689971Y-116980304D01*
X164728676Y-117057714D01*
X164728676Y-117135123D01*
X164689971Y-117251238D01*
X164225514Y-117715695D01*
X164728676Y-117715695D01*
%TO.C,C13*%
X159751485Y-119289285D02*
X159712780Y-119327990D01*
X159596666Y-119366695D01*
X159519257Y-119366695D01*
X159403142Y-119327990D01*
X159325733Y-119250580D01*
X159287028Y-119173171D01*
X159248323Y-119018352D01*
X159248323Y-118902238D01*
X159287028Y-118747419D01*
X159325733Y-118670009D01*
X159403142Y-118592600D01*
X159519257Y-118553895D01*
X159596666Y-118553895D01*
X159712780Y-118592600D01*
X159751485Y-118631304D01*
X160525580Y-119366695D02*
X160061123Y-119366695D01*
X160293352Y-119366695D02*
X160293352Y-118553895D01*
X160215942Y-118670009D01*
X160138533Y-118747419D01*
X160061123Y-118786123D01*
X160796514Y-118553895D02*
X161299676Y-118553895D01*
X161028742Y-118863533D01*
X161144857Y-118863533D01*
X161222266Y-118902238D01*
X161260971Y-118940942D01*
X161299676Y-119018352D01*
X161299676Y-119211876D01*
X161260971Y-119289285D01*
X161222266Y-119327990D01*
X161144857Y-119366695D01*
X160912628Y-119366695D01*
X160835219Y-119327990D01*
X160796514Y-119289285D01*
%TO.C,C14*%
X159751485Y-120559285D02*
X159712780Y-120597990D01*
X159596666Y-120636695D01*
X159519257Y-120636695D01*
X159403142Y-120597990D01*
X159325733Y-120520580D01*
X159287028Y-120443171D01*
X159248323Y-120288352D01*
X159248323Y-120172238D01*
X159287028Y-120017419D01*
X159325733Y-119940009D01*
X159403142Y-119862600D01*
X159519257Y-119823895D01*
X159596666Y-119823895D01*
X159712780Y-119862600D01*
X159751485Y-119901304D01*
X160525580Y-120636695D02*
X160061123Y-120636695D01*
X160293352Y-120636695D02*
X160293352Y-119823895D01*
X160215942Y-119940009D01*
X160138533Y-120017419D01*
X160061123Y-120056123D01*
X161222266Y-120094828D02*
X161222266Y-120636695D01*
X161028742Y-119785190D02*
X160835219Y-120365761D01*
X161338380Y-120365761D01*
%TO.C,D1*%
X128129695Y-110327923D02*
X127316895Y-110327923D01*
X127316895Y-110134400D01*
X127355600Y-110018285D01*
X127433009Y-109940876D01*
X127510419Y-109902171D01*
X127665238Y-109863466D01*
X127781352Y-109863466D01*
X127936171Y-109902171D01*
X128013580Y-109940876D01*
X128090990Y-110018285D01*
X128129695Y-110134400D01*
X128129695Y-110327923D01*
X128129695Y-109089371D02*
X128129695Y-109553828D01*
X128129695Y-109321600D02*
X127316895Y-109321600D01*
X127433009Y-109399009D01*
X127510419Y-109476419D01*
X127549123Y-109553828D01*
%TO.C,D2*%
X169072076Y-112635695D02*
X169072076Y-111822895D01*
X169265600Y-111822895D01*
X169381714Y-111861600D01*
X169459123Y-111939009D01*
X169497828Y-112016419D01*
X169536533Y-112171238D01*
X169536533Y-112287352D01*
X169497828Y-112442171D01*
X169459123Y-112519580D01*
X169381714Y-112596990D01*
X169265600Y-112635695D01*
X169072076Y-112635695D01*
X169846171Y-111900304D02*
X169884876Y-111861600D01*
X169962285Y-111822895D01*
X170155809Y-111822895D01*
X170233219Y-111861600D01*
X170271923Y-111900304D01*
X170310628Y-111977714D01*
X170310628Y-112055123D01*
X170271923Y-112171238D01*
X169807466Y-112635695D01*
X170310628Y-112635695D01*
%TO.C,D3*%
X169072076Y-118223695D02*
X169072076Y-117410895D01*
X169265600Y-117410895D01*
X169381714Y-117449600D01*
X169459123Y-117527009D01*
X169497828Y-117604419D01*
X169536533Y-117759238D01*
X169536533Y-117875352D01*
X169497828Y-118030171D01*
X169459123Y-118107580D01*
X169381714Y-118184990D01*
X169265600Y-118223695D01*
X169072076Y-118223695D01*
X169807466Y-117410895D02*
X170310628Y-117410895D01*
X170039695Y-117720533D01*
X170155809Y-117720533D01*
X170233219Y-117759238D01*
X170271923Y-117797942D01*
X170310628Y-117875352D01*
X170310628Y-118068876D01*
X170271923Y-118146285D01*
X170233219Y-118184990D01*
X170155809Y-118223695D01*
X169923580Y-118223695D01*
X169846171Y-118184990D01*
X169807466Y-118146285D01*
%TO.C,J1*%
X153478895Y-113046933D02*
X154059466Y-113046933D01*
X154175580Y-113085638D01*
X154252990Y-113163047D01*
X154291695Y-113279161D01*
X154291695Y-113356571D01*
X154291695Y-112234133D02*
X154291695Y-112698590D01*
X154291695Y-112466361D02*
X153478895Y-112466361D01*
X153595009Y-112543771D01*
X153672419Y-112621180D01*
X153711123Y-112698590D01*
%TO.C,J3*%
X170163066Y-106996895D02*
X170163066Y-107577466D01*
X170124361Y-107693580D01*
X170046952Y-107770990D01*
X169930838Y-107809695D01*
X169853428Y-107809695D01*
X170472704Y-106996895D02*
X170975866Y-106996895D01*
X170704933Y-107306533D01*
X170821047Y-107306533D01*
X170898457Y-107345238D01*
X170937161Y-107383942D01*
X170975866Y-107461352D01*
X170975866Y-107654876D01*
X170937161Y-107732285D01*
X170898457Y-107770990D01*
X170821047Y-107809695D01*
X170588819Y-107809695D01*
X170511409Y-107770990D01*
X170472704Y-107732285D01*
%TO.C,J5*%
X175243066Y-106996895D02*
X175243066Y-107577466D01*
X175204361Y-107693580D01*
X175126952Y-107770990D01*
X175010838Y-107809695D01*
X174933428Y-107809695D01*
X176017161Y-106996895D02*
X175630114Y-106996895D01*
X175591409Y-107383942D01*
X175630114Y-107345238D01*
X175707523Y-107306533D01*
X175901047Y-107306533D01*
X175978457Y-107345238D01*
X176017161Y-107383942D01*
X176055866Y-107461352D01*
X176055866Y-107654876D01*
X176017161Y-107732285D01*
X175978457Y-107770990D01*
X175901047Y-107809695D01*
X175707523Y-107809695D01*
X175630114Y-107770990D01*
X175591409Y-107732285D01*
%TO.C,Q1*%
X170879104Y-114631409D02*
X170840400Y-114708819D01*
X170762990Y-114786228D01*
X170646876Y-114902342D01*
X170608171Y-114979752D01*
X170608171Y-115057161D01*
X170801695Y-115018457D02*
X170762990Y-115095866D01*
X170685580Y-115173276D01*
X170530761Y-115211980D01*
X170259828Y-115211980D01*
X170105009Y-115173276D01*
X170027600Y-115095866D01*
X169988895Y-115018457D01*
X169988895Y-114863638D01*
X170027600Y-114786228D01*
X170105009Y-114708819D01*
X170259828Y-114670114D01*
X170530761Y-114670114D01*
X170685580Y-114708819D01*
X170762990Y-114786228D01*
X170801695Y-114863638D01*
X170801695Y-115018457D01*
X170801695Y-113896019D02*
X170801695Y-114360476D01*
X170801695Y-114128247D02*
X169988895Y-114128247D01*
X170105009Y-114205657D01*
X170182419Y-114283066D01*
X170221123Y-114360476D01*
%TO.C,R1*%
X150735695Y-119007466D02*
X150348647Y-119278400D01*
X150735695Y-119471923D02*
X149922895Y-119471923D01*
X149922895Y-119162285D01*
X149961600Y-119084876D01*
X150000304Y-119046171D01*
X150077714Y-119007466D01*
X150193828Y-119007466D01*
X150271238Y-119046171D01*
X150309942Y-119084876D01*
X150348647Y-119162285D01*
X150348647Y-119471923D01*
X150735695Y-118233371D02*
X150735695Y-118697828D01*
X150735695Y-118465600D02*
X149922895Y-118465600D01*
X150039009Y-118543009D01*
X150116419Y-118620419D01*
X150155123Y-118697828D01*
%TO.C,R2*%
X148708533Y-118985695D02*
X148437600Y-118598647D01*
X148244076Y-118985695D02*
X148244076Y-118172895D01*
X148553714Y-118172895D01*
X148631123Y-118211600D01*
X148669828Y-118250304D01*
X148708533Y-118327714D01*
X148708533Y-118443828D01*
X148669828Y-118521238D01*
X148631123Y-118559942D01*
X148553714Y-118598647D01*
X148244076Y-118598647D01*
X149018171Y-118250304D02*
X149056876Y-118211600D01*
X149134285Y-118172895D01*
X149327809Y-118172895D01*
X149405219Y-118211600D01*
X149443923Y-118250304D01*
X149482628Y-118327714D01*
X149482628Y-118405123D01*
X149443923Y-118521238D01*
X148979466Y-118985695D01*
X149482628Y-118985695D01*
%TO.C,R3*%
X142358533Y-108063695D02*
X142087600Y-107676647D01*
X141894076Y-108063695D02*
X141894076Y-107250895D01*
X142203714Y-107250895D01*
X142281123Y-107289600D01*
X142319828Y-107328304D01*
X142358533Y-107405714D01*
X142358533Y-107521828D01*
X142319828Y-107599238D01*
X142281123Y-107637942D01*
X142203714Y-107676647D01*
X141894076Y-107676647D01*
X142629466Y-107250895D02*
X143132628Y-107250895D01*
X142861695Y-107560533D01*
X142977809Y-107560533D01*
X143055219Y-107599238D01*
X143093923Y-107637942D01*
X143132628Y-107715352D01*
X143132628Y-107908876D01*
X143093923Y-107986285D01*
X143055219Y-108024990D01*
X142977809Y-108063695D01*
X142745580Y-108063695D01*
X142668171Y-108024990D01*
X142629466Y-107986285D01*
%TO.C,R4*%
X138289695Y-110879466D02*
X137902647Y-111150400D01*
X138289695Y-111343923D02*
X137476895Y-111343923D01*
X137476895Y-111034285D01*
X137515600Y-110956876D01*
X137554304Y-110918171D01*
X137631714Y-110879466D01*
X137747828Y-110879466D01*
X137825238Y-110918171D01*
X137863942Y-110956876D01*
X137902647Y-111034285D01*
X137902647Y-111343923D01*
X137747828Y-110182780D02*
X138289695Y-110182780D01*
X137438190Y-110376304D02*
X138018761Y-110569828D01*
X138018761Y-110066666D01*
%TO.C,R5*%
X128129695Y-108085466D02*
X127742647Y-108356400D01*
X128129695Y-108549923D02*
X127316895Y-108549923D01*
X127316895Y-108240285D01*
X127355600Y-108162876D01*
X127394304Y-108124171D01*
X127471714Y-108085466D01*
X127587828Y-108085466D01*
X127665238Y-108124171D01*
X127703942Y-108162876D01*
X127742647Y-108240285D01*
X127742647Y-108549923D01*
X127316895Y-107350076D02*
X127316895Y-107737123D01*
X127703942Y-107775828D01*
X127665238Y-107737123D01*
X127626533Y-107659714D01*
X127626533Y-107466190D01*
X127665238Y-107388780D01*
X127703942Y-107350076D01*
X127781352Y-107311371D01*
X127974876Y-107311371D01*
X128052285Y-107350076D01*
X128090990Y-107388780D01*
X128129695Y-107466190D01*
X128129695Y-107659714D01*
X128090990Y-107737123D01*
X128052285Y-107775828D01*
%TO.C,R6*%
X130669695Y-123579466D02*
X130282647Y-123850400D01*
X130669695Y-124043923D02*
X129856895Y-124043923D01*
X129856895Y-123734285D01*
X129895600Y-123656876D01*
X129934304Y-123618171D01*
X130011714Y-123579466D01*
X130127828Y-123579466D01*
X130205238Y-123618171D01*
X130243942Y-123656876D01*
X130282647Y-123734285D01*
X130282647Y-124043923D01*
X129856895Y-122882780D02*
X129856895Y-123037600D01*
X129895600Y-123115009D01*
X129934304Y-123153714D01*
X130050419Y-123231123D01*
X130205238Y-123269828D01*
X130514876Y-123269828D01*
X130592285Y-123231123D01*
X130630990Y-123192419D01*
X130669695Y-123115009D01*
X130669695Y-122960190D01*
X130630990Y-122882780D01*
X130592285Y-122844076D01*
X130514876Y-122805371D01*
X130321352Y-122805371D01*
X130243942Y-122844076D01*
X130205238Y-122882780D01*
X130166533Y-122960190D01*
X130166533Y-123115009D01*
X130205238Y-123192419D01*
X130243942Y-123231123D01*
X130321352Y-123269828D01*
%TO.C,R7*%
X129399695Y-123579466D02*
X129012647Y-123850400D01*
X129399695Y-124043923D02*
X128586895Y-124043923D01*
X128586895Y-123734285D01*
X128625600Y-123656876D01*
X128664304Y-123618171D01*
X128741714Y-123579466D01*
X128857828Y-123579466D01*
X128935238Y-123618171D01*
X128973942Y-123656876D01*
X129012647Y-123734285D01*
X129012647Y-124043923D01*
X128586895Y-123308533D02*
X128586895Y-122766666D01*
X129399695Y-123115009D01*
%TO.C,R8*%
X137273695Y-110625466D02*
X136886647Y-110896400D01*
X137273695Y-111089923D02*
X136460895Y-111089923D01*
X136460895Y-110780285D01*
X136499600Y-110702876D01*
X136538304Y-110664171D01*
X136615714Y-110625466D01*
X136731828Y-110625466D01*
X136809238Y-110664171D01*
X136847942Y-110702876D01*
X136886647Y-110780285D01*
X136886647Y-111089923D01*
X136809238Y-110161009D02*
X136770533Y-110238419D01*
X136731828Y-110277123D01*
X136654419Y-110315828D01*
X136615714Y-110315828D01*
X136538304Y-110277123D01*
X136499600Y-110238419D01*
X136460895Y-110161009D01*
X136460895Y-110006190D01*
X136499600Y-109928780D01*
X136538304Y-109890076D01*
X136615714Y-109851371D01*
X136654419Y-109851371D01*
X136731828Y-109890076D01*
X136770533Y-109928780D01*
X136809238Y-110006190D01*
X136809238Y-110161009D01*
X136847942Y-110238419D01*
X136886647Y-110277123D01*
X136964057Y-110315828D01*
X137118876Y-110315828D01*
X137196285Y-110277123D01*
X137234990Y-110238419D01*
X137273695Y-110161009D01*
X137273695Y-110006190D01*
X137234990Y-109928780D01*
X137196285Y-109890076D01*
X137118876Y-109851371D01*
X136964057Y-109851371D01*
X136886647Y-109890076D01*
X136847942Y-109928780D01*
X136809238Y-110006190D01*
%TO.C,R9*%
X138543695Y-107577466D02*
X138156647Y-107848400D01*
X138543695Y-108041923D02*
X137730895Y-108041923D01*
X137730895Y-107732285D01*
X137769600Y-107654876D01*
X137808304Y-107616171D01*
X137885714Y-107577466D01*
X138001828Y-107577466D01*
X138079238Y-107616171D01*
X138117942Y-107654876D01*
X138156647Y-107732285D01*
X138156647Y-108041923D01*
X138543695Y-107190419D02*
X138543695Y-107035600D01*
X138504990Y-106958190D01*
X138466285Y-106919485D01*
X138350171Y-106842076D01*
X138195352Y-106803371D01*
X137885714Y-106803371D01*
X137808304Y-106842076D01*
X137769600Y-106880780D01*
X137730895Y-106958190D01*
X137730895Y-107113009D01*
X137769600Y-107190419D01*
X137808304Y-107229123D01*
X137885714Y-107267828D01*
X138079238Y-107267828D01*
X138156647Y-107229123D01*
X138195352Y-107190419D01*
X138234057Y-107113009D01*
X138234057Y-106958190D01*
X138195352Y-106880780D01*
X138156647Y-106842076D01*
X138079238Y-106803371D01*
%TO.C,R10*%
X168769695Y-116917514D02*
X168382647Y-117188447D01*
X168769695Y-117381971D02*
X167956895Y-117381971D01*
X167956895Y-117072333D01*
X167995600Y-116994923D01*
X168034304Y-116956219D01*
X168111714Y-116917514D01*
X168227828Y-116917514D01*
X168305238Y-116956219D01*
X168343942Y-116994923D01*
X168382647Y-117072333D01*
X168382647Y-117381971D01*
X168769695Y-116143419D02*
X168769695Y-116607876D01*
X168769695Y-116375647D02*
X167956895Y-116375647D01*
X168073009Y-116453057D01*
X168150419Y-116530466D01*
X168189123Y-116607876D01*
X167956895Y-115640257D02*
X167956895Y-115562847D01*
X167995600Y-115485438D01*
X168034304Y-115446733D01*
X168111714Y-115408028D01*
X168266533Y-115369323D01*
X168460057Y-115369323D01*
X168614876Y-115408028D01*
X168692285Y-115446733D01*
X168730990Y-115485438D01*
X168769695Y-115562847D01*
X168769695Y-115640257D01*
X168730990Y-115717666D01*
X168692285Y-115756371D01*
X168614876Y-115795076D01*
X168460057Y-115833780D01*
X168266533Y-115833780D01*
X168111714Y-115795076D01*
X168034304Y-115756371D01*
X167995600Y-115717666D01*
X167956895Y-115640257D01*
%TO.C,R11*%
X172833695Y-118886514D02*
X172446647Y-119157447D01*
X172833695Y-119350971D02*
X172020895Y-119350971D01*
X172020895Y-119041333D01*
X172059600Y-118963923D01*
X172098304Y-118925219D01*
X172175714Y-118886514D01*
X172291828Y-118886514D01*
X172369238Y-118925219D01*
X172407942Y-118963923D01*
X172446647Y-119041333D01*
X172446647Y-119350971D01*
X172833695Y-118112419D02*
X172833695Y-118576876D01*
X172833695Y-118344647D02*
X172020895Y-118344647D01*
X172137009Y-118422057D01*
X172214419Y-118499466D01*
X172253123Y-118576876D01*
X172833695Y-117338323D02*
X172833695Y-117802780D01*
X172833695Y-117570552D02*
X172020895Y-117570552D01*
X172137009Y-117647961D01*
X172214419Y-117725371D01*
X172253123Y-117802780D01*
%TO.C,R12*%
X173912485Y-118731695D02*
X173641552Y-118344647D01*
X173448028Y-118731695D02*
X173448028Y-117918895D01*
X173757666Y-117918895D01*
X173835076Y-117957600D01*
X173873780Y-117996304D01*
X173912485Y-118073714D01*
X173912485Y-118189828D01*
X173873780Y-118267238D01*
X173835076Y-118305942D01*
X173757666Y-118344647D01*
X173448028Y-118344647D01*
X174686580Y-118731695D02*
X174222123Y-118731695D01*
X174454352Y-118731695D02*
X174454352Y-117918895D01*
X174376942Y-118035009D01*
X174299533Y-118112419D01*
X174222123Y-118151123D01*
X174996219Y-117996304D02*
X175034923Y-117957600D01*
X175112333Y-117918895D01*
X175305857Y-117918895D01*
X175383266Y-117957600D01*
X175421971Y-117996304D01*
X175460676Y-118073714D01*
X175460676Y-118151123D01*
X175421971Y-118267238D01*
X174957514Y-118731695D01*
X175460676Y-118731695D01*
%TO.C,R13*%
X151750485Y-118985695D02*
X151479552Y-118598647D01*
X151286028Y-118985695D02*
X151286028Y-118172895D01*
X151595666Y-118172895D01*
X151673076Y-118211600D01*
X151711780Y-118250304D01*
X151750485Y-118327714D01*
X151750485Y-118443828D01*
X151711780Y-118521238D01*
X151673076Y-118559942D01*
X151595666Y-118598647D01*
X151286028Y-118598647D01*
X152524580Y-118985695D02*
X152060123Y-118985695D01*
X152292352Y-118985695D02*
X152292352Y-118172895D01*
X152214942Y-118289009D01*
X152137533Y-118366419D01*
X152060123Y-118405123D01*
X152795514Y-118172895D02*
X153298676Y-118172895D01*
X153027742Y-118482533D01*
X153143857Y-118482533D01*
X153221266Y-118521238D01*
X153259971Y-118559942D01*
X153298676Y-118637352D01*
X153298676Y-118830876D01*
X153259971Y-118908285D01*
X153221266Y-118946990D01*
X153143857Y-118985695D01*
X152911628Y-118985695D01*
X152834219Y-118946990D01*
X152795514Y-118908285D01*
%TO.C,SW1*%
X153490990Y-116907733D02*
X153529695Y-116791619D01*
X153529695Y-116598095D01*
X153490990Y-116520685D01*
X153452285Y-116481980D01*
X153374876Y-116443276D01*
X153297466Y-116443276D01*
X153220057Y-116481980D01*
X153181352Y-116520685D01*
X153142647Y-116598095D01*
X153103942Y-116752914D01*
X153065238Y-116830323D01*
X153026533Y-116869028D01*
X152949123Y-116907733D01*
X152871714Y-116907733D01*
X152794304Y-116869028D01*
X152755600Y-116830323D01*
X152716895Y-116752914D01*
X152716895Y-116559390D01*
X152755600Y-116443276D01*
X152716895Y-116172342D02*
X153529695Y-115978819D01*
X152949123Y-115824000D01*
X153529695Y-115669180D01*
X152716895Y-115475657D01*
X153529695Y-114740266D02*
X153529695Y-115204723D01*
X153529695Y-114972495D02*
X152716895Y-114972495D01*
X152833009Y-115049904D01*
X152910419Y-115127314D01*
X152949123Y-115204723D01*
%TO.C,SW2*%
X161730266Y-113104990D02*
X161846380Y-113143695D01*
X162039904Y-113143695D01*
X162117314Y-113104990D01*
X162156019Y-113066285D01*
X162194723Y-112988876D01*
X162194723Y-112911466D01*
X162156019Y-112834057D01*
X162117314Y-112795352D01*
X162039904Y-112756647D01*
X161885085Y-112717942D01*
X161807676Y-112679238D01*
X161768971Y-112640533D01*
X161730266Y-112563123D01*
X161730266Y-112485714D01*
X161768971Y-112408304D01*
X161807676Y-112369600D01*
X161885085Y-112330895D01*
X162078609Y-112330895D01*
X162194723Y-112369600D01*
X162465657Y-112330895D02*
X162659180Y-113143695D01*
X162814000Y-112563123D01*
X162968819Y-113143695D01*
X163162342Y-112330895D01*
X163433276Y-112408304D02*
X163471980Y-112369600D01*
X163549390Y-112330895D01*
X163742914Y-112330895D01*
X163820323Y-112369600D01*
X163859028Y-112408304D01*
X163897733Y-112485714D01*
X163897733Y-112563123D01*
X163859028Y-112679238D01*
X163394571Y-113143695D01*
X163897733Y-113143695D01*
%TO.C,U1*%
X127316895Y-123809276D02*
X127974876Y-123809276D01*
X128052285Y-123770571D01*
X128090990Y-123731866D01*
X128129695Y-123654457D01*
X128129695Y-123499638D01*
X128090990Y-123422228D01*
X128052285Y-123383523D01*
X127974876Y-123344819D01*
X127316895Y-123344819D01*
X128129695Y-122532019D02*
X128129695Y-122996476D01*
X128129695Y-122764247D02*
X127316895Y-122764247D01*
X127433009Y-122841657D01*
X127510419Y-122919066D01*
X127549123Y-122996476D01*
%TO.C,U2*%
X152542723Y-119442895D02*
X152542723Y-120100876D01*
X152581428Y-120178285D01*
X152620133Y-120216990D01*
X152697542Y-120255695D01*
X152852361Y-120255695D01*
X152929771Y-120216990D01*
X152968476Y-120178285D01*
X153007180Y-120100876D01*
X153007180Y-119442895D01*
X153355523Y-119520304D02*
X153394228Y-119481600D01*
X153471638Y-119442895D01*
X153665161Y-119442895D01*
X153742571Y-119481600D01*
X153781276Y-119520304D01*
X153819980Y-119597714D01*
X153819980Y-119675123D01*
X153781276Y-119791238D01*
X153316819Y-120255695D01*
X153819980Y-120255695D01*
%TO.C,U3*%
X146446723Y-121982895D02*
X146446723Y-122640876D01*
X146485428Y-122718285D01*
X146524133Y-122756990D01*
X146601542Y-122795695D01*
X146756361Y-122795695D01*
X146833771Y-122756990D01*
X146872476Y-122718285D01*
X146911180Y-122640876D01*
X146911180Y-121982895D01*
X147220819Y-121982895D02*
X147723980Y-121982895D01*
X147453047Y-122292533D01*
X147569161Y-122292533D01*
X147646571Y-122331238D01*
X147685276Y-122369942D01*
X147723980Y-122447352D01*
X147723980Y-122640876D01*
X147685276Y-122718285D01*
X147646571Y-122756990D01*
X147569161Y-122795695D01*
X147336933Y-122795695D01*
X147259523Y-122756990D01*
X147220819Y-122718285D01*
%TO.C,U4*%
X128332895Y-110347276D02*
X128990876Y-110347276D01*
X129068285Y-110308571D01*
X129106990Y-110269866D01*
X129145695Y-110192457D01*
X129145695Y-110037638D01*
X129106990Y-109960228D01*
X129068285Y-109921523D01*
X128990876Y-109882819D01*
X128332895Y-109882819D01*
X128603828Y-109147428D02*
X129145695Y-109147428D01*
X128294190Y-109340952D02*
X128874761Y-109534476D01*
X128874761Y-109031314D01*
%TO.C,U5*%
X139080723Y-125792895D02*
X139080723Y-126450876D01*
X139119428Y-126528285D01*
X139158133Y-126566990D01*
X139235542Y-126605695D01*
X139390361Y-126605695D01*
X139467771Y-126566990D01*
X139506476Y-126528285D01*
X139545180Y-126450876D01*
X139545180Y-125792895D01*
X140319276Y-125792895D02*
X139932228Y-125792895D01*
X139893523Y-126179942D01*
X139932228Y-126141238D01*
X140009638Y-126102533D01*
X140203161Y-126102533D01*
X140280571Y-126141238D01*
X140319276Y-126179942D01*
X140357980Y-126257352D01*
X140357980Y-126450876D01*
X140319276Y-126528285D01*
X140280571Y-126566990D01*
X140203161Y-126605695D01*
X140009638Y-126605695D01*
X139932228Y-126566990D01*
X139893523Y-126528285D01*
%TO.C,U6*%
X160717895Y-118081276D02*
X161375876Y-118081276D01*
X161453285Y-118042571D01*
X161491990Y-118003866D01*
X161530695Y-117926457D01*
X161530695Y-117771638D01*
X161491990Y-117694228D01*
X161453285Y-117655523D01*
X161375876Y-117616819D01*
X160717895Y-117616819D01*
X160717895Y-116881428D02*
X160717895Y-117036247D01*
X160756600Y-117113657D01*
X160795304Y-117152361D01*
X160911419Y-117229771D01*
X161066238Y-117268476D01*
X161375876Y-117268476D01*
X161453285Y-117229771D01*
X161491990Y-117191066D01*
X161530695Y-117113657D01*
X161530695Y-116958838D01*
X161491990Y-116881428D01*
X161453285Y-116842723D01*
X161375876Y-116804019D01*
X161182352Y-116804019D01*
X161104942Y-116842723D01*
X161066238Y-116881428D01*
X161027533Y-116958838D01*
X161027533Y-117113657D01*
X161066238Y-117191066D01*
X161104942Y-117229771D01*
X161182352Y-117268476D01*
%TO.C,U7*%
X172354723Y-115124895D02*
X172354723Y-115782876D01*
X172393428Y-115860285D01*
X172432133Y-115898990D01*
X172509542Y-115937695D01*
X172664361Y-115937695D01*
X172741771Y-115898990D01*
X172780476Y-115860285D01*
X172819180Y-115782876D01*
X172819180Y-115124895D01*
X173128819Y-115124895D02*
X173670685Y-115124895D01*
X173322342Y-115937695D01*
%TD*%
M02*
