M48
; DRILL file {KiCad (5.1.10-1-10_14)} date Sunday, September 19, 2021 at 10:48:29 PM
; FORMAT={-:-/ absolute / inch / decimal}
; #@! TF.CreationDate,2021-09-19T22:48:29-07:00
; #@! TF.GenerationSoftware,Kicad,Pcbnew,(5.1.10-1-10_14)
; #@! TF.FileFunction,Plated,1,4,PTH
FMAT,2
INCH
T1C0.0120
T2C0.0200
T3C0.0236
%
G90
G05
T1
X5.175Y-4.395
X5.1807Y-4.8114
X5.185Y-4.56
X5.1875Y-4.4975
X5.1975Y-4.53
X5.1998Y-4.3699
X5.2013Y-4.59
X5.2193Y-4.9488
X5.2225Y-4.485
X5.23Y-4.3871
X5.23Y-4.66
X5.2536Y-4.3568
X5.2568Y-4.4915
X5.265Y-4.39
X5.27Y-4.7
X5.2743Y-4.4235
X5.28Y-4.23
X5.3Y-4.39
X5.315Y-4.475
X5.34Y-4.96
X5.345Y-4.7286
X5.35Y-4.475
X5.39Y-4.9795
X5.4079Y-4.5862
X5.408Y-4.7183
X5.4107Y-4.8256
X5.415Y-4.88
X5.4175Y-4.25
X5.4177Y-4.5335
X5.4182Y-4.3788
X5.425Y-4.6775
X5.431Y-4.6386
X5.4319Y-4.9572
X5.435Y-4.485
X5.4423Y-4.7223
X5.4514Y-4.8249
X5.452Y-4.8813
X5.4602Y-4.39
X5.4729Y-4.4872
X5.475Y-4.26
X5.4912Y-4.5364
X5.4949Y-4.389
X5.5025Y-4.64
X5.5045Y-4.736
X5.505Y-4.323
X5.51Y-4.58
X5.51Y-4.865
X5.515Y-4.816
X5.525Y-4.67
X5.5262Y-4.614
X5.5313Y-4.9089
X5.5315Y-4.5235
X5.5351Y-4.9415
X5.5407Y-4.7628
X5.5433Y-4.4756
X5.57Y-4.255
X5.57Y-4.82
X5.6178Y-4.5621
X5.6179Y-4.6387
X5.6225Y-4.675
X5.6269Y-4.5967
X5.6305Y-4.5328
X5.6331Y-4.7396
X5.6768Y-4.9512
X5.6908Y-4.8508
X5.7034Y-4.703
X5.7034Y-4.735
X5.7305Y-4.586
X5.74Y-4.976
X5.745Y-4.815
X5.7566Y-4.733
X5.7566Y-4.701
X5.7571Y-4.2508
X5.7725Y-4.4375
X5.7773Y-4.8418
X5.78Y-4.22
X5.7856Y-4.8978
X5.79Y-4.9795
X5.825Y-4.365
X5.83Y-4.6
X5.8327Y-4.863
X5.8447Y-4.937
X5.89Y-4.628
X5.904Y-4.9489
X5.908Y-4.387
X6.0403Y-4.9103
X6.0505Y-4.8077
X6.0584Y-4.9795
X6.085Y-4.825
X6.086Y-4.8892
X6.0943Y-4.9795
X6.095Y-4.445
X6.1233Y-4.8935
X6.14Y-4.737
X6.1721Y-4.839
X6.2Y-4.54
X6.2028Y-4.9465
X6.22Y-4.37
X6.2363Y-4.7487
X6.2513Y-4.6986
X6.27Y-4.82
X6.2775Y-4.75
X6.29Y-4.6932
X6.2961Y-4.9484
X6.322Y-4.7485
X6.3396Y-4.8454
X6.3398Y-4.963
X6.34Y-4.46
X6.3698Y-4.874
X6.39Y-4.9795
X6.4Y-4.5375
X6.43Y-4.9795
X6.4323Y-4.8913
X6.4386Y-4.8297
X6.48Y-4.33
X6.48Y-4.8413
X6.485Y-4.7
X6.4907Y-4.4334
X6.4949Y-4.9429
X6.52Y-4.355
X6.55Y-4.66
X6.56Y-4.35
X6.6Y-4.9725
X6.605Y-4.71
X6.635Y-4.8756
X6.6386Y-4.6151
X6.6475Y-4.9795
X6.652Y-4.5564
X6.6686Y-4.7188
X6.6691Y-4.7716
X6.6715Y-4.8756
X6.69Y-4.37
X6.69Y-4.9795
X6.6921Y-4.6971
X6.71Y-4.88
X6.7145Y-4.7451
X6.7219Y-4.6505
X6.722Y-4.9795
X6.7539Y-4.9815
X6.7649Y-4.6526
X6.7658Y-4.7359
X6.8104Y-4.8796
X6.8193Y-4.8465
X6.825Y-4.45
X6.84Y-4.555
X6.8473Y-4.687
X6.8794Y-4.6887
X6.8816Y-4.7983
X6.9184Y-4.563
X6.9905Y-4.3842
X7.0562Y-4.305
X7.0831Y-4.7968
X7.085Y-4.665
X7.094Y-4.515
X7.1Y-4.835
X7.1Y-4.955
X7.1141Y-4.8063
X7.1151Y-4.433
X7.1152Y-4.4698
X7.1254Y-4.7563
X7.1302Y-4.5082
X7.14Y-4.385
X7.1501Y-4.7098
X7.155Y-4.654
X7.17Y-4.88
X7.18Y-4.95
X7.195Y-4.235
X7.2025Y-4.55
X7.2092Y-4.4319
X7.2095Y-4.825
X7.2095Y-4.7266
X7.2095Y-4.4639
X7.2095Y-4.7586
X7.2095Y-4.7906
X7.2095Y-4.5
X7.2115Y-4.4
T2
X6.2669Y-4.4503
X6.2735Y-4.54
X6.52Y-4.5556
X6.89Y-4.375
T3
G00X5.6699Y-4.3157
M15
G01X5.6699Y-4.2843
M16
G05
G00X5.6699Y-4.4862
M15
G01X5.6699Y-4.4429
M16
G05
G00X6.0101Y-4.3157
M15
G01X6.0101Y-4.2843
M16
G05
G00X6.0101Y-4.4862
M15
G01X6.0101Y-4.4429
M16
G05
T0
M30
